<svg id="Layer_1" data-name="Layer 1" xmlns="http://www.w3.org/2000/svg" xmlns:xlink="http://www.w3.org/1999/xlink" viewBox="0 0 1500 1159"><defs><style>.cls-1{fill:none;}.cls-2{fill:#af5fe5;}.cls-3{clip-path:url(#clip-path);}.cls-4{fill:#5db4ff;}</style><clipPath id="clip-path"><rect class="cls-1" y="0.45" width="1500" height="1159.09"/></clipPath></defs><title>BG3</title><rect class="cls-2" y="0.45" width="1500" height="1159.09"/><g class="cls-3"><path class="cls-4" d="M11.28,34.56h35A1.72,1.72,0,0,0,47.82,32L30.76.52A1.72,1.72,0,0,1,32.27-2h14.3a1.72,1.72,0,0,0,1.58-2.41L31-44a.57.57,0,0,0-1.1.3l4.4,29.23c.13,1-.33,1.9-1.37,1.9L17.12-15.06a1.72,1.72,0,0,0-2.24,1.44L9.56,32.84A1.72,1.72,0,0,0,11.28,34.56Z"/><path class="cls-4" d="M67.39-15.11A17.06,17.06,0,0,0,73.21-2.26l0,0L96.9,20.2l2.35,2.22,2.35-2.22L125.26-2.24l0,0a17.06,17.06,0,0,0,5.82-12.85A17.1,17.1,0,0,0,114-32.21a17.08,17.08,0,0,0-14.75,8.45,17.08,17.08,0,0,0-14.75-8.45A17.1,17.1,0,0,0,67.39-15.11Z"/><path class="cls-4" d="M193.7-29.22,171.94-44.35,150.19-29.22l5.68,33.51,3-9.6,9.73,39.87,7.57-35.94,5.13,13.24,3.79-27.57,1.89,17.29Zm-9.7,0,4,1.89-7.57,10-1.89-4.59L170.19-4.08l-4.32-17.59-4.47,10.29-6.07-15.94,4.15-1.89,12.47-5.68Z"/><path class="cls-4" d="M255.76-10.36s0-.07,0-.21a21.76,21.76,0,0,0-.26-2.38.15.15,0,0,1,0,0c-.71-4.45-3.29-14.65-12.58-31.36C233.62-27.65,231-17.45,230.32-13a.14.14,0,0,0,0,0,21.77,21.77,0,0,0-.26,2.38c0,.07,0,.14,0,.21A12.85,12.85,0,0,0,242.91,2.5,12.85,12.85,0,0,0,255.76-10.36Z"/><path class="cls-4" d="M211.85,19.12a12.56,12.56,0,0,0-.26,2.38A21.77,21.77,0,0,1,211.85,19.12Z"/><path class="cls-4" d="M237.29,21.5a12.56,12.56,0,0,0-.26-2.38A21.76,21.76,0,0,1,237.29,21.5Z"/><path class="cls-4" d="M237.3,21.71s0-.07,0-.21a21.76,21.76,0,0,0-.26-2.38.15.15,0,0,1,0,0c-.71-4.45-3.29-14.65-12.58-31.36-9.29,16.71-11.87,26.91-12.58,31.36a.14.14,0,0,0,0,0,21.77,21.77,0,0,0-.26,2.38c0,.07,0,.14,0,.21a12.86,12.86,0,0,0,25.71,0Z"/><path class="cls-4" d="M332.78,5a5.53,5.53,0,0,0-5.53-5.53h-18.5V-38.82a5.53,5.53,0,0,0-5.53-5.53,5.52,5.52,0,0,0-3.91,1.62,5.52,5.52,0,0,0-1.62,3.91V-.54h-18.5a5.53,5.53,0,0,0,0,11.07h18.5V29a5.53,5.53,0,0,0,11.07,0V10.53h18.5A5.53,5.53,0,0,0,332.78,5Z"/><path class="cls-4" d="M354.49-44.35h35A1.72,1.72,0,0,1,391-41.81L374-10.31a1.72,1.72,0,0,0,1.52,2.55h14.3a1.72,1.72,0,0,1,1.58,2.41L374.21,34.22a.57.57,0,0,1-1.1-.3l4.4-29.23c.13-1-.33-1.9-1.37-1.9L360.32,5.27a1.72,1.72,0,0,1-2.24-1.44l-5.32-46.46A1.72,1.72,0,0,1,354.49-44.35Z"/><path class="cls-4" d="M410.59,5.32a17.06,17.06,0,0,1,5.82-12.85l0,0L440.1-30l2.35-2.22L444.79-30,468.47-7.55l0,0a17.1,17.1,0,1,1-26,21.5,17.1,17.1,0,0,1-31.86-8.65Z"/><path class="cls-4" d="M530.15-11.38,528.26,5.91l-3.79-27.57L519.34-8.41l-7.57-35.94L502-4.48l-3-9.6-5.68,33.51,21.75,15.14,21.76-15.14Zm-15,36.48-12.47-5.68-4.15-1.89L504.6,1.59l4.47,10.29,4.32-17.59,8.38,17.84,1.89-4.59,7.57,10-4,1.89Z"/><path class="cls-4" d="M573.52,3.16a12.56,12.56,0,0,1-.26-2.38A21.77,21.77,0,0,0,573.52,3.16Z"/><path class="cls-4" d="M599,.77a12.56,12.56,0,0,1-.26,2.38A21.76,21.76,0,0,0,599,.77Z"/><path class="cls-4" d="M599,.57s0,.07,0,.21a21.76,21.76,0,0,1-.26,2.38.15.15,0,0,0,0,0c-.71,4.45-3.29,14.65-12.58,31.36C576.82,17.86,574.25,7.66,573.53,3.2a.14.14,0,0,1,0,0,21.77,21.77,0,0,1-.26-2.38c0-.07,0-.14,0-.21A12.86,12.86,0,1,1,599,.57Z"/><path class="cls-4" d="M580.5-31.5s0,.07,0,.21a21.76,21.76,0,0,1-.26,2.38.15.15,0,0,0,0,0c-.71,4.45-3.29,14.65-12.58,31.36-9.29-16.71-11.87-26.91-12.58-31.36a.14.14,0,0,1,0,0,21.77,21.77,0,0,1-.26-2.38c0-.07,0-.14,0-.21a12.85,12.85,0,0,1,12.86-12.86A12.85,12.85,0,0,1,580.5-31.5Z"/><path class="cls-4" d="M676-14.78a5.52,5.52,0,0,1-1.62,3.91,5.52,5.52,0,0,1-3.91,1.62H652V29a5.53,5.53,0,0,1-11.07,0V-9.25h-18.5a5.53,5.53,0,0,1-5.53-5.53,5.52,5.52,0,0,1,1.62-3.91,5.52,5.52,0,0,1,3.91-1.62h18.5v-18.5a5.53,5.53,0,0,1,5.53-5.53,5.52,5.52,0,0,1,3.91,1.62A5.52,5.52,0,0,1,652-38.82v18.5h18.5A5.53,5.53,0,0,1,676-14.78Z"/><path class="cls-4" d="M11.28,247.25h35a1.72,1.72,0,0,0,1.52-2.55l-17.06-31.5a1.72,1.72,0,0,1,1.52-2.55h14.3a1.72,1.72,0,0,0,1.58-2.41L31,168.68a.57.57,0,0,0-1.1.3l4.4,29.23c.13,1-.33,1.9-1.37,1.9l-15.83-2.49a1.72,1.72,0,0,0-2.24,1.44L9.56,245.53A1.72,1.72,0,0,0,11.28,247.25Z"/><path class="cls-4" d="M67.39,197.58a17.06,17.06,0,0,0,5.82,12.85l0,0L96.9,232.89l2.35,2.22,2.35-2.22,23.67-22.44,0,0a17.1,17.1,0,1,0-26-21.5,17.1,17.1,0,0,0-31.86,8.65Z"/><path class="cls-4" d="M193.7,183.47l-21.76-15.14-21.75,15.14L155.86,217l3-9.6,9.73,39.87,7.57-35.94,5.13,13.24L185.05,197l1.89,17.29Zm-9.7,0,4,1.89-7.57,10-1.89-4.59-8.38,17.84L165.86,191l-4.47,10.29-6.07-15.94,4.15-1.89,12.47-5.68Z"/><path class="cls-4" d="M230.31,199.74a12.56,12.56,0,0,0-.26,2.38A21.77,21.77,0,0,1,230.31,199.74Z"/><path class="cls-4" d="M255.76,202.12a12.56,12.56,0,0,0-.26-2.38A21.76,21.76,0,0,1,255.76,202.12Z"/><path class="cls-4" d="M255.76,202.33s0-.07,0-.21a21.76,21.76,0,0,0-.26-2.38.15.15,0,0,1,0,0c-.71-4.45-3.29-14.65-12.58-31.36C233.62,185,231,195.24,230.32,199.7a.14.14,0,0,0,0,0,21.77,21.77,0,0,0-.26,2.38c0,.07,0,.14,0,.21a12.86,12.86,0,1,0,25.71,0Z"/><path class="cls-4" d="M211.85,231.81a12.56,12.56,0,0,0-.26,2.38A21.77,21.77,0,0,1,211.85,231.81Z"/><path class="cls-4" d="M237.29,234.19a12.56,12.56,0,0,0-.26-2.38A21.76,21.76,0,0,1,237.29,234.19Z"/><path class="cls-4" d="M237.3,234.4s0-.07,0-.21a21.76,21.76,0,0,0-.26-2.38.15.15,0,0,1,0,0c-.71-4.45-3.29-14.65-12.58-31.36-9.29,16.71-11.87,26.91-12.58,31.36a.14.14,0,0,0,0,0,21.77,21.77,0,0,0-.26,2.38c0,.07,0,.14,0,.21a12.86,12.86,0,0,0,25.71,0Z"/><path class="cls-4" d="M332.78,217.68a5.53,5.53,0,0,0-5.53-5.53h-18.5V173.87a5.53,5.53,0,0,0-11.07,0v38.28h-18.5a5.53,5.53,0,0,0,0,11.07h18.5v18.5a5.53,5.53,0,0,0,11.07,0v-18.5h18.5A5.53,5.53,0,0,0,332.78,217.68Z"/><path class="cls-4" d="M354.49,168.34h35a1.72,1.72,0,0,1,1.52,2.55L374,202.38a1.72,1.72,0,0,0,1.52,2.55h14.3a1.72,1.72,0,0,1,1.58,2.41L374.21,246.9a.57.57,0,0,1-1.1-.3l4.4-29.23c.13-1-.33-1.9-1.37-1.9L360.32,218a1.72,1.72,0,0,1-2.24-1.44l-5.32-46.46A1.72,1.72,0,0,1,354.49,168.34Z"/><path class="cls-4" d="M410.59,218a17.06,17.06,0,0,1,5.82-12.85l0,0L440.1,182.7l2.35-2.22,2.35,2.22,23.67,22.44,0,0a17.1,17.1,0,1,1-26,21.5A17.1,17.1,0,0,1,410.59,218Z"/><path class="cls-4" d="M530.15,201.31l-1.89,17.29L524.47,191l-5.13,13.24-7.57-35.94L502,208.21l-3-9.6-5.68,33.51,21.75,15.14,21.76-15.14Zm-15,36.48-12.47-5.68-4.15-1.89,6.07-15.94,4.47,10.29L513.39,207l8.38,17.84,1.89-4.59,7.57,10-4,1.89Z"/><path class="cls-4" d="M573.52,215.85a12.56,12.56,0,0,1-.26-2.38A21.77,21.77,0,0,0,573.52,215.85Z"/><path class="cls-4" d="M599,213.46a12.56,12.56,0,0,1-.26,2.38A21.76,21.76,0,0,0,599,213.46Z"/><path class="cls-4" d="M599,213.26s0,.07,0,.21a21.76,21.76,0,0,1-.26,2.38.15.15,0,0,0,0,0c-.71,4.45-3.29,14.65-12.58,31.36-9.29-16.71-11.87-26.91-12.58-31.36a.14.14,0,0,1,0,0,21.77,21.77,0,0,1-.26-2.38c0-.07,0-.14,0-.21a12.86,12.86,0,1,1,25.71,0Z"/><path class="cls-4" d="M555.05,183.78a12.56,12.56,0,0,1-.26-2.38A21.77,21.77,0,0,0,555.05,183.78Z"/><path class="cls-4" d="M580.5,181.4a12.56,12.56,0,0,1-.26,2.38A21.76,21.76,0,0,0,580.5,181.4Z"/><path class="cls-4" d="M580.5,181.19s0,.07,0,.21a21.76,21.76,0,0,1-.26,2.38.15.15,0,0,0,0,0c-.71,4.45-3.29,14.65-12.58,31.36-9.29-16.71-11.87-26.91-12.58-31.36a.14.14,0,0,1,0,0,21.77,21.77,0,0,1-.26-2.38c0-.07,0-.14,0-.21a12.86,12.86,0,0,1,25.71,0Z"/><path class="cls-4" d="M676,197.9a5.53,5.53,0,0,1-5.53,5.53H652v38.28a5.53,5.53,0,0,1-11.07,0V203.44h-18.5a5.53,5.53,0,0,1,0-11.07h18.5v-18.5a5.53,5.53,0,0,1,11.07,0v18.5h18.5A5.53,5.53,0,0,1,676,197.9Z"/><path class="cls-4" d="M16.67,93.4a12.56,12.56,0,0,0-.26,2.38A21.77,21.77,0,0,1,16.67,93.4Z"/><path class="cls-4" d="M42.11,95.78a12.56,12.56,0,0,0-.26-2.38A21.76,21.76,0,0,1,42.11,95.78Z"/><path class="cls-4" d="M42.11,96s0-.07,0-.21a21.76,21.76,0,0,0-.26-2.38.15.15,0,0,1,0,0C41.12,88.9,38.55,78.7,29.26,62,20,78.7,17.39,88.9,16.67,93.35a.14.14,0,0,0,0,0,21.77,21.77,0,0,0-.26,2.38c0,.07,0,.14,0,.21a12.86,12.86,0,0,0,25.71,0Z"/><path class="cls-4" d="M23.64,127.84a12.56,12.56,0,0,0-.26-2.38A21.76,21.76,0,0,1,23.64,127.84Z"/><path class="cls-4" d="M23.65,128.05s0-.07,0-.21a21.76,21.76,0,0,0-.26-2.38.15.15,0,0,1,0,0c-.71-4.45-3.29-14.65-12.58-31.36C1.5,110.76-1.08,121-1.79,125.42a.14.14,0,0,0,0,0,21.77,21.77,0,0,0-.26,2.38c0,.07,0,.14,0,.21a12.86,12.86,0,0,0,25.71,0Z"/><path class="cls-4" d="M119.13,111.34a5.53,5.53,0,0,0-5.53-5.53H95.1V67.52a5.53,5.53,0,0,0-11.07,0v38.28H65.53a5.53,5.53,0,0,0,0,11.07H84v18.5a5.53,5.53,0,0,0,11.07,0v-18.5h18.5A5.53,5.53,0,0,0,119.13,111.34Z"/><path class="cls-4" d="M143.12,62h35a1.72,1.72,0,0,1,1.52,2.55L162.6,96a1.72,1.72,0,0,0,1.52,2.55h14.3A1.72,1.72,0,0,1,180,101l-17.15,39.57a.57.57,0,0,1-1.1-.3l4.4-29.23c.13-1-.33-1.9-1.37-1.9L149,111.62a1.72,1.72,0,0,1-2.24-1.44L141.4,63.72A1.72,1.72,0,0,1,143.12,62Z"/><path class="cls-4" d="M199.22,111.67A17.06,17.06,0,0,1,205,98.82l0,0,23.67-22.44,2.35-2.22,2.35,2.22L257.1,98.8l0,0a17.1,17.1,0,1,1-26,21.5,17.1,17.1,0,0,1-31.86-8.65Z"/><path class="cls-4" d="M318.78,95l-1.89,17.29-3.79-27.57L308,97.94,300.4,62l-9.73,39.87-3-9.6L282,125.77l21.75,15.14,21.76-15.14Zm-15,36.48-12.47-5.68-4.15-1.89,6.07-15.94,4.47,10.29L302,100.64l8.38,17.84,1.89-4.59,7.57,10-4,1.89Z"/><path class="cls-4" d="M362.15,109.5a12.56,12.56,0,0,1-.26-2.38A21.77,21.77,0,0,0,362.15,109.5Z"/><path class="cls-4" d="M387.6,107.12a12.56,12.56,0,0,1-.26,2.38A21.76,21.76,0,0,0,387.6,107.12Z"/><path class="cls-4" d="M387.6,106.91s0,.07,0,.21a21.76,21.76,0,0,1-.26,2.38.15.15,0,0,0,0,0c-.71,4.45-3.29,14.65-12.58,31.36-9.29-16.71-11.87-26.91-12.58-31.36a.14.14,0,0,1,0,0,21.77,21.77,0,0,1-.26-2.38c0-.07,0-.14,0-.21a12.86,12.86,0,1,1,25.71,0Z"/><path class="cls-4" d="M343.69,77.44a12.56,12.56,0,0,1-.26-2.38A21.77,21.77,0,0,0,343.69,77.44Z"/><path class="cls-4" d="M369.13,75.05a12.56,12.56,0,0,1-.26,2.38A21.76,21.76,0,0,0,369.13,75.05Z"/><path class="cls-4" d="M369.13,74.85s0,.07,0,.21a21.76,21.76,0,0,1-.26,2.38.15.15,0,0,0,0,0c-.71,4.45-3.29,14.65-12.58,31.36C347,92.14,344.41,81.94,343.7,77.48a.14.14,0,0,1,0,0,21.77,21.77,0,0,1-.26-2.38c0-.07,0-.14,0-.21a12.86,12.86,0,1,1,25.71,0Z"/><path class="cls-4" d="M464.62,91.56a5.53,5.53,0,0,1-5.53,5.53h-18.5v38.28a5.53,5.53,0,0,1-11.07,0V97.09H411A5.53,5.53,0,0,1,411,86h18.5V67.52a5.53,5.53,0,0,1,11.07,0V86h18.5A5.53,5.53,0,0,1,464.62,91.56Z"/><path class="cls-4" d="M486.33,140.91h35a1.72,1.72,0,0,0,1.52-2.55l-17.06-31.5a1.72,1.72,0,0,1,1.52-2.55h14.3a1.72,1.72,0,0,0,1.58-2.41L506,62.34a.57.57,0,0,0-1.1.3l4.4,29.23c.13,1-.33,1.9-1.37,1.9l-15.83-2.49a1.72,1.72,0,0,0-2.24,1.44l-5.32,46.46A1.72,1.72,0,0,0,486.33,140.91Z"/><path class="cls-4" d="M542.43,91.23a17.06,17.06,0,0,0,5.82,12.85l0,0,23.67,22.44,2.35,2.22,2.35-2.22L600.3,104.1l0,0a17.1,17.1,0,1,0-26-21.5,17.1,17.1,0,0,0-31.86,8.65Z"/><path class="cls-4" d="M668.74,77.13,647,62,625.23,77.13l5.68,33.51,3-9.6,9.73,39.87L651.18,105l5.13,13.24,3.79-27.57L662,107.93Zm-9.7,0,4,1.89L655.5,89l-1.89-4.59-8.38,17.84-4.32-17.59L636.43,95,630.37,79l4.15-1.89L647,71.45Z"/><path class="cls-4" d="M705.36,93.4a12.56,12.56,0,0,0-.26,2.38A21.77,21.77,0,0,1,705.36,93.4Z"/><path class="cls-4" d="M730.8,95.78a12.56,12.56,0,0,0-.26-2.38A21.76,21.76,0,0,1,730.8,95.78Z"/><path class="cls-4" d="M730.81,96s0-.07,0-.21a21.76,21.76,0,0,0-.26-2.38.15.15,0,0,1,0,0C729.82,88.9,727.24,78.7,718,62c-9.29,16.71-11.87,26.91-12.58,31.36a.14.14,0,0,0,0,0,21.77,21.77,0,0,0-.26,2.38c0,.07,0,.14,0,.21a12.86,12.86,0,0,0,25.71,0Z"/><path class="cls-4" d="M686.89,125.46a12.56,12.56,0,0,0-.26,2.38A21.77,21.77,0,0,1,686.89,125.46Z"/><path class="cls-4" d="M712.33,127.84a12.56,12.56,0,0,0-.26-2.38A21.76,21.76,0,0,1,712.33,127.84Z"/><path class="cls-4" d="M712.34,128.05s0-.07,0-.21a21.76,21.76,0,0,0-.26-2.38.15.15,0,0,1,0,0c-.71-4.45-3.29-14.65-12.58-31.36-9.29,16.71-11.87,26.91-12.58,31.36a.14.14,0,0,0,0,0,21.77,21.77,0,0,0-.26,2.38c0,.07,0,.14,0,.21a12.86,12.86,0,0,0,25.71,0Z"/><path class="cls-4" d="M807.82,111.34a5.53,5.53,0,0,0-5.53-5.53h-18.5V67.52a5.53,5.53,0,0,0-11.07,0v38.28h-18.5a5.53,5.53,0,0,0,0,11.07h18.5v18.5a5.53,5.53,0,0,0,11.07,0v-18.5h18.5A5.53,5.53,0,0,0,807.82,111.34Z"/><path class="cls-4" d="M11.28,672.63h35a1.72,1.72,0,0,0,1.52-2.55l-17.06-31.5A1.72,1.72,0,0,1,32.27,636h14.3a1.72,1.72,0,0,0,1.58-2.41L31,594.06a.57.57,0,0,0-1.1.3l4.4,29.23c.13,1-.33,1.9-1.37,1.9L17.12,623a1.72,1.72,0,0,0-2.24,1.44L9.56,670.91A1.72,1.72,0,0,0,11.28,672.63Z"/><path class="cls-4" d="M67.39,623a17.06,17.06,0,0,0,5.82,12.85l0,0L96.9,658.26l2.35,2.22,2.35-2.22,23.67-22.44,0,0a17.1,17.1,0,1,0-26-21.5A17.1,17.1,0,0,0,67.39,623Z"/><path class="cls-4" d="M193.7,608.85l-21.76-15.14-21.75,15.14,5.68,33.51,3-9.6,9.73,39.87,7.57-35.94,5.13,13.24,3.79-27.57,1.89,17.29Zm-9.7,0,4,1.89-7.57,10-1.89-4.59L170.19,634l-4.32-17.59-4.47,10.29-6.07-15.94,4.15-1.89,12.47-5.68Z"/><path class="cls-4" d="M230.31,625.12a12.56,12.56,0,0,0-.26,2.38A21.77,21.77,0,0,1,230.31,625.12Z"/><path class="cls-4" d="M255.76,627.5a12.56,12.56,0,0,0-.26-2.38A21.76,21.76,0,0,1,255.76,627.5Z"/><path class="cls-4" d="M255.76,627.71s0-.07,0-.21a21.76,21.76,0,0,0-.26-2.38.15.15,0,0,1,0,0c-.71-4.45-3.29-14.65-12.58-31.36-9.29,16.71-11.87,26.91-12.58,31.36a.14.14,0,0,0,0,0,21.77,21.77,0,0,0-.26,2.38c0,.07,0,.14,0,.21a12.86,12.86,0,1,0,25.71,0Z"/><path class="cls-4" d="M211.85,657.18a12.56,12.56,0,0,0-.26,2.38A21.77,21.77,0,0,1,211.85,657.18Z"/><path class="cls-4" d="M237.29,659.57a12.56,12.56,0,0,0-.26-2.38A21.76,21.76,0,0,1,237.29,659.57Z"/><path class="cls-4" d="M237.3,659.78s0-.07,0-.21a21.76,21.76,0,0,0-.26-2.38.15.15,0,0,1,0,0c-.71-4.45-3.29-14.65-12.58-31.36-9.29,16.71-11.87,26.91-12.58,31.36a.14.14,0,0,0,0,0,21.77,21.77,0,0,0-.26,2.38c0,.07,0,.14,0,.21a12.86,12.86,0,0,0,25.71,0Z"/><path class="cls-4" d="M332.78,643.06a5.53,5.53,0,0,0-5.53-5.53h-18.5V599.25a5.53,5.53,0,0,0-11.07,0v38.28h-18.5a5.53,5.53,0,0,0,0,11.07h18.5v18.5a5.53,5.53,0,0,0,11.07,0v-18.5h18.5A5.53,5.53,0,0,0,332.78,643.06Z"/><path class="cls-4" d="M354.49,593.71h35a1.72,1.72,0,0,1,1.52,2.55L374,627.76a1.72,1.72,0,0,0,1.52,2.55h14.3a1.72,1.72,0,0,1,1.58,2.41l-17.15,39.57a.57.57,0,0,1-1.1-.3l4.4-29.23c.13-1-.33-1.9-1.37-1.9l-15.83,2.49a1.72,1.72,0,0,1-2.24-1.44l-5.32-46.46A1.72,1.72,0,0,1,354.49,593.71Z"/><path class="cls-4" d="M410.59,643.39a17.06,17.06,0,0,1,5.82-12.85l0,0,23.67-22.44,2.35-2.22,2.35,2.22,23.67,22.44,0,0a17.1,17.1,0,1,1-26,21.5,17.1,17.1,0,0,1-31.86-8.65Z"/><path class="cls-4" d="M530.15,626.69,528.26,644l-3.79-27.57-5.13,13.24-7.57-35.94L502,633.59l-3-9.6-5.68,33.51,21.75,15.14,21.76-15.14Zm-15,36.48-12.47-5.68-4.15-1.89,6.07-15.94L509.07,650l4.32-17.59,8.38,17.84,1.89-4.59,7.57,10-4,1.89Z"/><path class="cls-4" d="M573.52,641.23a12.56,12.56,0,0,1-.26-2.38A21.77,21.77,0,0,0,573.52,641.23Z"/><path class="cls-4" d="M599,638.84a12.56,12.56,0,0,1-.26,2.38A21.76,21.76,0,0,0,599,638.84Z"/><path class="cls-4" d="M599,638.63s0,.07,0,.21a21.76,21.76,0,0,1-.26,2.38.15.15,0,0,0,0,0c-.71,4.45-3.29,14.65-12.58,31.36-9.29-16.71-11.87-26.91-12.58-31.36a.14.14,0,0,1,0,0,21.77,21.77,0,0,1-.26-2.38c0-.07,0-.14,0-.21a12.86,12.86,0,1,1,25.71,0Z"/><path class="cls-4" d="M555.05,609.16a12.56,12.56,0,0,1-.26-2.38A21.77,21.77,0,0,0,555.05,609.16Z"/><path class="cls-4" d="M580.5,606.78a12.56,12.56,0,0,1-.26,2.38A21.76,21.76,0,0,0,580.5,606.78Z"/><path class="cls-4" d="M580.5,606.57s0,.07,0,.21a21.76,21.76,0,0,1-.26,2.38.15.15,0,0,0,0,0c-.71,4.45-3.29,14.65-12.58,31.36-9.29-16.71-11.87-26.91-12.58-31.36a.14.14,0,0,1,0,0,21.77,21.77,0,0,1-.26-2.38c0-.07,0-.14,0-.21a12.86,12.86,0,0,1,25.71,0Z"/><path class="cls-4" d="M676,623.28a5.53,5.53,0,0,1-5.53,5.53H652V667.1a5.53,5.53,0,0,1-11.07,0V628.82h-18.5a5.53,5.53,0,0,1,0-11.07h18.5v-18.5a5.53,5.53,0,0,1,11.07,0v18.5h18.5A5.53,5.53,0,0,1,676,623.28Z"/><path class="cls-4" d="M11.28,885.32h35a1.72,1.72,0,0,0,1.52-2.55l-17.06-31.5a1.72,1.72,0,0,1,1.52-2.55h14.3a1.72,1.72,0,0,0,1.58-2.41L31,806.75a.57.57,0,0,0-1.1.3l4.4,29.23c.13,1-.33,1.9-1.37,1.9l-15.83-2.49a1.72,1.72,0,0,0-2.24,1.44L9.56,883.6A1.72,1.72,0,0,0,11.28,885.32Z"/><path class="cls-4" d="M67.39,835.64a17.06,17.06,0,0,0,5.82,12.85l0,0L96.9,871l2.35,2.22,2.35-2.22,23.67-22.44,0,0a17.1,17.1,0,1,0-26-21.5,17.1,17.1,0,0,0-31.86,8.65Z"/><path class="cls-4" d="M193.7,821.54,171.94,806.4l-21.75,15.14L155.86,855l3-9.6,9.73,39.87,7.57-35.94,5.13,13.24,3.79-27.57,1.89,17.29Zm-9.7,0,4,1.89-7.57,10-1.89-4.59-8.38,17.84-4.32-17.59-4.47,10.29-6.07-15.94,4.15-1.89,12.47-5.68Z"/><path class="cls-4" d="M230.31,837.81a12.56,12.56,0,0,0-.26,2.38A21.77,21.77,0,0,1,230.31,837.81Z"/><path class="cls-4" d="M255.76,840.19a12.56,12.56,0,0,0-.26-2.38A21.76,21.76,0,0,1,255.76,840.19Z"/><path class="cls-4" d="M255.76,840.4s0-.07,0-.21a21.76,21.76,0,0,0-.26-2.38.15.15,0,0,1,0,0c-.71-4.45-3.29-14.65-12.58-31.36-9.29,16.71-11.87,26.91-12.58,31.36a.14.14,0,0,0,0,0,21.77,21.77,0,0,0-.26,2.38c0,.07,0,.14,0,.21a12.86,12.86,0,0,0,25.71,0Z"/><path class="cls-4" d="M211.85,869.87a12.56,12.56,0,0,0-.26,2.38A21.77,21.77,0,0,1,211.85,869.87Z"/><path class="cls-4" d="M237.29,872.26a12.56,12.56,0,0,0-.26-2.38A21.76,21.76,0,0,1,237.29,872.26Z"/><path class="cls-4" d="M237.3,872.46s0-.07,0-.21a21.76,21.76,0,0,0-.26-2.38.15.15,0,0,1,0,0c-.71-4.45-3.29-14.65-12.58-31.36-9.29,16.71-11.87,26.91-12.58,31.36a.14.14,0,0,0,0,0,21.77,21.77,0,0,0-.26,2.38c0,.07,0,.14,0,.21a12.86,12.86,0,0,0,25.71,0Z"/><path class="cls-4" d="M332.78,855.75a5.53,5.53,0,0,0-5.53-5.53h-18.5V811.94a5.53,5.53,0,0,0-11.07,0v38.28h-18.5a5.53,5.53,0,0,0,0,11.07h18.5v18.5a5.53,5.53,0,0,0,11.07,0v-18.5h18.5A5.53,5.53,0,0,0,332.78,855.75Z"/><path class="cls-4" d="M354.49,806.4h35a1.72,1.72,0,0,1,1.52,2.55L374,840.45a1.72,1.72,0,0,0,1.52,2.55h14.3a1.72,1.72,0,0,1,1.58,2.41L374.21,885a.57.57,0,0,1-1.1-.3l4.4-29.23c.13-1-.33-1.9-1.37-1.9L360.32,856a1.72,1.72,0,0,1-2.24-1.44l-5.32-46.46A1.72,1.72,0,0,1,354.49,806.4Z"/><path class="cls-4" d="M410.59,856.08a17.06,17.06,0,0,1,5.82-12.85l0,0,23.67-22.44,2.35-2.22,2.35,2.22,23.67,22.44,0,0a17.1,17.1,0,1,1-26,21.5,17.1,17.1,0,0,1-31.86-8.65Z"/><path class="cls-4" d="M530.15,839.38l-1.89,17.29-3.79-27.57-5.13,13.24-7.57-35.94L502,846.28l-3-9.6-5.68,33.51,21.75,15.14,21.76-15.14Zm-15,36.48-12.47-5.68-4.15-1.89,6.07-15.94,4.47,10.29,4.32-17.59,8.38,17.84,1.89-4.59,7.57,10-4,1.89Z"/><path class="cls-4" d="M573.52,853.91a12.56,12.56,0,0,1-.26-2.38A21.77,21.77,0,0,0,573.52,853.91Z"/><path class="cls-4" d="M599,851.53a12.56,12.56,0,0,1-.26,2.38A21.76,21.76,0,0,0,599,851.53Z"/><path class="cls-4" d="M599,851.32s0,.07,0,.21a21.76,21.76,0,0,1-.26,2.38.15.15,0,0,0,0,0c-.71,4.45-3.29,14.65-12.58,31.36-9.29-16.71-11.87-26.91-12.58-31.36a.14.14,0,0,1,0,0,21.77,21.77,0,0,1-.26-2.38c0-.07,0-.14,0-.21a12.86,12.86,0,0,1,25.71,0Z"/><path class="cls-4" d="M555.05,821.85a12.56,12.56,0,0,1-.26-2.38A21.77,21.77,0,0,0,555.05,821.85Z"/><path class="cls-4" d="M580.5,819.47a12.56,12.56,0,0,1-.26,2.38A21.76,21.76,0,0,0,580.5,819.47Z"/><path class="cls-4" d="M580.5,819.26s0,.07,0,.21a21.76,21.76,0,0,1-.26,2.38.15.15,0,0,0,0,0c-.71,4.45-3.29,14.65-12.58,31.36-9.29-16.71-11.87-26.91-12.58-31.36a.14.14,0,0,1,0,0,21.77,21.77,0,0,1-.26-2.38c0-.07,0-.14,0-.21a12.86,12.86,0,0,1,25.71,0Z"/><path class="cls-4" d="M676,836a5.53,5.53,0,0,1-5.53,5.53H652v38.28a5.53,5.53,0,0,1-11.07,0V841.51h-18.5a5.53,5.53,0,0,1,0-11.07h18.5v-18.5a5.53,5.53,0,0,1,11.07,0v18.5h18.5A5.53,5.53,0,0,1,676,836Z"/><path class="cls-4" d="M16.67,731.46a12.56,12.56,0,0,0-.26,2.38A21.77,21.77,0,0,1,16.67,731.46Z"/><path class="cls-4" d="M42.11,733.85a12.56,12.56,0,0,0-.26-2.38A21.76,21.76,0,0,1,42.11,733.85Z"/><path class="cls-4" d="M42.11,734.06s0-.07,0-.21a21.76,21.76,0,0,0-.26-2.38.15.15,0,0,1,0,0c-.71-4.45-3.29-14.65-12.58-31.36C20,716.77,17.39,727,16.67,731.42a.14.14,0,0,0,0,0,21.77,21.77,0,0,0-.26,2.38c0,.07,0,.14,0,.21a12.86,12.86,0,0,0,25.71,0Z"/><path class="cls-4" d="M23.64,765.91a12.56,12.56,0,0,0-.26-2.38A21.76,21.76,0,0,1,23.64,765.91Z"/><path class="cls-4" d="M23.65,766.12s0-.07,0-.21a21.76,21.76,0,0,0-.26-2.38.15.15,0,0,1,0,0c-.71-4.45-3.29-14.65-12.58-31.36C1.5,748.83-1.08,759-1.79,763.48a.14.14,0,0,0,0,0,21.77,21.77,0,0,0-.26,2.38c0,.07,0,.14,0,.21a12.86,12.86,0,1,0,25.71,0Z"/><path class="cls-4" d="M119.13,749.41a5.53,5.53,0,0,0-5.53-5.53H95.1V705.59a5.53,5.53,0,0,0-11.07,0v38.28H65.53a5.53,5.53,0,0,0,0,11.07H84v18.5a5.53,5.53,0,0,0,11.07,0v-18.5h18.5A5.53,5.53,0,0,0,119.13,749.41Z"/><path class="cls-4" d="M143.12,700.06h35a1.72,1.72,0,0,1,1.52,2.55L162.6,734.1a1.72,1.72,0,0,0,1.52,2.55h14.3a1.72,1.72,0,0,1,1.58,2.41l-17.15,39.57a.57.57,0,0,1-1.1-.3l4.4-29.23c.13-1-.33-1.9-1.37-1.9L149,749.69a1.72,1.72,0,0,1-2.24-1.44l-5.32-46.46A1.72,1.72,0,0,1,143.12,700.06Z"/><path class="cls-4" d="M199.22,749.74A17.06,17.06,0,0,1,205,736.88l0,0,23.67-22.44,2.35-2.22,2.35,2.22,23.67,22.44,0,0a17.1,17.1,0,1,1-26,21.5,17.1,17.1,0,0,1-31.86-8.65Z"/><path class="cls-4" d="M318.78,733l-1.89,17.29-3.79-27.57L308,736l-7.57-35.94-9.73,39.87-3-9.6L282,763.84,303.78,779l21.76-15.14Zm-15,36.48-12.47-5.68-4.15-1.89L293.23,746l4.47,10.29L302,738.71l8.38,17.84,1.89-4.59,7.57,10-4,1.89Z"/><path class="cls-4" d="M362.15,747.57a12.56,12.56,0,0,1-.26-2.38A21.77,21.77,0,0,0,362.15,747.57Z"/><path class="cls-4" d="M387.6,745.19a12.56,12.56,0,0,1-.26,2.38A21.76,21.76,0,0,0,387.6,745.19Z"/><path class="cls-4" d="M387.6,745s0,.07,0,.21a21.76,21.76,0,0,1-.26,2.38.15.15,0,0,0,0,0c-.71,4.45-3.29,14.65-12.58,31.36-9.29-16.71-11.87-26.91-12.58-31.36a.14.14,0,0,1,0,0,21.77,21.77,0,0,1-.26-2.38c0-.07,0-.14,0-.21a12.86,12.86,0,0,1,25.71,0Z"/><path class="cls-4" d="M343.69,715.51a12.56,12.56,0,0,1-.26-2.38A21.77,21.77,0,0,0,343.69,715.51Z"/><path class="cls-4" d="M369.13,713.12a12.56,12.56,0,0,1-.26,2.38A21.76,21.76,0,0,0,369.13,713.12Z"/><path class="cls-4" d="M369.13,712.91s0,.07,0,.21a21.76,21.76,0,0,1-.26,2.38.15.15,0,0,0,0,0c-.71,4.45-3.29,14.65-12.58,31.36C347,730.2,344.41,720,343.7,715.55a.14.14,0,0,1,0,0,21.77,21.77,0,0,1-.26-2.38c0-.07,0-.14,0-.21a12.86,12.86,0,1,1,25.71,0Z"/><path class="cls-4" d="M464.62,729.63a5.53,5.53,0,0,1-5.53,5.53h-18.5v38.28a5.53,5.53,0,0,1-11.07,0V735.16H411a5.53,5.53,0,0,1,0-11.07h18.5v-18.5a5.53,5.53,0,0,1,11.07,0v18.5h18.5A5.53,5.53,0,0,1,464.62,729.63Z"/><path class="cls-4" d="M486.33,779h35a1.72,1.72,0,0,0,1.52-2.55l-17.06-31.5a1.72,1.72,0,0,1,1.52-2.55h14.3A1.72,1.72,0,0,0,523.2,740L506,700.41a.57.57,0,0,0-1.1.3l4.4,29.23c.13,1-.33,1.9-1.37,1.9l-15.83-2.49a1.72,1.72,0,0,0-2.24,1.44l-5.32,46.46A1.72,1.72,0,0,0,486.33,779Z"/><path class="cls-4" d="M542.43,729.3a17.06,17.06,0,0,0,5.82,12.85l0,0,23.67,22.44,2.35,2.22,2.35-2.22,23.67-22.44,0,0a17.1,17.1,0,1,0-26-21.5,17.1,17.1,0,0,0-31.86,8.65Z"/><path class="cls-4" d="M668.74,715.19,647,700.06l-21.75,15.14,5.68,33.51,3-9.6L643.61,779,651.18,743l5.13,13.24,3.79-27.57L662,746Zm-9.7,0,4,1.89-7.57,10-1.89-4.59-8.38,17.84-4.32-17.59L636.43,733l-6.07-15.94,4.15-1.89L647,709.52Z"/><path class="cls-4" d="M705.36,731.46a12.56,12.56,0,0,0-.26,2.38A21.77,21.77,0,0,1,705.36,731.46Z"/><path class="cls-4" d="M730.8,733.85a12.56,12.56,0,0,0-.26-2.38A21.76,21.76,0,0,1,730.8,733.85Z"/><path class="cls-4" d="M730.81,734.06s0-.07,0-.21a21.76,21.76,0,0,0-.26-2.38.15.15,0,0,1,0,0c-.71-4.45-3.29-14.65-12.58-31.36-9.29,16.71-11.87,26.91-12.58,31.36a.14.14,0,0,0,0,0,21.77,21.77,0,0,0-.26,2.38c0,.07,0,.14,0,.21a12.86,12.86,0,0,0,25.71,0Z"/><path class="cls-4" d="M686.89,763.53a12.56,12.56,0,0,0-.26,2.38A21.77,21.77,0,0,1,686.89,763.53Z"/><path class="cls-4" d="M712.33,765.91a12.56,12.56,0,0,0-.26-2.38A21.76,21.76,0,0,1,712.33,765.91Z"/><path class="cls-4" d="M712.34,766.12s0-.07,0-.21a21.76,21.76,0,0,0-.26-2.38.15.15,0,0,1,0,0c-.71-4.45-3.29-14.65-12.58-31.36-9.29,16.71-11.87,26.91-12.58,31.36a.14.14,0,0,0,0,0,21.77,21.77,0,0,0-.26,2.38c0,.07,0,.14,0,.21a12.86,12.86,0,1,0,25.71,0Z"/><path class="cls-4" d="M807.82,749.41a5.53,5.53,0,0,0-5.53-5.53h-18.5V705.59a5.53,5.53,0,0,0-11.07,0v38.28h-18.5a5.53,5.53,0,0,0,0,11.07h18.5v18.5a5.53,5.53,0,0,0,11.07,0v-18.5h18.5A5.53,5.53,0,0,0,807.82,749.41Z"/><path class="cls-4" d="M16.67,1156.84a12.56,12.56,0,0,0-.26,2.38A21.77,21.77,0,0,1,16.67,1156.84Z"/><path class="cls-4" d="M42.11,1159.23a12.56,12.56,0,0,0-.26-2.38A21.76,21.76,0,0,1,42.11,1159.23Z"/><path class="cls-4" d="M42.11,1159.43s0-.07,0-.21a21.76,21.76,0,0,0-.26-2.38.15.15,0,0,1,0,0c-.71-4.45-3.29-14.65-12.58-31.36-9.29,16.71-11.87,26.91-12.58,31.36a.14.14,0,0,0,0,0,21.77,21.77,0,0,0-.26,2.38c0,.07,0,.14,0,.21a12.86,12.86,0,0,0,25.71,0Z"/><path class="cls-4" d="M23.65,1191.5s0-.07,0-.21a21.76,21.76,0,0,0-.26-2.38.15.15,0,0,1,0,0c-.71-4.45-3.29-14.65-12.58-31.36-9.29,16.71-11.87,26.91-12.58,31.36a.14.14,0,0,0,0,0,21.77,21.77,0,0,0-.26,2.38c0,.07,0,.14,0,.21a12.86,12.86,0,1,0,25.71,0Z"/><path class="cls-4" d="M119.13,1174.78a5.53,5.53,0,0,0-5.53-5.53H95.1V1131A5.53,5.53,0,0,0,84,1131v38.28H65.53a5.53,5.53,0,0,0,0,11.07H84v18.5a5.53,5.53,0,0,0,11.07,0v-18.5h18.5A5.53,5.53,0,0,0,119.13,1174.78Z"/><path class="cls-4" d="M143.12,1125.44h35a1.72,1.72,0,0,1,1.52,2.55l-17.06,31.5a1.72,1.72,0,0,0,1.52,2.55h14.3a1.72,1.72,0,0,1,1.58,2.41L162.84,1204a.57.57,0,0,1-1.1-.3l4.4-29.23c.13-1-.33-1.9-1.37-1.9L149,1175.06a1.72,1.72,0,0,1-2.24-1.44l-5.32-46.46A1.72,1.72,0,0,1,143.12,1125.44Z"/><path class="cls-4" d="M199.22,1175.11a17.06,17.06,0,0,1,5.82-12.85l0,0,23.67-22.44,2.35-2.22,2.35,2.22,23.67,22.44,0,0a17.1,17.1,0,1,1-26,21.5,17.1,17.1,0,0,1-31.86-8.65Z"/><path class="cls-4" d="M318.78,1158.41l-1.89,17.29-3.79-27.57L308,1161.38l-7.57-35.94-9.73,39.87-3-9.6L282,1189.22l21.75,15.14,21.76-15.14Zm-15,36.48-12.47-5.68-4.15-1.89,6.07-15.94,4.47,10.29,4.32-17.59,8.38,17.84,1.89-4.59,7.57,10-4,1.89Z"/><path class="cls-4" d="M387.6,1170.36s0,.07,0,.21a21.76,21.76,0,0,1-.26,2.38.15.15,0,0,0,0,0c-.71,4.45-3.29,14.65-12.58,31.36-9.29-16.71-11.87-26.91-12.58-31.36a.14.14,0,0,1,0,0,21.77,21.77,0,0,1-.26-2.38c0-.07,0-.14,0-.21a12.86,12.86,0,0,1,25.71,0Z"/><path class="cls-4" d="M343.69,1140.88a12.56,12.56,0,0,1-.26-2.38A21.77,21.77,0,0,0,343.69,1140.88Z"/><path class="cls-4" d="M369.13,1138.5a12.56,12.56,0,0,1-.26,2.38A21.76,21.76,0,0,0,369.13,1138.5Z"/><path class="cls-4" d="M369.13,1138.29s0,.07,0,.21a21.76,21.76,0,0,1-.26,2.38.15.15,0,0,0,0,0c-.71,4.45-3.29,14.65-12.58,31.36-9.29-16.71-11.87-26.91-12.58-31.36a.14.14,0,0,1,0,0,21.77,21.77,0,0,1-.26-2.38c0-.07,0-.14,0-.21a12.86,12.86,0,1,1,25.71,0Z"/><path class="cls-4" d="M464.62,1155a5.53,5.53,0,0,1-5.53,5.53h-18.5v38.28a5.53,5.53,0,0,1-11.07,0v-38.28H411a5.53,5.53,0,0,1,0-11.07h18.5V1131a5.53,5.53,0,0,1,11.07,0v18.5h18.5A5.53,5.53,0,0,1,464.62,1155Z"/><path class="cls-4" d="M486.33,1204.35h35a1.72,1.72,0,0,0,1.52-2.55l-17.06-31.5a1.72,1.72,0,0,1,1.52-2.55h14.3a1.72,1.72,0,0,0,1.58-2.41L506,1125.78a.57.57,0,0,0-1.1.3l4.4,29.23c.13,1-.33,1.9-1.37,1.9l-15.83-2.49a1.72,1.72,0,0,0-2.24,1.44l-5.32,46.46A1.72,1.72,0,0,0,486.33,1204.35Z"/><path class="cls-4" d="M542.43,1154.68a17.06,17.06,0,0,0,5.82,12.85l0,0L571.94,1190l2.35,2.22,2.35-2.22,23.67-22.44,0,0a17.1,17.1,0,1,0-26-21.5,17.1,17.1,0,0,0-31.86,8.65Z"/><path class="cls-4" d="M668.74,1140.57,647,1125.44l-21.75,15.14,5.68,33.51,3-9.6,9.73,39.87,7.57-35.94,5.13,13.24,3.79-27.57,1.89,17.29Zm-9.7,0,4,1.89-7.57,10-1.89-4.59-8.38,17.84-4.32-17.59-4.47,10.29-6.07-15.94,4.15-1.89L647,1134.9Z"/><path class="cls-4" d="M705.36,1156.84a12.56,12.56,0,0,0-.26,2.38A21.77,21.77,0,0,1,705.36,1156.84Z"/><path class="cls-4" d="M730.8,1159.23a12.56,12.56,0,0,0-.26-2.38A21.76,21.76,0,0,1,730.8,1159.23Z"/><path class="cls-4" d="M730.81,1159.43s0-.07,0-.21a21.76,21.76,0,0,0-.26-2.38.15.15,0,0,1,0,0c-.71-4.45-3.29-14.65-12.58-31.36-9.29,16.71-11.87,26.91-12.58,31.36a.14.14,0,0,0,0,0,21.77,21.77,0,0,0-.26,2.38c0,.07,0,.14,0,.21a12.86,12.86,0,0,0,25.71,0Z"/><path class="cls-4" d="M712.34,1191.5s0-.07,0-.21a21.76,21.76,0,0,0-.26-2.38.15.15,0,0,1,0,0c-.71-4.45-3.29-14.65-12.58-31.36-9.29,16.71-11.87,26.91-12.58,31.36a.14.14,0,0,0,0,0,21.77,21.77,0,0,0-.26,2.38c0,.07,0,.14,0,.21a12.86,12.86,0,1,0,25.71,0Z"/><path class="cls-4" d="M807.82,1174.78a5.53,5.53,0,0,0-5.53-5.53h-18.5V1131a5.53,5.53,0,0,0-11.07,0v38.28h-18.5a5.53,5.53,0,0,0,0,11.07h18.5v18.5a5.53,5.53,0,0,0,11.07,0v-18.5h18.5A5.53,5.53,0,0,0,807.82,1174.78Z"/><path class="cls-4" d="M16.67,944.15a12.56,12.56,0,0,0-.26,2.38A21.77,21.77,0,0,1,16.67,944.15Z"/><path class="cls-4" d="M42.11,946.54a12.56,12.56,0,0,0-.26-2.38A21.76,21.76,0,0,1,42.11,946.54Z"/><path class="cls-4" d="M42.11,946.74s0-.07,0-.21a21.76,21.76,0,0,0-.26-2.38.15.15,0,0,1,0,0c-.71-4.45-3.29-14.65-12.58-31.36C20,929.46,17.39,939.65,16.67,944.11a.14.14,0,0,0,0,0,21.77,21.77,0,0,0-.26,2.38c0,.07,0,.14,0,.21a12.86,12.86,0,0,0,25.71,0Z"/><path class="cls-4" d="M23.64,978.6a12.56,12.56,0,0,0-.26-2.38A21.76,21.76,0,0,1,23.64,978.6Z"/><path class="cls-4" d="M23.65,978.81s0-.07,0-.21a21.76,21.76,0,0,0-.26-2.38.15.15,0,0,1,0,0c-.71-4.45-3.29-14.65-12.58-31.36C1.5,961.52-1.08,971.72-1.79,976.17a.14.14,0,0,0,0,0,21.77,21.77,0,0,0-.26,2.38c0,.07,0,.14,0,.21a12.86,12.86,0,0,0,25.71,0Z"/><path class="cls-4" d="M119.13,962.1a5.53,5.53,0,0,0-5.53-5.53H95.1V918.28a5.53,5.53,0,0,0-11.07,0v38.28H65.53a5.53,5.53,0,0,0,0,11.07H84v18.5a5.53,5.53,0,0,0,11.07,0v-18.5h18.5A5.53,5.53,0,0,0,119.13,962.1Z"/><path class="cls-4" d="M143.12,912.75h35a1.72,1.72,0,0,1,1.52,2.55l-17.06,31.5a1.72,1.72,0,0,0,1.52,2.55h14.3a1.72,1.72,0,0,1,1.58,2.41l-17.15,39.57a.57.57,0,0,1-1.1-.3l4.4-29.23c.13-1-.33-1.9-1.37-1.9L149,962.38a1.72,1.72,0,0,1-2.24-1.44l-5.32-46.46A1.72,1.72,0,0,1,143.12,912.75Z"/><path class="cls-4" d="M199.22,962.42A17.06,17.06,0,0,1,205,949.57l0,0,23.67-22.44,2.35-2.22,2.35,2.22,23.67,22.44,0,0a17.1,17.1,0,1,1-26,21.5,17.1,17.1,0,0,1-31.86-8.65Z"/><path class="cls-4" d="M318.78,945.72,316.89,963l-3.79-27.57L308,948.69l-7.57-35.94-9.73,39.87-3-9.6L282,976.53l21.75,15.14,21.76-15.14Zm-15,36.48-12.47-5.68-4.15-1.89,6.07-15.94L297.7,969,302,951.39l8.38,17.84,1.89-4.59,7.57,10-4,1.89Z"/><path class="cls-4" d="M362.15,960.26a12.56,12.56,0,0,1-.26-2.38A21.77,21.77,0,0,0,362.15,960.26Z"/><path class="cls-4" d="M387.6,957.88a12.56,12.56,0,0,1-.26,2.38A21.76,21.76,0,0,0,387.6,957.88Z"/><path class="cls-4" d="M387.6,957.67s0,.07,0,.21a21.76,21.76,0,0,1-.26,2.38.15.15,0,0,0,0,0c-.71,4.45-3.29,14.65-12.58,31.36-9.29-16.71-11.87-26.91-12.58-31.36a.14.14,0,0,1,0,0,21.77,21.77,0,0,1-.26-2.38c0-.07,0-.14,0-.21a12.86,12.86,0,1,1,25.71,0Z"/><path class="cls-4" d="M343.69,928.19a12.56,12.56,0,0,1-.26-2.38A21.77,21.77,0,0,0,343.69,928.19Z"/><path class="cls-4" d="M369.13,925.81a12.56,12.56,0,0,1-.26,2.38A21.76,21.76,0,0,0,369.13,925.81Z"/><path class="cls-4" d="M369.13,925.6s0,.07,0,.21a21.76,21.76,0,0,1-.26,2.38.15.15,0,0,0,0,0c-.71,4.45-3.29,14.65-12.58,31.36-9.29-16.71-11.87-26.91-12.58-31.36a.14.14,0,0,1,0,0,21.77,21.77,0,0,1-.26-2.38c0-.07,0-.14,0-.21a12.86,12.86,0,1,1,25.71,0Z"/><path class="cls-4" d="M464.62,942.32a5.53,5.53,0,0,1-5.53,5.53h-18.5v38.28a5.53,5.53,0,0,1-11.07,0V947.85H411a5.53,5.53,0,0,1,0-11.07h18.5v-18.5a5.53,5.53,0,0,1,11.07,0v18.5h18.5A5.53,5.53,0,0,1,464.62,942.32Z"/><path class="cls-4" d="M486.33,991.66h35a1.72,1.72,0,0,0,1.52-2.55l-17.06-31.5a1.72,1.72,0,0,1,1.52-2.55h14.3a1.72,1.72,0,0,0,1.58-2.41L506,913.1a.57.57,0,0,0-1.1.3l4.4,29.23c.13,1-.33,1.9-1.37,1.9L492.16,942a1.72,1.72,0,0,0-2.24,1.44l-5.32,46.46A1.72,1.72,0,0,0,486.33,991.66Z"/><path class="cls-4" d="M542.43,942a17.06,17.06,0,0,0,5.82,12.85l0,0,23.67,22.44,2.35,2.22,2.35-2.22,23.67-22.44,0,0a17.1,17.1,0,1,0-26-21.5A17.1,17.1,0,0,0,542.43,942Z"/><path class="cls-4" d="M668.74,927.88,647,912.75l-21.75,15.14,5.68,33.51,3-9.6,9.73,39.87,7.57-35.94L656.31,969l3.79-27.57L662,958.69Zm-9.7,0,4,1.89-7.57,10-1.89-4.59L645.23,953l-4.32-17.59-4.47,10.29-6.07-15.94,4.15-1.89L647,922.21Z"/><path class="cls-4" d="M705.36,944.15a12.56,12.56,0,0,0-.26,2.38A21.77,21.77,0,0,1,705.36,944.15Z"/><path class="cls-4" d="M730.8,946.54a12.56,12.56,0,0,0-.26-2.38A21.76,21.76,0,0,1,730.8,946.54Z"/><path class="cls-4" d="M730.81,946.74s0-.07,0-.21a21.76,21.76,0,0,0-.26-2.38.15.15,0,0,1,0,0c-.71-4.45-3.29-14.65-12.58-31.36-9.29,16.71-11.87,26.91-12.58,31.36a.14.14,0,0,0,0,0,21.77,21.77,0,0,0-.26,2.38c0,.07,0,.14,0,.21a12.86,12.86,0,1,0,25.71,0Z"/><path class="cls-4" d="M686.89,976.22a12.56,12.56,0,0,0-.26,2.38A21.77,21.77,0,0,1,686.89,976.22Z"/><path class="cls-4" d="M712.33,978.6a12.56,12.56,0,0,0-.26-2.38A21.76,21.76,0,0,1,712.33,978.6Z"/><path class="cls-4" d="M712.34,978.81s0-.07,0-.21a21.76,21.76,0,0,0-.26-2.38.15.15,0,0,1,0,0c-.71-4.45-3.29-14.65-12.58-31.36-9.29,16.71-11.87,26.91-12.58,31.36a.14.14,0,0,0,0,0,21.77,21.77,0,0,0-.26,2.38c0,.07,0,.14,0,.21a12.86,12.86,0,0,0,25.71,0Z"/><path class="cls-4" d="M807.82,962.1a5.53,5.53,0,0,0-5.53-5.53h-18.5V918.28a5.53,5.53,0,0,0-11.07,0v38.28h-18.5a5.53,5.53,0,0,0,0,11.07h18.5v18.5a5.53,5.53,0,0,0,11.07,0v-18.5h18.5A5.53,5.53,0,0,0,807.82,962.1Z"/><path class="cls-4" d="M11.28,1098h35a1.72,1.72,0,0,0,1.52-2.55L30.76,1064a1.72,1.72,0,0,1,1.52-2.55h14.3a1.72,1.72,0,0,0,1.58-2.41L31,1019.44a.57.57,0,0,0-1.1.3l4.4,29.23c.13,1-.33,1.9-1.37,1.9l-15.83-2.49a1.72,1.72,0,0,0-2.24,1.44l-5.32,46.46A1.72,1.72,0,0,0,11.28,1098Z"/><path class="cls-4" d="M67.39,1048.33a17.06,17.06,0,0,0,5.82,12.85l0,0,23.67,22.44,2.35,2.22,2.35-2.22,23.67-22.44,0,0a17.1,17.1,0,1,0-26-21.5,17.1,17.1,0,0,0-31.86,8.65Z"/><path class="cls-4" d="M193.7,1034.23l-21.76-15.14-21.75,15.14,5.68,33.51,3-9.6,9.73,39.87,7.57-35.94,5.13,13.24,3.79-27.57,1.89,17.29Zm-9.7,0,4,1.89-7.57,10-1.89-4.59-8.38,17.84-4.32-17.59-4.47,10.29-6.07-15.94,4.15-1.89,12.47-5.68Z"/><path class="cls-4" d="M230.31,1050.5a12.56,12.56,0,0,0-.26,2.38A21.77,21.77,0,0,1,230.31,1050.5Z"/><path class="cls-4" d="M255.76,1052.88a12.56,12.56,0,0,0-.26-2.38A21.76,21.76,0,0,1,255.76,1052.88Z"/><path class="cls-4" d="M255.76,1053.09s0-.07,0-.21a21.76,21.76,0,0,0-.26-2.38.15.15,0,0,1,0,0c-.71-4.45-3.29-14.65-12.58-31.36-9.29,16.71-11.87,26.91-12.58,31.36a.14.14,0,0,0,0,0,21.77,21.77,0,0,0-.26,2.38c0,.07,0,.14,0,.21a12.86,12.86,0,0,0,25.71,0Z"/><path class="cls-4" d="M211.85,1082.56a12.56,12.56,0,0,0-.26,2.38A21.77,21.77,0,0,1,211.85,1082.56Z"/><path class="cls-4" d="M237.29,1084.95a12.56,12.56,0,0,0-.26-2.38A21.76,21.76,0,0,1,237.29,1084.95Z"/><path class="cls-4" d="M237.3,1085.15s0-.07,0-.21a21.76,21.76,0,0,0-.26-2.38.15.15,0,0,1,0,0c-.71-4.45-3.29-14.65-12.58-31.36-9.29,16.71-11.87,26.91-12.58,31.36a.14.14,0,0,0,0,0,21.77,21.77,0,0,0-.26,2.38c0,.07,0,.14,0,.21a12.86,12.86,0,1,0,25.71,0Z"/><path class="cls-4" d="M332.78,1068.44a5.53,5.53,0,0,0-5.53-5.53h-18.5v-38.28a5.53,5.53,0,0,0-11.07,0v38.28h-18.5a5.53,5.53,0,0,0,0,11.07h18.5v18.5a5.53,5.53,0,0,0,11.07,0V1074h18.5A5.53,5.53,0,0,0,332.78,1068.44Z"/><path class="cls-4" d="M354.49,1019.09h35a1.72,1.72,0,0,1,1.52,2.55L374,1053.14a1.72,1.72,0,0,0,1.52,2.55h14.3a1.72,1.72,0,0,1,1.58,2.41l-17.15,39.57a.57.57,0,0,1-1.1-.3l4.4-29.23c.13-1-.33-1.9-1.37-1.9l-15.83,2.49a1.72,1.72,0,0,1-2.24-1.44l-5.32-46.46A1.72,1.72,0,0,1,354.49,1019.09Z"/><path class="cls-4" d="M410.59,1068.77a17.06,17.06,0,0,1,5.82-12.85l0,0,23.67-22.44,2.35-2.22,2.35,2.22,23.67,22.44,0,0a17.1,17.1,0,1,1-26,21.5,17.1,17.1,0,0,1-31.86-8.65Z"/><path class="cls-4" d="M530.15,1052.07l-1.89,17.29-3.79-27.57L519.34,1055l-7.57-35.94L502,1059l-3-9.6-5.68,33.51L515.15,1098l21.76-15.14Zm-15,36.48-12.47-5.68-4.15-1.89L504.6,1065l4.47,10.29,4.32-17.59,8.38,17.84,1.89-4.59,7.57,10-4,1.89Z"/><path class="cls-4" d="M573.52,1066.6a12.56,12.56,0,0,1-.26-2.38A21.77,21.77,0,0,0,573.52,1066.6Z"/><path class="cls-4" d="M599,1064.22a12.56,12.56,0,0,1-.26,2.38A21.76,21.76,0,0,0,599,1064.22Z"/><path class="cls-4" d="M599,1064s0,.07,0,.21a21.76,21.76,0,0,1-.26,2.38.15.15,0,0,0,0,0c-.71,4.45-3.29,14.65-12.58,31.36-9.29-16.71-11.87-26.91-12.58-31.36a.14.14,0,0,1,0,0,21.77,21.77,0,0,1-.26-2.38c0-.07,0-.14,0-.21a12.86,12.86,0,1,1,25.71,0Z"/><path class="cls-4" d="M555.05,1034.54a12.56,12.56,0,0,1-.26-2.38A21.77,21.77,0,0,0,555.05,1034.54Z"/><path class="cls-4" d="M580.5,1032.16a12.56,12.56,0,0,1-.26,2.38A21.76,21.76,0,0,0,580.5,1032.16Z"/><path class="cls-4" d="M580.5,1031.95s0,.07,0,.21a21.76,21.76,0,0,1-.26,2.38.15.15,0,0,0,0,0c-.71,4.45-3.29,14.65-12.58,31.36-9.29-16.71-11.87-26.91-12.58-31.36a.14.14,0,0,1,0,0,21.77,21.77,0,0,1-.26-2.38c0-.07,0-.14,0-.21a12.86,12.86,0,0,1,25.71,0Z"/><path class="cls-4" d="M676,1048.66a5.53,5.53,0,0,1-5.53,5.53H652v38.28a5.53,5.53,0,0,1-11.07,0v-38.28h-18.5a5.53,5.53,0,0,1,0-11.07h18.5v-18.5a5.53,5.53,0,0,1,11.07,0v18.5h18.5A5.53,5.53,0,0,1,676,1048.66Z"/><path class="cls-4" d="M16.67,306.09a12.56,12.56,0,0,0-.26,2.38A21.77,21.77,0,0,1,16.67,306.09Z"/><path class="cls-4" d="M42.11,308.47a12.56,12.56,0,0,0-.26-2.38A21.76,21.76,0,0,1,42.11,308.47Z"/><path class="cls-4" d="M42.11,308.68s0-.07,0-.21a21.76,21.76,0,0,0-.26-2.38.15.15,0,0,1,0,0c-.71-4.45-3.29-14.65-12.58-31.36C20,291.39,17.39,301.59,16.67,306a.14.14,0,0,0,0,0,21.77,21.77,0,0,0-.26,2.38c0,.07,0,.14,0,.21a12.86,12.86,0,0,0,25.71,0Z"/><path class="cls-4" d="M23.64,340.53a12.56,12.56,0,0,0-.26-2.38A21.76,21.76,0,0,1,23.64,340.53Z"/><path class="cls-4" d="M23.65,340.74s0-.07,0-.21a21.76,21.76,0,0,0-.26-2.38.15.15,0,0,1,0,0c-.71-4.45-3.29-14.65-12.58-31.36C1.5,323.45-1.08,333.65-1.79,338.11a.14.14,0,0,0,0,0,21.77,21.77,0,0,0-.26,2.38c0,.07,0,.14,0,.21a12.86,12.86,0,1,0,25.71,0Z"/><path class="cls-4" d="M119.13,324a5.53,5.53,0,0,0-5.53-5.53H95.1V280.21a5.53,5.53,0,0,0-11.07,0v38.28H65.53a5.53,5.53,0,0,0,0,11.07H84v18.5a5.53,5.53,0,0,0,11.07,0v-18.5h18.5A5.53,5.53,0,0,0,119.13,324Z"/><path class="cls-4" d="M143.12,274.68h35a1.72,1.72,0,0,1,1.52,2.55l-17.06,31.5a1.72,1.72,0,0,0,1.52,2.55h14.3a1.72,1.72,0,0,1,1.58,2.41l-17.15,39.57a.57.57,0,0,1-1.1-.3l4.4-29.23c.13-1-.33-1.9-1.37-1.9L149,324.31a1.72,1.72,0,0,1-2.24-1.44L141.4,276.4A1.72,1.72,0,0,1,143.12,274.68Z"/><path class="cls-4" d="M199.22,324.36A17.06,17.06,0,0,1,205,311.51l0,0L228.73,289l2.35-2.22,2.35,2.22,23.67,22.44,0,0a17.1,17.1,0,1,1-26,21.5,17.1,17.1,0,0,1-31.86-8.65Z"/><path class="cls-4" d="M318.78,307.65l-1.89,17.29-3.79-27.57L308,310.62l-7.57-35.94-9.73,39.87-3-9.6L282,338.46l21.75,15.14,21.76-15.14Zm-15,36.48-12.47-5.68-4.15-1.89,6.07-15.94,4.47,10.29L302,313.33l8.38,17.84,1.89-4.59,7.57,10-4,1.89Z"/><path class="cls-4" d="M362.15,322.19a12.56,12.56,0,0,1-.26-2.38A21.77,21.77,0,0,0,362.15,322.19Z"/><path class="cls-4" d="M387.6,319.81a12.56,12.56,0,0,1-.26,2.38A21.76,21.76,0,0,0,387.6,319.81Z"/><path class="cls-4" d="M387.6,319.6s0,.07,0,.21a21.76,21.76,0,0,1-.26,2.38.15.15,0,0,0,0,0c-.71,4.45-3.29,14.65-12.58,31.36-9.29-16.71-11.87-26.91-12.58-31.36a.14.14,0,0,1,0,0,21.77,21.77,0,0,1-.26-2.38c0-.07,0-.14,0-.21a12.86,12.86,0,0,1,25.71,0Z"/><path class="cls-4" d="M343.69,290.13a12.56,12.56,0,0,1-.26-2.38A21.77,21.77,0,0,0,343.69,290.13Z"/><path class="cls-4" d="M369.13,287.74a12.56,12.56,0,0,1-.26,2.38A21.76,21.76,0,0,0,369.13,287.74Z"/><path class="cls-4" d="M369.13,287.54s0,.07,0,.21a21.76,21.76,0,0,1-.26,2.38.15.15,0,0,0,0,0c-.71,4.45-3.29,14.65-12.58,31.36-9.29-16.71-11.87-26.91-12.58-31.36a.14.14,0,0,1,0,0,21.77,21.77,0,0,1-.26-2.38c0-.07,0-.14,0-.21a12.86,12.86,0,1,1,25.71,0Z"/><path class="cls-4" d="M464.62,304.25a5.53,5.53,0,0,1-5.53,5.53h-18.5v38.28a5.53,5.53,0,0,1-11.07,0V309.78H411a5.53,5.53,0,0,1,0-11.07h18.5v-18.5a5.53,5.53,0,0,1,11.07,0v18.5h18.5A5.53,5.53,0,0,1,464.62,304.25Z"/><path class="cls-4" d="M486.33,353.6h35a1.72,1.72,0,0,0,1.52-2.55l-17.06-31.5a1.72,1.72,0,0,1,1.52-2.55h14.3a1.72,1.72,0,0,0,1.58-2.41L506,275a.57.57,0,0,0-1.1.3l4.4,29.23c.13,1-.33,1.9-1.37,1.9L492.16,304a1.72,1.72,0,0,0-2.24,1.44l-5.32,46.46A1.72,1.72,0,0,0,486.33,353.6Z"/><path class="cls-4" d="M542.43,303.92a17.06,17.06,0,0,0,5.82,12.85l0,0,23.67,22.44,2.35,2.22,2.35-2.22,23.67-22.44,0,0a17.1,17.1,0,1,0-26-21.5,17.1,17.1,0,0,0-31.86,8.65Z"/><path class="cls-4" d="M668.74,289.82,647,274.68l-21.75,15.14,5.68,33.51,3-9.6,9.73,39.87,7.57-35.94,5.13,13.24,3.79-27.57L662,320.62Zm-9.7,0,4,1.89-7.57,10-1.89-4.59-8.38,17.84-4.32-17.59-4.47,10.29-6.07-15.94,4.15-1.89L647,284.14Z"/><path class="cls-4" d="M705.36,306.09a12.56,12.56,0,0,0-.26,2.38A21.77,21.77,0,0,1,705.36,306.09Z"/><path class="cls-4" d="M730.8,308.47a12.56,12.56,0,0,0-.26-2.38A21.76,21.76,0,0,1,730.8,308.47Z"/><path class="cls-4" d="M730.81,308.68s0-.07,0-.21a21.76,21.76,0,0,0-.26-2.38.15.15,0,0,1,0,0c-.71-4.45-3.29-14.65-12.58-31.36-9.29,16.71-11.87,26.91-12.58,31.36a.14.14,0,0,0,0,0,21.77,21.77,0,0,0-.26,2.38c0,.07,0,.14,0,.21a12.86,12.86,0,0,0,25.71,0Z"/><path class="cls-4" d="M686.89,338.15a12.56,12.56,0,0,0-.26,2.38A21.77,21.77,0,0,1,686.89,338.15Z"/><path class="cls-4" d="M712.33,340.53a12.56,12.56,0,0,0-.26-2.38A21.76,21.76,0,0,1,712.33,340.53Z"/><path class="cls-4" d="M712.34,340.74s0-.07,0-.21a21.76,21.76,0,0,0-.26-2.38.15.15,0,0,1,0,0c-.71-4.45-3.29-14.65-12.58-31.36-9.29,16.71-11.87,26.91-12.58,31.36a.14.14,0,0,0,0,0,21.77,21.77,0,0,0-.26,2.38c0,.07,0,.14,0,.21a12.86,12.86,0,1,0,25.71,0Z"/><path class="cls-4" d="M807.82,324a5.53,5.53,0,0,0-5.53-5.53h-18.5V280.21a5.53,5.53,0,0,0-11.07,0v38.28h-18.5a5.53,5.53,0,0,0,0,11.07h18.5v18.5a5.53,5.53,0,0,0,11.07,0v-18.5h18.5A5.53,5.53,0,0,0,807.82,324Z"/><path class="cls-4" d="M16.67,518.77a12.56,12.56,0,0,0-.26,2.38A21.77,21.77,0,0,1,16.67,518.77Z"/><path class="cls-4" d="M42.11,521.16a12.56,12.56,0,0,0-.26-2.38A21.76,21.76,0,0,1,42.11,521.16Z"/><path class="cls-4" d="M42.11,521.37s0-.07,0-.21a21.76,21.76,0,0,0-.26-2.38.15.15,0,0,1,0,0c-.71-4.45-3.29-14.65-12.58-31.36C20,504.08,17.39,514.28,16.67,518.73a.14.14,0,0,0,0,0,21.77,21.77,0,0,0-.26,2.38c0,.07,0,.14,0,.21a12.86,12.86,0,0,0,25.71,0Z"/><path class="cls-4" d="M23.64,553.22a12.56,12.56,0,0,0-.26-2.38A21.76,21.76,0,0,1,23.64,553.22Z"/><path class="cls-4" d="M23.65,553.43s0-.07,0-.21a21.76,21.76,0,0,0-.26-2.38.15.15,0,0,1,0,0c-.71-4.45-3.29-14.65-12.58-31.36C1.5,536.14-1.08,546.34-1.79,550.79a.14.14,0,0,0,0,0,21.77,21.77,0,0,0-.26,2.38c0,.07,0,.14,0,.21a12.86,12.86,0,0,0,25.71,0Z"/><path class="cls-4" d="M119.13,536.72a5.53,5.53,0,0,0-5.53-5.53H95.1V492.9a5.53,5.53,0,0,0-11.07,0v38.28H65.53a5.53,5.53,0,0,0,0,11.07H84v18.5a5.53,5.53,0,0,0,11.07,0v-18.5h18.5A5.53,5.53,0,0,0,119.13,536.72Z"/><path class="cls-4" d="M143.12,487.37h35a1.72,1.72,0,0,1,1.52,2.55l-17.06,31.5a1.72,1.72,0,0,0,1.52,2.55h14.3a1.72,1.72,0,0,1,1.58,2.41l-17.15,39.57a.57.57,0,0,1-1.1-.3l4.4-29.23c.13-1-.33-1.9-1.37-1.9L149,537a1.72,1.72,0,0,1-2.24-1.44l-5.32-46.46A1.72,1.72,0,0,1,143.12,487.37Z"/><path class="cls-4" d="M199.22,537A17.06,17.06,0,0,1,205,524.19l0,0,23.67-22.44,2.35-2.22,2.35,2.22,23.67,22.44,0,0a17.1,17.1,0,1,1-26,21.5A17.1,17.1,0,0,1,199.22,537Z"/><path class="cls-4" d="M318.78,520.34l-1.89,17.29-3.79-27.57L308,523.31l-7.57-35.94-9.73,39.87-3-9.6L282,551.15l21.75,15.14,21.76-15.14Zm-15,36.48-12.47-5.68-4.15-1.89,6.07-15.94,4.47,10.29L302,526l8.38,17.84,1.89-4.59,7.57,10-4,1.89Z"/><path class="cls-4" d="M362.15,534.88a12.56,12.56,0,0,1-.26-2.38A21.77,21.77,0,0,0,362.15,534.88Z"/><path class="cls-4" d="M387.6,532.5a12.56,12.56,0,0,1-.26,2.38A21.76,21.76,0,0,0,387.6,532.5Z"/><path class="cls-4" d="M387.6,532.29s0,.07,0,.21a21.76,21.76,0,0,1-.26,2.38.15.15,0,0,0,0,0c-.71,4.45-3.29,14.65-12.58,31.36-9.29-16.71-11.87-26.91-12.58-31.36a.14.14,0,0,1,0,0,21.77,21.77,0,0,1-.26-2.38c0-.07,0-.14,0-.21a12.86,12.86,0,0,1,25.71,0Z"/><path class="cls-4" d="M343.69,502.82a12.56,12.56,0,0,1-.26-2.38A21.77,21.77,0,0,0,343.69,502.82Z"/><path class="cls-4" d="M369.13,500.43a12.56,12.56,0,0,1-.26,2.38A21.76,21.76,0,0,0,369.13,500.43Z"/><path class="cls-4" d="M369.13,500.22s0,.07,0,.21a21.76,21.76,0,0,1-.26,2.38.15.15,0,0,0,0,0c-.71,4.45-3.29,14.65-12.58,31.36-9.29-16.71-11.87-26.91-12.58-31.36a.14.14,0,0,1,0,0,21.77,21.77,0,0,1-.26-2.38c0-.07,0-.14,0-.21a12.86,12.86,0,1,1,25.71,0Z"/><path class="cls-4" d="M464.62,516.94a5.53,5.53,0,0,1-5.53,5.53h-18.5v38.28a5.53,5.53,0,0,1-11.07,0V522.47H411a5.53,5.53,0,0,1,0-11.07h18.5V492.9a5.53,5.53,0,0,1,11.07,0v18.5h18.5A5.53,5.53,0,0,1,464.62,516.94Z"/><path class="cls-4" d="M486.33,566.29h35a1.72,1.72,0,0,0,1.52-2.55l-17.06-31.5a1.72,1.72,0,0,1,1.52-2.55h14.3a1.72,1.72,0,0,0,1.58-2.41L506,487.72a.57.57,0,0,0-1.1.3l4.4,29.23c.13,1-.33,1.9-1.37,1.9l-15.83-2.49a1.72,1.72,0,0,0-2.24,1.44l-5.32,46.46A1.72,1.72,0,0,0,486.33,566.29Z"/><path class="cls-4" d="M542.43,516.61a17.06,17.06,0,0,0,5.82,12.85l0,0,23.67,22.44,2.35,2.22,2.35-2.22,23.67-22.44,0,0a17.1,17.1,0,1,0-26-21.5,17.1,17.1,0,0,0-31.86,8.65Z"/><path class="cls-4" d="M668.74,502.5,647,487.37,625.23,502.5,630.91,536l3-9.6,9.73,39.87,7.57-35.94,5.13,13.24L660.1,516,662,533.31Zm-9.7,0,4,1.89-7.57,10-1.89-4.59-8.38,17.84L640.91,510l-4.47,10.29-6.07-15.94,4.15-1.89L647,496.83Z"/><path class="cls-4" d="M705.36,518.77a12.56,12.56,0,0,0-.26,2.38A21.77,21.77,0,0,1,705.36,518.77Z"/><path class="cls-4" d="M730.8,521.16a12.56,12.56,0,0,0-.26-2.38A21.76,21.76,0,0,1,730.8,521.16Z"/><path class="cls-4" d="M730.81,521.37s0-.07,0-.21a21.76,21.76,0,0,0-.26-2.38.15.15,0,0,1,0,0c-.71-4.45-3.29-14.65-12.58-31.36-9.29,16.71-11.87,26.91-12.58,31.36a.14.14,0,0,0,0,0,21.77,21.77,0,0,0-.26,2.38c0,.07,0,.14,0,.21a12.86,12.86,0,0,0,25.71,0Z"/><path class="cls-4" d="M686.89,550.84a12.56,12.56,0,0,0-.26,2.38A21.77,21.77,0,0,1,686.89,550.84Z"/><path class="cls-4" d="M712.33,553.22a12.56,12.56,0,0,0-.26-2.38A21.76,21.76,0,0,1,712.33,553.22Z"/><path class="cls-4" d="M712.34,553.43s0-.07,0-.21a21.76,21.76,0,0,0-.26-2.38.15.15,0,0,1,0,0c-.71-4.45-3.29-14.65-12.58-31.36-9.29,16.71-11.87,26.91-12.58,31.36a.14.14,0,0,0,0,0,21.77,21.77,0,0,0-.26,2.38c0,.07,0,.14,0,.21a12.86,12.86,0,0,0,25.71,0Z"/><path class="cls-4" d="M807.82,536.72a5.53,5.53,0,0,0-5.53-5.53h-18.5V492.9a5.53,5.53,0,0,0-11.07,0v38.28h-18.5a5.53,5.53,0,0,0,0,11.07h18.5v18.5a5.53,5.53,0,0,0,11.07,0v-18.5h18.5A5.53,5.53,0,0,0,807.82,536.72Z"/><path class="cls-4" d="M11.28,459.94h35a1.72,1.72,0,0,0,1.52-2.55L30.76,425.9a1.72,1.72,0,0,1,1.52-2.55h14.3a1.72,1.72,0,0,0,1.58-2.41L31,381.37a.57.57,0,0,0-1.1.3l4.4,29.23c.13,1-.33,1.9-1.37,1.9l-15.83-2.49a1.72,1.72,0,0,0-2.24,1.44L9.56,458.22A1.72,1.72,0,0,0,11.28,459.94Z"/><path class="cls-4" d="M67.39,410.26a17.06,17.06,0,0,0,5.82,12.85l0,0L96.9,445.58l2.35,2.22,2.35-2.22,23.67-22.44,0,0a17.1,17.1,0,1,0-26-21.5,17.1,17.1,0,0,0-31.86,8.65Z"/><path class="cls-4" d="M193.7,396.16,171.94,381l-21.75,15.14,5.68,33.51,3-9.6,9.73,39.87L176.13,424l5.13,13.24,3.79-27.57L186.94,427Zm-9.7,0,4,1.89-7.57,10-1.89-4.59-8.38,17.84-4.32-17.59L161.39,414l-6.07-15.94,4.15-1.89,12.47-5.68Z"/><path class="cls-4" d="M230.31,412.43a12.56,12.56,0,0,0-.26,2.38A21.77,21.77,0,0,1,230.31,412.43Z"/><path class="cls-4" d="M255.76,414.81a12.56,12.56,0,0,0-.26-2.38A21.76,21.76,0,0,1,255.76,414.81Z"/><path class="cls-4" d="M255.76,415s0-.07,0-.21a21.76,21.76,0,0,0-.26-2.38.15.15,0,0,1,0,0c-.71-4.45-3.29-14.65-12.58-31.36-9.29,16.71-11.87,26.91-12.58,31.36a.14.14,0,0,0,0,0,21.77,21.77,0,0,0-.26,2.38c0,.07,0,.14,0,.21a12.86,12.86,0,0,0,25.71,0Z"/><path class="cls-4" d="M211.85,444.49a12.56,12.56,0,0,0-.26,2.38A21.77,21.77,0,0,1,211.85,444.49Z"/><path class="cls-4" d="M237.29,446.88a12.56,12.56,0,0,0-.26-2.38A21.76,21.76,0,0,1,237.29,446.88Z"/><path class="cls-4" d="M237.3,447.09s0-.07,0-.21a21.76,21.76,0,0,0-.26-2.38.15.15,0,0,1,0,0c-.71-4.45-3.29-14.65-12.58-31.36-9.29,16.71-11.87,26.91-12.58,31.36a.14.14,0,0,0,0,0,21.77,21.77,0,0,0-.26,2.38c0,.07,0,.14,0,.21a12.86,12.86,0,0,0,25.71,0Z"/><path class="cls-4" d="M332.78,430.37a5.53,5.53,0,0,0-5.53-5.53h-18.5V386.56a5.53,5.53,0,0,0-11.07,0v38.28h-18.5a5.53,5.53,0,0,0,0,11.07h18.5v18.5a5.53,5.53,0,0,0,11.07,0v-18.5h18.5A5.53,5.53,0,0,0,332.78,430.37Z"/><path class="cls-4" d="M354.49,381h35a1.72,1.72,0,0,1,1.52,2.55L374,415.07a1.72,1.72,0,0,0,1.52,2.55h14.3a1.72,1.72,0,0,1,1.58,2.41l-17.15,39.57a.57.57,0,0,1-1.1-.3l4.4-29.23c.13-1-.33-1.9-1.37-1.9l-15.83,2.49a1.72,1.72,0,0,1-2.24-1.44l-5.32-46.46A1.72,1.72,0,0,1,354.49,381Z"/><path class="cls-4" d="M410.59,430.7a17.06,17.06,0,0,1,5.82-12.85l0,0,23.67-22.44,2.35-2.22,2.35,2.22,23.67,22.44,0,0a17.1,17.1,0,1,1-26,21.5,17.1,17.1,0,0,1-31.86-8.65Z"/><path class="cls-4" d="M530.15,414l-1.89,17.29-3.79-27.57L519.34,417,511.77,381,502,420.9l-3-9.6-5.68,33.51,21.75,15.14,21.76-15.14Zm-15,36.48-12.47-5.68-4.15-1.89L504.6,427l4.47,10.29,4.32-17.59,8.38,17.84,1.89-4.59,7.57,10-4,1.89Z"/><path class="cls-4" d="M573.52,428.54a12.56,12.56,0,0,1-.26-2.38A21.77,21.77,0,0,0,573.52,428.54Z"/><path class="cls-4" d="M599,426.15a12.56,12.56,0,0,1-.26,2.38A21.76,21.76,0,0,0,599,426.15Z"/><path class="cls-4" d="M599,425.94s0,.07,0,.21a21.76,21.76,0,0,1-.26,2.38.15.15,0,0,0,0,0c-.71,4.45-3.29,14.65-12.58,31.36-9.29-16.71-11.87-26.91-12.58-31.36a.14.14,0,0,1,0,0,21.77,21.77,0,0,1-.26-2.38c0-.07,0-.14,0-.21a12.86,12.86,0,0,1,25.71,0Z"/><path class="cls-4" d="M555.05,396.47a12.56,12.56,0,0,1-.26-2.38A21.77,21.77,0,0,0,555.05,396.47Z"/><path class="cls-4" d="M580.5,394.09a12.56,12.56,0,0,1-.26,2.38A21.76,21.76,0,0,0,580.5,394.09Z"/><path class="cls-4" d="M580.5,393.88s0,.07,0,.21a21.76,21.76,0,0,1-.26,2.38.15.15,0,0,0,0,0c-.71,4.45-3.29,14.65-12.58,31.36-9.29-16.71-11.87-26.91-12.58-31.36a.14.14,0,0,1,0,0,21.77,21.77,0,0,1-.26-2.38c0-.07,0-.14,0-.21a12.86,12.86,0,0,1,25.71,0Z"/><path class="cls-4" d="M676,410.59a5.53,5.53,0,0,1-5.53,5.53H652v38.28a5.53,5.53,0,0,1-11.07,0V416.13h-18.5a5.53,5.53,0,0,1,0-11.07h18.5v-18.5a5.53,5.53,0,0,1,11.07,0v18.5h18.5A5.53,5.53,0,0,1,676,410.59Z"/><path class="cls-4" d="M693.9,34.56h35A1.72,1.72,0,0,0,730.43,32L713.37.52A1.72,1.72,0,0,1,714.89-2h14.3a1.72,1.72,0,0,0,1.58-2.41L713.62-44a.57.57,0,0,0-1.1.3l4.4,29.23c.13,1-.33,1.9-1.37,1.9l-15.83-2.49a1.72,1.72,0,0,0-2.24,1.44l-5.32,46.46A1.72,1.72,0,0,0,693.9,34.56Z"/><path class="cls-4" d="M750-15.11a17.06,17.06,0,0,0,5.82,12.85l0,0L779.51,20.2l2.35,2.22,2.35-2.22L807.88-2.24l0,0a17.06,17.06,0,0,0,5.82-12.85,17.1,17.1,0,0,0-17.1-17.1,17.08,17.08,0,0,0-14.75,8.45,17.08,17.08,0,0,0-14.75-8.45A17.1,17.1,0,0,0,750-15.11Z"/><path class="cls-4" d="M876.32-29.22,854.56-44.35,832.8-29.22l5.68,33.51,3-9.6,9.73,39.87,7.57-35.94,5.13,13.24,3.79-27.57,1.89,17.29Zm-9.7,0,4,1.89-7.57,10-1.89-4.59L852.8-4.08l-4.32-17.59L844-11.38l-6.07-15.94,4.15-1.89,12.47-5.68Z"/><path class="cls-4" d="M938.38-10.36s0-.07,0-.21a21.76,21.76,0,0,0-.26-2.38.15.15,0,0,1,0,0c-.71-4.45-3.29-14.65-12.58-31.36C916.23-27.65,913.66-17.45,912.94-13a.14.14,0,0,0,0,0,21.77,21.77,0,0,0-.26,2.38c0,.07,0,.14,0,.21A12.85,12.85,0,0,0,925.52,2.5,12.85,12.85,0,0,0,938.38-10.36Z"/><path class="cls-4" d="M894.46,19.12a12.56,12.56,0,0,0-.26,2.38A21.77,21.77,0,0,1,894.46,19.12Z"/><path class="cls-4" d="M919.91,21.5a12.56,12.56,0,0,0-.26-2.38A21.76,21.76,0,0,1,919.91,21.5Z"/><path class="cls-4" d="M919.91,21.71s0-.07,0-.21a21.76,21.76,0,0,0-.26-2.38.15.15,0,0,1,0,0c-.71-4.45-3.29-14.65-12.58-31.36-9.29,16.71-11.87,26.91-12.58,31.36a.14.14,0,0,0,0,0,21.77,21.77,0,0,0-.26,2.38c0,.07,0,.14,0,.21a12.86,12.86,0,0,0,25.71,0Z"/><path class="cls-4" d="M1015.4,5a5.53,5.53,0,0,0-5.53-5.53h-18.5V-38.82a5.53,5.53,0,0,0-5.53-5.53,5.52,5.52,0,0,0-3.91,1.62,5.52,5.52,0,0,0-1.62,3.91V-.54H961.8a5.53,5.53,0,0,0,0,11.07h18.5V29a5.53,5.53,0,0,0,11.07,0V10.53h18.5A5.53,5.53,0,0,0,1015.4,5Z"/><path class="cls-4" d="M1037.11-44.35h35a1.72,1.72,0,0,1,1.52,2.55l-17.06,31.5a1.72,1.72,0,0,0,1.52,2.55h14.3A1.72,1.72,0,0,1,1074-5.35l-17.15,39.57a.57.57,0,0,1-1.1-.3l4.4-29.23c.13-1-.33-1.9-1.37-1.9l-15.83,2.49a1.72,1.72,0,0,1-2.24-1.44l-5.32-46.46A1.72,1.72,0,0,1,1037.11-44.35Z"/><path class="cls-4" d="M1093.21,5.32A17.06,17.06,0,0,1,1099-7.53l0,0L1122.72-30l2.35-2.22,2.35,2.22,23.67,22.44,0,0a17.1,17.1,0,1,1-26,21.5,17.1,17.1,0,0,1-31.86-8.65Z"/><path class="cls-4" d="M1212.77-11.38l-1.89,17.29-3.79-27.57L1202-8.41l-7.57-35.94-9.73,39.87-3-9.6L1176,19.43l21.75,15.14,21.76-15.14Zm-15,36.48-12.47-5.68-4.15-1.89,6.07-15.94,4.47,10.29L1196-5.71l8.38,17.84,1.89-4.59,7.57,10-4,1.89Z"/><path class="cls-4" d="M1256.14,3.16a12.56,12.56,0,0,1-.26-2.38A21.76,21.76,0,0,0,1256.14,3.16Z"/><path class="cls-4" d="M1281.58.77a12.56,12.56,0,0,1-.26,2.38A21.76,21.76,0,0,0,1281.58.77Z"/><path class="cls-4" d="M1281.58.57s0,.07,0,.21a21.76,21.76,0,0,1-.26,2.38.15.15,0,0,0,0,0c-.72,4.45-3.29,14.65-12.58,31.36-9.29-16.71-11.87-26.91-12.58-31.36a.14.14,0,0,1,0,0,21.76,21.76,0,0,1-.26-2.38c0-.07,0-.14,0-.21a12.86,12.86,0,0,1,25.71,0Z"/><path class="cls-4" d="M1263.12-31.5s0,.07,0,.21a21.76,21.76,0,0,1-.26,2.38.15.15,0,0,0,0,0c-.72,4.45-3.29,14.65-12.58,31.36-9.29-16.71-11.87-26.91-12.58-31.36a.14.14,0,0,1,0,0,21.76,21.76,0,0,1-.26-2.38c0-.07,0-.14,0-.21a12.85,12.85,0,0,1,12.86-12.86A12.85,12.85,0,0,1,1263.12-31.5Z"/><path class="cls-4" d="M1358.6-14.78a5.52,5.52,0,0,1-1.62,3.91,5.52,5.52,0,0,1-3.91,1.62h-18.5V29a5.53,5.53,0,0,1-11.07,0V-9.25H1305a5.53,5.53,0,0,1-5.53-5.53,5.52,5.52,0,0,1,1.62-3.91,5.52,5.52,0,0,1,3.91-1.62h18.5v-18.5a5.53,5.53,0,0,1,5.53-5.53,5.52,5.52,0,0,1,3.91,1.62,5.52,5.52,0,0,1,1.62,3.91v18.5h18.5A5.53,5.53,0,0,1,1358.6-14.78Z"/><path class="cls-4" d="M1382.59,34.56h35a1.72,1.72,0,0,0,1.52-2.55L1402.07.52A1.72,1.72,0,0,1,1403.58-2h14.3a1.72,1.72,0,0,0,1.58-2.41L1402.32-44a.57.57,0,0,0-1.1.3l4.4,29.23c.13,1-.33,1.9-1.37,1.9l-15.83-2.49a1.72,1.72,0,0,0-2.24,1.44l-5.32,46.46A1.72,1.72,0,0,0,1382.59,34.56Z"/><path class="cls-4" d="M1438.7-15.11a17.06,17.06,0,0,0,5.82,12.85l0,0,23.67,22.44,2.35,2.22,2.35-2.22,23.67-22.44,0,0a17.06,17.06,0,0,0,5.82-12.85,17.1,17.1,0,0,0-17.1-17.1,17.08,17.08,0,0,0-14.75,8.45,17.08,17.08,0,0,0-14.75-8.45A17.1,17.1,0,0,0,1438.7-15.11Z"/><path class="cls-4" d="M693.9,247.25h35a1.72,1.72,0,0,0,1.52-2.55l-17.06-31.5a1.72,1.72,0,0,1,1.52-2.55h14.3a1.72,1.72,0,0,0,1.58-2.41l-17.15-39.57a.57.57,0,0,0-1.1.3l4.4,29.23c.13,1-.33,1.9-1.37,1.9l-15.83-2.49a1.72,1.72,0,0,0-2.24,1.44l-5.32,46.46A1.72,1.72,0,0,0,693.9,247.25Z"/><path class="cls-4" d="M750,197.58a17.06,17.06,0,0,0,5.82,12.85l0,0,23.67,22.44,2.35,2.22,2.35-2.22,23.67-22.44,0,0a17.1,17.1,0,1,0-26-21.5A17.1,17.1,0,0,0,750,197.58Z"/><path class="cls-4" d="M876.32,183.47l-21.76-15.14L832.8,183.47,838.48,217l3-9.6,9.73,39.87,7.57-35.94,5.13,13.24L867.67,197l1.89,17.29Zm-9.7,0,4,1.89-7.57,10-1.89-4.59-8.38,17.84L848.48,191,844,201.31l-6.07-15.94,4.15-1.89,12.47-5.68Z"/><path class="cls-4" d="M912.93,199.74a12.56,12.56,0,0,0-.26,2.38A21.77,21.77,0,0,1,912.93,199.74Z"/><path class="cls-4" d="M938.37,202.12a12.56,12.56,0,0,0-.26-2.38A21.76,21.76,0,0,1,938.37,202.12Z"/><path class="cls-4" d="M938.38,202.33s0-.07,0-.21a21.76,21.76,0,0,0-.26-2.38.15.15,0,0,1,0,0c-.71-4.45-3.29-14.65-12.58-31.36-9.29,16.71-11.87,26.91-12.58,31.36a.14.14,0,0,0,0,0,21.77,21.77,0,0,0-.26,2.38c0,.07,0,.14,0,.21a12.86,12.86,0,1,0,25.71,0Z"/><path class="cls-4" d="M894.46,231.81a12.56,12.56,0,0,0-.26,2.38A21.77,21.77,0,0,1,894.46,231.81Z"/><path class="cls-4" d="M919.91,234.19a12.56,12.56,0,0,0-.26-2.38A21.76,21.76,0,0,1,919.91,234.19Z"/><path class="cls-4" d="M919.91,234.4s0-.07,0-.21a21.76,21.76,0,0,0-.26-2.38.15.15,0,0,1,0,0c-.71-4.45-3.29-14.65-12.58-31.36-9.29,16.71-11.87,26.91-12.58,31.36a.14.14,0,0,0,0,0,21.77,21.77,0,0,0-.26,2.38c0,.07,0,.14,0,.21a12.86,12.86,0,0,0,25.71,0Z"/><path class="cls-4" d="M1015.4,217.68a5.53,5.53,0,0,0-5.53-5.53h-18.5V173.87a5.53,5.53,0,0,0-11.07,0v38.28H961.8a5.53,5.53,0,0,0,0,11.07h18.5v18.5a5.53,5.53,0,0,0,11.07,0v-18.5h18.5A5.53,5.53,0,0,0,1015.4,217.68Z"/><path class="cls-4" d="M1037.11,168.34h35a1.72,1.72,0,0,1,1.52,2.55l-17.06,31.5a1.72,1.72,0,0,0,1.52,2.55h14.3a1.72,1.72,0,0,1,1.58,2.41l-17.15,39.57a.57.57,0,0,1-1.1-.3l4.4-29.23c.13-1-.33-1.9-1.37-1.9L1042.94,218a1.72,1.72,0,0,1-2.24-1.44l-5.32-46.46A1.72,1.72,0,0,1,1037.11,168.34Z"/><path class="cls-4" d="M1093.21,218a17.06,17.06,0,0,1,5.82-12.85l0,0,23.67-22.44,2.35-2.22,2.35,2.22,23.67,22.44,0,0a17.1,17.1,0,1,1-26,21.5,17.1,17.1,0,0,1-31.86-8.65Z"/><path class="cls-4" d="M1212.77,201.31l-1.89,17.29L1207.09,191,1202,204.28l-7.57-35.94-9.73,39.87-3-9.6L1176,232.12l21.75,15.14,21.76-15.14Zm-15,36.48-12.47-5.68-4.15-1.89,6.07-15.94,4.47,10.29L1196,207l8.38,17.84,1.89-4.59,7.57,10-4,1.89Z"/><path class="cls-4" d="M1256.14,215.85a12.56,12.56,0,0,1-.26-2.38A21.76,21.76,0,0,0,1256.14,215.85Z"/><path class="cls-4" d="M1281.58,213.46a12.56,12.56,0,0,1-.26,2.38A21.76,21.76,0,0,0,1281.58,213.46Z"/><path class="cls-4" d="M1281.58,213.26s0,.07,0,.21a21.76,21.76,0,0,1-.26,2.38.15.15,0,0,0,0,0c-.72,4.45-3.29,14.65-12.58,31.36-9.29-16.71-11.87-26.91-12.58-31.36a.14.14,0,0,1,0,0,21.76,21.76,0,0,1-.26-2.38c0-.07,0-.14,0-.21a12.86,12.86,0,0,1,25.71,0Z"/><path class="cls-4" d="M1237.67,183.78a12.56,12.56,0,0,1-.26-2.38A21.76,21.76,0,0,0,1237.67,183.78Z"/><path class="cls-4" d="M1263.11,181.4a12.56,12.56,0,0,1-.26,2.38A21.76,21.76,0,0,0,1263.11,181.4Z"/><path class="cls-4" d="M1263.12,181.19s0,.07,0,.21a21.76,21.76,0,0,1-.26,2.38.15.15,0,0,0,0,0c-.72,4.45-3.29,14.65-12.58,31.36-9.29-16.71-11.87-26.91-12.58-31.36a.14.14,0,0,1,0,0,21.76,21.76,0,0,1-.26-2.38c0-.07,0-.14,0-.21a12.86,12.86,0,0,1,25.71,0Z"/><path class="cls-4" d="M1358.6,197.9a5.53,5.53,0,0,1-5.53,5.53h-18.5v38.28a5.53,5.53,0,0,1-11.07,0V203.44H1305a5.53,5.53,0,0,1,0-11.07h18.5v-18.5a5.53,5.53,0,0,1,11.07,0v18.5h18.5A5.53,5.53,0,0,1,1358.6,197.9Z"/><path class="cls-4" d="M1382.59,247.25h35a1.72,1.72,0,0,0,1.52-2.55l-17.06-31.5a1.72,1.72,0,0,1,1.52-2.55h14.3a1.72,1.72,0,0,0,1.58-2.41l-17.15-39.57a.57.57,0,0,0-1.1.3l4.4,29.23c.13,1-.33,1.9-1.37,1.9l-15.83-2.49a1.72,1.72,0,0,0-2.24,1.44l-5.32,46.46A1.72,1.72,0,0,0,1382.59,247.25Z"/><path class="cls-4" d="M1438.7,197.58a17.06,17.06,0,0,0,5.82,12.85l0,0,23.67,22.44,2.35,2.22,2.35-2.22,23.67-22.44,0,0a17.1,17.1,0,1,0-26-21.5,17.1,17.1,0,0,0-31.86,8.65Z"/><path class="cls-4" d="M825.74,62h35a1.72,1.72,0,0,1,1.52,2.55L845.21,96a1.72,1.72,0,0,0,1.52,2.55H861a1.72,1.72,0,0,1,1.58,2.41l-17.15,39.57a.57.57,0,0,1-1.1-.3l4.4-29.23c.13-1-.33-1.9-1.37-1.9l-15.83,2.49a1.72,1.72,0,0,1-2.24-1.44L824,63.72A1.72,1.72,0,0,1,825.74,62Z"/><path class="cls-4" d="M881.84,111.67a17.06,17.06,0,0,1,5.82-12.85l0,0,23.67-22.44,2.35-2.22L916,76.36,939.71,98.8l0,0a17.1,17.1,0,1,1-26,21.5,17.1,17.1,0,0,1-31.86-8.65Z"/><path class="cls-4" d="M1001.4,95l-1.89,17.29-3.79-27.57-5.13,13.24L983,62l-9.73,39.87-3-9.6-5.68,33.51,21.75,15.14,21.76-15.14Zm-15,36.48-12.47-5.68-4.15-1.89,6.07-15.94,4.47,10.29,4.32-17.59L993,118.48l1.89-4.59,7.57,10-4,1.89Z"/><path class="cls-4" d="M1044.77,109.5a12.56,12.56,0,0,1-.26-2.38A21.76,21.76,0,0,0,1044.77,109.5Z"/><path class="cls-4" d="M1070.21,107.12a12.56,12.56,0,0,1-.26,2.38A21.76,21.76,0,0,0,1070.21,107.12Z"/><path class="cls-4" d="M1070.22,106.91s0,.07,0,.21a21.76,21.76,0,0,1-.26,2.38.15.15,0,0,0,0,0c-.71,4.45-3.29,14.65-12.58,31.36-9.29-16.71-11.87-26.91-12.58-31.36a.14.14,0,0,1,0,0,21.76,21.76,0,0,1-.26-2.38c0-.07,0-.14,0-.21a12.86,12.86,0,0,1,25.71,0Z"/><path class="cls-4" d="M1026.3,77.44a12.56,12.56,0,0,1-.26-2.38A21.77,21.77,0,0,0,1026.3,77.44Z"/><path class="cls-4" d="M1051.74,75.05a12.56,12.56,0,0,1-.26,2.38A21.76,21.76,0,0,0,1051.74,75.05Z"/><path class="cls-4" d="M1051.75,74.85s0,.07,0,.21a21.76,21.76,0,0,1-.26,2.38.15.15,0,0,0,0,0c-.71,4.45-3.29,14.65-12.58,31.36-9.29-16.71-11.87-26.91-12.58-31.36a.14.14,0,0,1,0,0,21.77,21.77,0,0,1-.26-2.38c0-.07,0-.14,0-.21a12.86,12.86,0,0,1,25.71,0Z"/><path class="cls-4" d="M1147.24,91.56a5.53,5.53,0,0,1-5.53,5.53h-18.5v38.28a5.53,5.53,0,0,1-11.07,0V97.09h-18.5a5.53,5.53,0,0,1,0-11.07h18.5V67.52a5.53,5.53,0,0,1,11.07,0V86h18.5A5.53,5.53,0,0,1,1147.24,91.56Z"/><path class="cls-4" d="M1168.94,140.91h35a1.72,1.72,0,0,0,1.52-2.55l-17.06-31.5a1.72,1.72,0,0,1,1.52-2.55h14.3a1.72,1.72,0,0,0,1.58-2.41l-17.15-39.57a.57.57,0,0,0-1.1.3l4.4,29.23c.13,1-.33,1.9-1.37,1.9l-15.83-2.49a1.72,1.72,0,0,0-2.24,1.44l-5.32,46.46A1.72,1.72,0,0,0,1168.94,140.91Z"/><path class="cls-4" d="M1225,91.23a17.06,17.06,0,0,0,5.82,12.85l0,0,23.67,22.44,2.35,2.22,2.35-2.22,23.67-22.44,0,0a17.1,17.1,0,1,0-26-21.5A17.1,17.1,0,0,0,1225,91.23Z"/><path class="cls-4" d="M1351.36,77.13,1329.6,62l-21.75,15.14,5.68,33.51,3-9.6,9.73,39.87,7.57-35.94,5.13,13.24,3.79-27.57,1.89,17.29Zm-9.7,0,4,1.89-7.57,10-1.89-4.59-8.38,17.84-4.32-17.59L1319,95,1313,79l4.15-1.89,12.47-5.68Z"/><path class="cls-4" d="M1388,93.4a12.56,12.56,0,0,0-.26,2.38A21.77,21.77,0,0,1,1388,93.4Z"/><path class="cls-4" d="M1413.42,95.78a12.56,12.56,0,0,0-.26-2.38A21.76,21.76,0,0,1,1413.42,95.78Z"/><path class="cls-4" d="M1413.42,96s0-.07,0-.21a21.76,21.76,0,0,0-.26-2.38.15.15,0,0,1,0,0c-.71-4.45-3.29-14.65-12.58-31.36C1391.28,78.7,1388.7,88.9,1388,93.35a.14.14,0,0,0,0,0,21.77,21.77,0,0,0-.26,2.38c0,.07,0,.14,0,.21a12.86,12.86,0,1,0,25.71,0Z"/><path class="cls-4" d="M1369.51,125.46a12.56,12.56,0,0,0-.26,2.38A21.77,21.77,0,0,1,1369.51,125.46Z"/><path class="cls-4" d="M1395,127.84a12.56,12.56,0,0,0-.26-2.38A21.76,21.76,0,0,1,1395,127.84Z"/><path class="cls-4" d="M1395,128.05s0-.07,0-.21a21.76,21.76,0,0,0-.26-2.38.15.15,0,0,1,0,0c-.71-4.45-3.29-14.65-12.58-31.36-9.29,16.71-11.87,26.91-12.58,31.36a.14.14,0,0,0,0,0,21.77,21.77,0,0,0-.26,2.38c0,.07,0,.14,0,.21a12.86,12.86,0,1,0,25.71,0Z"/><path class="cls-4" d="M1490.44,111.34a5.53,5.53,0,0,0-5.53-5.53h-18.5V67.52a5.53,5.53,0,0,0-11.07,0v38.28h-18.5a5.53,5.53,0,0,0,0,11.07h18.5v18.5a5.53,5.53,0,0,0,11.07,0v-18.5h18.5A5.53,5.53,0,0,0,1490.44,111.34Z"/><path class="cls-4" d="M693.9,672.63h35a1.72,1.72,0,0,0,1.52-2.55l-17.06-31.5a1.72,1.72,0,0,1,1.52-2.55h14.3a1.72,1.72,0,0,0,1.58-2.41l-17.15-39.57a.57.57,0,0,0-1.1.3l4.4,29.23c.13,1-.33,1.9-1.37,1.9L699.73,623a1.72,1.72,0,0,0-2.24,1.44l-5.32,46.46A1.72,1.72,0,0,0,693.9,672.63Z"/><path class="cls-4" d="M750,623a17.06,17.06,0,0,0,5.82,12.85l0,0,23.67,22.44,2.35,2.22,2.35-2.22,23.67-22.44,0,0a17.1,17.1,0,1,0-26-21.5A17.1,17.1,0,0,0,750,623Z"/><path class="cls-4" d="M876.32,608.85l-21.76-15.14L832.8,608.85l5.68,33.51,3-9.6,9.73,39.87,7.57-35.94,5.13,13.24,3.79-27.57,1.89,17.29Zm-9.7,0,4,1.89-7.57,10-1.89-4.59L852.8,634l-4.32-17.59L844,626.68l-6.07-15.94,4.15-1.89,12.47-5.68Z"/><path class="cls-4" d="M912.93,625.12a12.56,12.56,0,0,0-.26,2.38A21.77,21.77,0,0,1,912.93,625.12Z"/><path class="cls-4" d="M938.37,627.5a12.56,12.56,0,0,0-.26-2.38A21.76,21.76,0,0,1,938.37,627.5Z"/><path class="cls-4" d="M938.38,627.71s0-.07,0-.21a21.76,21.76,0,0,0-.26-2.38.15.15,0,0,1,0,0c-.71-4.45-3.29-14.65-12.58-31.36-9.29,16.71-11.87,26.91-12.58,31.36a.14.14,0,0,0,0,0,21.77,21.77,0,0,0-.26,2.38c0,.07,0,.14,0,.21a12.86,12.86,0,1,0,25.71,0Z"/><path class="cls-4" d="M894.46,657.18a12.56,12.56,0,0,0-.26,2.38A21.77,21.77,0,0,1,894.46,657.18Z"/><path class="cls-4" d="M919.91,659.57a12.56,12.56,0,0,0-.26-2.38A21.76,21.76,0,0,1,919.91,659.57Z"/><path class="cls-4" d="M919.91,659.78s0-.07,0-.21a21.76,21.76,0,0,0-.26-2.38.15.15,0,0,1,0,0c-.71-4.45-3.29-14.65-12.58-31.36-9.29,16.71-11.87,26.91-12.58,31.36a.14.14,0,0,0,0,0,21.77,21.77,0,0,0-.26,2.38c0,.07,0,.14,0,.21a12.86,12.86,0,0,0,25.71,0Z"/><path class="cls-4" d="M1015.4,643.06a5.53,5.53,0,0,0-5.53-5.53h-18.5V599.25a5.53,5.53,0,0,0-11.07,0v38.28H961.8a5.53,5.53,0,0,0,0,11.07h18.5v18.5a5.53,5.53,0,0,0,11.07,0v-18.5h18.5A5.53,5.53,0,0,0,1015.4,643.06Z"/><path class="cls-4" d="M1037.11,593.71h35a1.72,1.72,0,0,1,1.52,2.55l-17.06,31.5a1.72,1.72,0,0,0,1.52,2.55h14.3a1.72,1.72,0,0,1,1.58,2.41l-17.15,39.57a.57.57,0,0,1-1.1-.3l4.4-29.23c.13-1-.33-1.9-1.37-1.9l-15.83,2.49a1.72,1.72,0,0,1-2.24-1.44l-5.32-46.46A1.72,1.72,0,0,1,1037.11,593.71Z"/><path class="cls-4" d="M1093.21,643.39a17.06,17.06,0,0,1,5.82-12.85l0,0,23.67-22.44,2.35-2.22,2.35,2.22,23.67,22.44,0,0a17.1,17.1,0,1,1-26,21.5,17.1,17.1,0,0,1-31.86-8.65Z"/><path class="cls-4" d="M1212.77,626.69,1210.87,644l-3.79-27.57L1202,629.66l-7.57-35.94-9.73,39.87-3-9.6L1176,657.5l21.75,15.14,21.76-15.14Zm-15,36.48-12.47-5.68-4.15-1.89,6.07-15.94,4.47,10.29,4.32-17.59,8.38,17.84,1.89-4.59,7.57,10-4,1.89Z"/><path class="cls-4" d="M1256.14,641.23a12.56,12.56,0,0,1-.26-2.38A21.76,21.76,0,0,0,1256.14,641.23Z"/><path class="cls-4" d="M1281.58,638.84a12.56,12.56,0,0,1-.26,2.38A21.76,21.76,0,0,0,1281.58,638.84Z"/><path class="cls-4" d="M1281.58,638.63s0,.07,0,.21a21.76,21.76,0,0,1-.26,2.38.15.15,0,0,0,0,0c-.72,4.45-3.29,14.65-12.58,31.36-9.29-16.71-11.87-26.91-12.58-31.36a.14.14,0,0,1,0,0,21.76,21.76,0,0,1-.26-2.38c0-.07,0-.14,0-.21a12.86,12.86,0,0,1,25.71,0Z"/><path class="cls-4" d="M1237.67,609.16a12.56,12.56,0,0,1-.26-2.38A21.76,21.76,0,0,0,1237.67,609.16Z"/><path class="cls-4" d="M1263.11,606.78a12.56,12.56,0,0,1-.26,2.38A21.76,21.76,0,0,0,1263.11,606.78Z"/><path class="cls-4" d="M1263.12,606.57s0,.07,0,.21a21.76,21.76,0,0,1-.26,2.38.15.15,0,0,0,0,0c-.72,4.45-3.29,14.65-12.58,31.36-9.29-16.71-11.87-26.91-12.58-31.36a.14.14,0,0,1,0,0,21.76,21.76,0,0,1-.26-2.38c0-.07,0-.14,0-.21a12.86,12.86,0,0,1,25.71,0Z"/><path class="cls-4" d="M1358.6,623.28a5.53,5.53,0,0,1-5.53,5.53h-18.5V667.1a5.53,5.53,0,0,1-11.07,0V628.82H1305a5.53,5.53,0,0,1,0-11.07h18.5v-18.5a5.53,5.53,0,0,1,11.07,0v18.5h18.5A5.53,5.53,0,0,1,1358.6,623.28Z"/><path class="cls-4" d="M1382.59,672.63h35a1.72,1.72,0,0,0,1.52-2.55l-17.06-31.5a1.72,1.72,0,0,1,1.52-2.55h14.3a1.72,1.72,0,0,0,1.58-2.41l-17.15-39.57a.57.57,0,0,0-1.1.3l4.4,29.23c.13,1-.33,1.9-1.37,1.9L1388.43,623a1.72,1.72,0,0,0-2.24,1.44l-5.32,46.46A1.72,1.72,0,0,0,1382.59,672.63Z"/><path class="cls-4" d="M1438.7,623a17.06,17.06,0,0,0,5.82,12.85l0,0,23.67,22.44,2.35,2.22,2.35-2.22,23.67-22.44,0,0a17.1,17.1,0,1,0-26-21.5A17.1,17.1,0,0,0,1438.7,623Z"/><path class="cls-4" d="M693.9,885.32h35a1.72,1.72,0,0,0,1.52-2.55l-17.06-31.5a1.72,1.72,0,0,1,1.52-2.55h14.3a1.72,1.72,0,0,0,1.58-2.41l-17.15-39.57a.57.57,0,0,0-1.1.3l4.4,29.23c.13,1-.33,1.9-1.37,1.9l-15.83-2.49a1.72,1.72,0,0,0-2.24,1.44l-5.32,46.46A1.72,1.72,0,0,0,693.9,885.32Z"/><path class="cls-4" d="M750,835.64a17.06,17.06,0,0,0,5.82,12.85l0,0L779.51,871l2.35,2.22,2.35-2.22,23.67-22.44,0,0a17.1,17.1,0,1,0-26-21.5A17.1,17.1,0,0,0,750,835.64Z"/><path class="cls-4" d="M876.32,821.54,854.56,806.4,832.8,821.54,838.48,855l3-9.6,9.73,39.87,7.57-35.94,5.13,13.24,3.79-27.57,1.89,17.29Zm-9.7,0,4,1.89-7.57,10-1.89-4.59-8.38,17.84-4.32-17.59L844,839.37l-6.07-15.94,4.15-1.89,12.47-5.68Z"/><path class="cls-4" d="M912.93,837.81a12.56,12.56,0,0,0-.26,2.38A21.77,21.77,0,0,1,912.93,837.81Z"/><path class="cls-4" d="M938.37,840.19a12.56,12.56,0,0,0-.26-2.38A21.76,21.76,0,0,1,938.37,840.19Z"/><path class="cls-4" d="M938.38,840.4s0-.07,0-.21a21.76,21.76,0,0,0-.26-2.38.15.15,0,0,1,0,0c-.71-4.45-3.29-14.65-12.58-31.36-9.29,16.71-11.87,26.91-12.58,31.36a.14.14,0,0,0,0,0,21.77,21.77,0,0,0-.26,2.38c0,.07,0,.14,0,.21a12.86,12.86,0,0,0,25.71,0Z"/><path class="cls-4" d="M894.46,869.87a12.56,12.56,0,0,0-.26,2.38A21.77,21.77,0,0,1,894.46,869.87Z"/><path class="cls-4" d="M919.91,872.26a12.56,12.56,0,0,0-.26-2.38A21.76,21.76,0,0,1,919.91,872.26Z"/><path class="cls-4" d="M919.91,872.46s0-.07,0-.21a21.76,21.76,0,0,0-.26-2.38.15.15,0,0,1,0,0c-.71-4.45-3.29-14.65-12.58-31.36-9.29,16.71-11.87,26.91-12.58,31.36a.14.14,0,0,0,0,0,21.77,21.77,0,0,0-.26,2.38c0,.07,0,.14,0,.21a12.86,12.86,0,0,0,25.71,0Z"/><path class="cls-4" d="M1015.4,855.75a5.53,5.53,0,0,0-5.53-5.53h-18.5V811.94a5.53,5.53,0,0,0-11.07,0v38.28H961.8a5.53,5.53,0,0,0,0,11.07h18.5v18.5a5.53,5.53,0,0,0,11.07,0v-18.5h18.5A5.53,5.53,0,0,0,1015.4,855.75Z"/><path class="cls-4" d="M1037.11,806.4h35a1.72,1.72,0,0,1,1.52,2.55l-17.06,31.5a1.72,1.72,0,0,0,1.52,2.55h14.3a1.72,1.72,0,0,1,1.58,2.41L1056.83,885a.57.57,0,0,1-1.1-.3l4.4-29.23c.13-1-.33-1.9-1.37-1.9L1042.94,856a1.72,1.72,0,0,1-2.24-1.44l-5.32-46.46A1.72,1.72,0,0,1,1037.11,806.4Z"/><path class="cls-4" d="M1093.21,856.08a17.06,17.06,0,0,1,5.82-12.85l0,0,23.67-22.44,2.35-2.22,2.35,2.22,23.67,22.44,0,0a17.1,17.1,0,1,1-26,21.5,17.1,17.1,0,0,1-31.86-8.65Z"/><path class="cls-4" d="M1212.77,839.38l-1.89,17.29-3.79-27.57L1202,842.35l-7.57-35.94-9.73,39.87-3-9.6L1176,870.18l21.75,15.14,21.76-15.14Zm-15,36.48-12.47-5.68-4.15-1.89,6.07-15.94,4.47,10.29,4.32-17.59,8.38,17.84,1.89-4.59,7.57,10-4,1.89Z"/><path class="cls-4" d="M1256.14,853.91a12.56,12.56,0,0,1-.26-2.38A21.76,21.76,0,0,0,1256.14,853.91Z"/><path class="cls-4" d="M1281.58,851.53a12.56,12.56,0,0,1-.26,2.38A21.76,21.76,0,0,0,1281.58,851.53Z"/><path class="cls-4" d="M1281.58,851.32s0,.07,0,.21a21.76,21.76,0,0,1-.26,2.38.15.15,0,0,0,0,0c-.72,4.45-3.29,14.65-12.58,31.36-9.29-16.71-11.87-26.91-12.58-31.36a.14.14,0,0,1,0,0,21.76,21.76,0,0,1-.26-2.38c0-.07,0-.14,0-.21a12.86,12.86,0,0,1,25.71,0Z"/><path class="cls-4" d="M1237.67,821.85a12.56,12.56,0,0,1-.26-2.38A21.76,21.76,0,0,0,1237.67,821.85Z"/><path class="cls-4" d="M1263.11,819.47a12.56,12.56,0,0,1-.26,2.38A21.76,21.76,0,0,0,1263.11,819.47Z"/><path class="cls-4" d="M1263.12,819.26s0,.07,0,.21a21.76,21.76,0,0,1-.26,2.38.15.15,0,0,0,0,0c-.72,4.45-3.29,14.65-12.58,31.36-9.29-16.71-11.87-26.91-12.58-31.36a.14.14,0,0,1,0,0,21.76,21.76,0,0,1-.26-2.38c0-.07,0-.14,0-.21a12.86,12.86,0,0,1,25.71,0Z"/><path class="cls-4" d="M1358.6,836a5.53,5.53,0,0,1-5.53,5.53h-18.5v38.28a5.53,5.53,0,0,1-11.07,0V841.51H1305a5.53,5.53,0,0,1,0-11.07h18.5v-18.5a5.53,5.53,0,0,1,11.07,0v18.5h18.5A5.53,5.53,0,0,1,1358.6,836Z"/><path class="cls-4" d="M1382.59,885.32h35a1.72,1.72,0,0,0,1.52-2.55l-17.06-31.5a1.72,1.72,0,0,1,1.52-2.55h14.3a1.72,1.72,0,0,0,1.58-2.41l-17.15-39.57a.57.57,0,0,0-1.1.3l4.4,29.23c.13,1-.33,1.9-1.37,1.9l-15.83-2.49a1.72,1.72,0,0,0-2.24,1.44l-5.32,46.46A1.72,1.72,0,0,0,1382.59,885.32Z"/><path class="cls-4" d="M1438.7,835.64a17.06,17.06,0,0,0,5.82,12.85l0,0L1468.21,871l2.35,2.22,2.35-2.22,23.67-22.44,0,0a17.1,17.1,0,1,0-26-21.5,17.1,17.1,0,0,0-31.86,8.65Z"/><path class="cls-4" d="M825.74,700.06h35a1.72,1.72,0,0,1,1.52,2.55l-17.06,31.5a1.72,1.72,0,0,0,1.52,2.55H861a1.72,1.72,0,0,1,1.58,2.41l-17.15,39.57a.57.57,0,0,1-1.1-.3l4.4-29.23c.13-1-.33-1.9-1.37-1.9l-15.83,2.49a1.72,1.72,0,0,1-2.24-1.44L824,701.78A1.72,1.72,0,0,1,825.74,700.06Z"/><path class="cls-4" d="M881.84,749.74a17.06,17.06,0,0,1,5.82-12.85l0,0,23.67-22.44,2.35-2.22,2.35,2.22,23.67,22.44,0,0a17.1,17.1,0,1,1-26,21.5,17.1,17.1,0,0,1-31.86-8.65Z"/><path class="cls-4" d="M1001.4,733l-1.89,17.29-3.79-27.57L990.59,736,983,700.06l-9.73,39.87-3-9.6-5.68,33.51L986.4,779l21.76-15.14Zm-15,36.48-12.47-5.68-4.15-1.89L975.84,746l4.47,10.29,4.32-17.59L993,756.54l1.89-4.59,7.57,10-4,1.89Z"/><path class="cls-4" d="M1044.77,747.57a12.56,12.56,0,0,1-.26-2.38A21.76,21.76,0,0,0,1044.77,747.57Z"/><path class="cls-4" d="M1070.21,745.19a12.56,12.56,0,0,1-.26,2.38A21.76,21.76,0,0,0,1070.21,745.19Z"/><path class="cls-4" d="M1070.22,745s0,.07,0,.21a21.76,21.76,0,0,1-.26,2.38.15.15,0,0,0,0,0c-.71,4.45-3.29,14.65-12.58,31.36-9.29-16.71-11.87-26.91-12.58-31.36a.14.14,0,0,1,0,0,21.76,21.76,0,0,1-.26-2.38c0-.07,0-.14,0-.21a12.86,12.86,0,0,1,25.71,0Z"/><path class="cls-4" d="M1026.3,715.51a12.56,12.56,0,0,1-.26-2.38A21.77,21.77,0,0,0,1026.3,715.51Z"/><path class="cls-4" d="M1051.74,713.12a12.56,12.56,0,0,1-.26,2.38A21.76,21.76,0,0,0,1051.74,713.12Z"/><path class="cls-4" d="M1051.75,712.91s0,.07,0,.21a21.76,21.76,0,0,1-.26,2.38.15.15,0,0,0,0,0c-.71,4.45-3.29,14.65-12.58,31.36-9.29-16.71-11.87-26.91-12.58-31.36a.14.14,0,0,1,0,0,21.77,21.77,0,0,1-.26-2.38c0-.07,0-.14,0-.21a12.86,12.86,0,0,1,25.71,0Z"/><path class="cls-4" d="M1147.24,729.63a5.53,5.53,0,0,1-5.53,5.53h-18.5v38.28a5.53,5.53,0,0,1-11.07,0V735.16h-18.5a5.53,5.53,0,0,1,0-11.07h18.5v-18.5a5.53,5.53,0,0,1,11.07,0v18.5h18.5A5.53,5.53,0,0,1,1147.24,729.63Z"/><path class="cls-4" d="M1168.94,779h35a1.72,1.72,0,0,0,1.52-2.55l-17.06-31.5a1.72,1.72,0,0,1,1.52-2.55h14.3a1.72,1.72,0,0,0,1.58-2.41l-17.15-39.57a.57.57,0,0,0-1.1.3l4.4,29.23c.13,1-.33,1.9-1.37,1.9l-15.83-2.49a1.72,1.72,0,0,0-2.24,1.44l-5.32,46.46A1.72,1.72,0,0,0,1168.94,779Z"/><path class="cls-4" d="M1225,729.3a17.06,17.06,0,0,0,5.82,12.85l0,0,23.67,22.44,2.35,2.22,2.35-2.22,23.67-22.44,0,0a17.1,17.1,0,1,0-26-21.5A17.1,17.1,0,0,0,1225,729.3Z"/><path class="cls-4" d="M1351.36,715.19l-21.76-15.14-21.75,15.14,5.68,33.51,3-9.6,9.73,39.87,7.57-35.94,5.13,13.24,3.79-27.57L1344.6,746Zm-9.7,0,4,1.89-7.57,10-1.89-4.59-8.38,17.84-4.32-17.59L1319,733,1313,717.09l4.15-1.89,12.47-5.68Z"/><path class="cls-4" d="M1388,731.46a12.56,12.56,0,0,0-.26,2.38A21.77,21.77,0,0,1,1388,731.46Z"/><path class="cls-4" d="M1413.42,733.85a12.56,12.56,0,0,0-.26-2.38A21.76,21.76,0,0,1,1413.42,733.85Z"/><path class="cls-4" d="M1413.42,734.06s0-.07,0-.21a21.76,21.76,0,0,0-.26-2.38.15.15,0,0,1,0,0c-.71-4.45-3.29-14.65-12.58-31.36-9.29,16.71-11.87,26.91-12.58,31.36a.14.14,0,0,0,0,0,21.77,21.77,0,0,0-.26,2.38c0,.07,0,.14,0,.21a12.86,12.86,0,1,0,25.71,0Z"/><path class="cls-4" d="M1369.51,763.53a12.56,12.56,0,0,0-.26,2.38A21.77,21.77,0,0,1,1369.51,763.53Z"/><path class="cls-4" d="M1395,765.91a12.56,12.56,0,0,0-.26-2.38A21.76,21.76,0,0,1,1395,765.91Z"/><path class="cls-4" d="M1395,766.12s0-.07,0-.21a21.76,21.76,0,0,0-.26-2.38.15.15,0,0,1,0,0c-.71-4.45-3.29-14.65-12.58-31.36-9.29,16.71-11.87,26.91-12.58,31.36a.14.14,0,0,0,0,0,21.77,21.77,0,0,0-.26,2.38c0,.07,0,.14,0,.21a12.86,12.86,0,1,0,25.71,0Z"/><path class="cls-4" d="M1490.44,749.41a5.53,5.53,0,0,0-5.53-5.53h-18.5V705.59a5.53,5.53,0,0,0-11.07,0v38.28h-18.5a5.53,5.53,0,0,0,0,11.07h18.5v18.5a5.53,5.53,0,0,0,11.07,0v-18.5h18.5A5.53,5.53,0,0,0,1490.44,749.41Z"/><path class="cls-4" d="M825.74,1125.44h35a1.72,1.72,0,0,1,1.52,2.55l-17.06,31.5a1.72,1.72,0,0,0,1.52,2.55H861a1.72,1.72,0,0,1,1.58,2.41L845.46,1204a.57.57,0,0,1-1.1-.3l4.4-29.23c.13-1-.33-1.9-1.37-1.9l-15.83,2.49a1.72,1.72,0,0,1-2.24-1.44L824,1127.16A1.72,1.72,0,0,1,825.74,1125.44Z"/><path class="cls-4" d="M881.84,1175.11a17.06,17.06,0,0,1,5.82-12.85l0,0,23.67-22.44,2.35-2.22,2.35,2.22,23.67,22.44,0,0a17.1,17.1,0,1,1-26,21.5,17.1,17.1,0,0,1-31.86-8.65Z"/><path class="cls-4" d="M1001.4,1158.41l-1.89,17.29-3.79-27.57-5.13,13.24L983,1125.44l-9.73,39.87-3-9.6-5.68,33.51,21.75,15.14,21.76-15.14Zm-15,36.48-12.47-5.68-4.15-1.89,6.07-15.94,4.47,10.29,4.32-17.59,8.38,17.84,1.89-4.59,7.57,10-4,1.89Z"/><path class="cls-4" d="M1070.22,1170.36s0,.07,0,.21a21.76,21.76,0,0,1-.26,2.38.15.15,0,0,0,0,0c-.71,4.45-3.29,14.65-12.58,31.36-9.29-16.71-11.87-26.91-12.58-31.36a.14.14,0,0,1,0,0,21.76,21.76,0,0,1-.26-2.38c0-.07,0-.14,0-.21a12.86,12.86,0,0,1,25.71,0Z"/><path class="cls-4" d="M1026.3,1140.88a12.56,12.56,0,0,1-.26-2.38A21.77,21.77,0,0,0,1026.3,1140.88Z"/><path class="cls-4" d="M1051.74,1138.5a12.56,12.56,0,0,1-.26,2.38A21.76,21.76,0,0,0,1051.74,1138.5Z"/><path class="cls-4" d="M1051.75,1138.29s0,.07,0,.21a21.76,21.76,0,0,1-.26,2.38.15.15,0,0,0,0,0c-.71,4.45-3.29,14.65-12.58,31.36-9.29-16.71-11.87-26.91-12.58-31.36a.14.14,0,0,1,0,0,21.77,21.77,0,0,1-.26-2.38c0-.07,0-.14,0-.21a12.86,12.86,0,1,1,25.71,0Z"/><path class="cls-4" d="M1147.24,1155a5.53,5.53,0,0,1-5.53,5.53h-18.5v38.28a5.53,5.53,0,0,1-11.07,0v-38.28h-18.5a5.53,5.53,0,0,1,0-11.07h18.5V1131a5.53,5.53,0,0,1,11.07,0v18.5h18.5A5.53,5.53,0,0,1,1147.24,1155Z"/><path class="cls-4" d="M1168.94,1204.35h35a1.72,1.72,0,0,0,1.52-2.55l-17.06-31.5a1.72,1.72,0,0,1,1.52-2.55h14.3a1.72,1.72,0,0,0,1.58-2.41l-17.15-39.57a.57.57,0,0,0-1.1.3l4.4,29.23c.13,1-.33,1.9-1.37,1.9l-15.83-2.49a1.72,1.72,0,0,0-2.24,1.44l-5.32,46.46A1.72,1.72,0,0,0,1168.94,1204.35Z"/><path class="cls-4" d="M1225,1154.68a17.06,17.06,0,0,0,5.82,12.85l0,0,23.67,22.44,2.35,2.22,2.35-2.22,23.67-22.44,0,0a17.1,17.1,0,1,0-26-21.5,17.1,17.1,0,0,0-31.86,8.65Z"/><path class="cls-4" d="M1351.36,1140.57l-21.76-15.14-21.75,15.14,5.68,33.51,3-9.6,9.73,39.87,7.57-35.94,5.13,13.24,3.79-27.57,1.89,17.29Zm-9.7,0,4,1.89-7.57,10-1.89-4.59-8.38,17.84-4.32-17.59-4.47,10.29-6.07-15.94,4.15-1.89,12.47-5.68Z"/><path class="cls-4" d="M1388,1156.84a12.56,12.56,0,0,0-.26,2.38A21.77,21.77,0,0,1,1388,1156.84Z"/><path class="cls-4" d="M1413.42,1159.23a12.56,12.56,0,0,0-.26-2.38A21.76,21.76,0,0,1,1413.42,1159.23Z"/><path class="cls-4" d="M1413.42,1159.43s0-.07,0-.21a21.76,21.76,0,0,0-.26-2.38.15.15,0,0,1,0,0c-.71-4.45-3.29-14.65-12.58-31.36-9.29,16.71-11.87,26.91-12.58,31.36a.14.14,0,0,0,0,0,21.77,21.77,0,0,0-.26,2.38c0,.07,0,.14,0,.21a12.86,12.86,0,0,0,25.71,0Z"/><path class="cls-4" d="M1395,1191.5s0-.07,0-.21a21.76,21.76,0,0,0-.26-2.38.15.15,0,0,1,0,0c-.71-4.45-3.29-14.65-12.58-31.36-9.29,16.71-11.87,26.91-12.58,31.36a.14.14,0,0,0,0,0,21.77,21.77,0,0,0-.26,2.38c0,.07,0,.14,0,.21a12.86,12.86,0,1,0,25.71,0Z"/><path class="cls-4" d="M1490.44,1174.78a5.53,5.53,0,0,0-5.53-5.53h-18.5V1131a5.53,5.53,0,0,0-11.07,0v38.28h-18.5a5.53,5.53,0,0,0,0,11.07h18.5v18.5a5.53,5.53,0,0,0,11.07,0v-18.5h18.5A5.53,5.53,0,0,0,1490.44,1174.78Z"/><path class="cls-4" d="M825.74,912.75h35a1.72,1.72,0,0,1,1.52,2.55l-17.06,31.5a1.72,1.72,0,0,0,1.52,2.55H861a1.72,1.72,0,0,1,1.58,2.41l-17.15,39.57a.57.57,0,0,1-1.1-.3l4.4-29.23c.13-1-.33-1.9-1.37-1.9l-15.83,2.49a1.72,1.72,0,0,1-2.24-1.44L824,914.47A1.72,1.72,0,0,1,825.74,912.75Z"/><path class="cls-4" d="M881.84,962.42a17.06,17.06,0,0,1,5.82-12.85l0,0,23.67-22.44,2.35-2.22,2.35,2.22,23.67,22.44,0,0a17.1,17.1,0,1,1-26,21.5,17.1,17.1,0,0,1-31.86-8.65Z"/><path class="cls-4" d="M1001.4,945.72,999.51,963l-3.79-27.57-5.13,13.24L983,912.75l-9.73,39.87-3-9.6-5.68,33.51,21.75,15.14,21.76-15.14Zm-15,36.48-12.47-5.68-4.15-1.89,6.07-15.94L980.32,969l4.32-17.59L993,969.23l1.89-4.59,7.57,10-4,1.89Z"/><path class="cls-4" d="M1044.77,960.26a12.56,12.56,0,0,1-.26-2.38A21.76,21.76,0,0,0,1044.77,960.26Z"/><path class="cls-4" d="M1070.21,957.88a12.56,12.56,0,0,1-.26,2.38A21.76,21.76,0,0,0,1070.21,957.88Z"/><path class="cls-4" d="M1070.22,957.67s0,.07,0,.21a21.76,21.76,0,0,1-.26,2.38.15.15,0,0,0,0,0c-.71,4.45-3.29,14.65-12.58,31.36-9.29-16.71-11.87-26.91-12.58-31.36a.14.14,0,0,1,0,0,21.76,21.76,0,0,1-.26-2.38c0-.07,0-.14,0-.21a12.86,12.86,0,0,1,25.71,0Z"/><path class="cls-4" d="M1026.3,928.19a12.56,12.56,0,0,1-.26-2.38A21.77,21.77,0,0,0,1026.3,928.19Z"/><path class="cls-4" d="M1051.74,925.81a12.56,12.56,0,0,1-.26,2.38A21.76,21.76,0,0,0,1051.74,925.81Z"/><path class="cls-4" d="M1051.75,925.6s0,.07,0,.21a21.76,21.76,0,0,1-.26,2.38.15.15,0,0,0,0,0c-.71,4.45-3.29,14.65-12.58,31.36-9.29-16.71-11.87-26.91-12.58-31.36a.14.14,0,0,1,0,0,21.77,21.77,0,0,1-.26-2.38c0-.07,0-.14,0-.21a12.86,12.86,0,0,1,25.71,0Z"/><path class="cls-4" d="M1147.24,942.32a5.53,5.53,0,0,1-5.53,5.53h-18.5v38.28a5.53,5.53,0,0,1-11.07,0V947.85h-18.5a5.53,5.53,0,0,1,0-11.07h18.5v-18.5a5.53,5.53,0,0,1,11.07,0v18.5h18.5A5.53,5.53,0,0,1,1147.24,942.32Z"/><path class="cls-4" d="M1168.94,991.66h35a1.72,1.72,0,0,0,1.52-2.55l-17.06-31.5a1.72,1.72,0,0,1,1.52-2.55h14.3a1.72,1.72,0,0,0,1.58-2.41l-17.15-39.57a.57.57,0,0,0-1.1.3l4.4,29.23c.13,1-.33,1.9-1.37,1.9L1174.78,942a1.72,1.72,0,0,0-2.24,1.44l-5.32,46.46A1.72,1.72,0,0,0,1168.94,991.66Z"/><path class="cls-4" d="M1225,942a17.06,17.06,0,0,0,5.82,12.85l0,0,23.67,22.44,2.35,2.22,2.35-2.22,23.67-22.44,0,0a17.1,17.1,0,1,0-26-21.5A17.1,17.1,0,0,0,1225,942Z"/><path class="cls-4" d="M1351.36,927.88l-21.76-15.14-21.75,15.14,5.68,33.51,3-9.6,9.73,39.87,7.57-35.94,5.13,13.24,3.79-27.57,1.89,17.29Zm-9.7,0,4,1.89-7.57,10-1.89-4.59L1327.85,953l-4.32-17.59L1319,945.72,1313,929.77l4.15-1.89,12.47-5.68Z"/><path class="cls-4" d="M1388,944.15a12.56,12.56,0,0,0-.26,2.38A21.77,21.77,0,0,1,1388,944.15Z"/><path class="cls-4" d="M1413.42,946.54a12.56,12.56,0,0,0-.26-2.38A21.76,21.76,0,0,1,1413.42,946.54Z"/><path class="cls-4" d="M1413.42,946.74s0-.07,0-.21a21.76,21.76,0,0,0-.26-2.38.15.15,0,0,1,0,0c-.71-4.45-3.29-14.65-12.58-31.36-9.29,16.71-11.87,26.91-12.58,31.36a.14.14,0,0,0,0,0,21.77,21.77,0,0,0-.26,2.38c0,.07,0,.14,0,.21a12.86,12.86,0,1,0,25.71,0Z"/><path class="cls-4" d="M1369.51,976.22a12.56,12.56,0,0,0-.26,2.38A21.77,21.77,0,0,1,1369.51,976.22Z"/><path class="cls-4" d="M1395,978.6a12.56,12.56,0,0,0-.26-2.38A21.76,21.76,0,0,1,1395,978.6Z"/><path class="cls-4" d="M1395,978.81s0-.07,0-.21a21.76,21.76,0,0,0-.26-2.38.15.15,0,0,1,0,0c-.71-4.45-3.29-14.65-12.58-31.36-9.29,16.71-11.87,26.91-12.58,31.36a.14.14,0,0,0,0,0,21.77,21.77,0,0,0-.26,2.38c0,.07,0,.14,0,.21a12.86,12.86,0,1,0,25.71,0Z"/><path class="cls-4" d="M1490.44,962.1a5.53,5.53,0,0,0-5.53-5.53h-18.5V918.28a5.53,5.53,0,0,0-11.07,0v38.28h-18.5a5.53,5.53,0,0,0,0,11.07h18.5v18.5a5.53,5.53,0,0,0,11.07,0v-18.5h18.5A5.53,5.53,0,0,0,1490.44,962.1Z"/><path class="cls-4" d="M693.9,1098h35a1.72,1.72,0,0,0,1.52-2.55L713.37,1064a1.72,1.72,0,0,1,1.52-2.55h14.3a1.72,1.72,0,0,0,1.58-2.41l-17.15-39.57a.57.57,0,0,0-1.1.3l4.4,29.23c.13,1-.33,1.9-1.37,1.9l-15.83-2.49a1.72,1.72,0,0,0-2.24,1.44l-5.32,46.46A1.72,1.72,0,0,0,693.9,1098Z"/><path class="cls-4" d="M750,1048.33a17.06,17.06,0,0,0,5.82,12.85l0,0,23.67,22.44,2.35,2.22,2.35-2.22,23.67-22.44,0,0a17.1,17.1,0,1,0-26-21.5,17.1,17.1,0,0,0-31.86,8.65Z"/><path class="cls-4" d="M876.32,1034.23l-21.76-15.14-21.75,15.14,5.68,33.51,3-9.6,9.73,39.87,7.57-35.94,5.13,13.24,3.79-27.57,1.89,17.29Zm-9.7,0,4,1.89-7.57,10-1.89-4.59-8.38,17.84-4.32-17.59L844,1052.06l-6.07-15.94,4.15-1.89,12.47-5.68Z"/><path class="cls-4" d="M912.93,1050.5a12.56,12.56,0,0,0-.26,2.38A21.77,21.77,0,0,1,912.93,1050.5Z"/><path class="cls-4" d="M938.37,1052.88a12.56,12.56,0,0,0-.26-2.38A21.76,21.76,0,0,1,938.37,1052.88Z"/><path class="cls-4" d="M938.38,1053.09s0-.07,0-.21a21.76,21.76,0,0,0-.26-2.38.15.15,0,0,1,0,0c-.71-4.45-3.29-14.65-12.58-31.36-9.29,16.71-11.87,26.91-12.58,31.36a.14.14,0,0,0,0,0,21.77,21.77,0,0,0-.26,2.38c0,.07,0,.14,0,.21a12.86,12.86,0,0,0,25.71,0Z"/><path class="cls-4" d="M894.46,1082.56a12.56,12.56,0,0,0-.26,2.38A21.77,21.77,0,0,1,894.46,1082.56Z"/><path class="cls-4" d="M919.91,1084.95a12.56,12.56,0,0,0-.26-2.38A21.76,21.76,0,0,1,919.91,1084.95Z"/><path class="cls-4" d="M919.91,1085.15s0-.07,0-.21a21.76,21.76,0,0,0-.26-2.38.15.15,0,0,1,0,0c-.71-4.45-3.29-14.65-12.58-31.36-9.29,16.71-11.87,26.91-12.58,31.36a.14.14,0,0,0,0,0,21.77,21.77,0,0,0-.26,2.38c0,.07,0,.14,0,.21a12.86,12.86,0,1,0,25.71,0Z"/><path class="cls-4" d="M1015.4,1068.44a5.53,5.53,0,0,0-5.53-5.53h-18.5v-38.28a5.53,5.53,0,0,0-11.07,0v38.28H961.8a5.53,5.53,0,0,0,0,11.07h18.5v18.5a5.53,5.53,0,0,0,11.07,0V1074h18.5A5.53,5.53,0,0,0,1015.4,1068.44Z"/><path class="cls-4" d="M1037.11,1019.09h35a1.72,1.72,0,0,1,1.52,2.55l-17.06,31.5a1.72,1.72,0,0,0,1.52,2.55h14.3a1.72,1.72,0,0,1,1.58,2.41l-17.15,39.57a.57.57,0,0,1-1.1-.3l4.4-29.23c.13-1-.33-1.9-1.37-1.9l-15.83,2.49a1.72,1.72,0,0,1-2.24-1.44l-5.32-46.46A1.72,1.72,0,0,1,1037.11,1019.09Z"/><path class="cls-4" d="M1093.21,1068.77a17.06,17.06,0,0,1,5.82-12.85l0,0,23.67-22.44,2.35-2.22,2.35,2.22,23.67,22.44,0,0a17.1,17.1,0,1,1-26,21.5,17.1,17.1,0,0,1-31.86-8.65Z"/><path class="cls-4" d="M1212.77,1052.07l-1.89,17.29-3.79-27.57L1202,1055l-7.57-35.94-9.73,39.87-3-9.6-5.68,33.51,21.75,15.14,21.76-15.14Zm-15,36.48-12.47-5.68-4.15-1.89,6.07-15.94,4.47,10.29,4.32-17.59,8.38,17.84,1.89-4.59,7.57,10-4,1.89Z"/><path class="cls-4" d="M1256.14,1066.6a12.56,12.56,0,0,1-.26-2.38A21.76,21.76,0,0,0,1256.14,1066.6Z"/><path class="cls-4" d="M1281.58,1064.22a12.56,12.56,0,0,1-.26,2.38A21.76,21.76,0,0,0,1281.58,1064.22Z"/><path class="cls-4" d="M1281.58,1064s0,.07,0,.21a21.76,21.76,0,0,1-.26,2.38.15.15,0,0,0,0,0c-.72,4.45-3.29,14.65-12.58,31.36-9.29-16.71-11.87-26.91-12.58-31.36a.14.14,0,0,1,0,0,21.76,21.76,0,0,1-.26-2.38c0-.07,0-.14,0-.21a12.86,12.86,0,1,1,25.71,0Z"/><path class="cls-4" d="M1237.67,1034.54a12.56,12.56,0,0,1-.26-2.38A21.76,21.76,0,0,0,1237.67,1034.54Z"/><path class="cls-4" d="M1263.11,1032.16a12.56,12.56,0,0,1-.26,2.38A21.76,21.76,0,0,0,1263.11,1032.16Z"/><path class="cls-4" d="M1263.12,1031.95s0,.07,0,.21a21.76,21.76,0,0,1-.26,2.38.15.15,0,0,0,0,0c-.72,4.45-3.29,14.65-12.58,31.36-9.29-16.71-11.87-26.91-12.58-31.36a.14.14,0,0,1,0,0,21.76,21.76,0,0,1-.26-2.38c0-.07,0-.14,0-.21a12.86,12.86,0,0,1,25.71,0Z"/><path class="cls-4" d="M1358.6,1048.66a5.53,5.53,0,0,1-5.53,5.53h-18.5v38.28a5.53,5.53,0,0,1-11.07,0v-38.28H1305a5.53,5.53,0,0,1,0-11.07h18.5v-18.5a5.53,5.53,0,0,1,11.07,0v18.5h18.5A5.53,5.53,0,0,1,1358.6,1048.66Z"/><path class="cls-4" d="M1382.59,1098h35a1.72,1.72,0,0,0,1.52-2.55l-17.06-31.5a1.72,1.72,0,0,1,1.52-2.55h14.3a1.72,1.72,0,0,0,1.58-2.41l-17.15-39.57a.57.57,0,0,0-1.1.3l4.4,29.23c.13,1-.33,1.9-1.37,1.9l-15.83-2.49a1.72,1.72,0,0,0-2.24,1.44l-5.32,46.46A1.72,1.72,0,0,0,1382.59,1098Z"/><path class="cls-4" d="M1438.7,1048.33a17.06,17.06,0,0,0,5.82,12.85l0,0,23.67,22.44,2.35,2.22,2.35-2.22,23.67-22.44,0,0a17.1,17.1,0,1,0-26-21.5,17.1,17.1,0,0,0-31.86,8.65Z"/><path class="cls-4" d="M825.74,274.68h35a1.72,1.72,0,0,1,1.52,2.55l-17.06,31.5a1.72,1.72,0,0,0,1.52,2.55H861a1.72,1.72,0,0,1,1.58,2.41l-17.15,39.57a.57.57,0,0,1-1.1-.3l4.4-29.23c.13-1-.33-1.9-1.37-1.9l-15.83,2.49a1.72,1.72,0,0,1-2.24-1.44L824,276.4A1.72,1.72,0,0,1,825.74,274.68Z"/><path class="cls-4" d="M881.84,324.36a17.06,17.06,0,0,1,5.82-12.85l0,0L911.35,289l2.35-2.22L916,289l23.67,22.44,0,0a17.1,17.1,0,1,1-26,21.5,17.1,17.1,0,0,1-31.86-8.65Z"/><path class="cls-4" d="M1001.4,307.65l-1.89,17.29-3.79-27.57-5.13,13.24L983,274.68l-9.73,39.87-3-9.6-5.68,33.51L986.4,353.6l21.76-15.14Zm-15,36.48-12.47-5.68-4.15-1.89,6.07-15.94,4.47,10.29,4.32-17.59L993,331.17l1.89-4.59,7.57,10-4,1.89Z"/><path class="cls-4" d="M1044.77,322.19a12.56,12.56,0,0,1-.26-2.38A21.76,21.76,0,0,0,1044.77,322.19Z"/><path class="cls-4" d="M1070.21,319.81a12.56,12.56,0,0,1-.26,2.38A21.76,21.76,0,0,0,1070.21,319.81Z"/><path class="cls-4" d="M1070.22,319.6s0,.07,0,.21a21.76,21.76,0,0,1-.26,2.38.15.15,0,0,0,0,0c-.71,4.45-3.29,14.65-12.58,31.36-9.29-16.71-11.87-26.91-12.58-31.36a.14.14,0,0,1,0,0,21.76,21.76,0,0,1-.26-2.38c0-.07,0-.14,0-.21a12.86,12.86,0,0,1,25.71,0Z"/><path class="cls-4" d="M1026.3,290.13a12.56,12.56,0,0,1-.26-2.38A21.77,21.77,0,0,0,1026.3,290.13Z"/><path class="cls-4" d="M1051.74,287.74a12.56,12.56,0,0,1-.26,2.38A21.76,21.76,0,0,0,1051.74,287.74Z"/><path class="cls-4" d="M1051.75,287.54s0,.07,0,.21a21.76,21.76,0,0,1-.26,2.38.15.15,0,0,0,0,0c-.71,4.45-3.29,14.65-12.58,31.36-9.29-16.71-11.87-26.91-12.58-31.36a.14.14,0,0,1,0,0,21.77,21.77,0,0,1-.26-2.38c0-.07,0-.14,0-.21a12.86,12.86,0,0,1,25.71,0Z"/><path class="cls-4" d="M1147.24,304.25a5.53,5.53,0,0,1-5.53,5.53h-18.5v38.28a5.53,5.53,0,0,1-11.07,0V309.78h-18.5a5.53,5.53,0,0,1,0-11.07h18.5v-18.5a5.53,5.53,0,0,1,11.07,0v18.5h18.5A5.53,5.53,0,0,1,1147.24,304.25Z"/><path class="cls-4" d="M1168.94,353.6h35a1.72,1.72,0,0,0,1.52-2.55l-17.06-31.5a1.72,1.72,0,0,1,1.52-2.55h14.3a1.72,1.72,0,0,0,1.58-2.41L1188.67,275a.57.57,0,0,0-1.1.3l4.4,29.23c.13,1-.33,1.9-1.37,1.9L1174.78,304a1.72,1.72,0,0,0-2.24,1.44l-5.32,46.46A1.72,1.72,0,0,0,1168.94,353.6Z"/><path class="cls-4" d="M1225,303.92a17.06,17.06,0,0,0,5.82,12.85l0,0,23.67,22.44,2.35,2.22,2.35-2.22,23.67-22.44,0,0a17.1,17.1,0,1,0-26-21.5,17.1,17.1,0,0,0-31.86,8.65Z"/><path class="cls-4" d="M1351.36,289.82l-21.76-15.14-21.75,15.14,5.68,33.51,3-9.6,9.73,39.87,7.57-35.94,5.13,13.24,3.79-27.57,1.89,17.29Zm-9.7,0,4,1.89-7.57,10-1.89-4.59-8.38,17.84-4.32-17.59L1319,307.65,1313,291.71l4.15-1.89,12.47-5.68Z"/><path class="cls-4" d="M1388,306.09a12.56,12.56,0,0,0-.26,2.38A21.77,21.77,0,0,1,1388,306.09Z"/><path class="cls-4" d="M1413.42,308.47a12.56,12.56,0,0,0-.26-2.38A21.76,21.76,0,0,1,1413.42,308.47Z"/><path class="cls-4" d="M1413.42,308.68s0-.07,0-.21a21.76,21.76,0,0,0-.26-2.38.15.15,0,0,1,0,0c-.71-4.45-3.29-14.65-12.58-31.36-9.29,16.71-11.87,26.91-12.58,31.36a.14.14,0,0,0,0,0,21.77,21.77,0,0,0-.26,2.38c0,.07,0,.14,0,.21a12.86,12.86,0,1,0,25.71,0Z"/><path class="cls-4" d="M1369.51,338.15a12.56,12.56,0,0,0-.26,2.38A21.77,21.77,0,0,1,1369.51,338.15Z"/><path class="cls-4" d="M1395,340.53a12.56,12.56,0,0,0-.26-2.38A21.76,21.76,0,0,1,1395,340.53Z"/><path class="cls-4" d="M1395,340.74s0-.07,0-.21a21.76,21.76,0,0,0-.26-2.38.15.15,0,0,1,0,0c-.71-4.45-3.29-14.65-12.58-31.36-9.29,16.71-11.87,26.91-12.58,31.36a.14.14,0,0,0,0,0,21.77,21.77,0,0,0-.26,2.38c0,.07,0,.14,0,.21a12.86,12.86,0,1,0,25.71,0Z"/><path class="cls-4" d="M1490.44,324a5.53,5.53,0,0,0-5.53-5.53h-18.5V280.21a5.53,5.53,0,0,0-11.07,0v38.28h-18.5a5.53,5.53,0,0,0,0,11.07h18.5v18.5a5.53,5.53,0,0,0,11.07,0v-18.5h18.5A5.53,5.53,0,0,0,1490.44,324Z"/><path class="cls-4" d="M825.74,487.37h35a1.72,1.72,0,0,1,1.52,2.55l-17.06,31.5a1.72,1.72,0,0,0,1.52,2.55H861a1.72,1.72,0,0,1,1.58,2.41l-17.15,39.57a.57.57,0,0,1-1.1-.3l4.4-29.23c.13-1-.33-1.9-1.37-1.9L831.57,537a1.72,1.72,0,0,1-2.24-1.44L824,489.09A1.72,1.72,0,0,1,825.74,487.37Z"/><path class="cls-4" d="M881.84,537a17.06,17.06,0,0,1,5.82-12.85l0,0,23.67-22.44,2.35-2.22,2.35,2.22,23.67,22.44,0,0a17.1,17.1,0,1,1-26,21.5A17.1,17.1,0,0,1,881.84,537Z"/><path class="cls-4" d="M1001.4,520.34l-1.89,17.29-3.79-27.57-5.13,13.24L983,487.37l-9.73,39.87-3-9.6-5.68,33.51,21.75,15.14,21.76-15.14Zm-15,36.48-12.47-5.68-4.15-1.89,6.07-15.94,4.47,10.29L984.64,526,993,543.85l1.89-4.59,7.57,10-4,1.89Z"/><path class="cls-4" d="M1044.77,534.88a12.56,12.56,0,0,1-.26-2.38A21.76,21.76,0,0,0,1044.77,534.88Z"/><path class="cls-4" d="M1070.21,532.5a12.56,12.56,0,0,1-.26,2.38A21.76,21.76,0,0,0,1070.21,532.5Z"/><path class="cls-4" d="M1070.22,532.29s0,.07,0,.21a21.76,21.76,0,0,1-.26,2.38.15.15,0,0,0,0,0c-.71,4.45-3.29,14.65-12.58,31.36-9.29-16.71-11.87-26.91-12.58-31.36a.14.14,0,0,1,0,0,21.76,21.76,0,0,1-.26-2.38c0-.07,0-.14,0-.21a12.86,12.86,0,0,1,25.71,0Z"/><path class="cls-4" d="M1026.3,502.82a12.56,12.56,0,0,1-.26-2.38A21.77,21.77,0,0,0,1026.3,502.82Z"/><path class="cls-4" d="M1051.74,500.43a12.56,12.56,0,0,1-.26,2.38A21.76,21.76,0,0,0,1051.74,500.43Z"/><path class="cls-4" d="M1051.75,500.22s0,.07,0,.21a21.76,21.76,0,0,1-.26,2.38.15.15,0,0,0,0,0c-.71,4.45-3.29,14.65-12.58,31.36-9.29-16.71-11.87-26.91-12.58-31.36a.14.14,0,0,1,0,0,21.77,21.77,0,0,1-.26-2.38c0-.07,0-.14,0-.21a12.86,12.86,0,0,1,25.71,0Z"/><path class="cls-4" d="M1147.24,516.94a5.53,5.53,0,0,1-5.53,5.53h-18.5v38.28a5.53,5.53,0,0,1-11.07,0V522.47h-18.5a5.53,5.53,0,0,1,0-11.07h18.5V492.9a5.53,5.53,0,0,1,11.07,0v18.5h18.5A5.53,5.53,0,0,1,1147.24,516.94Z"/><path class="cls-4" d="M1168.94,566.29h35a1.72,1.72,0,0,0,1.52-2.55l-17.06-31.5a1.72,1.72,0,0,1,1.52-2.55h14.3a1.72,1.72,0,0,0,1.58-2.41l-17.15-39.57a.57.57,0,0,0-1.1.3l4.4,29.23c.13,1-.33,1.9-1.37,1.9l-15.83-2.49a1.72,1.72,0,0,0-2.24,1.44l-5.32,46.46A1.72,1.72,0,0,0,1168.94,566.29Z"/><path class="cls-4" d="M1225,516.61a17.06,17.06,0,0,0,5.82,12.85l0,0,23.67,22.44,2.35,2.22,2.35-2.22,23.67-22.44,0,0a17.1,17.1,0,1,0-26-21.5,17.1,17.1,0,0,0-31.86,8.65Z"/><path class="cls-4" d="M1351.36,502.5l-21.76-15.14-21.75,15.14,5.68,33.51,3-9.6,9.73,39.87,7.57-35.94,5.13,13.24,3.79-27.57,1.89,17.29Zm-9.7,0,4,1.89-7.57,10-1.89-4.59-8.38,17.84L1323.52,510,1319,520.34,1313,504.4l4.15-1.89,12.47-5.68Z"/><path class="cls-4" d="M1388,518.77a12.56,12.56,0,0,0-.26,2.38A21.77,21.77,0,0,1,1388,518.77Z"/><path class="cls-4" d="M1413.42,521.16a12.56,12.56,0,0,0-.26-2.38A21.76,21.76,0,0,1,1413.42,521.16Z"/><path class="cls-4" d="M1413.42,521.37s0-.07,0-.21a21.76,21.76,0,0,0-.26-2.38.15.15,0,0,1,0,0c-.71-4.45-3.29-14.65-12.58-31.36-9.29,16.71-11.87,26.91-12.58,31.36a.14.14,0,0,0,0,0,21.77,21.77,0,0,0-.26,2.38c0,.07,0,.14,0,.21a12.86,12.86,0,1,0,25.71,0Z"/><path class="cls-4" d="M1369.51,550.84a12.56,12.56,0,0,0-.26,2.38A21.77,21.77,0,0,1,1369.51,550.84Z"/><path class="cls-4" d="M1395,553.22a12.56,12.56,0,0,0-.26-2.38A21.76,21.76,0,0,1,1395,553.22Z"/><path class="cls-4" d="M1395,553.43s0-.07,0-.21a21.76,21.76,0,0,0-.26-2.38.15.15,0,0,1,0,0c-.71-4.45-3.29-14.65-12.58-31.36-9.29,16.71-11.87,26.91-12.58,31.36a.14.14,0,0,0,0,0,21.77,21.77,0,0,0-.26,2.38c0,.07,0,.14,0,.21a12.86,12.86,0,1,0,25.71,0Z"/><path class="cls-4" d="M1490.44,536.72a5.53,5.53,0,0,0-5.53-5.53h-18.5V492.9a5.53,5.53,0,0,0-11.07,0v38.28h-18.5a5.53,5.53,0,0,0,0,11.07h18.5v18.5a5.53,5.53,0,0,0,11.07,0v-18.5h18.5A5.53,5.53,0,0,0,1490.44,536.72Z"/><path class="cls-4" d="M693.9,459.94h35a1.72,1.72,0,0,0,1.52-2.55l-17.06-31.5a1.72,1.72,0,0,1,1.52-2.55h14.3a1.72,1.72,0,0,0,1.58-2.41l-17.15-39.57a.57.57,0,0,0-1.1.3l4.4,29.23c.13,1-.33,1.9-1.37,1.9l-15.83-2.49a1.72,1.72,0,0,0-2.24,1.44l-5.32,46.46A1.72,1.72,0,0,0,693.9,459.94Z"/><path class="cls-4" d="M750,410.26a17.06,17.06,0,0,0,5.82,12.85l0,0,23.67,22.44,2.35,2.22,2.35-2.22,23.67-22.44,0,0a17.1,17.1,0,1,0-26-21.5A17.1,17.1,0,0,0,750,410.26Z"/><path class="cls-4" d="M876.32,396.16,854.56,381,832.8,396.16l5.68,33.51,3-9.6,9.73,39.87L858.75,424l5.13,13.24,3.79-27.57L869.56,427Zm-9.7,0,4,1.89-7.57,10-1.89-4.59-8.38,17.84-4.32-17.59L844,414l-6.07-15.94,4.15-1.89,12.47-5.68Z"/><path class="cls-4" d="M912.93,412.43a12.56,12.56,0,0,0-.26,2.38A21.77,21.77,0,0,1,912.93,412.43Z"/><path class="cls-4" d="M938.37,414.81a12.56,12.56,0,0,0-.26-2.38A21.76,21.76,0,0,1,938.37,414.81Z"/><path class="cls-4" d="M938.38,415s0-.07,0-.21a21.76,21.76,0,0,0-.26-2.38.15.15,0,0,1,0,0c-.71-4.45-3.29-14.65-12.58-31.36-9.29,16.71-11.87,26.91-12.58,31.36a.14.14,0,0,0,0,0,21.77,21.77,0,0,0-.26,2.38c0,.07,0,.14,0,.21a12.86,12.86,0,0,0,25.71,0Z"/><path class="cls-4" d="M894.46,444.49a12.56,12.56,0,0,0-.26,2.38A21.77,21.77,0,0,1,894.46,444.49Z"/><path class="cls-4" d="M919.91,446.88a12.56,12.56,0,0,0-.26-2.38A21.76,21.76,0,0,1,919.91,446.88Z"/><path class="cls-4" d="M919.91,447.09s0-.07,0-.21a21.76,21.76,0,0,0-.26-2.38.15.15,0,0,1,0,0c-.71-4.45-3.29-14.65-12.58-31.36-9.29,16.71-11.87,26.91-12.58,31.36a.14.14,0,0,0,0,0,21.77,21.77,0,0,0-.26,2.38c0,.07,0,.14,0,.21a12.86,12.86,0,0,0,25.71,0Z"/><path class="cls-4" d="M1015.4,430.37a5.53,5.53,0,0,0-5.53-5.53h-18.5V386.56a5.53,5.53,0,0,0-11.07,0v38.28H961.8a5.53,5.53,0,0,0,0,11.07h18.5v18.5a5.53,5.53,0,0,0,11.07,0v-18.5h18.5A5.53,5.53,0,0,0,1015.4,430.37Z"/><path class="cls-4" d="M1037.11,381h35a1.72,1.72,0,0,1,1.52,2.55l-17.06,31.5a1.72,1.72,0,0,0,1.52,2.55h14.3A1.72,1.72,0,0,1,1074,420l-17.15,39.57a.57.57,0,0,1-1.1-.3l4.4-29.23c.13-1-.33-1.9-1.37-1.9l-15.83,2.49a1.72,1.72,0,0,1-2.24-1.44l-5.32-46.46A1.72,1.72,0,0,1,1037.11,381Z"/><path class="cls-4" d="M1093.21,430.7a17.06,17.06,0,0,1,5.82-12.85l0,0,23.67-22.44,2.35-2.22,2.35,2.22,23.67,22.44,0,0a17.1,17.1,0,1,1-26,21.5,17.1,17.1,0,0,1-31.86-8.65Z"/><path class="cls-4" d="M1212.77,414l-1.89,17.29-3.79-27.57L1202,417,1194.39,381l-9.73,39.87-3-9.6L1176,444.81l21.75,15.14,21.76-15.14Zm-15,36.48-12.47-5.68-4.15-1.89,6.07-15.94,4.47,10.29,4.32-17.59,8.38,17.84,1.89-4.59,7.57,10-4,1.89Z"/><path class="cls-4" d="M1256.14,428.54a12.56,12.56,0,0,1-.26-2.38A21.76,21.76,0,0,0,1256.14,428.54Z"/><path class="cls-4" d="M1281.58,426.15a12.56,12.56,0,0,1-.26,2.38A21.76,21.76,0,0,0,1281.58,426.15Z"/><path class="cls-4" d="M1281.58,425.94s0,.07,0,.21a21.76,21.76,0,0,1-.26,2.38.15.15,0,0,0,0,0c-.72,4.45-3.29,14.65-12.58,31.36-9.29-16.71-11.87-26.91-12.58-31.36a.14.14,0,0,1,0,0,21.76,21.76,0,0,1-.26-2.38c0-.07,0-.14,0-.21a12.86,12.86,0,0,1,25.71,0Z"/><path class="cls-4" d="M1237.67,396.47a12.56,12.56,0,0,1-.26-2.38A21.76,21.76,0,0,0,1237.67,396.47Z"/><path class="cls-4" d="M1263.11,394.09a12.56,12.56,0,0,1-.26,2.38A21.76,21.76,0,0,0,1263.11,394.09Z"/><path class="cls-4" d="M1263.12,393.88s0,.07,0,.21a21.76,21.76,0,0,1-.26,2.38.15.15,0,0,0,0,0c-.72,4.45-3.29,14.65-12.58,31.36-9.29-16.71-11.87-26.91-12.58-31.36a.14.14,0,0,1,0,0,21.76,21.76,0,0,1-.26-2.38c0-.07,0-.14,0-.21a12.86,12.86,0,0,1,25.71,0Z"/><path class="cls-4" d="M1358.6,410.59a5.53,5.53,0,0,1-5.53,5.53h-18.5v38.28a5.53,5.53,0,0,1-11.07,0V416.13H1305a5.53,5.53,0,0,1,0-11.07h18.5v-18.5a5.53,5.53,0,0,1,11.07,0v18.5h18.5A5.53,5.53,0,0,1,1358.6,410.59Z"/><path class="cls-4" d="M1382.59,459.94h35a1.72,1.72,0,0,0,1.52-2.55l-17.06-31.5a1.72,1.72,0,0,1,1.52-2.55h14.3a1.72,1.72,0,0,0,1.58-2.41l-17.15-39.57a.57.57,0,0,0-1.1.3l4.4,29.23c.13,1-.33,1.9-1.37,1.9l-15.83-2.49a1.72,1.72,0,0,0-2.24,1.44l-5.32,46.46A1.72,1.72,0,0,0,1382.59,459.94Z"/><path class="cls-4" d="M1438.7,410.26a17.06,17.06,0,0,0,5.82,12.85l0,0,23.67,22.44,2.35,2.22,2.35-2.22,23.67-22.44,0,0a17.1,17.1,0,1,0-26-21.5,17.1,17.1,0,0,0-31.86,8.65Z"/></g></svg>