<svg id="Layer_1" data-name="Layer 1" xmlns="http://www.w3.org/2000/svg" xmlns:xlink="http://www.w3.org/1999/xlink" viewBox="0 0 1202 928"><defs><style>.cls-1{fill:none;}.cls-2{fill:#ffda69;}.cls-3{clip-path:url(#clip-path);}.cls-4{fill:#77e553;}</style><clipPath id="clip-path"><rect class="cls-1" x="1" y="0.36" width="1200" height="927.27"/></clipPath></defs><title>BG4</title><rect class="cls-2" x="1" y="0.36" width="1200" height="927.27"/><g class="cls-3"><path class="cls-4" d="M10,27.65H38a1.38,1.38,0,0,0,1.21-2L25.61.42a1.38,1.38,0,0,1,1.21-2H38.26a1.38,1.38,0,0,0,1.27-1.93L25.8-35.2a.46.46,0,0,0-.88.24l3.52,23.38c.11.83-.26,1.52-1.1,1.52l-12.66-2A1.38,1.38,0,0,0,12.9-10.9L8.65,26.27A1.38,1.38,0,0,0,10,27.65Z"/><path class="cls-4" d="M54.91-12.09A13.65,13.65,0,0,0,59.56-1.81l0,0,18.94,18,1.88,1.78,1.88-1.78,18.94-18,0,0a13.65,13.65,0,0,0,4.66-10.28A13.68,13.68,0,0,0,92.2-25.77,13.66,13.66,0,0,0,80.39-19a13.66,13.66,0,0,0-11.8-6.76A13.68,13.68,0,0,0,54.91-12.09Z"/><path class="cls-4" d="M156-23.37,138.55-35.48l-17.4,12.11,4.54,26.81,2.38-7.68,7.78,31.9L141.91-1.1,146,9.49l3-22.05,1.51,13.84Zm-7.76,0,3.22,1.51-6.05,8-1.51-3.67-6.7,14.27-3.46-14.07-3.58,8.23-4.85-12.75,3.32-1.51,10-4.54Z"/><path class="cls-4" d="M205.61-8.29s0-.06,0-.17a17.41,17.41,0,0,0-.21-1.91.12.12,0,0,1,0,0c-.57-3.56-2.63-11.72-10.07-25.09-7.43,13.37-9.49,21.53-10.07,25.09a.12.12,0,0,0,0,0A17.41,17.41,0,0,0,185-8.45c0,.06,0,.11,0,.17A10.28,10.28,0,0,0,195.33,2,10.28,10.28,0,0,0,205.61-8.29Z"/><path class="cls-4" d="M170.48,15.29a10,10,0,0,0-.21,1.91A17.41,17.41,0,0,1,170.48,15.29Z"/><path class="cls-4" d="M190.83,17.2a10,10,0,0,0-.21-1.91A17.41,17.41,0,0,1,190.83,17.2Z"/><path class="cls-4" d="M190.84,17.37s0-.06,0-.17a17.41,17.41,0,0,0-.21-1.91.12.12,0,0,1,0,0C190,11.69,188,3.54,180.55-9.83c-7.43,13.37-9.49,21.53-10.07,25.09a.12.12,0,0,0,0,0,17.41,17.41,0,0,0-.21,1.91c0,.06,0,.11,0,.17a10.28,10.28,0,1,0,20.57,0Z"/><path class="cls-4" d="M267.22,4A4.43,4.43,0,0,0,262.8-.43H248V-31.06a4.43,4.43,0,0,0-4.43-4.43,4.41,4.41,0,0,0-3.13,1.3,4.41,4.41,0,0,0-1.3,3.13V-.43h-14.8a4.43,4.43,0,0,0,0,8.85h14.8v14.8a4.43,4.43,0,0,0,8.85,0V8.42h14.8A4.43,4.43,0,0,0,267.22,4Z"/><path class="cls-4" d="M284.59-35.48h28a1.38,1.38,0,0,1,1.21,2L300.17-8.25a1.38,1.38,0,0,0,1.21,2h11.44a1.38,1.38,0,0,1,1.27,1.93L300.37,27.37a.46.46,0,0,1-.88-.24L303,3.75c.11-.83-.26-1.52-1.1-1.52l-12.66,2a1.38,1.38,0,0,1-1.79-1.16L283.21-34.1A1.38,1.38,0,0,1,284.59-35.48Z"/><path class="cls-4" d="M329.47,4.26A13.65,13.65,0,0,1,334.13-6l0,0,18.94-18L355-25.77,356.84-24,375.77-6l0,0A13.68,13.68,0,1,1,355,11.18a13.68,13.68,0,0,1-25.49-6.92Z"/><path class="cls-4" d="M425.12-9.1,423.61,4.73l-3-22.05L416.47-6.73l-6.05-28.76-7.78,31.9-2.38-7.68-4.54,26.81,17.4,12.11,17.41-12.11Zm-12,29.19-10-4.54L399.82,14l4.85-12.75,3.58,8.23,3.46-14.07,6.7,14.27L419.93,6,426,14l-3.22,1.51Z"/><path class="cls-4" d="M459.82,2.53a10,10,0,0,1-.21-1.91A17.41,17.41,0,0,0,459.82,2.53Z"/><path class="cls-4" d="M480.17.62A10,10,0,0,1,480,2.53,17.41,17.41,0,0,0,480.17.62Z"/><path class="cls-4" d="M480.17.45s0,.06,0,.17A17.41,17.41,0,0,1,480,2.53a.12.12,0,0,0,0,0c-.57,3.56-2.63,11.72-10.07,25.09-7.43-13.37-9.49-21.53-10.07-25.09a.12.12,0,0,1,0,0,17.41,17.41,0,0,1-.21-1.91c0-.06,0-.11,0-.17a10.28,10.28,0,1,1,20.57,0Z"/><path class="cls-4" d="M465.4-25.2s0,.06,0,.17a17.41,17.41,0,0,1-.21,1.91.12.12,0,0,0,0,0c-.57,3.56-2.63,11.72-10.07,25.09-7.43-13.37-9.49-21.53-10.07-25.09a.12.12,0,0,1,0,0,17.41,17.41,0,0,1-.21-1.91c0-.06,0-.11,0-.17a10.28,10.28,0,0,1,10.28-10.28A10.28,10.28,0,0,1,465.4-25.2Z"/><path class="cls-4" d="M541.79-11.83a4.41,4.41,0,0,1-1.3,3.13,4.41,4.41,0,0,1-3.13,1.3h-14.8V23.22a4.43,4.43,0,0,1-8.85,0V-7.4h-14.8a4.43,4.43,0,0,1-4.43-4.43,4.41,4.41,0,0,1,1.3-3.13,4.41,4.41,0,0,1,3.13-1.3h14.8v-14.8a4.43,4.43,0,0,1,4.43-4.43,4.41,4.41,0,0,1,3.13,1.3,4.41,4.41,0,0,1,1.3,3.13v14.8h14.8A4.43,4.43,0,0,1,541.79-11.83Z"/><path class="cls-4" d="M10,197.8H38a1.38,1.38,0,0,0,1.21-2l-13.65-25.2a1.38,1.38,0,0,1,1.21-2H38.26a1.38,1.38,0,0,0,1.27-1.93L25.8,134.95a.46.46,0,0,0-.88.24l3.52,23.38c.11.83-.26,1.52-1.1,1.52l-12.66-2a1.38,1.38,0,0,0-1.79,1.16L8.65,196.42A1.38,1.38,0,0,0,10,197.8Z"/><path class="cls-4" d="M54.91,158.06a13.65,13.65,0,0,0,4.66,10.28l0,0,18.94,18,1.88,1.78,1.88-1.78,18.94-18,0,0a13.68,13.68,0,1,0-20.83-17.2,13.68,13.68,0,0,0-25.49,6.92Z"/><path class="cls-4" d="M156,146.78l-17.41-12.11-17.4,12.11,4.54,26.81,2.38-7.68,7.78,31.9L141.91,169,146,179.64l3-22.05,1.51,13.84Zm-7.76,0,3.22,1.51-6.05,8-1.51-3.67-6.7,14.27-3.46-14.07L130.11,161l-4.85-12.75,3.32-1.51,10-4.54Z"/><path class="cls-4" d="M185.25,159.79a10,10,0,0,0-.21,1.91A17.41,17.41,0,0,1,185.25,159.79Z"/><path class="cls-4" d="M205.61,161.7a10,10,0,0,0-.21-1.91A17.41,17.41,0,0,1,205.61,161.7Z"/><path class="cls-4" d="M205.61,161.87s0-.06,0-.17a17.41,17.41,0,0,0-.21-1.91.12.12,0,0,1,0,0c-.57-3.56-2.63-11.72-10.07-25.09-7.43,13.37-9.49,21.53-10.07,25.09a.12.12,0,0,0,0,0,17.41,17.41,0,0,0-.21,1.91c0,.06,0,.11,0,.17a10.28,10.28,0,0,0,20.57,0Z"/><path class="cls-4" d="M170.48,185.44a10,10,0,0,0-.21,1.91A17.41,17.41,0,0,1,170.48,185.44Z"/><path class="cls-4" d="M190.83,187.35a10,10,0,0,0-.21-1.91A17.41,17.41,0,0,1,190.83,187.35Z"/><path class="cls-4" d="M190.84,187.52s0-.06,0-.17a17.41,17.41,0,0,0-.21-1.91.12.12,0,0,1,0,0c-.57-3.56-2.63-11.72-10.07-25.09-7.43,13.37-9.49,21.53-10.07,25.09a.12.12,0,0,0,0,0,17.41,17.41,0,0,0-.21,1.91c0,.06,0,.11,0,.17a10.28,10.28,0,1,0,20.57,0Z"/><path class="cls-4" d="M267.22,174.15a4.43,4.43,0,0,0-4.43-4.43H248V139.09a4.43,4.43,0,0,0-8.85,0v30.63h-14.8a4.43,4.43,0,0,0,0,8.85h14.8v14.8a4.43,4.43,0,0,0,8.85,0v-14.8h14.8A4.43,4.43,0,0,0,267.22,174.15Z"/><path class="cls-4" d="M284.59,134.67h28a1.38,1.38,0,0,1,1.21,2l-13.65,25.2a1.38,1.38,0,0,0,1.21,2h11.44a1.38,1.38,0,0,1,1.27,1.93l-13.72,31.66a.46.46,0,0,1-.88-.24L303,173.9c.11-.83-.26-1.52-1.1-1.52l-12.66,2a1.38,1.38,0,0,1-1.79-1.16L283.21,136A1.38,1.38,0,0,1,284.59,134.67Z"/><path class="cls-4" d="M329.47,174.41a13.65,13.65,0,0,1,4.66-10.28l0,0,18.94-18,1.88-1.78,1.88,1.78,18.94,18,0,0A13.68,13.68,0,1,1,355,181.33a13.68,13.68,0,0,1-25.49-6.92Z"/><path class="cls-4" d="M425.12,161l-1.51,13.84-3-22.05-4.11,10.59-6.05-28.76-7.78,31.9-2.38-7.68-4.54,26.81,17.4,12.11,17.41-12.11Zm-12,29.19-10-4.54-3.32-1.51,4.85-12.75,3.58,8.23,3.46-14.07,6.7,14.27,1.51-3.67,6.05,8-3.22,1.51Z"/><path class="cls-4" d="M459.82,172.68a10,10,0,0,1-.21-1.91A17.41,17.41,0,0,0,459.82,172.68Z"/><path class="cls-4" d="M480.17,170.77a10,10,0,0,1-.21,1.91A17.41,17.41,0,0,0,480.17,170.77Z"/><path class="cls-4" d="M480.17,170.6s0,.06,0,.17a17.41,17.41,0,0,1-.21,1.91.12.12,0,0,0,0,0c-.57,3.56-2.63,11.72-10.07,25.09-7.43-13.37-9.49-21.53-10.07-25.09a.12.12,0,0,1,0,0,17.41,17.41,0,0,1-.21-1.91c0-.06,0-.11,0-.17a10.28,10.28,0,0,1,20.57,0Z"/><path class="cls-4" d="M445,147a10,10,0,0,1-.21-1.91A17.41,17.41,0,0,0,445,147Z"/><path class="cls-4" d="M465.4,145.12a10,10,0,0,1-.21,1.91A17.41,17.41,0,0,0,465.4,145.12Z"/><path class="cls-4" d="M465.4,145s0,.06,0,.17a17.41,17.41,0,0,1-.21,1.91.12.12,0,0,0,0,0c-.57,3.56-2.63,11.72-10.07,25.09-7.43-13.37-9.49-21.53-10.07-25.09a.12.12,0,0,1,0,0,17.41,17.41,0,0,1-.21-1.91c0-.06,0-.11,0-.17a10.28,10.28,0,0,1,20.57,0Z"/><path class="cls-4" d="M541.79,158.32a4.43,4.43,0,0,1-4.43,4.43h-14.8v30.63a4.43,4.43,0,0,1-8.85,0V162.75h-14.8a4.43,4.43,0,0,1,0-8.85h14.8v-14.8a4.43,4.43,0,0,1,8.85,0v14.8h14.8A4.43,4.43,0,0,1,541.79,158.32Z"/><path class="cls-4" d="M14.33,74.72a10,10,0,0,0-.21,1.91A17.41,17.41,0,0,1,14.33,74.72Z"/><path class="cls-4" d="M34.69,76.62a10,10,0,0,0-.21-1.91A17.41,17.41,0,0,1,34.69,76.62Z"/><path class="cls-4" d="M34.69,76.79s0-.06,0-.17a17.41,17.41,0,0,0-.21-1.91.12.12,0,0,1,0,0C33.9,71.12,31.84,63,24.41,49.59,17,63,14.91,71.12,14.34,74.68a.12.12,0,0,0,0,0,17.41,17.41,0,0,0-.21,1.91c0,.06,0,.11,0,.17a10.28,10.28,0,0,0,20.57,0Z"/><path class="cls-4" d="M19.91,102.28a10,10,0,0,0-.21-1.91A17.41,17.41,0,0,1,19.91,102.28Z"/><path class="cls-4" d="M19.92,102.44s0-.06,0-.17a17.41,17.41,0,0,0-.21-1.91.12.12,0,0,1,0,0c-.57-3.56-2.63-11.72-10.07-25.09C2.2,88.61.14,96.77-.43,100.33a.12.12,0,0,0,0,0,17.41,17.41,0,0,0-.21,1.91c0,.06,0,.11,0,.17a10.28,10.28,0,1,0,20.57,0Z"/><path class="cls-4" d="M96.3,89.07a4.43,4.43,0,0,0-4.43-4.43H77.08V54a4.43,4.43,0,0,0-8.85,0V84.64H53.42a4.43,4.43,0,0,0,0,8.85h14.8v14.8a4.43,4.43,0,0,0,8.85,0V93.5h14.8A4.43,4.43,0,0,0,96.3,89.07Z"/><path class="cls-4" d="M115.5,49.59h28a1.38,1.38,0,0,1,1.21,2l-13.65,25.2a1.38,1.38,0,0,0,1.21,2h11.44A1.38,1.38,0,0,1,145,80.79l-13.72,31.66a.46.46,0,0,1-.88-.24l3.52-23.38c.11-.83-.26-1.52-1.1-1.52l-12.66,2a1.38,1.38,0,0,1-1.79-1.16L114.12,51A1.38,1.38,0,0,1,115.5,49.59Z"/><path class="cls-4" d="M160.38,89.33A13.65,13.65,0,0,1,165,79.05l0,0,18.94-18,1.88-1.78,1.88,1.78,18.94,18,0,0a13.68,13.68,0,1,1-20.83,17.2,13.68,13.68,0,0,1-25.49-6.92Z"/><path class="cls-4" d="M256,76l-1.51,13.84-3-22.05-4.11,10.59-6.05-28.76-7.78,31.9-2.38-7.68-4.54,26.81L244,112.73l17.41-12.11Zm-12,29.19-10-4.54-3.32-1.51,4.85-12.75,3.58,8.23,3.46-14.07,6.7,14.27,1.51-3.67,6.05,8-3.22,1.51Z"/><path class="cls-4" d="M290.72,87.6a10,10,0,0,1-.21-1.91A17.41,17.41,0,0,0,290.72,87.6Z"/><path class="cls-4" d="M311.08,85.7a10,10,0,0,1-.21,1.91A17.41,17.41,0,0,0,311.08,85.7Z"/><path class="cls-4" d="M311.08,85.53s0,.06,0,.17a17.41,17.41,0,0,1-.21,1.91.12.12,0,0,0,0,0c-.57,3.56-2.63,11.72-10.07,25.09-7.43-13.37-9.49-21.53-10.07-25.09a.12.12,0,0,1,0,0,17.41,17.41,0,0,1-.21-1.91c0-.06,0-.11,0-.17a10.28,10.28,0,0,1,20.57,0Z"/><path class="cls-4" d="M275.95,62a10,10,0,0,1-.21-1.91A17.41,17.41,0,0,0,275.95,62Z"/><path class="cls-4" d="M296.3,60A10,10,0,0,1,296.1,62,17.41,17.41,0,0,0,296.3,60Z"/><path class="cls-4" d="M296.31,59.88s0,.06,0,.17A17.41,17.41,0,0,1,296.1,62a.12.12,0,0,0,0,0c-.57,3.56-2.63,11.72-10.07,25.09C278.59,73.71,276.53,65.55,276,62a.12.12,0,0,1,0,0,17.41,17.41,0,0,1-.21-1.91c0-.06,0-.11,0-.17a10.28,10.28,0,0,1,20.57,0Z"/><path class="cls-4" d="M372.7,73.25a4.43,4.43,0,0,1-4.43,4.43h-14.8V108.3a4.43,4.43,0,0,1-8.85,0V77.67h-14.8a4.43,4.43,0,0,1,0-8.85h14.8V54a4.43,4.43,0,0,1,8.85,0v14.8h14.8A4.43,4.43,0,0,1,372.7,73.25Z"/><path class="cls-4" d="M390.06,112.73h28a1.38,1.38,0,0,0,1.21-2l-13.65-25.2a1.38,1.38,0,0,1,1.21-2h11.44a1.38,1.38,0,0,0,1.27-1.93L405.84,49.87a.46.46,0,0,0-.88.24l3.52,23.38c.11.83-.26,1.52-1.1,1.52l-12.66-2a1.38,1.38,0,0,0-1.79,1.16l-4.25,37.17A1.38,1.38,0,0,0,390.06,112.73Z"/><path class="cls-4" d="M434.94,73a13.65,13.65,0,0,0,4.66,10.28l0,0,18.94,18,1.88,1.78,1.88-1.78,18.94-18,0,0a13.68,13.68,0,1,0-20.83-17.2A13.68,13.68,0,0,0,434.94,73Z"/><path class="cls-4" d="M536,61.7,518.59,49.59,501.19,61.7l4.54,26.81,2.38-7.68,7.78,31.9L521.94,84,526,94.56l3-22.05,1.51,13.84Zm-7.76,0,3.22,1.51-6.05,8-1.51-3.67-6.7,14.27-3.46-14.07L510.15,76l-4.85-12.75,3.32-1.51,10-4.54Z"/><path class="cls-4" d="M565.29,74.72a10,10,0,0,0-.21,1.91A17.41,17.41,0,0,1,565.29,74.72Z"/><path class="cls-4" d="M585.64,76.62a10,10,0,0,0-.21-1.91A17.41,17.41,0,0,1,585.64,76.62Z"/><path class="cls-4" d="M585.64,76.79s0-.06,0-.17a17.41,17.41,0,0,0-.21-1.91.12.12,0,0,1,0,0c-.57-3.56-2.63-11.72-10.07-25.09C567.93,63,565.87,71.12,565.3,74.68a.12.12,0,0,0,0,0,17.41,17.41,0,0,0-.21,1.91c0,.06,0,.11,0,.17a10.28,10.28,0,0,0,20.57,0Z"/><path class="cls-4" d="M550.51,100.37a10,10,0,0,0-.21,1.91A17.41,17.41,0,0,1,550.51,100.37Z"/><path class="cls-4" d="M570.87,102.28a10,10,0,0,0-.21-1.91A17.41,17.41,0,0,1,570.87,102.28Z"/><path class="cls-4" d="M570.87,102.44s0-.06,0-.17a17.41,17.41,0,0,0-.21-1.91.12.12,0,0,1,0,0c-.57-3.56-2.63-11.72-10.07-25.09-7.43,13.37-9.49,21.53-10.07,25.09a.12.12,0,0,0,0,0,17.41,17.41,0,0,0-.21,1.91c0,.06,0,.11,0,.17a10.28,10.28,0,1,0,20.57,0Z"/><path class="cls-4" d="M647.26,89.07a4.43,4.43,0,0,0-4.43-4.43H628V54a4.43,4.43,0,0,0-8.85,0V84.64h-14.8a4.43,4.43,0,0,0,0,8.85h14.8v14.8a4.43,4.43,0,0,0,8.85,0V93.5h14.8A4.43,4.43,0,0,0,647.26,89.07Z"/><path class="cls-4" d="M10,538.1H38a1.38,1.38,0,0,0,1.21-2l-13.65-25.2a1.38,1.38,0,0,1,1.21-2H38.26a1.38,1.38,0,0,0,1.27-1.93L25.8,475.25a.46.46,0,0,0-.88.24l3.52,23.38c.11.83-.26,1.52-1.1,1.52l-12.66-2a1.38,1.38,0,0,0-1.79,1.16L8.65,536.73A1.38,1.38,0,0,0,10,538.1Z"/><path class="cls-4" d="M54.91,498.36a13.65,13.65,0,0,0,4.66,10.28l0,0,18.94,18,1.88,1.78,1.88-1.78,18.94-18,0,0a13.68,13.68,0,1,0-20.83-17.2,13.68,13.68,0,0,0-25.49,6.92Z"/><path class="cls-4" d="M156,487.08,138.55,475l-17.4,12.11,4.54,26.81,2.38-7.68,7.78,31.9,6.05-28.76L146,519.94l3-22.05,1.51,13.84Zm-7.76,0,3.22,1.51-6.05,8-1.51-3.67-6.7,14.27-3.46-14.07-3.58,8.23-4.85-12.75,3.32-1.51,10-4.54Z"/><path class="cls-4" d="M185.25,500.1A10,10,0,0,0,185,502,17.41,17.41,0,0,1,185.25,500.1Z"/><path class="cls-4" d="M205.61,502a10,10,0,0,0-.21-1.91A17.41,17.41,0,0,1,205.61,502Z"/><path class="cls-4" d="M205.61,502.17s0-.06,0-.17a17.41,17.41,0,0,0-.21-1.91.12.12,0,0,1,0,0c-.57-3.56-2.63-11.72-10.07-25.09-7.43,13.37-9.49,21.53-10.07,25.09a.12.12,0,0,0,0,0A17.41,17.41,0,0,0,185,502c0,.06,0,.11,0,.17a10.28,10.28,0,1,0,20.57,0Z"/><path class="cls-4" d="M170.48,525.75a10,10,0,0,0-.21,1.91A17.41,17.41,0,0,1,170.48,525.75Z"/><path class="cls-4" d="M190.83,527.65a10,10,0,0,0-.21-1.91A17.41,17.41,0,0,1,190.83,527.65Z"/><path class="cls-4" d="M190.84,527.82s0-.06,0-.17a17.41,17.41,0,0,0-.21-1.91.12.12,0,0,1,0,0C190,522.15,188,514,180.55,500.62c-7.43,13.37-9.49,21.53-10.07,25.09a.12.12,0,0,0,0,0,17.41,17.41,0,0,0-.21,1.91c0,.06,0,.11,0,.17a10.28,10.28,0,1,0,20.57,0Z"/><path class="cls-4" d="M267.22,514.45A4.43,4.43,0,0,0,262.8,510H248V479.4a4.43,4.43,0,0,0-8.85,0V510h-14.8a4.43,4.43,0,0,0,0,8.85h14.8v14.8a4.43,4.43,0,0,0,8.85,0v-14.8h14.8A4.43,4.43,0,0,0,267.22,514.45Z"/><path class="cls-4" d="M284.59,475h28a1.38,1.38,0,0,1,1.21,2l-13.65,25.2a1.38,1.38,0,0,0,1.21,2h11.44a1.38,1.38,0,0,1,1.27,1.93l-13.72,31.66a.46.46,0,0,1-.88-.24L303,514.2c.11-.83-.26-1.52-1.1-1.52l-12.66,2a1.38,1.38,0,0,1-1.79-1.16l-4.25-37.17A1.38,1.38,0,0,1,284.59,475Z"/><path class="cls-4" d="M329.47,514.71a13.65,13.65,0,0,1,4.66-10.28l0,0,18.94-18,1.88-1.78,1.88,1.78,18.94,18,0,0A13.68,13.68,0,1,1,355,521.63a13.68,13.68,0,0,1-25.49-6.92Z"/><path class="cls-4" d="M425.12,501.35l-1.51,13.84-3-22.05-4.11,10.59L410.42,475l-7.78,31.9-2.38-7.68L395.71,526l17.4,12.11L430.52,526Zm-12,29.19-10-4.54-3.32-1.51,4.85-12.75,3.58,8.23,3.46-14.07,6.7,14.27,1.51-3.67,6.05,8L422.77,526Z"/><path class="cls-4" d="M459.82,513a10,10,0,0,1-.21-1.91A17.41,17.41,0,0,0,459.82,513Z"/><path class="cls-4" d="M480.17,511.07A10,10,0,0,1,480,513,17.41,17.41,0,0,0,480.17,511.07Z"/><path class="cls-4" d="M480.17,510.91s0,.06,0,.17A17.41,17.41,0,0,1,480,513a.12.12,0,0,0,0,0c-.57,3.56-2.63,11.72-10.07,25.09-7.43-13.37-9.49-21.53-10.07-25.09a.12.12,0,0,1,0,0,17.41,17.41,0,0,1-.21-1.91c0-.06,0-.11,0-.17a10.28,10.28,0,1,1,20.57,0Z"/><path class="cls-4" d="M445,487.33a10,10,0,0,1-.21-1.91A17.41,17.41,0,0,0,445,487.33Z"/><path class="cls-4" d="M465.4,485.42a10,10,0,0,1-.21,1.91A17.41,17.41,0,0,0,465.4,485.42Z"/><path class="cls-4" d="M465.4,485.26s0,.06,0,.17a17.41,17.41,0,0,1-.21,1.91.12.12,0,0,0,0,0c-.57,3.56-2.63,11.72-10.07,25.09-7.43-13.37-9.49-21.53-10.07-25.09a.12.12,0,0,1,0,0,17.41,17.41,0,0,1-.21-1.91c0-.06,0-.11,0-.17a10.28,10.28,0,0,1,20.57,0Z"/><path class="cls-4" d="M541.79,498.63a4.43,4.43,0,0,1-4.43,4.43h-14.8v30.63a4.43,4.43,0,0,1-8.85,0V503.05h-14.8a4.43,4.43,0,0,1,0-8.85h14.8V479.4a4.43,4.43,0,0,1,8.85,0v14.8h14.8A4.43,4.43,0,0,1,541.79,498.63Z"/><path class="cls-4" d="M10,708.26H38a1.38,1.38,0,0,0,1.21-2L25.61,681a1.38,1.38,0,0,1,1.21-2H38.26a1.38,1.38,0,0,0,1.27-1.93L25.8,645.4a.46.46,0,0,0-.88.24L28.45,669c.11.83-.26,1.52-1.1,1.52l-12.66-2a1.38,1.38,0,0,0-1.79,1.16L8.65,706.88A1.38,1.38,0,0,0,10,708.26Z"/><path class="cls-4" d="M54.91,668.51a13.65,13.65,0,0,0,4.66,10.28l0,0,18.94,18,1.88,1.78,1.88-1.78,18.94-18,0,0a13.68,13.68,0,1,0-20.83-17.2,13.68,13.68,0,0,0-25.49,6.92Z"/><path class="cls-4" d="M156,657.23l-17.41-12.11-17.4,12.11L125.69,684l2.38-7.68,7.78,31.9,6.05-28.76L146,690.09,149,668l1.51,13.84Zm-7.76,0,3.22,1.51-6.05,8-1.51-3.67-6.7,14.27-3.46-14.07-3.58,8.23-4.85-12.75,3.32-1.51,10-4.54Z"/><path class="cls-4" d="M185.25,670.25a10,10,0,0,0-.21,1.91A17.41,17.41,0,0,1,185.25,670.25Z"/><path class="cls-4" d="M205.61,672.15a10,10,0,0,0-.21-1.91A17.41,17.41,0,0,1,205.61,672.15Z"/><path class="cls-4" d="M205.61,672.32s0-.06,0-.17a17.41,17.41,0,0,0-.21-1.91.12.12,0,0,1,0,0c-.57-3.56-2.63-11.72-10.07-25.09-7.43,13.37-9.49,21.53-10.07,25.09a.12.12,0,0,0,0,0,17.41,17.41,0,0,0-.21,1.91c0,.06,0,.11,0,.17a10.28,10.28,0,0,0,20.57,0Z"/><path class="cls-4" d="M170.48,695.9a10,10,0,0,0-.21,1.91A17.41,17.41,0,0,1,170.48,695.9Z"/><path class="cls-4" d="M190.83,697.81a10,10,0,0,0-.21-1.91A17.41,17.41,0,0,1,190.83,697.81Z"/><path class="cls-4" d="M190.84,698s0-.06,0-.17a17.41,17.41,0,0,0-.21-1.91.12.12,0,0,1,0,0c-.57-3.56-2.63-11.72-10.07-25.09-7.43,13.37-9.49,21.53-10.07,25.09a.12.12,0,0,0,0,0,17.41,17.41,0,0,0-.21,1.91c0,.06,0,.11,0,.17a10.28,10.28,0,1,0,20.57,0Z"/><path class="cls-4" d="M267.22,684.6a4.43,4.43,0,0,0-4.43-4.43H248V649.55a4.43,4.43,0,0,0-8.85,0v30.63h-14.8a4.43,4.43,0,0,0,0,8.85h14.8v14.8a4.43,4.43,0,0,0,8.85,0V689h14.8A4.43,4.43,0,0,0,267.22,684.6Z"/><path class="cls-4" d="M284.59,645.12h28a1.38,1.38,0,0,1,1.21,2l-13.65,25.2a1.38,1.38,0,0,0,1.21,2h11.44a1.38,1.38,0,0,1,1.27,1.93L300.37,708a.46.46,0,0,1-.88-.24L303,684.35c.11-.83-.26-1.52-1.1-1.52l-12.66,2a1.38,1.38,0,0,1-1.79-1.16l-4.25-37.17A1.38,1.38,0,0,1,284.59,645.12Z"/><path class="cls-4" d="M329.47,684.86a13.65,13.65,0,0,1,4.66-10.28l0,0,18.94-18,1.88-1.78,1.88,1.78,18.94,18,0,0A13.68,13.68,0,1,1,355,691.78a13.68,13.68,0,0,1-25.49-6.92Z"/><path class="cls-4" d="M425.12,671.5l-1.51,13.84-3-22.05-4.11,10.59-6.05-28.76L402.63,677l-2.38-7.68-4.54,26.81,17.4,12.11,17.41-12.11Zm-12,29.19-10-4.54-3.32-1.51,4.85-12.75,3.58,8.23L411.71,676l6.7,14.27,1.51-3.67,6.05,8-3.22,1.51Z"/><path class="cls-4" d="M459.82,683.13a10,10,0,0,1-.21-1.91A17.41,17.41,0,0,0,459.82,683.13Z"/><path class="cls-4" d="M480.17,681.23a10,10,0,0,1-.21,1.91A17.41,17.41,0,0,0,480.17,681.23Z"/><path class="cls-4" d="M480.17,681.06s0,.06,0,.17a17.41,17.41,0,0,1-.21,1.91.12.12,0,0,0,0,0c-.57,3.56-2.63,11.72-10.07,25.09-7.43-13.37-9.49-21.53-10.07-25.09a.12.12,0,0,1,0,0,17.41,17.41,0,0,1-.21-1.91c0-.06,0-.11,0-.17a10.28,10.28,0,0,1,20.57,0Z"/><path class="cls-4" d="M445,657.48a10,10,0,0,1-.21-1.91A17.41,17.41,0,0,0,445,657.48Z"/><path class="cls-4" d="M465.4,655.57a10,10,0,0,1-.21,1.91A17.41,17.41,0,0,0,465.4,655.57Z"/><path class="cls-4" d="M465.4,655.41s0,.06,0,.17a17.41,17.41,0,0,1-.21,1.91.12.12,0,0,0,0,0c-.57,3.56-2.63,11.72-10.07,25.09-7.43-13.37-9.49-21.53-10.07-25.09a.12.12,0,0,1,0,0,17.41,17.41,0,0,1-.21-1.91c0-.06,0-.11,0-.17a10.28,10.28,0,0,1,20.57,0Z"/><path class="cls-4" d="M541.79,668.78a4.43,4.43,0,0,1-4.43,4.43h-14.8v30.63a4.43,4.43,0,0,1-8.85,0V673.2h-14.8a4.43,4.43,0,0,1,0-8.85h14.8v-14.8a4.43,4.43,0,0,1,8.85,0v14.8h14.8A4.43,4.43,0,0,1,541.79,668.78Z"/><path class="cls-4" d="M14.33,585.17a10,10,0,0,0-.21,1.91A17.41,17.41,0,0,1,14.33,585.17Z"/><path class="cls-4" d="M34.69,587.08a10,10,0,0,0-.21-1.91A17.41,17.41,0,0,1,34.69,587.08Z"/><path class="cls-4" d="M34.69,587.24s0-.06,0-.17a17.41,17.41,0,0,0-.21-1.91.12.12,0,0,1,0,0c-.57-3.56-2.63-11.72-10.07-25.09-7.43,13.37-9.49,21.53-10.07,25.09a.12.12,0,0,0,0,0,17.41,17.41,0,0,0-.21,1.91c0,.06,0,.11,0,.17a10.28,10.28,0,0,0,20.57,0Z"/><path class="cls-4" d="M19.91,612.73a10,10,0,0,0-.21-1.91A17.41,17.41,0,0,1,19.91,612.73Z"/><path class="cls-4" d="M19.92,612.9s0-.06,0-.17a17.41,17.41,0,0,0-.21-1.91.12.12,0,0,1,0,0c-.57-3.56-2.63-11.72-10.07-25.09C2.2,599.07.14,607.22-.43,610.79a.12.12,0,0,0,0,0,17.41,17.41,0,0,0-.21,1.91c0,.06,0,.11,0,.17a10.28,10.28,0,0,0,20.57,0Z"/><path class="cls-4" d="M96.3,599.52a4.43,4.43,0,0,0-4.43-4.43H77.08V564.47a4.43,4.43,0,0,0-8.85,0V595.1H53.42a4.43,4.43,0,0,0,0,8.85h14.8v14.8a4.43,4.43,0,0,0,8.85,0V604h14.8A4.43,4.43,0,0,0,96.3,599.52Z"/><path class="cls-4" d="M115.5,560h28a1.38,1.38,0,0,1,1.21,2l-13.65,25.2a1.38,1.38,0,0,0,1.21,2h11.44a1.38,1.38,0,0,1,1.27,1.93L131.28,622.9a.46.46,0,0,1-.88-.24l3.52-23.38c.11-.83-.26-1.52-1.1-1.52l-12.66,2a1.38,1.38,0,0,1-1.79-1.16l-4.25-37.17A1.38,1.38,0,0,1,115.5,560Z"/><path class="cls-4" d="M160.38,599.79A13.65,13.65,0,0,1,165,589.51l0,0,18.94-18,1.88-1.78,1.88,1.78,18.94,18,0,0a13.68,13.68,0,1,1-20.83,17.2,13.68,13.68,0,0,1-25.49-6.92Z"/><path class="cls-4" d="M256,586.43l-1.51,13.84-3-22.05-4.11,10.59L241.32,560l-7.78,31.9-2.38-7.68-4.54,26.81L244,623.18l17.41-12.11Zm-12,29.19-10-4.54-3.32-1.51,4.85-12.75,3.58,8.23L242.62,591l6.7,14.27,1.51-3.67,6.05,8-3.22,1.51Z"/><path class="cls-4" d="M290.72,598.06a10,10,0,0,1-.21-1.91A17.41,17.41,0,0,0,290.72,598.06Z"/><path class="cls-4" d="M311.08,596.15a10,10,0,0,1-.21,1.91A17.41,17.41,0,0,0,311.08,596.15Z"/><path class="cls-4" d="M311.08,596s0,.06,0,.17a17.41,17.41,0,0,1-.21,1.91.12.12,0,0,0,0,0c-.57,3.56-2.63,11.72-10.07,25.09-7.43-13.37-9.49-21.53-10.07-25.09a.12.12,0,0,1,0,0,17.41,17.41,0,0,1-.21-1.91c0-.06,0-.11,0-.17a10.28,10.28,0,0,1,20.57,0Z"/><path class="cls-4" d="M275.95,572.4a10,10,0,0,1-.21-1.91A17.41,17.41,0,0,0,275.95,572.4Z"/><path class="cls-4" d="M296.3,570.5a10,10,0,0,1-.21,1.91A17.41,17.41,0,0,0,296.3,570.5Z"/><path class="cls-4" d="M296.31,570.33s0,.06,0,.17a17.41,17.41,0,0,1-.21,1.91.12.12,0,0,0,0,0c-.57,3.56-2.63,11.72-10.07,25.09-7.43-13.37-9.49-21.53-10.07-25.09a.12.12,0,0,1,0,0,17.41,17.41,0,0,1-.21-1.91c0-.06,0-.11,0-.17a10.28,10.28,0,0,1,20.57,0Z"/><path class="cls-4" d="M372.7,583.7a4.43,4.43,0,0,1-4.43,4.43h-14.8v30.63a4.43,4.43,0,0,1-8.85,0V588.13h-14.8a4.43,4.43,0,0,1,0-8.85h14.8v-14.8a4.43,4.43,0,0,1,8.85,0v14.8h14.8A4.43,4.43,0,0,1,372.7,583.7Z"/><path class="cls-4" d="M390.06,623.18h28a1.38,1.38,0,0,0,1.21-2l-13.65-25.2a1.38,1.38,0,0,1,1.21-2h11.44a1.38,1.38,0,0,0,1.27-1.93l-13.72-31.66a.46.46,0,0,0-.88.24l3.52,23.38c.11.83-.26,1.52-1.1,1.52l-12.66-2a1.38,1.38,0,0,0-1.79,1.16l-4.25,37.17A1.38,1.38,0,0,0,390.06,623.18Z"/><path class="cls-4" d="M434.94,583.44a13.65,13.65,0,0,0,4.66,10.28l0,0,18.94,18,1.88,1.78,1.88-1.78,18.94-18,0,0a13.68,13.68,0,1,0-20.83-17.2,13.68,13.68,0,0,0-25.49,6.92Z"/><path class="cls-4" d="M536,572.16,518.59,560l-17.4,12.11L505.73,599l2.38-7.68,7.78,31.9,6.05-28.76L526,605l3-22.05,1.51,13.84Zm-7.76,0,3.22,1.51-6.05,8L523.89,578l-6.7,14.27-3.46-14.07-3.58,8.23-4.85-12.75,3.32-1.51,10-4.54Z"/><path class="cls-4" d="M565.29,585.17a10,10,0,0,0-.21,1.91A17.41,17.41,0,0,1,565.29,585.17Z"/><path class="cls-4" d="M585.64,587.08a10,10,0,0,0-.21-1.91A17.41,17.41,0,0,1,585.64,587.08Z"/><path class="cls-4" d="M585.64,587.24s0-.06,0-.17a17.41,17.41,0,0,0-.21-1.91.12.12,0,0,1,0,0c-.57-3.56-2.63-11.72-10.07-25.09-7.43,13.37-9.49,21.53-10.07,25.09a.12.12,0,0,0,0,0,17.41,17.41,0,0,0-.21,1.91c0,.06,0,.11,0,.17a10.28,10.28,0,0,0,20.57,0Z"/><path class="cls-4" d="M550.51,610.82a10,10,0,0,0-.21,1.91A17.41,17.41,0,0,1,550.51,610.82Z"/><path class="cls-4" d="M570.87,612.73a10,10,0,0,0-.21-1.91A17.41,17.41,0,0,1,570.87,612.73Z"/><path class="cls-4" d="M570.87,612.9s0-.06,0-.17a17.41,17.41,0,0,0-.21-1.91.12.12,0,0,1,0,0c-.57-3.56-2.63-11.72-10.07-25.09-7.43,13.37-9.49,21.53-10.07,25.09a.12.12,0,0,0,0,0,17.41,17.41,0,0,0-.21,1.91c0,.06,0,.11,0,.17a10.28,10.28,0,0,0,20.57,0Z"/><path class="cls-4" d="M647.26,599.52a4.43,4.43,0,0,0-4.43-4.43H628V564.47a4.43,4.43,0,0,0-8.85,0V595.1h-14.8a4.43,4.43,0,0,0,0,8.85h14.8v14.8a4.43,4.43,0,0,0,8.85,0V604h14.8A4.43,4.43,0,0,0,647.26,599.52Z"/><path class="cls-4" d="M14.33,925.47a10,10,0,0,0-.21,1.91A17.41,17.41,0,0,1,14.33,925.47Z"/><path class="cls-4" d="M34.69,927.38a10,10,0,0,0-.21-1.91A17.41,17.41,0,0,1,34.69,927.38Z"/><path class="cls-4" d="M34.69,927.55s0-.06,0-.17a17.41,17.41,0,0,0-.21-1.91.12.12,0,0,1,0,0c-.57-3.56-2.63-11.72-10.07-25.09-7.43,13.37-9.49,21.53-10.07,25.09a.12.12,0,0,0,0,0,17.41,17.41,0,0,0-.21,1.91c0,.06,0,.11,0,.17a10.28,10.28,0,1,0,20.57,0Z"/><path class="cls-4" d="M19.92,953.2s0-.06,0-.17a17.41,17.41,0,0,0-.21-1.91.12.12,0,0,1,0,0c-.57-3.56-2.63-11.72-10.07-25.09C2.2,939.37.14,947.53-.43,951.09a.12.12,0,0,0,0,0A17.41,17.41,0,0,0-.65,953c0,.06,0,.11,0,.17a10.28,10.28,0,0,0,20.57,0Z"/><path class="cls-4" d="M96.3,939.83a4.43,4.43,0,0,0-4.43-4.43H77.08V904.78a4.43,4.43,0,0,0-8.85,0V935.4H53.42a4.43,4.43,0,0,0,0,8.85h14.8v14.8a4.43,4.43,0,0,0,8.85,0v-14.8h14.8A4.43,4.43,0,0,0,96.3,939.83Z"/><path class="cls-4" d="M115.5,900.35h28a1.38,1.38,0,0,1,1.21,2l-13.65,25.2a1.38,1.38,0,0,0,1.21,2h11.44a1.38,1.38,0,0,1,1.27,1.93L131.28,963.2a.46.46,0,0,1-.88-.24l3.52-23.38c.11-.83-.26-1.52-1.1-1.52l-12.66,2a1.38,1.38,0,0,1-1.79-1.16l-4.25-37.17A1.38,1.38,0,0,1,115.5,900.35Z"/><path class="cls-4" d="M160.38,940.09A13.65,13.65,0,0,1,165,929.81l0,0,18.94-18,1.88-1.78,1.88,1.78,18.94,18,0,0A13.68,13.68,0,1,1,185.86,947a13.68,13.68,0,0,1-25.49-6.92Z"/><path class="cls-4" d="M256,926.73l-1.51,13.84-3-22.05-4.11,10.59-6.05-28.76-7.78,31.9-2.38-7.68-4.54,26.81L244,963.48l17.41-12.11Zm-12,29.19-10-4.54-3.32-1.51,4.85-12.75,3.58,8.23,3.46-14.07,6.7,14.27,1.51-3.67,6.05,8-3.22,1.51Z"/><path class="cls-4" d="M311.08,936.29s0,.06,0,.17a17.41,17.41,0,0,1-.21,1.91.12.12,0,0,0,0,0c-.57,3.56-2.63,11.72-10.07,25.09-7.43-13.37-9.49-21.53-10.07-25.09a.12.12,0,0,1,0,0,17.41,17.41,0,0,1-.21-1.91c0-.06,0-.11,0-.17a10.28,10.28,0,0,1,20.57,0Z"/><path class="cls-4" d="M275.95,912.71a10,10,0,0,1-.21-1.91A17.41,17.41,0,0,0,275.95,912.71Z"/><path class="cls-4" d="M296.3,910.8a10,10,0,0,1-.21,1.91A17.41,17.41,0,0,0,296.3,910.8Z"/><path class="cls-4" d="M296.31,910.63s0,.06,0,.17a17.41,17.41,0,0,1-.21,1.91.12.12,0,0,0,0,0c-.57,3.56-2.63,11.72-10.07,25.09-7.43-13.37-9.49-21.53-10.07-25.09a.12.12,0,0,1,0,0,17.41,17.41,0,0,1-.21-1.91c0-.06,0-.11,0-.17a10.28,10.28,0,1,1,20.57,0Z"/><path class="cls-4" d="M372.7,924a4.43,4.43,0,0,1-4.43,4.43h-14.8v30.63a4.43,4.43,0,0,1-8.85,0V928.43h-14.8a4.43,4.43,0,0,1,0-8.85h14.8v-14.8a4.43,4.43,0,0,1,8.85,0v14.8h14.8A4.43,4.43,0,0,1,372.7,924Z"/><path class="cls-4" d="M390.06,963.48h28a1.38,1.38,0,0,0,1.21-2l-13.65-25.2a1.38,1.38,0,0,1,1.21-2h11.44a1.38,1.38,0,0,0,1.27-1.93l-13.72-31.66a.46.46,0,0,0-.88.24l3.52,23.38c.11.83-.26,1.52-1.1,1.52l-12.66-2a1.38,1.38,0,0,0-1.79,1.16l-4.25,37.17A1.38,1.38,0,0,0,390.06,963.48Z"/><path class="cls-4" d="M434.94,923.74A13.65,13.65,0,0,0,439.6,934l0,0,18.94,18,1.88,1.78,1.88-1.78,18.94-18,0,0a13.68,13.68,0,1,0-20.83-17.2,13.68,13.68,0,0,0-25.49,6.92Z"/><path class="cls-4" d="M536,912.46l-17.41-12.11-17.4,12.11,4.54,26.81,2.38-7.68,7.78,31.9,6.05-28.76L526,945.32l3-22.05,1.51,13.84Zm-7.76,0,3.22,1.51-6.05,8-1.51-3.67-6.7,14.27-3.46-14.07-3.58,8.23L505.29,914l3.32-1.51,10-4.54Z"/><path class="cls-4" d="M565.29,925.47a10,10,0,0,0-.21,1.91A17.41,17.41,0,0,1,565.29,925.47Z"/><path class="cls-4" d="M585.64,927.38a10,10,0,0,0-.21-1.91A17.41,17.41,0,0,1,585.64,927.38Z"/><path class="cls-4" d="M585.64,927.55s0-.06,0-.17a17.41,17.41,0,0,0-.21-1.91.12.12,0,0,1,0,0c-.57-3.56-2.63-11.72-10.07-25.09-7.43,13.37-9.49,21.53-10.07,25.09a.12.12,0,0,0,0,0,17.41,17.41,0,0,0-.21,1.91c0,.06,0,.11,0,.17a10.28,10.28,0,1,0,20.57,0Z"/><path class="cls-4" d="M570.87,953.2s0-.06,0-.17a17.41,17.41,0,0,0-.21-1.91.12.12,0,0,1,0,0c-.57-3.56-2.63-11.72-10.07-25.09-7.43,13.37-9.49,21.53-10.07,25.09a.12.12,0,0,0,0,0,17.41,17.41,0,0,0-.21,1.91c0,.06,0,.11,0,.17a10.28,10.28,0,1,0,20.57,0Z"/><path class="cls-4" d="M647.26,939.83a4.43,4.43,0,0,0-4.43-4.43H628V904.78a4.43,4.43,0,0,0-8.85,0V935.4h-14.8a4.43,4.43,0,0,0,0,8.85h14.8v14.8a4.43,4.43,0,0,0,8.85,0v-14.8h14.8A4.43,4.43,0,0,0,647.26,939.83Z"/><path class="cls-4" d="M14.33,755.32a10,10,0,0,0-.21,1.91A17.41,17.41,0,0,1,14.33,755.32Z"/><path class="cls-4" d="M34.69,757.23a10,10,0,0,0-.21-1.91A17.41,17.41,0,0,1,34.69,757.23Z"/><path class="cls-4" d="M34.69,757.4s0-.06,0-.17a17.41,17.41,0,0,0-.21-1.91.12.12,0,0,1,0,0c-.57-3.56-2.63-11.72-10.07-25.09-7.43,13.37-9.49,21.53-10.07,25.09a.12.12,0,0,0,0,0,17.41,17.41,0,0,0-.21,1.91c0,.06,0,.11,0,.17a10.28,10.28,0,0,0,20.57,0Z"/><path class="cls-4" d="M19.91,782.88a10,10,0,0,0-.21-1.91A17.41,17.41,0,0,1,19.91,782.88Z"/><path class="cls-4" d="M19.92,783s0-.06,0-.17a17.41,17.41,0,0,0-.21-1.91.12.12,0,0,1,0,0c-.57-3.56-2.63-11.72-10.07-25.09C2.2,769.22.14,777.38-.43,780.94a.12.12,0,0,0,0,0,17.41,17.41,0,0,0-.21,1.91c0,.06,0,.11,0,.17a10.28,10.28,0,1,0,20.57,0Z"/><path class="cls-4" d="M96.3,769.68a4.43,4.43,0,0,0-4.43-4.43H77.08V734.62a4.43,4.43,0,0,0-8.85,0v30.63H53.42a4.43,4.43,0,0,0,0,8.85h14.8v14.8a4.43,4.43,0,0,0,8.85,0V774.1h14.8A4.43,4.43,0,0,0,96.3,769.68Z"/><path class="cls-4" d="M115.5,730.2h28a1.38,1.38,0,0,1,1.21,2l-13.65,25.2a1.38,1.38,0,0,0,1.21,2h11.44A1.38,1.38,0,0,1,145,761.4l-13.72,31.66a.46.46,0,0,1-.88-.24l3.52-23.38c.11-.83-.26-1.52-1.1-1.52l-12.66,2a1.38,1.38,0,0,1-1.79-1.16l-4.25-37.17A1.38,1.38,0,0,1,115.5,730.2Z"/><path class="cls-4" d="M160.38,769.94A13.65,13.65,0,0,1,165,759.66l0,0,18.94-18,1.88-1.78,1.88,1.78,18.94,18,0,0a13.68,13.68,0,1,1-20.83,17.2,13.68,13.68,0,0,1-25.49-6.92Z"/><path class="cls-4" d="M256,756.58l-1.51,13.84-3-22.05L247.38,759l-6.05-28.76-7.78,31.9-2.38-7.68-4.54,26.81L244,793.33l17.41-12.11Zm-12,29.19-10-4.54-3.32-1.51L235.58,767l3.58,8.23,3.46-14.07,6.7,14.27,1.51-3.67,6.05,8-3.22,1.51Z"/><path class="cls-4" d="M290.72,768.21a10,10,0,0,1-.21-1.91A17.41,17.41,0,0,0,290.72,768.21Z"/><path class="cls-4" d="M311.08,766.3a10,10,0,0,1-.21,1.91A17.41,17.41,0,0,0,311.08,766.3Z"/><path class="cls-4" d="M311.08,766.13s0,.06,0,.17a17.41,17.41,0,0,1-.21,1.91.12.12,0,0,0,0,0c-.57,3.56-2.63,11.72-10.07,25.09-7.43-13.37-9.49-21.53-10.07-25.09a.12.12,0,0,1,0,0,17.41,17.41,0,0,1-.21-1.91c0-.06,0-.11,0-.17a10.28,10.28,0,1,1,20.57,0Z"/><path class="cls-4" d="M275.95,742.56a10,10,0,0,1-.21-1.91A17.41,17.41,0,0,0,275.95,742.56Z"/><path class="cls-4" d="M296.3,740.65a10,10,0,0,1-.21,1.91A17.41,17.41,0,0,0,296.3,740.65Z"/><path class="cls-4" d="M296.31,740.48s0,.06,0,.17a17.41,17.41,0,0,1-.21,1.91.12.12,0,0,0,0,0c-.57,3.56-2.63,11.72-10.07,25.09-7.43-13.37-9.49-21.53-10.07-25.09a.12.12,0,0,1,0,0,17.41,17.41,0,0,1-.21-1.91c0-.06,0-.11,0-.17a10.28,10.28,0,0,1,20.57,0Z"/><path class="cls-4" d="M372.7,753.85a4.43,4.43,0,0,1-4.43,4.43h-14.8v30.63a4.43,4.43,0,0,1-8.85,0V758.28h-14.8a4.43,4.43,0,0,1,0-8.85h14.8v-14.8a4.43,4.43,0,0,1,8.85,0v14.8h14.8A4.43,4.43,0,0,1,372.7,753.85Z"/><path class="cls-4" d="M390.06,793.33h28a1.38,1.38,0,0,0,1.21-2l-13.65-25.2a1.38,1.38,0,0,1,1.21-2h11.44a1.38,1.38,0,0,0,1.27-1.93l-13.72-31.66a.46.46,0,0,0-.88.24l3.52,23.38c.11.83-.26,1.52-1.1,1.52l-12.66-2a1.38,1.38,0,0,0-1.79,1.16L388.68,792A1.38,1.38,0,0,0,390.06,793.33Z"/><path class="cls-4" d="M434.94,753.59a13.65,13.65,0,0,0,4.66,10.28l0,0,18.94,18,1.88,1.78,1.88-1.78,18.94-18,0,0a13.68,13.68,0,1,0-20.83-17.2,13.68,13.68,0,0,0-25.49,6.92Z"/><path class="cls-4" d="M536,742.31,518.59,730.2l-17.4,12.11,4.54,26.81,2.38-7.68,7.78,31.9,6.05-28.76L526,775.17l3-22.05L530.59,767Zm-7.76,0,3.22,1.51-6.05,8-1.51-3.67-6.7,14.27-3.46-14.07-3.58,8.23-4.85-12.75,3.32-1.51,10-4.54Z"/><path class="cls-4" d="M565.29,755.32a10,10,0,0,0-.21,1.91A17.41,17.41,0,0,1,565.29,755.32Z"/><path class="cls-4" d="M585.64,757.23a10,10,0,0,0-.21-1.91A17.41,17.41,0,0,1,585.64,757.23Z"/><path class="cls-4" d="M585.64,757.4s0-.06,0-.17a17.41,17.41,0,0,0-.21-1.91.12.12,0,0,1,0,0c-.57-3.56-2.63-11.72-10.07-25.09-7.43,13.37-9.49,21.53-10.07,25.09a.12.12,0,0,0,0,0,17.41,17.41,0,0,0-.21,1.91c0,.06,0,.11,0,.17a10.28,10.28,0,0,0,20.57,0Z"/><path class="cls-4" d="M550.51,781a10,10,0,0,0-.21,1.91A17.41,17.41,0,0,1,550.51,781Z"/><path class="cls-4" d="M570.87,782.88a10,10,0,0,0-.21-1.91A17.41,17.41,0,0,1,570.87,782.88Z"/><path class="cls-4" d="M570.87,783s0-.06,0-.17a17.41,17.41,0,0,0-.21-1.91.12.12,0,0,1,0,0c-.57-3.56-2.63-11.72-10.07-25.09-7.43,13.37-9.49,21.53-10.07,25.09a.12.12,0,0,0,0,0,17.41,17.41,0,0,0-.21,1.91c0,.06,0,.11,0,.17a10.28,10.28,0,0,0,20.57,0Z"/><path class="cls-4" d="M647.26,769.68a4.43,4.43,0,0,0-4.43-4.43H628V734.62a4.43,4.43,0,0,0-8.85,0v30.63h-14.8a4.43,4.43,0,0,0,0,8.85h14.8v14.8a4.43,4.43,0,0,0,8.85,0V774.1h14.8A4.43,4.43,0,0,0,647.26,769.68Z"/><path class="cls-4" d="M10,878.41H38a1.38,1.38,0,0,0,1.21-2l-13.65-25.2a1.38,1.38,0,0,1,1.21-2H38.26a1.38,1.38,0,0,0,1.27-1.93L25.8,815.55a.46.46,0,0,0-.88.24l3.52,23.38c.11.83-.26,1.52-1.1,1.52l-12.66-2a1.38,1.38,0,0,0-1.79,1.16L8.65,877A1.38,1.38,0,0,0,10,878.41Z"/><path class="cls-4" d="M54.91,838.67a13.65,13.65,0,0,0,4.66,10.28l0,0,18.94,18,1.88,1.78,1.88-1.78,18.94-18,0,0a13.68,13.68,0,1,0-20.83-17.2,13.68,13.68,0,0,0-25.49,6.92Z"/><path class="cls-4" d="M156,827.38l-17.41-12.11-17.4,12.11,4.54,26.81,2.38-7.68,7.78,31.9,6.05-28.76L146,860.24l3-22.05L150.55,852Zm-7.76,0,3.22,1.51-6.05,8-1.51-3.67-6.7,14.27-3.46-14.07-3.58,8.23-4.85-12.75,3.32-1.51,10-4.54Z"/><path class="cls-4" d="M185.25,840.4a10,10,0,0,0-.21,1.91A17.41,17.41,0,0,1,185.25,840.4Z"/><path class="cls-4" d="M205.61,842.3a10,10,0,0,0-.21-1.91A17.41,17.41,0,0,1,205.61,842.3Z"/><path class="cls-4" d="M205.61,842.47s0-.06,0-.17a17.41,17.41,0,0,0-.21-1.91.12.12,0,0,1,0,0c-.57-3.56-2.63-11.72-10.07-25.09-7.43,13.37-9.49,21.53-10.07,25.09a.12.12,0,0,0,0,0,17.41,17.41,0,0,0-.21,1.91c0,.06,0,.11,0,.17a10.28,10.28,0,1,0,20.57,0Z"/><path class="cls-4" d="M170.48,866a10,10,0,0,0-.21,1.91A17.41,17.41,0,0,1,170.48,866Z"/><path class="cls-4" d="M190.83,868a10,10,0,0,0-.21-1.91A17.41,17.41,0,0,1,190.83,868Z"/><path class="cls-4" d="M190.84,868.12s0-.06,0-.17a17.41,17.41,0,0,0-.21-1.91.12.12,0,0,1,0,0c-.57-3.56-2.63-11.72-10.07-25.09-7.43,13.37-9.49,21.53-10.07,25.09a.12.12,0,0,0,0,0,17.41,17.41,0,0,0-.21,1.91c0,.06,0,.11,0,.17a10.28,10.28,0,1,0,20.57,0Z"/><path class="cls-4" d="M267.22,854.75a4.43,4.43,0,0,0-4.43-4.43H248V819.7a4.43,4.43,0,0,0-8.85,0v30.63h-14.8a4.43,4.43,0,0,0,0,8.85h14.8V874a4.43,4.43,0,0,0,8.85,0v-14.8h14.8A4.43,4.43,0,0,0,267.22,854.75Z"/><path class="cls-4" d="M284.59,815.27h28a1.38,1.38,0,0,1,1.21,2l-13.65,25.2a1.38,1.38,0,0,0,1.21,2h11.44a1.38,1.38,0,0,1,1.27,1.93l-13.72,31.66a.46.46,0,0,1-.88-.24L303,854.5c.11-.83-.26-1.52-1.1-1.52l-12.66,2a1.38,1.38,0,0,1-1.79-1.16l-4.25-37.17A1.38,1.38,0,0,1,284.59,815.27Z"/><path class="cls-4" d="M329.47,855a13.65,13.65,0,0,1,4.66-10.28l0,0,18.94-18L355,825l1.88,1.78,18.94,18,0,0A13.68,13.68,0,1,1,355,861.93,13.68,13.68,0,0,1,329.47,855Z"/><path class="cls-4" d="M425.12,841.65l-1.51,13.84-3-22.05L416.47,844l-6.05-28.76-7.78,31.9-2.38-7.68-4.54,26.81,17.4,12.11,17.41-12.11Zm-12,29.19-10-4.54-3.32-1.51L404.68,852l3.58,8.23,3.46-14.07,6.7,14.27,1.51-3.67,6.05,8-3.22,1.51Z"/><path class="cls-4" d="M459.82,853.28a10,10,0,0,1-.21-1.91A17.41,17.41,0,0,0,459.82,853.28Z"/><path class="cls-4" d="M480.17,851.38a10,10,0,0,1-.21,1.91A17.41,17.41,0,0,0,480.17,851.38Z"/><path class="cls-4" d="M480.17,851.21s0,.06,0,.17a17.41,17.41,0,0,1-.21,1.91.12.12,0,0,0,0,0c-.57,3.56-2.63,11.72-10.07,25.09-7.43-13.37-9.49-21.53-10.07-25.09a.12.12,0,0,1,0,0,17.41,17.41,0,0,1-.21-1.91c0-.06,0-.11,0-.17a10.28,10.28,0,1,1,20.57,0Z"/><path class="cls-4" d="M445,827.63a10,10,0,0,1-.21-1.91A17.41,17.41,0,0,0,445,827.63Z"/><path class="cls-4" d="M465.4,825.72a10,10,0,0,1-.21,1.91A17.41,17.41,0,0,0,465.4,825.72Z"/><path class="cls-4" d="M465.4,825.56s0,.06,0,.17a17.41,17.41,0,0,1-.21,1.91.12.12,0,0,0,0,0c-.57,3.56-2.63,11.72-10.07,25.09-7.43-13.37-9.49-21.53-10.07-25.09a.12.12,0,0,1,0,0,17.41,17.41,0,0,1-.21-1.91c0-.06,0-.11,0-.17a10.28,10.28,0,1,1,20.57,0Z"/><path class="cls-4" d="M541.79,838.93a4.43,4.43,0,0,1-4.43,4.43h-14.8V874a4.43,4.43,0,0,1-8.85,0V843.36h-14.8a4.43,4.43,0,0,1,0-8.85h14.8V819.7a4.43,4.43,0,0,1,8.85,0v14.8h14.8A4.43,4.43,0,0,1,541.79,838.93Z"/><path class="cls-4" d="M14.33,244.87a10,10,0,0,0-.21,1.91A17.41,17.41,0,0,1,14.33,244.87Z"/><path class="cls-4" d="M34.69,246.77a10,10,0,0,0-.21-1.91A17.41,17.41,0,0,1,34.69,246.77Z"/><path class="cls-4" d="M34.69,246.94s0-.06,0-.17a17.41,17.41,0,0,0-.21-1.91.12.12,0,0,1,0,0c-.57-3.56-2.63-11.72-10.07-25.09-7.43,13.37-9.49,21.53-10.07,25.09a.12.12,0,0,0,0,0,17.41,17.41,0,0,0-.21,1.91c0,.06,0,.11,0,.17a10.28,10.28,0,0,0,20.57,0Z"/><path class="cls-4" d="M19.91,272.43a10,10,0,0,0-.21-1.91A17.41,17.41,0,0,1,19.91,272.43Z"/><path class="cls-4" d="M19.92,272.59s0-.06,0-.17a17.41,17.41,0,0,0-.21-1.91.12.12,0,0,1,0,0c-.57-3.56-2.63-11.72-10.07-25.09C2.2,258.76.14,266.92-.43,270.48a.12.12,0,0,0,0,0,17.41,17.41,0,0,0-.21,1.91c0,.06,0,.11,0,.17a10.28,10.28,0,0,0,20.57,0Z"/><path class="cls-4" d="M96.3,259.22a4.43,4.43,0,0,0-4.43-4.43H77.08V224.17a4.43,4.43,0,0,0-8.85,0V254.8H53.42a4.43,4.43,0,0,0,0,8.85h14.8v14.8a4.43,4.43,0,0,0,8.85,0v-14.8h14.8A4.43,4.43,0,0,0,96.3,259.22Z"/><path class="cls-4" d="M115.5,219.74h28a1.38,1.38,0,0,1,1.21,2L131.08,247a1.38,1.38,0,0,0,1.21,2h11.44a1.38,1.38,0,0,1,1.27,1.93L131.28,282.6a.46.46,0,0,1-.88-.24L133.92,259c.11-.83-.26-1.52-1.1-1.52l-12.66,2a1.38,1.38,0,0,1-1.79-1.16l-4.25-37.17A1.38,1.38,0,0,1,115.5,219.74Z"/><path class="cls-4" d="M160.38,259.49A13.65,13.65,0,0,1,165,249.2l0,0,18.94-18,1.88-1.78,1.88,1.78,18.94,18,0,0a13.68,13.68,0,1,1-20.83,17.2,13.68,13.68,0,0,1-25.49-6.92Z"/><path class="cls-4" d="M256,246.12,254.51,260l-3-22.05-4.11,10.59-6.05-28.76-7.78,31.9L231.16,244l-4.54,26.81L244,282.88l17.41-12.11Zm-12,29.19-10-4.54-3.32-1.51,4.85-12.75,3.58,8.23,3.46-14.07,6.7,14.27,1.51-3.67,6.05,8-3.22,1.51Z"/><path class="cls-4" d="M290.72,257.75a10,10,0,0,1-.21-1.91A17.41,17.41,0,0,0,290.72,257.75Z"/><path class="cls-4" d="M311.08,255.85a10,10,0,0,1-.21,1.91A17.41,17.41,0,0,0,311.08,255.85Z"/><path class="cls-4" d="M311.08,255.68s0,.06,0,.17a17.41,17.41,0,0,1-.21,1.91.12.12,0,0,0,0,0c-.57,3.56-2.63,11.72-10.07,25.09-7.43-13.37-9.49-21.53-10.07-25.09a.12.12,0,0,1,0,0,17.41,17.41,0,0,1-.21-1.91c0-.06,0-.11,0-.17a10.28,10.28,0,0,1,20.57,0Z"/><path class="cls-4" d="M275.95,232.1a10,10,0,0,1-.21-1.91A17.41,17.41,0,0,0,275.95,232.1Z"/><path class="cls-4" d="M296.3,230.19a10,10,0,0,1-.21,1.91A17.41,17.41,0,0,0,296.3,230.19Z"/><path class="cls-4" d="M296.31,230s0,.06,0,.17a17.41,17.41,0,0,1-.21,1.91.12.12,0,0,0,0,0c-.57,3.56-2.63,11.72-10.07,25.09-7.43-13.37-9.49-21.53-10.07-25.09a.12.12,0,0,1,0,0,17.41,17.41,0,0,1-.21-1.91c0-.06,0-.11,0-.17a10.28,10.28,0,0,1,20.57,0Z"/><path class="cls-4" d="M372.7,243.4a4.43,4.43,0,0,1-4.43,4.43h-14.8v30.63a4.43,4.43,0,0,1-8.85,0V247.83h-14.8a4.43,4.43,0,0,1,0-8.85h14.8v-14.8a4.43,4.43,0,0,1,8.85,0V239h14.8A4.43,4.43,0,0,1,372.7,243.4Z"/><path class="cls-4" d="M390.06,282.88h28a1.38,1.38,0,0,0,1.21-2l-13.65-25.2a1.38,1.38,0,0,1,1.21-2h11.44a1.38,1.38,0,0,0,1.27-1.93L405.84,220a.46.46,0,0,0-.88.24l3.52,23.38c.11.83-.26,1.52-1.1,1.52l-12.66-2a1.38,1.38,0,0,0-1.79,1.16l-4.25,37.17A1.38,1.38,0,0,0,390.06,282.88Z"/><path class="cls-4" d="M434.94,243.14a13.65,13.65,0,0,0,4.66,10.28l0,0,18.94,18,1.88,1.78,1.88-1.78,18.94-18,0,0a13.68,13.68,0,1,0-20.83-17.2,13.68,13.68,0,0,0-25.49,6.92Z"/><path class="cls-4" d="M536,231.85l-17.41-12.11-17.4,12.11,4.54,26.81L508.1,251l7.78,31.9,6.05-28.76L526,264.71l3-22.05,1.51,13.84Zm-7.76,0,3.22,1.51-6.05,8-1.51-3.67L517.18,252l-3.46-14.07-3.58,8.23-4.85-12.75,3.32-1.51,10-4.54Z"/><path class="cls-4" d="M565.29,244.87a10,10,0,0,0-.21,1.91A17.41,17.41,0,0,1,565.29,244.87Z"/><path class="cls-4" d="M585.64,246.77a10,10,0,0,0-.21-1.91A17.41,17.41,0,0,1,585.64,246.77Z"/><path class="cls-4" d="M585.64,246.94s0-.06,0-.17a17.41,17.41,0,0,0-.21-1.91.12.12,0,0,1,0,0c-.57-3.56-2.63-11.72-10.07-25.09-7.43,13.37-9.49,21.53-10.07,25.09a.12.12,0,0,0,0,0,17.41,17.41,0,0,0-.21,1.91c0,.06,0,.11,0,.17a10.28,10.28,0,0,0,20.57,0Z"/><path class="cls-4" d="M550.51,270.52a10,10,0,0,0-.21,1.91A17.41,17.41,0,0,1,550.51,270.52Z"/><path class="cls-4" d="M570.87,272.43a10,10,0,0,0-.21-1.91A17.41,17.41,0,0,1,570.87,272.43Z"/><path class="cls-4" d="M570.87,272.59s0-.06,0-.17a17.41,17.41,0,0,0-.21-1.91.12.12,0,0,1,0,0c-.57-3.56-2.63-11.72-10.07-25.09-7.43,13.37-9.49,21.53-10.07,25.09a.12.12,0,0,0,0,0,17.41,17.41,0,0,0-.21,1.91c0,.06,0,.11,0,.17a10.28,10.28,0,0,0,20.57,0Z"/><path class="cls-4" d="M647.26,259.22a4.43,4.43,0,0,0-4.43-4.43H628V224.17a4.43,4.43,0,0,0-8.85,0V254.8h-14.8a4.43,4.43,0,0,0,0,8.85h14.8v14.8a4.43,4.43,0,0,0,8.85,0v-14.8h14.8A4.43,4.43,0,0,0,647.26,259.22Z"/><path class="cls-4" d="M14.33,415a10,10,0,0,0-.21,1.91A17.41,17.41,0,0,1,14.33,415Z"/><path class="cls-4" d="M34.69,416.93a10,10,0,0,0-.21-1.91A17.41,17.41,0,0,1,34.69,416.93Z"/><path class="cls-4" d="M34.69,417.09s0-.06,0-.17a17.41,17.41,0,0,0-.21-1.91.12.12,0,0,1,0,0c-.57-3.56-2.63-11.72-10.07-25.09C17,403.26,14.91,411.42,14.34,415a.12.12,0,0,0,0,0,17.41,17.41,0,0,0-.21,1.91c0,.06,0,.11,0,.17a10.28,10.28,0,1,0,20.57,0Z"/><path class="cls-4" d="M19.91,442.58a10,10,0,0,0-.21-1.91A17.41,17.41,0,0,1,19.91,442.58Z"/><path class="cls-4" d="M19.92,442.74s0-.06,0-.17a17.41,17.41,0,0,0-.21-1.91.12.12,0,0,1,0,0c-.57-3.56-2.63-11.72-10.07-25.09C2.2,428.91.14,437.07-.43,440.64a.12.12,0,0,0,0,0,17.41,17.41,0,0,0-.21,1.91c0,.06,0,.11,0,.17a10.28,10.28,0,1,0,20.57,0Z"/><path class="cls-4" d="M96.3,429.37a4.43,4.43,0,0,0-4.43-4.43H77.08V394.32a4.43,4.43,0,0,0-8.85,0v30.63H53.42a4.43,4.43,0,0,0,0,8.85h14.8v14.8a4.43,4.43,0,0,0,8.85,0V433.8h14.8A4.43,4.43,0,0,0,96.3,429.37Z"/><path class="cls-4" d="M115.5,389.9h28a1.38,1.38,0,0,1,1.21,2l-13.65,25.2a1.38,1.38,0,0,0,1.21,2h11.44a1.38,1.38,0,0,1,1.27,1.93l-13.72,31.66a.46.46,0,0,1-.88-.24l3.52-23.38c.11-.83-.26-1.52-1.1-1.52l-12.66,2a1.38,1.38,0,0,1-1.79-1.16l-4.25-37.17A1.38,1.38,0,0,1,115.5,389.9Z"/><path class="cls-4" d="M160.38,429.64A13.65,13.65,0,0,1,165,419.36l0,0,18.94-18,1.88-1.78,1.88,1.78,18.94,18,0,0a13.68,13.68,0,1,1-20.83,17.2,13.68,13.68,0,0,1-25.49-6.92Z"/><path class="cls-4" d="M256,416.27l-1.51,13.84-3-22.05-4.11,10.59-6.05-28.76-7.78,31.9-2.38-7.68-4.54,26.81L244,453l17.41-12.11Zm-12,29.19-10-4.54-3.32-1.51,4.85-12.75,3.58,8.23,3.46-14.07,6.7,14.27,1.51-3.67,6.05,8-3.22,1.51Z"/><path class="cls-4" d="M290.72,427.9a10,10,0,0,1-.21-1.91A17.41,17.41,0,0,0,290.72,427.9Z"/><path class="cls-4" d="M311.08,426a10,10,0,0,1-.21,1.91A17.41,17.41,0,0,0,311.08,426Z"/><path class="cls-4" d="M311.08,425.83s0,.06,0,.17a17.41,17.41,0,0,1-.21,1.91.12.12,0,0,0,0,0c-.57,3.56-2.63,11.72-10.07,25.09-7.43-13.37-9.49-21.53-10.07-25.09a.12.12,0,0,1,0,0,17.41,17.41,0,0,1-.21-1.91c0-.06,0-.11,0-.17a10.28,10.28,0,1,1,20.57,0Z"/><path class="cls-4" d="M275.95,402.25a10,10,0,0,1-.21-1.91A17.41,17.41,0,0,0,275.95,402.25Z"/><path class="cls-4" d="M296.3,400.35a10,10,0,0,1-.21,1.91A17.41,17.41,0,0,0,296.3,400.35Z"/><path class="cls-4" d="M296.31,400.18s0,.06,0,.17a17.41,17.41,0,0,1-.21,1.91.12.12,0,0,0,0,0c-.57,3.56-2.63,11.72-10.07,25.09-7.43-13.37-9.49-21.53-10.07-25.09a.12.12,0,0,1,0,0,17.41,17.41,0,0,1-.21-1.91c0-.06,0-.11,0-.17a10.28,10.28,0,1,1,20.57,0Z"/><path class="cls-4" d="M372.7,413.55a4.43,4.43,0,0,1-4.43,4.43h-14.8V448.6a4.43,4.43,0,0,1-8.85,0V418h-14.8a4.43,4.43,0,0,1,0-8.85h14.8v-14.8a4.43,4.43,0,0,1,8.85,0v14.8h14.8A4.43,4.43,0,0,1,372.7,413.55Z"/><path class="cls-4" d="M390.06,453h28a1.38,1.38,0,0,0,1.21-2l-13.65-25.2a1.38,1.38,0,0,1,1.21-2h11.44a1.38,1.38,0,0,0,1.27-1.93l-13.72-31.66a.46.46,0,0,0-.88.24l3.52,23.38c.11.83-.26,1.52-1.1,1.52l-12.66-2a1.38,1.38,0,0,0-1.79,1.16l-4.25,37.17A1.38,1.38,0,0,0,390.06,453Z"/><path class="cls-4" d="M434.94,413.29a13.65,13.65,0,0,0,4.66,10.28l0,0,18.94,18,1.88,1.78,1.88-1.78,18.94-18,0,0a13.68,13.68,0,1,0-20.83-17.2,13.68,13.68,0,0,0-25.49,6.92Z"/><path class="cls-4" d="M536,402,518.59,389.9,501.19,402l4.54,26.81,2.38-7.68,7.78,31.9,6.05-28.76L526,434.87l3-22.05,1.51,13.84Zm-7.76,0,3.22,1.51-6.05,8-1.51-3.67-6.7,14.27L513.73,408l-3.58,8.23-4.85-12.75,3.32-1.51,10-4.54Z"/><path class="cls-4" d="M565.29,415a10,10,0,0,0-.21,1.91A17.41,17.41,0,0,1,565.29,415Z"/><path class="cls-4" d="M585.64,416.93a10,10,0,0,0-.21-1.91A17.41,17.41,0,0,1,585.64,416.93Z"/><path class="cls-4" d="M585.64,417.09s0-.06,0-.17a17.41,17.41,0,0,0-.21-1.91.12.12,0,0,1,0,0c-.57-3.56-2.63-11.72-10.07-25.09-7.43,13.37-9.49,21.53-10.07,25.09a.12.12,0,0,0,0,0,17.41,17.41,0,0,0-.21,1.91c0,.06,0,.11,0,.17a10.28,10.28,0,1,0,20.57,0Z"/><path class="cls-4" d="M550.51,440.67a10,10,0,0,0-.21,1.91A17.41,17.41,0,0,1,550.51,440.67Z"/><path class="cls-4" d="M570.87,442.58a10,10,0,0,0-.21-1.91A17.41,17.41,0,0,1,570.87,442.58Z"/><path class="cls-4" d="M570.87,442.74s0-.06,0-.17a17.41,17.41,0,0,0-.21-1.91.12.12,0,0,1,0,0c-.57-3.56-2.63-11.72-10.07-25.09-7.43,13.37-9.49,21.53-10.07,25.09a.12.12,0,0,0,0,0,17.41,17.41,0,0,0-.21,1.91c0,.06,0,.11,0,.17a10.28,10.28,0,1,0,20.57,0Z"/><path class="cls-4" d="M647.26,429.37a4.43,4.43,0,0,0-4.43-4.43H628V394.32a4.43,4.43,0,0,0-8.85,0v30.63h-14.8a4.43,4.43,0,0,0,0,8.85h14.8v14.8a4.43,4.43,0,0,0,8.85,0V433.8h14.8A4.43,4.43,0,0,0,647.26,429.37Z"/><path class="cls-4" d="M10,368H38a1.38,1.38,0,0,0,1.21-2l-13.65-25.2a1.38,1.38,0,0,1,1.21-2H38.26a1.38,1.38,0,0,0,1.27-1.93L25.8,305.1a.46.46,0,0,0-.88.24l3.52,23.38c.11.83-.26,1.52-1.1,1.52l-12.66-2a1.38,1.38,0,0,0-1.79,1.16L8.65,366.57A1.38,1.38,0,0,0,10,368Z"/><path class="cls-4" d="M54.91,328.21a13.65,13.65,0,0,0,4.66,10.28l0,0,18.94,18,1.88,1.78,1.88-1.78,18.94-18,0,0a13.68,13.68,0,1,0-20.83-17.2,13.68,13.68,0,0,0-25.49,6.92Z"/><path class="cls-4" d="M156,316.93l-17.41-12.11-17.4,12.11,4.54,26.81,2.38-7.68,7.78,31.9,6.05-28.76L146,349.79l3-22.05,1.51,13.84Zm-7.76,0,3.22,1.51-6.05,8-1.51-3.67L137.15,337,133.69,323l-3.58,8.23-4.85-12.75,3.32-1.51,10-4.54Z"/><path class="cls-4" d="M185.25,329.94a10,10,0,0,0-.21,1.91A17.41,17.41,0,0,1,185.25,329.94Z"/><path class="cls-4" d="M205.61,331.85a10,10,0,0,0-.21-1.91A17.41,17.41,0,0,1,205.61,331.85Z"/><path class="cls-4" d="M205.61,332s0-.06,0-.17a17.41,17.41,0,0,0-.21-1.91.12.12,0,0,1,0,0c-.57-3.56-2.63-11.72-10.07-25.09-7.43,13.37-9.49,21.53-10.07,25.09a.12.12,0,0,0,0,0,17.41,17.41,0,0,0-.21,1.91c0,.06,0,.11,0,.17a10.28,10.28,0,0,0,20.57,0Z"/><path class="cls-4" d="M170.48,355.6a10,10,0,0,0-.21,1.91A17.41,17.41,0,0,1,170.48,355.6Z"/><path class="cls-4" d="M190.83,357.5a10,10,0,0,0-.21-1.91A17.41,17.41,0,0,1,190.83,357.5Z"/><path class="cls-4" d="M190.84,357.67s0-.06,0-.17a17.41,17.41,0,0,0-.21-1.91.12.12,0,0,1,0,0C190,352,188,343.84,180.55,330.47c-7.43,13.37-9.49,21.53-10.07,25.09a.12.12,0,0,0,0,0,17.41,17.41,0,0,0-.21,1.91c0,.06,0,.11,0,.17a10.28,10.28,0,1,0,20.57,0Z"/><path class="cls-4" d="M267.22,344.3a4.43,4.43,0,0,0-4.43-4.43H248V309.25a4.43,4.43,0,0,0-8.85,0v30.63h-14.8a4.43,4.43,0,0,0,0,8.85h14.8v14.8a4.43,4.43,0,0,0,8.85,0v-14.8h14.8A4.43,4.43,0,0,0,267.22,344.3Z"/><path class="cls-4" d="M284.59,304.82h28a1.38,1.38,0,0,1,1.21,2l-13.65,25.2a1.38,1.38,0,0,0,1.21,2h11.44a1.38,1.38,0,0,1,1.27,1.93l-13.72,31.66a.46.46,0,0,1-.88-.24L303,344.05c.11-.83-.26-1.52-1.1-1.52l-12.66,2a1.38,1.38,0,0,1-1.79-1.16l-4.25-37.17A1.38,1.38,0,0,1,284.59,304.82Z"/><path class="cls-4" d="M329.47,344.56a13.65,13.65,0,0,1,4.66-10.28l0,0,18.94-18,1.88-1.78,1.88,1.78,18.94,18,0,0A13.68,13.68,0,1,1,355,351.48a13.68,13.68,0,0,1-25.49-6.92Z"/><path class="cls-4" d="M425.12,331.2,423.61,345l-3-22.05-4.11,10.59-6.05-28.76-7.78,31.9L400.26,329l-4.54,26.81L413.12,368l17.41-12.11Zm-12,29.19-10-4.54-3.32-1.51,4.85-12.75,3.58,8.23,3.46-14.07,6.7,14.27,1.51-3.67,6.05,8-3.22,1.51Z"/><path class="cls-4" d="M459.82,342.83a10,10,0,0,1-.21-1.91A17.41,17.41,0,0,0,459.82,342.83Z"/><path class="cls-4" d="M480.17,340.92a10,10,0,0,1-.21,1.91A17.41,17.41,0,0,0,480.17,340.92Z"/><path class="cls-4" d="M480.17,340.76s0,.06,0,.17a17.41,17.41,0,0,1-.21,1.91.12.12,0,0,0,0,0c-.57,3.56-2.63,11.72-10.07,25.09-7.43-13.37-9.49-21.53-10.07-25.09a.12.12,0,0,1,0,0,17.41,17.41,0,0,1-.21-1.91c0-.06,0-.11,0-.17a10.28,10.28,0,1,1,20.57,0Z"/><path class="cls-4" d="M445,317.18a10,10,0,0,1-.21-1.91A17.41,17.41,0,0,0,445,317.18Z"/><path class="cls-4" d="M465.4,315.27a10,10,0,0,1-.21,1.91A17.41,17.41,0,0,0,465.4,315.27Z"/><path class="cls-4" d="M465.4,315.1s0,.06,0,.17a17.41,17.41,0,0,1-.21,1.91.12.12,0,0,0,0,0c-.57,3.56-2.63,11.72-10.07,25.09-7.43-13.37-9.49-21.53-10.07-25.09a.12.12,0,0,1,0,0,17.41,17.41,0,0,1-.21-1.91c0-.06,0-.11,0-.17a10.28,10.28,0,1,1,20.57,0Z"/><path class="cls-4" d="M541.79,328.48a4.43,4.43,0,0,1-4.43,4.43h-14.8v30.63a4.43,4.43,0,0,1-8.85,0V332.9h-14.8a4.43,4.43,0,0,1,0-8.85h14.8v-14.8a4.43,4.43,0,0,1,8.85,0V324h14.8A4.43,4.43,0,0,1,541.79,328.48Z"/><path class="cls-4" d="M556.12,27.65h28a1.38,1.38,0,0,0,1.21-2L571.7.42a1.38,1.38,0,0,1,1.21-2h11.44a1.38,1.38,0,0,0,1.27-1.93L571.9-35.2A.46.46,0,0,0,571-35l3.52,23.38c.11.83-.26,1.52-1.1,1.52l-12.66-2A1.38,1.38,0,0,0,559-10.9l-4.25,37.17A1.38,1.38,0,0,0,556.12,27.65Z"/><path class="cls-4" d="M601-12.09a13.65,13.65,0,0,0,4.66,10.28l0,0,18.94,18,1.88,1.78,1.88-1.78,18.94-18,0,0A13.65,13.65,0,0,0,652-12.09a13.68,13.68,0,0,0-13.68-13.68A13.66,13.66,0,0,0,626.49-19a13.66,13.66,0,0,0-11.8-6.76A13.68,13.68,0,0,0,601-12.09Z"/><path class="cls-4" d="M702.05-23.37,684.65-35.48l-17.4,12.11,4.54,26.81,2.38-7.68,7.78,31.9L688-1.1l4.11,10.59,3-22.05,1.51,13.84Zm-7.76,0,3.22,1.51-6.05,8-1.51-3.67-6.7,14.27-3.46-14.07L676.2-9.11l-4.85-12.75,3.32-1.51,10-4.54Z"/><path class="cls-4" d="M751.7-8.29s0-.06,0-.17a17.41,17.41,0,0,0-.21-1.91.12.12,0,0,1,0,0c-.57-3.56-2.63-11.72-10.07-25.09C734-22.12,731.92-14,731.35-10.39a.12.12,0,0,0,0,0,17.41,17.41,0,0,0-.21,1.91c0,.06,0,.11,0,.17A10.28,10.28,0,0,0,741.42,2,10.28,10.28,0,0,0,751.7-8.29Z"/><path class="cls-4" d="M716.57,15.29a10,10,0,0,0-.21,1.91A17.41,17.41,0,0,1,716.57,15.29Z"/><path class="cls-4" d="M736.93,17.2a10,10,0,0,0-.21-1.91A17.41,17.41,0,0,1,736.93,17.2Z"/><path class="cls-4" d="M736.93,17.37s0-.06,0-.17a17.41,17.41,0,0,0-.21-1.91.12.12,0,0,1,0,0c-.57-3.56-2.63-11.72-10.07-25.09-7.43,13.37-9.49,21.53-10.07,25.09a.12.12,0,0,0,0,0,17.41,17.41,0,0,0-.21,1.91c0,.06,0,.11,0,.17a10.28,10.28,0,0,0,20.57,0Z"/><path class="cls-4" d="M813.32,4a4.43,4.43,0,0,0-4.43-4.43h-14.8V-31.06a4.43,4.43,0,0,0-4.43-4.43,4.41,4.41,0,0,0-3.13,1.3,4.41,4.41,0,0,0-1.3,3.13V-.43h-14.8a4.43,4.43,0,0,0,0,8.85h14.8v14.8a4.43,4.43,0,0,0,8.85,0V8.42h14.8A4.43,4.43,0,0,0,813.32,4Z"/><path class="cls-4" d="M830.68-35.48h28a1.38,1.38,0,0,1,1.21,2L846.26-8.25a1.38,1.38,0,0,0,1.21,2h11.44a1.38,1.38,0,0,1,1.27,1.93L846.46,27.37a.46.46,0,0,1-.88-.24l3.52-23.38c.11-.83-.26-1.52-1.1-1.52l-12.66,2a1.38,1.38,0,0,1-1.79-1.16L829.3-34.1A1.38,1.38,0,0,1,830.68-35.48Z"/><path class="cls-4" d="M875.57,4.26A13.65,13.65,0,0,1,880.22-6l0,0,18.94-18,1.88-1.78L902.93-24,921.87-6l0,0a13.68,13.68,0,1,1-20.83,17.2,13.68,13.68,0,0,1-25.49-6.92Z"/><path class="cls-4" d="M971.21-9.1,969.7,4.73l-3-22.05L962.56-6.73l-6.05-28.76-7.78,31.9-2.38-7.68-4.54,26.81,17.4,12.11,17.41-12.11Zm-12,29.19-10-4.54L945.91,14l4.85-12.75,3.58,8.23,3.46-14.07,6.7,14.27L966,6l6.05,8-3.22,1.51Z"/><path class="cls-4" d="M1005.91,2.53a10,10,0,0,1-.21-1.91A17.41,17.41,0,0,0,1005.91,2.53Z"/><path class="cls-4" d="M1026.26.62a10,10,0,0,1-.21,1.91A17.41,17.41,0,0,0,1026.26.62Z"/><path class="cls-4" d="M1026.27.45s0,.06,0,.17a17.41,17.41,0,0,1-.21,1.91.12.12,0,0,0,0,0c-.57,3.56-2.63,11.72-10.07,25.09-7.43-13.37-9.49-21.53-10.07-25.09a.12.12,0,0,1,0,0,17.41,17.41,0,0,1-.21-1.91c0-.06,0-.11,0-.17a10.28,10.28,0,1,1,20.57,0Z"/><path class="cls-4" d="M1011.49-25.2s0,.06,0,.17a17.41,17.41,0,0,1-.21,1.91.12.12,0,0,0,0,0c-.57,3.56-2.63,11.72-10.07,25.09-7.43-13.37-9.49-21.53-10.07-25.09a.12.12,0,0,1,0,0,17.41,17.41,0,0,1-.21-1.91c0-.06,0-.11,0-.17a10.28,10.28,0,0,1,10.28-10.28A10.28,10.28,0,0,1,1011.49-25.2Z"/><path class="cls-4" d="M1087.88-11.83a4.41,4.41,0,0,1-1.3,3.13,4.41,4.41,0,0,1-3.13,1.3h-14.8V23.22a4.43,4.43,0,0,1-8.85,0V-7.4H1045a4.43,4.43,0,0,1-4.43-4.43,4.41,4.41,0,0,1,1.3-3.13,4.41,4.41,0,0,1,3.13-1.3h14.8v-14.8a4.43,4.43,0,0,1,4.43-4.43,4.41,4.41,0,0,1,3.13,1.3,4.41,4.41,0,0,1,1.3,3.13v14.8h14.8A4.43,4.43,0,0,1,1087.88-11.83Z"/><path class="cls-4" d="M1107.07,27.65h28a1.38,1.38,0,0,0,1.21-2L1122.65.42a1.38,1.38,0,0,1,1.21-2h11.44a1.38,1.38,0,0,0,1.27-1.93L1122.85-35.2a.46.46,0,0,0-.88.24l3.52,23.38c.11.83-.26,1.52-1.1,1.52l-12.66-2a1.38,1.38,0,0,0-1.79,1.16l-4.25,37.17A1.38,1.38,0,0,0,1107.07,27.65Z"/><path class="cls-4" d="M1152-12.09a13.65,13.65,0,0,0,4.66,10.28l0,0,18.94,18,1.88,1.78,1.88-1.78,18.94-18,0,0a13.65,13.65,0,0,0,4.66-10.28,13.68,13.68,0,0,0-13.68-13.68,13.66,13.66,0,0,0-11.8,6.76,13.66,13.66,0,0,0-11.8-6.76A13.68,13.68,0,0,0,1152-12.09Z"/><path class="cls-4" d="M556.12,197.8h28a1.38,1.38,0,0,0,1.21-2l-13.65-25.2a1.38,1.38,0,0,1,1.21-2h11.44a1.38,1.38,0,0,0,1.27-1.93L571.9,134.95a.46.46,0,0,0-.88.24l3.52,23.38c.11.83-.26,1.52-1.1,1.52l-12.66-2a1.38,1.38,0,0,0-1.79,1.16l-4.25,37.17A1.38,1.38,0,0,0,556.12,197.8Z"/><path class="cls-4" d="M601,158.06a13.65,13.65,0,0,0,4.66,10.28l0,0,18.94,18,1.88,1.78,1.88-1.78,18.94-18,0,0a13.68,13.68,0,1,0-20.83-17.2A13.68,13.68,0,0,0,601,158.06Z"/><path class="cls-4" d="M702.05,146.78l-17.41-12.11-17.4,12.11,4.54,26.81,2.38-7.68,7.78,31.9L688,169l4.11,10.59,3-22.05,1.51,13.84Zm-7.76,0,3.22,1.51-6.05,8-1.51-3.67-6.7,14.27-3.46-14.07L676.2,161l-4.85-12.75,3.32-1.51,10-4.54Z"/><path class="cls-4" d="M731.34,159.79a10,10,0,0,0-.21,1.91A17.41,17.41,0,0,1,731.34,159.79Z"/><path class="cls-4" d="M751.7,161.7a10,10,0,0,0-.21-1.91A17.41,17.41,0,0,1,751.7,161.7Z"/><path class="cls-4" d="M751.7,161.87s0-.06,0-.17a17.41,17.41,0,0,0-.21-1.91.12.12,0,0,1,0,0c-.57-3.56-2.63-11.72-10.07-25.09-7.43,13.37-9.49,21.53-10.07,25.09a.12.12,0,0,0,0,0,17.41,17.41,0,0,0-.21,1.91c0,.06,0,.11,0,.17a10.28,10.28,0,0,0,20.57,0Z"/><path class="cls-4" d="M716.57,185.44a10,10,0,0,0-.21,1.91A17.41,17.41,0,0,1,716.57,185.44Z"/><path class="cls-4" d="M736.93,187.35a10,10,0,0,0-.21-1.91A17.41,17.41,0,0,1,736.93,187.35Z"/><path class="cls-4" d="M736.93,187.52s0-.06,0-.17a17.41,17.41,0,0,0-.21-1.91.12.12,0,0,1,0,0c-.57-3.56-2.63-11.72-10.07-25.09-7.43,13.37-9.49,21.53-10.07,25.09a.12.12,0,0,0,0,0,17.41,17.41,0,0,0-.21,1.91c0,.06,0,.11,0,.17a10.28,10.28,0,0,0,20.57,0Z"/><path class="cls-4" d="M813.32,174.15a4.43,4.43,0,0,0-4.43-4.43h-14.8V139.09a4.43,4.43,0,0,0-8.85,0v30.63h-14.8a4.43,4.43,0,0,0,0,8.85h14.8v14.8a4.43,4.43,0,0,0,8.85,0v-14.8h14.8A4.43,4.43,0,0,0,813.32,174.15Z"/><path class="cls-4" d="M830.68,134.67h28a1.38,1.38,0,0,1,1.21,2l-13.65,25.2a1.38,1.38,0,0,0,1.21,2h11.44a1.38,1.38,0,0,1,1.27,1.93l-13.72,31.66a.46.46,0,0,1-.88-.24l3.52-23.38c.11-.83-.26-1.52-1.1-1.52l-12.66,2a1.38,1.38,0,0,1-1.79-1.16L829.3,136A1.38,1.38,0,0,1,830.68,134.67Z"/><path class="cls-4" d="M875.57,174.41a13.65,13.65,0,0,1,4.66-10.28l0,0,18.94-18,1.88-1.78,1.88,1.78,18.94,18,0,0a13.68,13.68,0,1,1-20.83,17.2,13.68,13.68,0,0,1-25.49-6.92Z"/><path class="cls-4" d="M971.21,161l-1.51,13.84-3-22.05-4.11,10.59-6.05-28.76-7.78,31.9-2.38-7.68-4.54,26.81,17.4,12.11,17.41-12.11Zm-12,29.19-10-4.54-3.32-1.51,4.85-12.75,3.58,8.23,3.46-14.07,6.7,14.27,1.51-3.67,6.05,8-3.22,1.51Z"/><path class="cls-4" d="M1005.91,172.68a10,10,0,0,1-.21-1.91A17.41,17.41,0,0,0,1005.91,172.68Z"/><path class="cls-4" d="M1026.26,170.77a10,10,0,0,1-.21,1.91A17.41,17.41,0,0,0,1026.26,170.77Z"/><path class="cls-4" d="M1026.27,170.6s0,.06,0,.17a17.41,17.41,0,0,1-.21,1.91.12.12,0,0,0,0,0c-.57,3.56-2.63,11.72-10.07,25.09-7.43-13.37-9.49-21.53-10.07-25.09a.12.12,0,0,1,0,0,17.41,17.41,0,0,1-.21-1.91c0-.06,0-.11,0-.17a10.28,10.28,0,1,1,20.57,0Z"/><path class="cls-4" d="M991.14,147a10,10,0,0,1-.21-1.91A17.41,17.41,0,0,0,991.14,147Z"/><path class="cls-4" d="M1011.49,145.12a10,10,0,0,1-.21,1.91A17.41,17.41,0,0,0,1011.49,145.12Z"/><path class="cls-4" d="M1011.49,145s0,.06,0,.17a17.41,17.41,0,0,1-.21,1.91.12.12,0,0,0,0,0c-.57,3.56-2.63,11.72-10.07,25.09-7.43-13.37-9.49-21.53-10.07-25.09a.12.12,0,0,1,0,0,17.41,17.41,0,0,1-.21-1.91c0-.06,0-.11,0-.17a10.28,10.28,0,0,1,20.57,0Z"/><path class="cls-4" d="M1087.88,158.32a4.43,4.43,0,0,1-4.43,4.43h-14.8v30.63a4.43,4.43,0,0,1-8.85,0V162.75H1045a4.43,4.43,0,0,1,0-8.85h14.8v-14.8a4.43,4.43,0,0,1,8.85,0v14.8h14.8A4.43,4.43,0,0,1,1087.88,158.32Z"/><path class="cls-4" d="M1107.07,197.8h28a1.38,1.38,0,0,0,1.21-2l-13.65-25.2a1.38,1.38,0,0,1,1.21-2h11.44a1.38,1.38,0,0,0,1.27-1.93l-13.72-31.66a.46.46,0,0,0-.88.24l3.52,23.38c.11.83-.26,1.52-1.1,1.52l-12.66-2a1.38,1.38,0,0,0-1.79,1.16l-4.25,37.17A1.38,1.38,0,0,0,1107.07,197.8Z"/><path class="cls-4" d="M1152,158.06a13.65,13.65,0,0,0,4.66,10.28l0,0,18.94,18,1.88,1.78,1.88-1.78,18.94-18,0,0a13.68,13.68,0,1,0-20.83-17.2,13.68,13.68,0,0,0-25.49,6.92Z"/><path class="cls-4" d="M661.59,49.59h28a1.38,1.38,0,0,1,1.21,2l-13.65,25.2a1.38,1.38,0,0,0,1.21,2h11.44a1.38,1.38,0,0,1,1.27,1.93l-13.72,31.66a.46.46,0,0,1-.88-.24L680,88.82c.11-.83-.26-1.52-1.1-1.52l-12.66,2a1.38,1.38,0,0,1-1.79-1.16L660.21,51A1.38,1.38,0,0,1,661.59,49.59Z"/><path class="cls-4" d="M706.47,89.33a13.65,13.65,0,0,1,4.66-10.28l0,0,18.94-18L732,59.31l1.88,1.78,18.94,18,0,0A13.68,13.68,0,1,1,732,96.25a13.68,13.68,0,0,1-25.49-6.92Z"/><path class="cls-4" d="M802.12,76l-1.51,13.84-3-22.05-4.11,10.59-6.05-28.76-7.78,31.9-2.38-7.68-4.54,26.81,17.4,12.11,17.41-12.11Zm-12,29.19-10-4.54-3.32-1.51,4.85-12.75,3.58,8.23,3.46-14.07,6.7,14.27,1.51-3.67,6.05,8-3.22,1.51Z"/><path class="cls-4" d="M836.82,87.6a10,10,0,0,1-.21-1.91A17.41,17.41,0,0,0,836.82,87.6Z"/><path class="cls-4" d="M857.17,85.7A10,10,0,0,1,857,87.6,17.41,17.41,0,0,0,857.17,85.7Z"/><path class="cls-4" d="M857.17,85.53s0,.06,0,.17A17.41,17.41,0,0,1,857,87.6a.12.12,0,0,0,0,0c-.57,3.56-2.63,11.72-10.07,25.09-7.43-13.37-9.49-21.53-10.07-25.09a.12.12,0,0,1,0,0,17.41,17.41,0,0,1-.21-1.91c0-.06,0-.11,0-.17a10.28,10.28,0,0,1,20.57,0Z"/><path class="cls-4" d="M822,62a10,10,0,0,1-.21-1.91A17.41,17.41,0,0,0,822,62Z"/><path class="cls-4" d="M842.4,60a10,10,0,0,1-.21,1.91A17.41,17.41,0,0,0,842.4,60Z"/><path class="cls-4" d="M842.4,59.88s0,.06,0,.17a17.41,17.41,0,0,1-.21,1.91.12.12,0,0,0,0,0c-.57,3.56-2.63,11.72-10.07,25.09-7.43-13.37-9.49-21.53-10.07-25.09a.12.12,0,0,1,0,0,17.41,17.41,0,0,1-.21-1.91c0-.06,0-.11,0-.17a10.28,10.28,0,0,1,20.57,0Z"/><path class="cls-4" d="M918.79,73.25a4.43,4.43,0,0,1-4.43,4.43h-14.8V108.3a4.43,4.43,0,0,1-8.85,0V77.67h-14.8a4.43,4.43,0,0,1,0-8.85h14.8V54a4.43,4.43,0,0,1,8.85,0v14.8h14.8A4.43,4.43,0,0,1,918.79,73.25Z"/><path class="cls-4" d="M936.15,112.73h28a1.38,1.38,0,0,0,1.21-2l-13.65-25.2a1.38,1.38,0,0,1,1.21-2h11.44a1.38,1.38,0,0,0,1.27-1.93L951.93,49.87a.46.46,0,0,0-.88.24l3.52,23.38c.11.83-.26,1.52-1.1,1.52l-12.66-2A1.38,1.38,0,0,0,939,74.18l-4.25,37.17A1.38,1.38,0,0,0,936.15,112.73Z"/><path class="cls-4" d="M981,73a13.65,13.65,0,0,0,4.66,10.28l0,0,18.94,18,1.88,1.78,1.88-1.78,18.94-18,0,0a13.68,13.68,0,1,0-20.83-17.2A13.68,13.68,0,0,0,981,73Z"/><path class="cls-4" d="M1082.09,61.7l-17.41-12.11-17.4,12.11,4.54,26.81,2.38-7.68,7.78,31.9L1068,84l4.11,10.59,3-22.05,1.51,13.84Zm-7.76,0,3.22,1.51-6.05,8L1070,67.54l-6.7,14.27-3.46-14.07L1056.24,76l-4.85-12.75,3.32-1.51,10-4.54Z"/><path class="cls-4" d="M1111.38,74.72a10,10,0,0,0-.21,1.91A17.41,17.41,0,0,1,1111.38,74.72Z"/><path class="cls-4" d="M1131.73,76.62a10,10,0,0,0-.21-1.91A17.41,17.41,0,0,1,1131.73,76.62Z"/><path class="cls-4" d="M1131.74,76.79s0-.06,0-.17a17.41,17.41,0,0,0-.21-1.91.12.12,0,0,1,0,0c-.57-3.56-2.63-11.72-10.07-25.09C1114,63,1112,71.12,1111.39,74.68a.12.12,0,0,0,0,0,17.41,17.41,0,0,0-.21,1.91c0,.06,0,.11,0,.17a10.28,10.28,0,1,0,20.57,0Z"/><path class="cls-4" d="M1096.61,100.37a10,10,0,0,0-.21,1.91A17.41,17.41,0,0,1,1096.61,100.37Z"/><path class="cls-4" d="M1117,102.28a10,10,0,0,0-.21-1.91A17.41,17.41,0,0,1,1117,102.28Z"/><path class="cls-4" d="M1117,102.44s0-.06,0-.17a17.41,17.41,0,0,0-.21-1.91.12.12,0,0,1,0,0c-.57-3.56-2.63-11.72-10.07-25.09-7.43,13.37-9.49,21.53-10.07,25.09a.12.12,0,0,0,0,0,17.41,17.41,0,0,0-.21,1.91c0,.06,0,.11,0,.17a10.28,10.28,0,1,0,20.57,0Z"/><path class="cls-4" d="M1193.35,89.07a4.43,4.43,0,0,0-4.43-4.43h-14.8V54a4.43,4.43,0,0,0-8.85,0V84.64h-14.8a4.43,4.43,0,0,0,0,8.85h14.8v14.8a4.43,4.43,0,0,0,8.85,0V93.5h14.8A4.43,4.43,0,0,0,1193.35,89.07Z"/><path class="cls-4" d="M556.12,538.1h28a1.38,1.38,0,0,0,1.21-2l-13.65-25.2a1.38,1.38,0,0,1,1.21-2h11.44a1.38,1.38,0,0,0,1.27-1.93L571.9,475.25a.46.46,0,0,0-.88.24l3.52,23.38c.11.83-.26,1.52-1.1,1.52l-12.66-2a1.38,1.38,0,0,0-1.79,1.16l-4.25,37.17A1.38,1.38,0,0,0,556.12,538.1Z"/><path class="cls-4" d="M601,498.36a13.65,13.65,0,0,0,4.66,10.28l0,0,18.94,18,1.88,1.78,1.88-1.78,18.94-18,0,0a13.68,13.68,0,1,0-20.83-17.2A13.68,13.68,0,0,0,601,498.36Z"/><path class="cls-4" d="M702.05,487.08,684.65,475l-17.4,12.11,4.54,26.81,2.38-7.68,7.78,31.9L688,509.35l4.11,10.59,3-22.05,1.51,13.84Zm-7.76,0,3.22,1.51-6.05,8-1.51-3.67-6.7,14.27-3.46-14.07-3.58,8.23-4.85-12.75,3.32-1.51,10-4.54Z"/><path class="cls-4" d="M731.34,500.1a10,10,0,0,0-.21,1.91A17.41,17.41,0,0,1,731.34,500.1Z"/><path class="cls-4" d="M751.7,502a10,10,0,0,0-.21-1.91A17.41,17.41,0,0,1,751.7,502Z"/><path class="cls-4" d="M751.7,502.17s0-.06,0-.17a17.41,17.41,0,0,0-.21-1.91.12.12,0,0,1,0,0c-.57-3.56-2.63-11.72-10.07-25.09-7.43,13.37-9.49,21.53-10.07,25.09a.12.12,0,0,0,0,0,17.41,17.41,0,0,0-.21,1.91c0,.06,0,.11,0,.17a10.28,10.28,0,1,0,20.57,0Z"/><path class="cls-4" d="M716.57,525.75a10,10,0,0,0-.21,1.91A17.41,17.41,0,0,1,716.57,525.75Z"/><path class="cls-4" d="M736.93,527.65a10,10,0,0,0-.21-1.91A17.41,17.41,0,0,1,736.93,527.65Z"/><path class="cls-4" d="M736.93,527.82s0-.06,0-.17a17.41,17.41,0,0,0-.21-1.91.12.12,0,0,1,0,0c-.57-3.56-2.63-11.72-10.07-25.09-7.43,13.37-9.49,21.53-10.07,25.09a.12.12,0,0,0,0,0,17.41,17.41,0,0,0-.21,1.91c0,.06,0,.11,0,.17a10.28,10.28,0,0,0,20.57,0Z"/><path class="cls-4" d="M813.32,514.45a4.43,4.43,0,0,0-4.43-4.43h-14.8V479.4a4.43,4.43,0,0,0-8.85,0V510h-14.8a4.43,4.43,0,0,0,0,8.85h14.8v14.8a4.43,4.43,0,0,0,8.85,0v-14.8h14.8A4.43,4.43,0,0,0,813.32,514.45Z"/><path class="cls-4" d="M830.68,475h28a1.38,1.38,0,0,1,1.21,2l-13.65,25.2a1.38,1.38,0,0,0,1.21,2h11.44a1.38,1.38,0,0,1,1.27,1.93l-13.72,31.66a.46.46,0,0,1-.88-.24l3.52-23.38c.11-.83-.26-1.52-1.1-1.52l-12.66,2a1.38,1.38,0,0,1-1.79-1.16l-4.25-37.17A1.38,1.38,0,0,1,830.68,475Z"/><path class="cls-4" d="M875.57,514.71a13.65,13.65,0,0,1,4.66-10.28l0,0,18.94-18,1.88-1.78,1.88,1.78,18.94,18,0,0a13.68,13.68,0,1,1-20.83,17.2,13.68,13.68,0,0,1-25.49-6.92Z"/><path class="cls-4" d="M971.21,501.35l-1.51,13.84-3-22.05-4.11,10.59L956.51,475l-7.78,31.9-2.38-7.68L941.81,526l17.4,12.11L976.62,526Zm-12,29.19-10-4.54-3.32-1.51,4.85-12.75,3.58,8.23,3.46-14.07,6.7,14.27,1.51-3.67,6.05,8L968.86,526Z"/><path class="cls-4" d="M1005.91,513a10,10,0,0,1-.21-1.91A17.41,17.41,0,0,0,1005.91,513Z"/><path class="cls-4" d="M1026.26,511.07a10,10,0,0,1-.21,1.91A17.41,17.41,0,0,0,1026.26,511.07Z"/><path class="cls-4" d="M1026.27,510.91s0,.06,0,.17a17.41,17.41,0,0,1-.21,1.91.12.12,0,0,0,0,0c-.57,3.56-2.63,11.72-10.07,25.09-7.43-13.37-9.49-21.53-10.07-25.09a.12.12,0,0,1,0,0,17.41,17.41,0,0,1-.21-1.91c0-.06,0-.11,0-.17a10.28,10.28,0,1,1,20.57,0Z"/><path class="cls-4" d="M991.14,487.33a10,10,0,0,1-.21-1.91A17.41,17.41,0,0,0,991.14,487.33Z"/><path class="cls-4" d="M1011.49,485.42a10,10,0,0,1-.21,1.91A17.41,17.41,0,0,0,1011.49,485.42Z"/><path class="cls-4" d="M1011.49,485.26s0,.06,0,.17a17.41,17.41,0,0,1-.21,1.91.12.12,0,0,0,0,0c-.57,3.56-2.63,11.72-10.07,25.09-7.43-13.37-9.49-21.53-10.07-25.09a.12.12,0,0,1,0,0,17.41,17.41,0,0,1-.21-1.91c0-.06,0-.11,0-.17a10.28,10.28,0,0,1,20.57,0Z"/><path class="cls-4" d="M1087.88,498.63a4.43,4.43,0,0,1-4.43,4.43h-14.8v30.63a4.43,4.43,0,0,1-8.85,0V503.05H1045a4.43,4.43,0,0,1,0-8.85h14.8V479.4a4.43,4.43,0,0,1,8.85,0v14.8h14.8A4.43,4.43,0,0,1,1087.88,498.63Z"/><path class="cls-4" d="M1107.07,538.1h28a1.38,1.38,0,0,0,1.21-2l-13.65-25.2a1.38,1.38,0,0,1,1.21-2h11.44a1.38,1.38,0,0,0,1.27-1.93l-13.72-31.66a.46.46,0,0,0-.88.24l3.52,23.38c.11.83-.26,1.52-1.1,1.52l-12.66-2a1.38,1.38,0,0,0-1.79,1.16l-4.25,37.17A1.38,1.38,0,0,0,1107.07,538.1Z"/><path class="cls-4" d="M1152,498.36a13.65,13.65,0,0,0,4.66,10.28l0,0,18.94,18,1.88,1.78,1.88-1.78,18.94-18,0,0a13.68,13.68,0,1,0-20.83-17.2,13.68,13.68,0,0,0-25.49,6.92Z"/><path class="cls-4" d="M556.12,708.26h28a1.38,1.38,0,0,0,1.21-2L571.7,681a1.38,1.38,0,0,1,1.21-2h11.44a1.38,1.38,0,0,0,1.27-1.93L571.9,645.4a.46.46,0,0,0-.88.24L574.54,669c.11.83-.26,1.52-1.1,1.52l-12.66-2a1.38,1.38,0,0,0-1.79,1.16l-4.25,37.17A1.38,1.38,0,0,0,556.12,708.26Z"/><path class="cls-4" d="M601,668.51a13.65,13.65,0,0,0,4.66,10.28l0,0,18.94,18,1.88,1.78,1.88-1.78,18.94-18,0,0a13.68,13.68,0,1,0-20.83-17.2A13.68,13.68,0,0,0,601,668.51Z"/><path class="cls-4" d="M702.05,657.23l-17.41-12.11-17.4,12.11L671.78,684l2.38-7.68,7.78,31.9L688,679.5l4.11,10.59,3-22.05,1.51,13.84Zm-7.76,0,3.22,1.51-6.05,8-1.51-3.67-6.7,14.27-3.46-14.07-3.58,8.23-4.85-12.75,3.32-1.51,10-4.54Z"/><path class="cls-4" d="M731.34,670.25a10,10,0,0,0-.21,1.91A17.41,17.41,0,0,1,731.34,670.25Z"/><path class="cls-4" d="M751.7,672.15a10,10,0,0,0-.21-1.91A17.41,17.41,0,0,1,751.7,672.15Z"/><path class="cls-4" d="M751.7,672.32s0-.06,0-.17a17.41,17.41,0,0,0-.21-1.91.12.12,0,0,1,0,0c-.57-3.56-2.63-11.72-10.07-25.09-7.43,13.37-9.49,21.53-10.07,25.09a.12.12,0,0,0,0,0,17.41,17.41,0,0,0-.21,1.91c0,.06,0,.11,0,.17a10.28,10.28,0,0,0,20.57,0Z"/><path class="cls-4" d="M716.57,695.9a10,10,0,0,0-.21,1.91A17.41,17.41,0,0,1,716.57,695.9Z"/><path class="cls-4" d="M736.93,697.81a10,10,0,0,0-.21-1.91A17.41,17.41,0,0,1,736.93,697.81Z"/><path class="cls-4" d="M736.93,698s0-.06,0-.17a17.41,17.41,0,0,0-.21-1.91.12.12,0,0,1,0,0c-.57-3.56-2.63-11.72-10.07-25.09-7.43,13.37-9.49,21.53-10.07,25.09a.12.12,0,0,0,0,0,17.41,17.41,0,0,0-.21,1.91c0,.06,0,.11,0,.17a10.28,10.28,0,0,0,20.57,0Z"/><path class="cls-4" d="M813.32,684.6a4.43,4.43,0,0,0-4.43-4.43h-14.8V649.55a4.43,4.43,0,0,0-8.85,0v30.63h-14.8a4.43,4.43,0,0,0,0,8.85h14.8v14.8a4.43,4.43,0,0,0,8.85,0V689h14.8A4.43,4.43,0,0,0,813.32,684.6Z"/><path class="cls-4" d="M830.68,645.12h28a1.38,1.38,0,0,1,1.21,2l-13.65,25.2a1.38,1.38,0,0,0,1.21,2h11.44a1.38,1.38,0,0,1,1.27,1.93L846.46,708a.46.46,0,0,1-.88-.24l3.52-23.38c.11-.83-.26-1.52-1.1-1.52l-12.66,2a1.38,1.38,0,0,1-1.79-1.16L829.3,646.5A1.38,1.38,0,0,1,830.68,645.12Z"/><path class="cls-4" d="M875.57,684.86a13.65,13.65,0,0,1,4.66-10.28l0,0,18.94-18,1.88-1.78,1.88,1.78,18.94,18,0,0a13.68,13.68,0,1,1-20.83,17.2,13.68,13.68,0,0,1-25.49-6.92Z"/><path class="cls-4" d="M971.21,671.5l-1.51,13.84-3-22.05-4.11,10.59-6.05-28.76L948.73,677l-2.38-7.68-4.54,26.81,17.4,12.11,17.41-12.11Zm-12,29.19-10-4.54-3.32-1.51,4.85-12.75,3.58,8.23L957.81,676l6.7,14.27,1.51-3.67,6.05,8-3.22,1.51Z"/><path class="cls-4" d="M1005.91,683.13a10,10,0,0,1-.21-1.91A17.41,17.41,0,0,0,1005.91,683.13Z"/><path class="cls-4" d="M1026.26,681.23a10,10,0,0,1-.21,1.91A17.41,17.41,0,0,0,1026.26,681.23Z"/><path class="cls-4" d="M1026.27,681.06s0,.06,0,.17a17.41,17.41,0,0,1-.21,1.91.12.12,0,0,0,0,0c-.57,3.56-2.63,11.72-10.07,25.09-7.43-13.37-9.49-21.53-10.07-25.09a.12.12,0,0,1,0,0,17.41,17.41,0,0,1-.21-1.91c0-.06,0-.11,0-.17a10.28,10.28,0,1,1,20.57,0Z"/><path class="cls-4" d="M991.14,657.48a10,10,0,0,1-.21-1.91A17.41,17.41,0,0,0,991.14,657.48Z"/><path class="cls-4" d="M1011.49,655.57a10,10,0,0,1-.21,1.91A17.41,17.41,0,0,0,1011.49,655.57Z"/><path class="cls-4" d="M1011.49,655.41s0,.06,0,.17a17.41,17.41,0,0,1-.21,1.91.12.12,0,0,0,0,0c-.57,3.56-2.63,11.72-10.07,25.09-7.43-13.37-9.49-21.53-10.07-25.09a.12.12,0,0,1,0,0,17.41,17.41,0,0,1-.21-1.91c0-.06,0-.11,0-.17a10.28,10.28,0,0,1,20.57,0Z"/><path class="cls-4" d="M1087.88,668.78a4.43,4.43,0,0,1-4.43,4.43h-14.8v30.63a4.43,4.43,0,0,1-8.85,0V673.2H1045a4.43,4.43,0,0,1,0-8.85h14.8v-14.8a4.43,4.43,0,0,1,8.85,0v14.8h14.8A4.43,4.43,0,0,1,1087.88,668.78Z"/><path class="cls-4" d="M1107.07,708.26h28a1.38,1.38,0,0,0,1.21-2L1122.65,681a1.38,1.38,0,0,1,1.21-2h11.44a1.38,1.38,0,0,0,1.27-1.93l-13.72-31.66a.46.46,0,0,0-.88.24L1125.5,669c.11.83-.26,1.52-1.1,1.52l-12.66-2a1.38,1.38,0,0,0-1.79,1.16l-4.25,37.17A1.38,1.38,0,0,0,1107.07,708.26Z"/><path class="cls-4" d="M1152,668.51a13.65,13.65,0,0,0,4.66,10.28l0,0,18.94,18,1.88,1.78,1.88-1.78,18.94-18,0,0a13.68,13.68,0,1,0-20.83-17.2,13.68,13.68,0,0,0-25.49,6.92Z"/><path class="cls-4" d="M661.59,560h28a1.38,1.38,0,0,1,1.21,2l-13.65,25.2a1.38,1.38,0,0,0,1.21,2h11.44a1.38,1.38,0,0,1,1.27,1.93L677.37,622.9a.46.46,0,0,1-.88-.24L680,599.28c.11-.83-.26-1.52-1.1-1.52l-12.66,2a1.38,1.38,0,0,1-1.79-1.16l-4.25-37.17A1.38,1.38,0,0,1,661.59,560Z"/><path class="cls-4" d="M706.47,599.79a13.65,13.65,0,0,1,4.66-10.28l0,0,18.94-18,1.88-1.78,1.88,1.78,18.94,18,0,0A13.68,13.68,0,1,1,732,606.7a13.68,13.68,0,0,1-25.49-6.92Z"/><path class="cls-4" d="M802.12,586.43l-1.51,13.84-3-22.05-4.11,10.59L787.42,560l-7.78,31.9-2.38-7.68-4.54,26.81,17.4,12.11,17.41-12.11Zm-12,29.19-10-4.54-3.32-1.51,4.85-12.75,3.58,8.23L788.71,591l6.7,14.27,1.51-3.67,6.05,8-3.22,1.51Z"/><path class="cls-4" d="M836.82,598.06a10,10,0,0,1-.21-1.91A17.41,17.41,0,0,0,836.82,598.06Z"/><path class="cls-4" d="M857.17,596.15a10,10,0,0,1-.21,1.91A17.41,17.41,0,0,0,857.17,596.15Z"/><path class="cls-4" d="M857.17,596s0,.06,0,.17a17.41,17.41,0,0,1-.21,1.91.12.12,0,0,0,0,0c-.57,3.56-2.63,11.72-10.07,25.09-7.43-13.37-9.49-21.53-10.07-25.09a.12.12,0,0,1,0,0,17.41,17.41,0,0,1-.21-1.91c0-.06,0-.11,0-.17a10.28,10.28,0,0,1,20.57,0Z"/><path class="cls-4" d="M822,572.4a10,10,0,0,1-.21-1.91A17.41,17.41,0,0,0,822,572.4Z"/><path class="cls-4" d="M842.4,570.5a10,10,0,0,1-.21,1.91A17.41,17.41,0,0,0,842.4,570.5Z"/><path class="cls-4" d="M842.4,570.33s0,.06,0,.17a17.41,17.41,0,0,1-.21,1.91.12.12,0,0,0,0,0c-.57,3.56-2.63,11.72-10.07,25.09-7.43-13.37-9.49-21.53-10.07-25.09a.12.12,0,0,1,0,0,17.41,17.41,0,0,1-.21-1.91c0-.06,0-.11,0-.17a10.28,10.28,0,0,1,20.57,0Z"/><path class="cls-4" d="M918.79,583.7a4.43,4.43,0,0,1-4.43,4.43h-14.8v30.63a4.43,4.43,0,0,1-8.85,0V588.13h-14.8a4.43,4.43,0,0,1,0-8.85h14.8v-14.8a4.43,4.43,0,0,1,8.85,0v14.8h14.8A4.43,4.43,0,0,1,918.79,583.7Z"/><path class="cls-4" d="M936.15,623.18h28a1.38,1.38,0,0,0,1.21-2l-13.65-25.2a1.38,1.38,0,0,1,1.21-2h11.44a1.38,1.38,0,0,0,1.27-1.93l-13.72-31.66a.46.46,0,0,0-.88.24l3.52,23.38c.11.83-.26,1.52-1.1,1.52l-12.66-2a1.38,1.38,0,0,0-1.79,1.16l-4.25,37.17A1.38,1.38,0,0,0,936.15,623.18Z"/><path class="cls-4" d="M981,583.44a13.65,13.65,0,0,0,4.66,10.28l0,0,18.94,18,1.88,1.78,1.88-1.78,18.94-18,0,0a13.68,13.68,0,1,0-20.83-17.2A13.68,13.68,0,0,0,981,583.44Z"/><path class="cls-4" d="M1082.09,572.16,1064.68,560l-17.4,12.11,4.54,26.81,2.38-7.68,7.78,31.9,6.05-28.76,4.11,10.59,3-22.05,1.51,13.84Zm-7.76,0,3.22,1.51-6.05,8L1070,578l-6.7,14.27-3.46-14.07-3.58,8.23-4.85-12.75,3.32-1.51,10-4.54Z"/><path class="cls-4" d="M1111.38,585.17a10,10,0,0,0-.21,1.91A17.41,17.41,0,0,1,1111.38,585.17Z"/><path class="cls-4" d="M1131.73,587.08a10,10,0,0,0-.21-1.91A17.41,17.41,0,0,1,1131.73,587.08Z"/><path class="cls-4" d="M1131.74,587.24s0-.06,0-.17a17.41,17.41,0,0,0-.21-1.91.12.12,0,0,1,0,0c-.57-3.56-2.63-11.72-10.07-25.09-7.43,13.37-9.49,21.53-10.07,25.09a.12.12,0,0,0,0,0,17.41,17.41,0,0,0-.21,1.91c0,.06,0,.11,0,.17a10.28,10.28,0,1,0,20.57,0Z"/><path class="cls-4" d="M1096.61,610.82a10,10,0,0,0-.21,1.91A17.41,17.41,0,0,1,1096.61,610.82Z"/><path class="cls-4" d="M1117,612.73a10,10,0,0,0-.21-1.91A17.41,17.41,0,0,1,1117,612.73Z"/><path class="cls-4" d="M1117,612.9s0-.06,0-.17a17.41,17.41,0,0,0-.21-1.91.12.12,0,0,1,0,0c-.57-3.56-2.63-11.72-10.07-25.09-7.43,13.37-9.49,21.53-10.07,25.09a.12.12,0,0,0,0,0,17.41,17.41,0,0,0-.21,1.91c0,.06,0,.11,0,.17a10.28,10.28,0,1,0,20.57,0Z"/><path class="cls-4" d="M1193.35,599.52a4.43,4.43,0,0,0-4.43-4.43h-14.8V564.47a4.43,4.43,0,0,0-8.85,0V595.1h-14.8a4.43,4.43,0,0,0,0,8.85h14.8v14.8a4.43,4.43,0,0,0,8.85,0V604h14.8A4.43,4.43,0,0,0,1193.35,599.52Z"/><path class="cls-4" d="M661.59,900.35h28a1.38,1.38,0,0,1,1.21,2l-13.65,25.2a1.38,1.38,0,0,0,1.21,2h11.44a1.38,1.38,0,0,1,1.27,1.93L677.37,963.2a.46.46,0,0,1-.88-.24L680,939.58c.11-.83-.26-1.52-1.1-1.52l-12.66,2a1.38,1.38,0,0,1-1.79-1.16l-4.25-37.17A1.38,1.38,0,0,1,661.59,900.35Z"/><path class="cls-4" d="M706.47,940.09a13.65,13.65,0,0,1,4.66-10.28l0,0,18.94-18,1.88-1.78,1.88,1.78,18.94,18,0,0A13.68,13.68,0,1,1,732,947a13.68,13.68,0,0,1-25.49-6.92Z"/><path class="cls-4" d="M802.12,926.73l-1.51,13.84-3-22.05-4.11,10.59-6.05-28.76-7.78,31.9-2.38-7.68-4.54,26.81,17.4,12.11,17.41-12.11Zm-12,29.19-10-4.54-3.32-1.51,4.85-12.75,3.58,8.23,3.46-14.07,6.7,14.27,1.51-3.67,6.05,8-3.22,1.51Z"/><path class="cls-4" d="M857.17,936.29s0,.06,0,.17a17.41,17.41,0,0,1-.21,1.91.12.12,0,0,0,0,0c-.57,3.56-2.63,11.72-10.07,25.09-7.43-13.37-9.49-21.53-10.07-25.09a.12.12,0,0,1,0,0,17.41,17.41,0,0,1-.21-1.91c0-.06,0-.11,0-.17a10.28,10.28,0,0,1,20.57,0Z"/><path class="cls-4" d="M822,912.71a10,10,0,0,1-.21-1.91A17.41,17.41,0,0,0,822,912.71Z"/><path class="cls-4" d="M842.4,910.8a10,10,0,0,1-.21,1.91A17.41,17.41,0,0,0,842.4,910.8Z"/><path class="cls-4" d="M842.4,910.63s0,.06,0,.17a17.41,17.41,0,0,1-.21,1.91.12.12,0,0,0,0,0c-.57,3.56-2.63,11.72-10.07,25.09-7.43-13.37-9.49-21.53-10.07-25.09a.12.12,0,0,1,0,0,17.41,17.41,0,0,1-.21-1.91c0-.06,0-.11,0-.17a10.28,10.28,0,0,1,20.57,0Z"/><path class="cls-4" d="M918.79,924a4.43,4.43,0,0,1-4.43,4.43h-14.8v30.63a4.43,4.43,0,0,1-8.85,0V928.43h-14.8a4.43,4.43,0,0,1,0-8.85h14.8v-14.8a4.43,4.43,0,0,1,8.85,0v14.8h14.8A4.43,4.43,0,0,1,918.79,924Z"/><path class="cls-4" d="M936.15,963.48h28a1.38,1.38,0,0,0,1.21-2l-13.65-25.2a1.38,1.38,0,0,1,1.21-2h11.44a1.38,1.38,0,0,0,1.27-1.93l-13.72-31.66a.46.46,0,0,0-.88.24l3.52,23.38c.11.83-.26,1.52-1.1,1.52l-12.66-2a1.38,1.38,0,0,0-1.79,1.16l-4.25,37.17A1.38,1.38,0,0,0,936.15,963.48Z"/><path class="cls-4" d="M981,923.74A13.65,13.65,0,0,0,985.69,934l0,0,18.94,18,1.88,1.78,1.88-1.78,18.94-18,0,0a13.68,13.68,0,1,0-20.83-17.2A13.68,13.68,0,0,0,981,923.74Z"/><path class="cls-4" d="M1082.09,912.46l-17.41-12.11-17.4,12.11,4.54,26.81,2.38-7.68,7.78,31.9,6.05-28.76,4.11,10.59,3-22.05,1.51,13.84Zm-7.76,0,3.22,1.51-6.05,8-1.51-3.67-6.7,14.27-3.46-14.07-3.58,8.23L1051.39,914l3.32-1.51,10-4.54Z"/><path class="cls-4" d="M1111.38,925.47a10,10,0,0,0-.21,1.91A17.41,17.41,0,0,1,1111.38,925.47Z"/><path class="cls-4" d="M1131.73,927.38a10,10,0,0,0-.21-1.91A17.41,17.41,0,0,1,1131.73,927.38Z"/><path class="cls-4" d="M1131.74,927.55s0-.06,0-.17a17.41,17.41,0,0,0-.21-1.91.12.12,0,0,1,0,0c-.57-3.56-2.63-11.72-10.07-25.09-7.43,13.37-9.49,21.53-10.07,25.09a.12.12,0,0,0,0,0,17.41,17.41,0,0,0-.21,1.91c0,.06,0,.11,0,.17a10.28,10.28,0,1,0,20.57,0Z"/><path class="cls-4" d="M1117,953.2s0-.06,0-.17a17.41,17.41,0,0,0-.21-1.91.12.12,0,0,1,0,0c-.57-3.56-2.63-11.72-10.07-25.09-7.43,13.37-9.49,21.53-10.07,25.09a.12.12,0,0,0,0,0,17.41,17.41,0,0,0-.21,1.91c0,.06,0,.11,0,.17a10.28,10.28,0,1,0,20.57,0Z"/><path class="cls-4" d="M1193.35,939.83a4.43,4.43,0,0,0-4.43-4.43h-14.8V904.78a4.43,4.43,0,0,0-8.85,0V935.4h-14.8a4.43,4.43,0,0,0,0,8.85h14.8v14.8a4.43,4.43,0,0,0,8.85,0v-14.8h14.8A4.43,4.43,0,0,0,1193.35,939.83Z"/><path class="cls-4" d="M661.59,730.2h28a1.38,1.38,0,0,1,1.21,2l-13.65,25.2a1.38,1.38,0,0,0,1.21,2h11.44a1.38,1.38,0,0,1,1.27,1.93l-13.72,31.66a.46.46,0,0,1-.88-.24L680,769.43c.11-.83-.26-1.52-1.1-1.52l-12.66,2a1.38,1.38,0,0,1-1.79-1.16l-4.25-37.17A1.38,1.38,0,0,1,661.59,730.2Z"/><path class="cls-4" d="M706.47,769.94a13.65,13.65,0,0,1,4.66-10.28l0,0,18.94-18,1.88-1.78,1.88,1.78,18.94,18,0,0A13.68,13.68,0,1,1,732,776.86a13.68,13.68,0,0,1-25.49-6.92Z"/><path class="cls-4" d="M802.12,756.58l-1.51,13.84-3-22.05L793.47,759l-6.05-28.76-7.78,31.9-2.38-7.68-4.54,26.81,17.4,12.11,17.41-12.11Zm-12,29.19-10-4.54-3.32-1.51L781.68,767l3.58,8.23,3.46-14.07,6.7,14.27,1.51-3.67,6.05,8-3.22,1.51Z"/><path class="cls-4" d="M836.82,768.21a10,10,0,0,1-.21-1.91A17.41,17.41,0,0,0,836.82,768.21Z"/><path class="cls-4" d="M857.17,766.3a10,10,0,0,1-.21,1.91A17.41,17.41,0,0,0,857.17,766.3Z"/><path class="cls-4" d="M857.17,766.13s0,.06,0,.17a17.41,17.41,0,0,1-.21,1.91.12.12,0,0,0,0,0c-.57,3.56-2.63,11.72-10.07,25.09-7.43-13.37-9.49-21.53-10.07-25.09a.12.12,0,0,1,0,0,17.41,17.41,0,0,1-.21-1.91c0-.06,0-.11,0-.17a10.28,10.28,0,1,1,20.57,0Z"/><path class="cls-4" d="M822,742.56a10,10,0,0,1-.21-1.91A17.41,17.41,0,0,0,822,742.56Z"/><path class="cls-4" d="M842.4,740.65a10,10,0,0,1-.21,1.91A17.41,17.41,0,0,0,842.4,740.65Z"/><path class="cls-4" d="M842.4,740.48s0,.06,0,.17a17.41,17.41,0,0,1-.21,1.91.12.12,0,0,0,0,0c-.57,3.56-2.63,11.72-10.07,25.09-7.43-13.37-9.49-21.53-10.07-25.09a.12.12,0,0,1,0,0,17.41,17.41,0,0,1-.21-1.91c0-.06,0-.11,0-.17a10.28,10.28,0,1,1,20.57,0Z"/><path class="cls-4" d="M918.79,753.85a4.43,4.43,0,0,1-4.43,4.43h-14.8v30.63a4.43,4.43,0,0,1-8.85,0V758.28h-14.8a4.43,4.43,0,0,1,0-8.85h14.8v-14.8a4.43,4.43,0,0,1,8.85,0v14.8h14.8A4.43,4.43,0,0,1,918.79,753.85Z"/><path class="cls-4" d="M936.15,793.33h28a1.38,1.38,0,0,0,1.21-2l-13.65-25.2a1.38,1.38,0,0,1,1.21-2h11.44a1.38,1.38,0,0,0,1.27-1.93l-13.72-31.66a.46.46,0,0,0-.88.24l3.52,23.38c.11.83-.26,1.52-1.1,1.52l-12.66-2a1.38,1.38,0,0,0-1.79,1.16L934.78,792A1.38,1.38,0,0,0,936.15,793.33Z"/><path class="cls-4" d="M981,753.59a13.65,13.65,0,0,0,4.66,10.28l0,0,18.94,18,1.88,1.78,1.88-1.78,18.94-18,0,0a13.68,13.68,0,1,0-20.83-17.2A13.68,13.68,0,0,0,981,753.59Z"/><path class="cls-4" d="M1082.09,742.31l-17.41-12.11-17.4,12.11,4.54,26.81,2.38-7.68,7.78,31.9,6.05-28.76,4.11,10.59,3-22.05,1.51,13.84Zm-7.76,0,3.22,1.51-6.05,8-1.51-3.67-6.7,14.27-3.46-14.07-3.58,8.23-4.85-12.75,3.32-1.51,10-4.54Z"/><path class="cls-4" d="M1111.38,755.32a10,10,0,0,0-.21,1.91A17.41,17.41,0,0,1,1111.38,755.32Z"/><path class="cls-4" d="M1131.73,757.23a10,10,0,0,0-.21-1.91A17.41,17.41,0,0,1,1131.73,757.23Z"/><path class="cls-4" d="M1131.74,757.4s0-.06,0-.17a17.41,17.41,0,0,0-.21-1.91.12.12,0,0,1,0,0c-.57-3.56-2.63-11.72-10.07-25.09-7.43,13.37-9.49,21.53-10.07,25.09a.12.12,0,0,0,0,0,17.41,17.41,0,0,0-.21,1.91c0,.06,0,.11,0,.17a10.28,10.28,0,1,0,20.57,0Z"/><path class="cls-4" d="M1096.61,781a10,10,0,0,0-.21,1.91A17.41,17.41,0,0,1,1096.61,781Z"/><path class="cls-4" d="M1117,782.88a10,10,0,0,0-.21-1.91A17.41,17.41,0,0,1,1117,782.88Z"/><path class="cls-4" d="M1117,783s0-.06,0-.17a17.41,17.41,0,0,0-.21-1.91.12.12,0,0,1,0,0c-.57-3.56-2.63-11.72-10.07-25.09-7.43,13.37-9.49,21.53-10.07,25.09a.12.12,0,0,0,0,0,17.41,17.41,0,0,0-.21,1.91c0,.06,0,.11,0,.17a10.28,10.28,0,1,0,20.57,0Z"/><path class="cls-4" d="M1193.35,769.68a4.43,4.43,0,0,0-4.43-4.43h-14.8V734.62a4.43,4.43,0,0,0-8.85,0v30.63h-14.8a4.43,4.43,0,0,0,0,8.85h14.8v14.8a4.43,4.43,0,0,0,8.85,0V774.1h14.8A4.43,4.43,0,0,0,1193.35,769.68Z"/><path class="cls-4" d="M556.12,878.41h28a1.38,1.38,0,0,0,1.21-2l-13.65-25.2a1.38,1.38,0,0,1,1.21-2h11.44a1.38,1.38,0,0,0,1.27-1.93L571.9,815.55a.46.46,0,0,0-.88.24l3.52,23.38c.11.83-.26,1.52-1.1,1.52l-12.66-2a1.38,1.38,0,0,0-1.79,1.16L554.74,877A1.38,1.38,0,0,0,556.12,878.41Z"/><path class="cls-4" d="M601,838.67a13.65,13.65,0,0,0,4.66,10.28l0,0,18.94,18,1.88,1.78,1.88-1.78,18.94-18,0,0a13.68,13.68,0,1,0-20.83-17.2A13.68,13.68,0,0,0,601,838.67Z"/><path class="cls-4" d="M702.05,827.38l-17.41-12.11-17.4,12.11,4.54,26.81,2.38-7.68,7.78,31.9L688,849.65l4.11,10.59,3-22.05L696.65,852Zm-7.76,0,3.22,1.51-6.05,8-1.51-3.67-6.7,14.27-3.46-14.07-3.58,8.23-4.85-12.75,3.32-1.51,10-4.54Z"/><path class="cls-4" d="M731.34,840.4a10,10,0,0,0-.21,1.91A17.41,17.41,0,0,1,731.34,840.4Z"/><path class="cls-4" d="M751.7,842.3a10,10,0,0,0-.21-1.91A17.41,17.41,0,0,1,751.7,842.3Z"/><path class="cls-4" d="M751.7,842.47s0-.06,0-.17a17.41,17.41,0,0,0-.21-1.91.12.12,0,0,1,0,0c-.57-3.56-2.63-11.72-10.07-25.09-7.43,13.37-9.49,21.53-10.07,25.09a.12.12,0,0,0,0,0,17.41,17.41,0,0,0-.21,1.91c0,.06,0,.11,0,.17a10.28,10.28,0,1,0,20.57,0Z"/><path class="cls-4" d="M716.57,866a10,10,0,0,0-.21,1.91A17.41,17.41,0,0,1,716.57,866Z"/><path class="cls-4" d="M736.93,868a10,10,0,0,0-.21-1.91A17.41,17.41,0,0,1,736.93,868Z"/><path class="cls-4" d="M736.93,868.12s0-.06,0-.17a17.41,17.41,0,0,0-.21-1.91.12.12,0,0,1,0,0c-.57-3.56-2.63-11.72-10.07-25.09-7.43,13.37-9.49,21.53-10.07,25.09a.12.12,0,0,0,0,0,17.41,17.41,0,0,0-.21,1.91c0,.06,0,.11,0,.17a10.28,10.28,0,1,0,20.57,0Z"/><path class="cls-4" d="M813.32,854.75a4.43,4.43,0,0,0-4.43-4.43h-14.8V819.7a4.43,4.43,0,0,0-8.85,0v30.63h-14.8a4.43,4.43,0,0,0,0,8.85h14.8V874a4.43,4.43,0,0,0,8.85,0v-14.8h14.8A4.43,4.43,0,0,0,813.32,854.75Z"/><path class="cls-4" d="M830.68,815.27h28a1.38,1.38,0,0,1,1.21,2l-13.65,25.2a1.38,1.38,0,0,0,1.21,2h11.44a1.38,1.38,0,0,1,1.27,1.93l-13.72,31.66a.46.46,0,0,1-.88-.24l3.52-23.38c.11-.83-.26-1.52-1.1-1.52l-12.66,2a1.38,1.38,0,0,1-1.79-1.16l-4.25-37.17A1.38,1.38,0,0,1,830.68,815.27Z"/><path class="cls-4" d="M875.57,855a13.65,13.65,0,0,1,4.66-10.28l0,0,18.94-18,1.88-1.78,1.88,1.78,18.94,18,0,0a13.68,13.68,0,1,1-20.83,17.2A13.68,13.68,0,0,1,875.57,855Z"/><path class="cls-4" d="M971.21,841.65l-1.51,13.84-3-22.05L962.56,844l-6.05-28.76-7.78,31.9-2.38-7.68-4.54,26.81,17.4,12.11,17.41-12.11Zm-12,29.19-10-4.54-3.32-1.51L950.77,852l3.58,8.23,3.46-14.07,6.7,14.27,1.51-3.67,6.05,8-3.22,1.51Z"/><path class="cls-4" d="M1005.91,853.28a10,10,0,0,1-.21-1.91A17.41,17.41,0,0,0,1005.91,853.28Z"/><path class="cls-4" d="M1026.26,851.38a10,10,0,0,1-.21,1.91A17.41,17.41,0,0,0,1026.26,851.38Z"/><path class="cls-4" d="M1026.27,851.21s0,.06,0,.17a17.41,17.41,0,0,1-.21,1.91.12.12,0,0,0,0,0c-.57,3.56-2.63,11.72-10.07,25.09-7.43-13.37-9.49-21.53-10.07-25.09a.12.12,0,0,1,0,0,17.41,17.41,0,0,1-.21-1.91c0-.06,0-.11,0-.17a10.28,10.28,0,1,1,20.57,0Z"/><path class="cls-4" d="M991.14,827.63a10,10,0,0,1-.21-1.91A17.41,17.41,0,0,0,991.14,827.63Z"/><path class="cls-4" d="M1011.49,825.72a10,10,0,0,1-.21,1.91A17.41,17.41,0,0,0,1011.49,825.72Z"/><path class="cls-4" d="M1011.49,825.56s0,.06,0,.17a17.41,17.41,0,0,1-.21,1.91.12.12,0,0,0,0,0c-.57,3.56-2.63,11.72-10.07,25.09-7.43-13.37-9.49-21.53-10.07-25.09a.12.12,0,0,1,0,0,17.41,17.41,0,0,1-.21-1.91c0-.06,0-.11,0-.17a10.28,10.28,0,0,1,20.57,0Z"/><path class="cls-4" d="M1087.88,838.93a4.43,4.43,0,0,1-4.43,4.43h-14.8V874a4.43,4.43,0,0,1-8.85,0V843.36H1045a4.43,4.43,0,0,1,0-8.85h14.8V819.7a4.43,4.43,0,0,1,8.85,0v14.8h14.8A4.43,4.43,0,0,1,1087.88,838.93Z"/><path class="cls-4" d="M1107.07,878.41h28a1.38,1.38,0,0,0,1.21-2l-13.65-25.2a1.38,1.38,0,0,1,1.21-2h11.44a1.38,1.38,0,0,0,1.27-1.93l-13.72-31.66a.46.46,0,0,0-.88.24l3.52,23.38c.11.83-.26,1.52-1.1,1.52l-12.66-2a1.38,1.38,0,0,0-1.79,1.16L1105.7,877A1.38,1.38,0,0,0,1107.07,878.41Z"/><path class="cls-4" d="M1152,838.67a13.65,13.65,0,0,0,4.66,10.28l0,0,18.94,18,1.88,1.78,1.88-1.78,18.94-18,0,0a13.68,13.68,0,1,0-20.83-17.2,13.68,13.68,0,0,0-25.49,6.92Z"/><path class="cls-4" d="M661.59,219.74h28a1.38,1.38,0,0,1,1.21,2L677.17,247a1.38,1.38,0,0,0,1.21,2h11.44a1.38,1.38,0,0,1,1.27,1.93L677.37,282.6a.46.46,0,0,1-.88-.24L680,259c.11-.83-.26-1.52-1.1-1.52l-12.66,2a1.38,1.38,0,0,1-1.79-1.16l-4.25-37.17A1.38,1.38,0,0,1,661.59,219.74Z"/><path class="cls-4" d="M706.47,259.49a13.65,13.65,0,0,1,4.66-10.28l0,0,18.94-18,1.88-1.78,1.88,1.78,18.94,18,0,0A13.68,13.68,0,1,1,732,266.4a13.68,13.68,0,0,1-25.49-6.92Z"/><path class="cls-4" d="M802.12,246.12,800.61,260l-3-22.05-4.11,10.59-6.05-28.76-7.78,31.9L777.26,244l-4.54,26.81,17.4,12.11,17.41-12.11Zm-12,29.19-10-4.54-3.32-1.51,4.85-12.75,3.58,8.23,3.46-14.07,6.7,14.27,1.51-3.67,6.05,8-3.22,1.51Z"/><path class="cls-4" d="M836.82,257.75a10,10,0,0,1-.21-1.91A17.41,17.41,0,0,0,836.82,257.75Z"/><path class="cls-4" d="M857.17,255.85a10,10,0,0,1-.21,1.91A17.41,17.41,0,0,0,857.17,255.85Z"/><path class="cls-4" d="M857.17,255.68s0,.06,0,.17a17.41,17.41,0,0,1-.21,1.91.12.12,0,0,0,0,0c-.57,3.56-2.63,11.72-10.07,25.09-7.43-13.37-9.49-21.53-10.07-25.09a.12.12,0,0,1,0,0,17.41,17.41,0,0,1-.21-1.91c0-.06,0-.11,0-.17a10.28,10.28,0,0,1,20.57,0Z"/><path class="cls-4" d="M822,232.1a10,10,0,0,1-.21-1.91A17.41,17.41,0,0,0,822,232.1Z"/><path class="cls-4" d="M842.4,230.19a10,10,0,0,1-.21,1.91A17.41,17.41,0,0,0,842.4,230.19Z"/><path class="cls-4" d="M842.4,230s0,.06,0,.17a17.41,17.41,0,0,1-.21,1.91.12.12,0,0,0,0,0c-.57,3.56-2.63,11.72-10.07,25.09-7.43-13.37-9.49-21.53-10.07-25.09a.12.12,0,0,1,0,0,17.41,17.41,0,0,1-.21-1.91c0-.06,0-.11,0-.17a10.28,10.28,0,0,1,20.57,0Z"/><path class="cls-4" d="M918.79,243.4a4.43,4.43,0,0,1-4.43,4.43h-14.8v30.63a4.43,4.43,0,0,1-8.85,0V247.83h-14.8a4.43,4.43,0,0,1,0-8.85h14.8v-14.8a4.43,4.43,0,0,1,8.85,0V239h14.8A4.43,4.43,0,0,1,918.79,243.4Z"/><path class="cls-4" d="M936.15,282.88h28a1.38,1.38,0,0,0,1.21-2l-13.65-25.2a1.38,1.38,0,0,1,1.21-2h11.44a1.38,1.38,0,0,0,1.27-1.93L951.93,220a.46.46,0,0,0-.88.24l3.52,23.38c.11.83-.26,1.52-1.1,1.52l-12.66-2a1.38,1.38,0,0,0-1.79,1.16l-4.25,37.17A1.38,1.38,0,0,0,936.15,282.88Z"/><path class="cls-4" d="M981,243.14a13.65,13.65,0,0,0,4.66,10.28l0,0,18.94,18,1.88,1.78,1.88-1.78,18.94-18,0,0a13.68,13.68,0,1,0-20.83-17.2A13.68,13.68,0,0,0,981,243.14Z"/><path class="cls-4" d="M1082.09,231.85l-17.41-12.11-17.4,12.11,4.54,26.81,2.38-7.68,7.78,31.9,6.05-28.76,4.11,10.59,3-22.05,1.51,13.84Zm-7.76,0,3.22,1.51-6.05,8-1.51-3.67-6.7,14.27-3.46-14.07-3.58,8.23-4.85-12.75,3.32-1.51,10-4.54Z"/><path class="cls-4" d="M1111.38,244.87a10,10,0,0,0-.21,1.91A17.41,17.41,0,0,1,1111.38,244.87Z"/><path class="cls-4" d="M1131.73,246.77a10,10,0,0,0-.21-1.91A17.41,17.41,0,0,1,1131.73,246.77Z"/><path class="cls-4" d="M1131.74,246.94s0-.06,0-.17a17.41,17.41,0,0,0-.21-1.91.12.12,0,0,1,0,0c-.57-3.56-2.63-11.72-10.07-25.09-7.43,13.37-9.49,21.53-10.07,25.09a.12.12,0,0,0,0,0,17.41,17.41,0,0,0-.21,1.91c0,.06,0,.11,0,.17a10.28,10.28,0,1,0,20.57,0Z"/><path class="cls-4" d="M1096.61,270.52a10,10,0,0,0-.21,1.91A17.41,17.41,0,0,1,1096.61,270.52Z"/><path class="cls-4" d="M1117,272.43a10,10,0,0,0-.21-1.91A17.41,17.41,0,0,1,1117,272.43Z"/><path class="cls-4" d="M1117,272.59s0-.06,0-.17a17.41,17.41,0,0,0-.21-1.91.12.12,0,0,1,0,0c-.57-3.56-2.63-11.72-10.07-25.09-7.43,13.37-9.49,21.53-10.07,25.09a.12.12,0,0,0,0,0,17.41,17.41,0,0,0-.21,1.91c0,.06,0,.11,0,.17a10.28,10.28,0,1,0,20.57,0Z"/><path class="cls-4" d="M1193.35,259.22a4.43,4.43,0,0,0-4.43-4.43h-14.8V224.17a4.43,4.43,0,0,0-8.85,0V254.8h-14.8a4.43,4.43,0,0,0,0,8.85h14.8v14.8a4.43,4.43,0,0,0,8.85,0v-14.8h14.8A4.43,4.43,0,0,0,1193.35,259.22Z"/><path class="cls-4" d="M661.59,389.9h28a1.38,1.38,0,0,1,1.21,2l-13.65,25.2a1.38,1.38,0,0,0,1.21,2h11.44a1.38,1.38,0,0,1,1.27,1.93l-13.72,31.66a.46.46,0,0,1-.88-.24L680,429.13c.11-.83-.26-1.52-1.1-1.52l-12.66,2a1.38,1.38,0,0,1-1.79-1.16l-4.25-37.17A1.38,1.38,0,0,1,661.59,389.9Z"/><path class="cls-4" d="M706.47,429.64a13.65,13.65,0,0,1,4.66-10.28l0,0,18.94-18,1.88-1.78,1.88,1.78,18.94,18,0,0A13.68,13.68,0,1,1,732,436.55a13.68,13.68,0,0,1-25.49-6.92Z"/><path class="cls-4" d="M802.12,416.27l-1.51,13.84-3-22.05-4.11,10.59-6.05-28.76-7.78,31.9-2.38-7.68-4.54,26.81L790.12,453l17.41-12.11Zm-12,29.19-10-4.54-3.32-1.51,4.85-12.75,3.58,8.23,3.46-14.07,6.7,14.27,1.51-3.67,6.05,8-3.22,1.51Z"/><path class="cls-4" d="M836.82,427.9a10,10,0,0,1-.21-1.91A17.41,17.41,0,0,0,836.82,427.9Z"/><path class="cls-4" d="M857.17,426a10,10,0,0,1-.21,1.91A17.41,17.41,0,0,0,857.17,426Z"/><path class="cls-4" d="M857.17,425.83s0,.06,0,.17a17.41,17.41,0,0,1-.21,1.91.12.12,0,0,0,0,0c-.57,3.56-2.63,11.72-10.07,25.09-7.43-13.37-9.49-21.53-10.07-25.09a.12.12,0,0,1,0,0,17.41,17.41,0,0,1-.21-1.91c0-.06,0-.11,0-.17a10.28,10.28,0,1,1,20.57,0Z"/><path class="cls-4" d="M822,402.25a10,10,0,0,1-.21-1.91A17.41,17.41,0,0,0,822,402.25Z"/><path class="cls-4" d="M842.4,400.35a10,10,0,0,1-.21,1.91A17.41,17.41,0,0,0,842.4,400.35Z"/><path class="cls-4" d="M842.4,400.18s0,.06,0,.17a17.41,17.41,0,0,1-.21,1.91.12.12,0,0,0,0,0c-.57,3.56-2.63,11.72-10.07,25.09-7.43-13.37-9.49-21.53-10.07-25.09a.12.12,0,0,1,0,0,17.41,17.41,0,0,1-.21-1.91c0-.06,0-.11,0-.17a10.28,10.28,0,1,1,20.57,0Z"/><path class="cls-4" d="M918.79,413.55a4.43,4.43,0,0,1-4.43,4.43h-14.8V448.6a4.43,4.43,0,0,1-8.85,0V418h-14.8a4.43,4.43,0,0,1,0-8.85h14.8v-14.8a4.43,4.43,0,0,1,8.85,0v14.8h14.8A4.43,4.43,0,0,1,918.79,413.55Z"/><path class="cls-4" d="M936.15,453h28a1.38,1.38,0,0,0,1.21-2l-13.65-25.2a1.38,1.38,0,0,1,1.21-2h11.44a1.38,1.38,0,0,0,1.27-1.93l-13.72-31.66a.46.46,0,0,0-.88.24l3.52,23.38c.11.83-.26,1.52-1.1,1.52l-12.66-2a1.38,1.38,0,0,0-1.79,1.16l-4.25,37.17A1.38,1.38,0,0,0,936.15,453Z"/><path class="cls-4" d="M981,413.29a13.65,13.65,0,0,0,4.66,10.28l0,0,18.94,18,1.88,1.78,1.88-1.78,18.94-18,0,0a13.68,13.68,0,1,0-20.83-17.2A13.68,13.68,0,0,0,981,413.29Z"/><path class="cls-4" d="M1082.09,402l-17.41-12.11L1047.28,402l4.54,26.81,2.38-7.68L1062,453l6.05-28.76,4.11,10.59,3-22.05,1.51,13.84Zm-7.76,0,3.22,1.51-6.05,8-1.51-3.67-6.7,14.27L1059.82,408l-3.58,8.23-4.85-12.75,3.32-1.51,10-4.54Z"/><path class="cls-4" d="M1111.38,415a10,10,0,0,0-.21,1.91A17.41,17.41,0,0,1,1111.38,415Z"/><path class="cls-4" d="M1131.73,416.93a10,10,0,0,0-.21-1.91A17.41,17.41,0,0,1,1131.73,416.93Z"/><path class="cls-4" d="M1131.74,417.09s0-.06,0-.17a17.41,17.41,0,0,0-.21-1.91.12.12,0,0,1,0,0c-.57-3.56-2.63-11.72-10.07-25.09-7.43,13.37-9.49,21.53-10.07,25.09a.12.12,0,0,0,0,0,17.41,17.41,0,0,0-.21,1.91c0,.06,0,.11,0,.17a10.28,10.28,0,1,0,20.57,0Z"/><path class="cls-4" d="M1096.61,440.67a10,10,0,0,0-.21,1.91A17.41,17.41,0,0,1,1096.61,440.67Z"/><path class="cls-4" d="M1117,442.58a10,10,0,0,0-.21-1.91A17.41,17.41,0,0,1,1117,442.58Z"/><path class="cls-4" d="M1117,442.74s0-.06,0-.17a17.41,17.41,0,0,0-.21-1.91.12.12,0,0,1,0,0c-.57-3.56-2.63-11.72-10.07-25.09-7.43,13.37-9.49,21.53-10.07,25.09a.12.12,0,0,0,0,0,17.41,17.41,0,0,0-.21,1.91c0,.06,0,.11,0,.17a10.28,10.28,0,1,0,20.57,0Z"/><path class="cls-4" d="M1193.35,429.37a4.43,4.43,0,0,0-4.43-4.43h-14.8V394.32a4.43,4.43,0,0,0-8.85,0v30.63h-14.8a4.43,4.43,0,0,0,0,8.85h14.8v14.8a4.43,4.43,0,0,0,8.85,0V433.8h14.8A4.43,4.43,0,0,0,1193.35,429.37Z"/><path class="cls-4" d="M556.12,368h28a1.38,1.38,0,0,0,1.21-2l-13.65-25.2a1.38,1.38,0,0,1,1.21-2h11.44a1.38,1.38,0,0,0,1.27-1.93L571.9,305.1a.46.46,0,0,0-.88.24l3.52,23.38c.11.83-.26,1.52-1.1,1.52l-12.66-2a1.38,1.38,0,0,0-1.79,1.16l-4.25,37.17A1.38,1.38,0,0,0,556.12,368Z"/><path class="cls-4" d="M601,328.21a13.65,13.65,0,0,0,4.66,10.28l0,0,18.94,18,1.88,1.78,1.88-1.78,18.94-18,0,0a13.68,13.68,0,1,0-20.83-17.2A13.68,13.68,0,0,0,601,328.21Z"/><path class="cls-4" d="M702.05,316.93l-17.41-12.11-17.4,12.11,4.54,26.81,2.38-7.68,7.78,31.9L688,339.2l4.11,10.59,3-22.05,1.51,13.84Zm-7.76,0,3.22,1.51-6.05,8-1.51-3.67L683.24,337,679.78,323l-3.58,8.23-4.85-12.75,3.32-1.51,10-4.54Z"/><path class="cls-4" d="M731.34,329.94a10,10,0,0,0-.21,1.91A17.41,17.41,0,0,1,731.34,329.94Z"/><path class="cls-4" d="M751.7,331.85a10,10,0,0,0-.21-1.91A17.41,17.41,0,0,1,751.7,331.85Z"/><path class="cls-4" d="M751.7,332s0-.06,0-.17a17.41,17.41,0,0,0-.21-1.91.12.12,0,0,1,0,0c-.57-3.56-2.63-11.72-10.07-25.09-7.43,13.37-9.49,21.53-10.07,25.09a.12.12,0,0,0,0,0,17.41,17.41,0,0,0-.21,1.91c0,.06,0,.11,0,.17a10.28,10.28,0,1,0,20.57,0Z"/><path class="cls-4" d="M716.57,355.6a10,10,0,0,0-.21,1.91A17.41,17.41,0,0,1,716.57,355.6Z"/><path class="cls-4" d="M736.93,357.5a10,10,0,0,0-.21-1.91A17.41,17.41,0,0,1,736.93,357.5Z"/><path class="cls-4" d="M736.93,357.67s0-.06,0-.17a17.41,17.41,0,0,0-.21-1.91.12.12,0,0,1,0,0c-.57-3.56-2.63-11.72-10.07-25.09-7.43,13.37-9.49,21.53-10.07,25.09a.12.12,0,0,0,0,0,17.41,17.41,0,0,0-.21,1.91c0,.06,0,.11,0,.17a10.28,10.28,0,1,0,20.57,0Z"/><path class="cls-4" d="M813.32,344.3a4.43,4.43,0,0,0-4.43-4.43h-14.8V309.25a4.43,4.43,0,0,0-8.85,0v30.63h-14.8a4.43,4.43,0,0,0,0,8.85h14.8v14.8a4.43,4.43,0,0,0,8.85,0v-14.8h14.8A4.43,4.43,0,0,0,813.32,344.3Z"/><path class="cls-4" d="M830.68,304.82h28a1.38,1.38,0,0,1,1.21,2l-13.65,25.2a1.38,1.38,0,0,0,1.21,2h11.44a1.38,1.38,0,0,1,1.27,1.93l-13.72,31.66a.46.46,0,0,1-.88-.24l3.52-23.38c.11-.83-.26-1.52-1.1-1.52l-12.66,2a1.38,1.38,0,0,1-1.79-1.16L829.3,306.2A1.38,1.38,0,0,1,830.68,304.82Z"/><path class="cls-4" d="M875.57,344.56a13.65,13.65,0,0,1,4.66-10.28l0,0,18.94-18,1.88-1.78,1.88,1.78,18.94,18,0,0a13.68,13.68,0,1,1-20.83,17.2,13.68,13.68,0,0,1-25.49-6.92Z"/><path class="cls-4" d="M971.21,331.2,969.7,345l-3-22.05-4.11,10.59-6.05-28.76-7.78,31.9L946.35,329l-4.54,26.81L959.21,368l17.41-12.11Zm-12,29.19-10-4.54-3.32-1.51,4.85-12.75,3.58,8.23,3.46-14.07,6.7,14.27,1.51-3.67,6.05,8-3.22,1.51Z"/><path class="cls-4" d="M1005.91,342.83a10,10,0,0,1-.21-1.91A17.41,17.41,0,0,0,1005.91,342.83Z"/><path class="cls-4" d="M1026.26,340.92a10,10,0,0,1-.21,1.91A17.41,17.41,0,0,0,1026.26,340.92Z"/><path class="cls-4" d="M1026.27,340.76s0,.06,0,.17a17.41,17.41,0,0,1-.21,1.91.12.12,0,0,0,0,0c-.57,3.56-2.63,11.72-10.07,25.09-7.43-13.37-9.49-21.53-10.07-25.09a.12.12,0,0,1,0,0,17.41,17.41,0,0,1-.21-1.91c0-.06,0-.11,0-.17a10.28,10.28,0,1,1,20.57,0Z"/><path class="cls-4" d="M991.14,317.18a10,10,0,0,1-.21-1.91A17.41,17.41,0,0,0,991.14,317.18Z"/><path class="cls-4" d="M1011.49,315.27a10,10,0,0,1-.21,1.91A17.41,17.41,0,0,0,1011.49,315.27Z"/><path class="cls-4" d="M1011.49,315.1s0,.06,0,.17a17.41,17.41,0,0,1-.21,1.91.12.12,0,0,0,0,0c-.57,3.56-2.63,11.72-10.07,25.09-7.43-13.37-9.49-21.53-10.07-25.09a.12.12,0,0,1,0,0,17.41,17.41,0,0,1-.21-1.91c0-.06,0-.11,0-.17a10.28,10.28,0,0,1,20.57,0Z"/><path class="cls-4" d="M1087.88,328.48a4.43,4.43,0,0,1-4.43,4.43h-14.8v30.63a4.43,4.43,0,0,1-8.85,0V332.9H1045a4.43,4.43,0,0,1,0-8.85h14.8v-14.8a4.43,4.43,0,0,1,8.85,0V324h14.8A4.43,4.43,0,0,1,1087.88,328.48Z"/><path class="cls-4" d="M1107.07,368h28a1.38,1.38,0,0,0,1.21-2l-13.65-25.2a1.38,1.38,0,0,1,1.21-2h11.44a1.38,1.38,0,0,0,1.27-1.93l-13.72-31.66a.46.46,0,0,0-.88.24l3.52,23.38c.11.83-.26,1.52-1.1,1.52l-12.66-2a1.38,1.38,0,0,0-1.79,1.16l-4.25,37.17A1.38,1.38,0,0,0,1107.07,368Z"/><path class="cls-4" d="M1152,328.21a13.65,13.65,0,0,0,4.66,10.28l0,0,18.94,18,1.88,1.78,1.88-1.78,18.94-18,0,0a13.68,13.68,0,1,0-20.83-17.2,13.68,13.68,0,0,0-25.49,6.92Z"/></g></svg>