<svg id="Layer_1" data-name="Layer 1" xmlns="http://www.w3.org/2000/svg" xmlns:xlink="http://www.w3.org/1999/xlink" viewBox="0 0 1500 1159"><defs><style>.cls-1{fill:none;}.cls-2{fill:#5db4ff;}.cls-3{clip-path:url(#clip-path);}.cls-4{fill:#af5fe5;}</style><clipPath id="clip-path"><rect class="cls-1" y="-0.05" width="1500" height="1159.09"/></clipPath></defs><title>BG1</title><rect class="cls-2" y="-0.05" width="1500" height="1159.09"/><g class="cls-3"><path class="cls-4" d="M11.28,34.06h35a1.72,1.72,0,0,0,1.52-2.55L30.76,0a1.72,1.72,0,0,1,1.52-2.55h14.3a1.72,1.72,0,0,0,1.58-2.41L31-44.51a.57.57,0,0,0-1.1.3L34.31-15c.13,1-.33,1.9-1.37,1.9L17.12-15.56a1.72,1.72,0,0,0-2.24,1.44L9.56,32.34A1.72,1.72,0,0,0,11.28,34.06Z"/><path class="cls-4" d="M67.39-15.61A17.06,17.06,0,0,0,73.21-2.76l0,0L96.9,19.7l2.35,2.22,2.35-2.22L125.26-2.74l0,0a17.06,17.06,0,0,0,5.82-12.85A17.1,17.1,0,0,0,114-32.71a17.08,17.08,0,0,0-14.75,8.45,17.08,17.08,0,0,0-14.75-8.45A17.1,17.1,0,0,0,67.39-15.61Z"/><path class="cls-4" d="M193.7-29.72,171.94-44.85,150.19-29.72l5.68,33.51,3-9.6,9.73,39.87,7.57-35.94,5.13,13.24,3.79-27.57,1.89,17.29Zm-9.7,0,4,1.89-7.57,10-1.89-4.59L170.19-4.58l-4.32-17.59-4.47,10.29-6.07-15.94,4.15-1.89,12.47-5.68Z"/><path class="cls-4" d="M255.76-10.86s0-.07,0-.21a21.76,21.76,0,0,0-.26-2.38.15.15,0,0,1,0,0c-.71-4.45-3.29-14.65-12.58-31.36C233.62-28.15,231-17.95,230.32-13.49a.14.14,0,0,0,0,0,21.77,21.77,0,0,0-.26,2.38c0,.07,0,.14,0,.21A12.85,12.85,0,0,0,242.91,2,12.85,12.85,0,0,0,255.76-10.86Z"/><path class="cls-4" d="M211.85,18.62a12.56,12.56,0,0,0-.26,2.38A21.77,21.77,0,0,1,211.85,18.62Z"/><path class="cls-4" d="M237.29,21a12.56,12.56,0,0,0-.26-2.38A21.76,21.76,0,0,1,237.29,21Z"/><path class="cls-4" d="M237.3,21.21s0-.07,0-.21a21.76,21.76,0,0,0-.26-2.38.15.15,0,0,1,0,0c-.71-4.45-3.29-14.65-12.58-31.36-9.29,16.71-11.87,26.91-12.58,31.36a.14.14,0,0,0,0,0,21.77,21.77,0,0,0-.26,2.38c0,.07,0,.14,0,.21a12.86,12.86,0,0,0,25.71,0Z"/><path class="cls-4" d="M332.78,4.49A5.53,5.53,0,0,0,327.25-1h-18.5V-39.32a5.53,5.53,0,0,0-5.53-5.53,5.52,5.52,0,0,0-3.91,1.62,5.52,5.52,0,0,0-1.62,3.91V-1h-18.5a5.53,5.53,0,0,0,0,11.07h18.5v18.5a5.53,5.53,0,0,0,11.07,0V10h18.5A5.53,5.53,0,0,0,332.78,4.49Z"/><path class="cls-4" d="M354.49-44.85h35A1.72,1.72,0,0,1,391-42.31L374-10.81a1.72,1.72,0,0,0,1.52,2.55h14.3a1.72,1.72,0,0,1,1.58,2.41L374.21,33.72a.57.57,0,0,1-1.1-.3l4.4-29.23c.13-1-.33-1.9-1.37-1.9L360.32,4.77a1.72,1.72,0,0,1-2.24-1.44l-5.32-46.46A1.72,1.72,0,0,1,354.49-44.85Z"/><path class="cls-4" d="M410.59,4.82A17.06,17.06,0,0,1,416.41-8l0,0L440.1-30.49l2.35-2.22,2.35,2.22L468.47-8l0,0a17.1,17.1,0,1,1-26,21.5,17.1,17.1,0,0,1-31.86-8.65Z"/><path class="cls-4" d="M530.15-11.88,528.26,5.41l-3.79-27.57L519.34-8.91l-7.57-35.94L502-5l-3-9.6-5.68,33.51,21.75,15.14,21.76-15.14Zm-15,36.48-12.47-5.68L498.53,17,504.6,1.09l4.47,10.29,4.32-17.59,8.38,17.84L523.66,7l7.57,10-4,1.89Z"/><path class="cls-4" d="M573.52,2.66a12.56,12.56,0,0,1-.26-2.38A21.77,21.77,0,0,0,573.52,2.66Z"/><path class="cls-4" d="M599,.27a12.56,12.56,0,0,1-.26,2.38A21.76,21.76,0,0,0,599,.27Z"/><path class="cls-4" d="M599,.07s0,.07,0,.21a21.76,21.76,0,0,1-.26,2.38.15.15,0,0,0,0,0c-.71,4.45-3.29,14.65-12.58,31.36C576.82,17.36,574.25,7.16,573.53,2.7a.14.14,0,0,1,0,0,21.77,21.77,0,0,1-.26-2.38c0-.07,0-.14,0-.21A12.86,12.86,0,1,1,599,.07Z"/><path class="cls-4" d="M580.5-32s0,.07,0,.21a21.76,21.76,0,0,1-.26,2.38.15.15,0,0,0,0,0c-.71,4.45-3.29,14.65-12.58,31.36-9.29-16.71-11.87-26.91-12.58-31.36a.14.14,0,0,1,0,0,21.77,21.77,0,0,1-.26-2.38c0-.07,0-.14,0-.21a12.85,12.85,0,0,1,12.86-12.86A12.85,12.85,0,0,1,580.5-32Z"/><path class="cls-4" d="M676-15.28a5.52,5.52,0,0,1-1.62,3.91,5.52,5.52,0,0,1-3.91,1.62H652V28.53a5.53,5.53,0,0,1-11.07,0V-9.75h-18.5a5.53,5.53,0,0,1-5.53-5.53,5.52,5.52,0,0,1,1.62-3.91,5.52,5.52,0,0,1,3.91-1.62h18.5v-18.5a5.53,5.53,0,0,1,5.53-5.53,5.52,5.52,0,0,1,3.91,1.62A5.52,5.52,0,0,1,652-39.32v18.5h18.5A5.53,5.53,0,0,1,676-15.28Z"/><path class="cls-4" d="M11.28,246.75h35a1.72,1.72,0,0,0,1.52-2.55l-17.06-31.5a1.72,1.72,0,0,1,1.52-2.55h14.3a1.72,1.72,0,0,0,1.58-2.41L31,168.18a.57.57,0,0,0-1.1.3l4.4,29.23c.13,1-.33,1.9-1.37,1.9l-15.83-2.49a1.72,1.72,0,0,0-2.24,1.44L9.56,245A1.72,1.72,0,0,0,11.28,246.75Z"/><path class="cls-4" d="M67.39,197.08a17.06,17.06,0,0,0,5.82,12.85l0,0L96.9,232.39l2.35,2.22,2.35-2.22,23.67-22.44,0,0a17.1,17.1,0,1,0-26-21.5,17.1,17.1,0,0,0-31.86,8.65Z"/><path class="cls-4" d="M193.7,183l-21.76-15.14L150.19,183l5.68,33.51,3-9.6,9.73,39.87,7.57-35.94L181.27,224l3.79-27.57,1.89,17.29Zm-9.7,0,4,1.89-7.57,10-1.89-4.59-8.38,17.84-4.32-17.59-4.47,10.29-6.07-15.94,4.15-1.89,12.47-5.68Z"/><path class="cls-4" d="M230.31,199.24a12.56,12.56,0,0,0-.26,2.38A21.77,21.77,0,0,1,230.31,199.24Z"/><path class="cls-4" d="M255.76,201.62a12.56,12.56,0,0,0-.26-2.38A21.76,21.76,0,0,1,255.76,201.62Z"/><path class="cls-4" d="M255.76,201.83s0-.07,0-.21a21.76,21.76,0,0,0-.26-2.38.15.15,0,0,1,0,0c-.71-4.45-3.29-14.65-12.58-31.36-9.29,16.71-11.87,26.91-12.58,31.36a.14.14,0,0,0,0,0,21.77,21.77,0,0,0-.26,2.38c0,.07,0,.14,0,.21a12.86,12.86,0,1,0,25.71,0Z"/><path class="cls-4" d="M211.85,231.31a12.56,12.56,0,0,0-.26,2.38A21.77,21.77,0,0,1,211.85,231.31Z"/><path class="cls-4" d="M237.29,233.69a12.56,12.56,0,0,0-.26-2.38A21.76,21.76,0,0,1,237.29,233.69Z"/><path class="cls-4" d="M237.3,233.9s0-.07,0-.21a21.76,21.76,0,0,0-.26-2.38.15.15,0,0,1,0,0c-.71-4.45-3.29-14.65-12.58-31.36-9.29,16.71-11.87,26.91-12.58,31.36a.14.14,0,0,0,0,0,21.77,21.77,0,0,0-.26,2.38c0,.07,0,.14,0,.21a12.86,12.86,0,0,0,25.71,0Z"/><path class="cls-4" d="M332.78,217.18a5.53,5.53,0,0,0-5.53-5.53h-18.5V173.37a5.53,5.53,0,0,0-11.07,0v38.28h-18.5a5.53,5.53,0,0,0,0,11.07h18.5v18.5a5.53,5.53,0,0,0,11.07,0v-18.5h18.5A5.53,5.53,0,0,0,332.78,217.18Z"/><path class="cls-4" d="M354.49,167.84h35a1.72,1.72,0,0,1,1.52,2.55L374,201.88a1.72,1.72,0,0,0,1.52,2.55h14.3a1.72,1.72,0,0,1,1.58,2.41L374.21,246.4a.57.57,0,0,1-1.1-.3l4.4-29.23c.13-1-.33-1.9-1.37-1.9l-15.83,2.49a1.72,1.72,0,0,1-2.24-1.44l-5.32-46.46A1.72,1.72,0,0,1,354.49,167.84Z"/><path class="cls-4" d="M410.59,217.51a17.06,17.06,0,0,1,5.82-12.85l0,0L440.1,182.2l2.35-2.22,2.35,2.22,23.67,22.44,0,0a17.1,17.1,0,1,1-26,21.5,17.1,17.1,0,0,1-31.86-8.65Z"/><path class="cls-4" d="M530.15,200.81l-1.89,17.29-3.79-27.57-5.13,13.24-7.57-35.94L502,207.71l-3-9.6-5.68,33.51,21.75,15.14,21.76-15.14Zm-15,36.48-12.47-5.68-4.15-1.89,6.07-15.94,4.47,10.29,4.32-17.59,8.38,17.84,1.89-4.59,7.57,10-4,1.89Z"/><path class="cls-4" d="M573.52,215.35a12.56,12.56,0,0,1-.26-2.38A21.77,21.77,0,0,0,573.52,215.35Z"/><path class="cls-4" d="M599,213a12.56,12.56,0,0,1-.26,2.38A21.76,21.76,0,0,0,599,213Z"/><path class="cls-4" d="M599,212.76s0,.07,0,.21a21.76,21.76,0,0,1-.26,2.38.15.15,0,0,0,0,0c-.71,4.45-3.29,14.65-12.58,31.36-9.29-16.71-11.87-26.91-12.58-31.36a.14.14,0,0,1,0,0,21.77,21.77,0,0,1-.26-2.38c0-.07,0-.14,0-.21a12.86,12.86,0,1,1,25.71,0Z"/><path class="cls-4" d="M555.05,183.28a12.56,12.56,0,0,1-.26-2.38A21.77,21.77,0,0,0,555.05,183.28Z"/><path class="cls-4" d="M580.5,180.9a12.56,12.56,0,0,1-.26,2.38A21.76,21.76,0,0,0,580.5,180.9Z"/><path class="cls-4" d="M580.5,180.69s0,.07,0,.21a21.76,21.76,0,0,1-.26,2.38.15.15,0,0,0,0,0c-.71,4.45-3.29,14.65-12.58,31.36-9.29-16.71-11.87-26.91-12.58-31.36a.14.14,0,0,1,0,0,21.77,21.77,0,0,1-.26-2.38c0-.07,0-.14,0-.21a12.86,12.86,0,0,1,25.71,0Z"/><path class="cls-4" d="M676,197.4a5.53,5.53,0,0,1-5.53,5.53H652v38.28a5.53,5.53,0,0,1-11.07,0V202.94h-18.5a5.53,5.53,0,0,1,0-11.07h18.5v-18.5a5.53,5.53,0,0,1,11.07,0v18.5h18.5A5.53,5.53,0,0,1,676,197.4Z"/><path class="cls-4" d="M16.67,92.9a12.56,12.56,0,0,0-.26,2.38A21.77,21.77,0,0,1,16.67,92.9Z"/><path class="cls-4" d="M42.11,95.28a12.56,12.56,0,0,0-.26-2.38A21.76,21.76,0,0,1,42.11,95.28Z"/><path class="cls-4" d="M42.11,95.49s0-.07,0-.21a21.76,21.76,0,0,0-.26-2.38.15.15,0,0,1,0,0c-.71-4.45-3.29-14.65-12.58-31.36C20,78.2,17.39,88.4,16.67,92.85a.14.14,0,0,0,0,0,21.77,21.77,0,0,0-.26,2.38c0,.07,0,.14,0,.21a12.86,12.86,0,0,0,25.71,0Z"/><path class="cls-4" d="M23.64,127.34a12.56,12.56,0,0,0-.26-2.38A21.76,21.76,0,0,1,23.64,127.34Z"/><path class="cls-4" d="M23.65,127.55s0-.07,0-.21a21.76,21.76,0,0,0-.26-2.38.15.15,0,0,1,0,0c-.71-4.45-3.29-14.65-12.58-31.36C1.5,110.26-1.08,120.46-1.79,124.92a.14.14,0,0,0,0,0,21.77,21.77,0,0,0-.26,2.38c0,.07,0,.14,0,.21a12.86,12.86,0,0,0,25.71,0Z"/><path class="cls-4" d="M119.13,110.84a5.53,5.53,0,0,0-5.53-5.53H95.1V67A5.53,5.53,0,0,0,84,67v38.28H65.53a5.53,5.53,0,0,0,0,11.07H84v18.5a5.53,5.53,0,0,0,11.07,0v-18.5h18.5A5.53,5.53,0,0,0,119.13,110.84Z"/><path class="cls-4" d="M143.12,61.49h35A1.72,1.72,0,0,1,179.66,64L162.6,95.53a1.72,1.72,0,0,0,1.52,2.55h14.3a1.72,1.72,0,0,1,1.58,2.41l-17.15,39.57a.57.57,0,0,1-1.1-.3l4.4-29.23c.13-1-.33-1.9-1.37-1.9L149,111.12a1.72,1.72,0,0,1-2.24-1.44L141.4,63.22A1.72,1.72,0,0,1,143.12,61.49Z"/><path class="cls-4" d="M199.22,111.17A17.06,17.06,0,0,1,205,98.32l0,0,23.67-22.44,2.35-2.22,2.35,2.22L257.1,98.3l0,0a17.1,17.1,0,1,1-26,21.5,17.1,17.1,0,0,1-31.86-8.65Z"/><path class="cls-4" d="M318.78,94.46l-1.89,17.29-3.79-27.57L308,97.44,300.4,61.49l-9.73,39.87-3-9.6L282,125.27l21.75,15.14,21.76-15.14Zm-15,36.48-12.47-5.68-4.15-1.89,6.07-15.94,4.47,10.29L302,100.14,310.4,118l1.89-4.59,7.57,10-4,1.89Z"/><path class="cls-4" d="M362.15,109a12.56,12.56,0,0,1-.26-2.38A21.77,21.77,0,0,0,362.15,109Z"/><path class="cls-4" d="M387.6,106.62a12.56,12.56,0,0,1-.26,2.38A21.76,21.76,0,0,0,387.6,106.62Z"/><path class="cls-4" d="M387.6,106.41s0,.07,0,.21a21.76,21.76,0,0,1-.26,2.38.15.15,0,0,0,0,0c-.71,4.45-3.29,14.65-12.58,31.36-9.29-16.71-11.87-26.91-12.58-31.36a.14.14,0,0,1,0,0,21.77,21.77,0,0,1-.26-2.38c0-.07,0-.14,0-.21a12.86,12.86,0,1,1,25.71,0Z"/><path class="cls-4" d="M343.69,76.94a12.56,12.56,0,0,1-.26-2.38A21.77,21.77,0,0,0,343.69,76.94Z"/><path class="cls-4" d="M369.13,74.55a12.56,12.56,0,0,1-.26,2.38A21.76,21.76,0,0,0,369.13,74.55Z"/><path class="cls-4" d="M369.13,74.35s0,.07,0,.21a21.76,21.76,0,0,1-.26,2.38.15.15,0,0,0,0,0c-.71,4.45-3.29,14.65-12.58,31.36C347,91.64,344.41,81.44,343.7,77a.14.14,0,0,1,0,0,21.77,21.77,0,0,1-.26-2.38c0-.07,0-.14,0-.21a12.86,12.86,0,1,1,25.71,0Z"/><path class="cls-4" d="M464.62,91.06a5.53,5.53,0,0,1-5.53,5.53h-18.5v38.28a5.53,5.53,0,0,1-11.07,0V96.59H411a5.53,5.53,0,0,1,0-11.07h18.5V67a5.53,5.53,0,0,1,11.07,0v18.5h18.5A5.53,5.53,0,0,1,464.62,91.06Z"/><path class="cls-4" d="M486.33,140.41h35a1.72,1.72,0,0,0,1.52-2.55l-17.06-31.5a1.72,1.72,0,0,1,1.52-2.55h14.3a1.72,1.72,0,0,0,1.58-2.41L506,61.84a.57.57,0,0,0-1.1.3l4.4,29.23c.13,1-.33,1.9-1.37,1.9l-15.83-2.49a1.72,1.72,0,0,0-2.24,1.44l-5.32,46.46A1.72,1.72,0,0,0,486.33,140.41Z"/><path class="cls-4" d="M542.43,90.73a17.06,17.06,0,0,0,5.82,12.85l0,0L571.94,126l2.35,2.22,2.35-2.22L600.3,103.6l0,0a17.1,17.1,0,1,0-26-21.5,17.1,17.1,0,0,0-31.86,8.65Z"/><path class="cls-4" d="M668.74,76.63,647,61.49,625.23,76.63l5.68,33.51,3-9.6,9.73,39.87,7.57-35.94,5.13,13.24,3.79-27.57L662,107.43Zm-9.7,0,4,1.89-7.57,10-1.89-4.59-8.38,17.84-4.32-17.59-4.47,10.29-6.07-15.94,4.15-1.89L647,70.95Z"/><path class="cls-4" d="M705.36,92.9a12.56,12.56,0,0,0-.26,2.38A21.77,21.77,0,0,1,705.36,92.9Z"/><path class="cls-4" d="M730.8,95.28a12.56,12.56,0,0,0-.26-2.38A21.76,21.76,0,0,1,730.8,95.28Z"/><path class="cls-4" d="M730.81,95.49s0-.07,0-.21a21.76,21.76,0,0,0-.26-2.38.15.15,0,0,1,0,0c-.71-4.45-3.29-14.65-12.58-31.36-9.29,16.71-11.87,26.91-12.58,31.36a.14.14,0,0,0,0,0,21.77,21.77,0,0,0-.26,2.38c0,.07,0,.14,0,.21a12.86,12.86,0,0,0,25.71,0Z"/><path class="cls-4" d="M686.89,125a12.56,12.56,0,0,0-.26,2.38A21.77,21.77,0,0,1,686.89,125Z"/><path class="cls-4" d="M712.33,127.34a12.56,12.56,0,0,0-.26-2.38A21.76,21.76,0,0,1,712.33,127.34Z"/><path class="cls-4" d="M712.34,127.55s0-.07,0-.21a21.76,21.76,0,0,0-.26-2.38.15.15,0,0,1,0,0c-.71-4.45-3.29-14.65-12.58-31.36-9.29,16.71-11.87,26.91-12.58,31.36a.14.14,0,0,0,0,0,21.77,21.77,0,0,0-.26,2.38c0,.07,0,.14,0,.21a12.86,12.86,0,0,0,25.71,0Z"/><path class="cls-4" d="M807.82,110.84a5.53,5.53,0,0,0-5.53-5.53h-18.5V67a5.53,5.53,0,0,0-11.07,0v38.28h-18.5a5.53,5.53,0,0,0,0,11.07h18.5v18.5a5.53,5.53,0,0,0,11.07,0v-18.5h18.5A5.53,5.53,0,0,0,807.82,110.84Z"/><path class="cls-4" d="M11.28,672.13h35a1.72,1.72,0,0,0,1.52-2.55l-17.06-31.5a1.72,1.72,0,0,1,1.52-2.55h14.3a1.72,1.72,0,0,0,1.58-2.41L31,593.56a.57.57,0,0,0-1.1.3l4.4,29.23c.13,1-.33,1.9-1.37,1.9L17.12,622.5a1.72,1.72,0,0,0-2.24,1.44L9.56,670.41A1.72,1.72,0,0,0,11.28,672.13Z"/><path class="cls-4" d="M67.39,622.45a17.06,17.06,0,0,0,5.82,12.85l0,0L96.9,657.76,99.24,660l2.35-2.22,23.67-22.44,0,0a17.1,17.1,0,1,0-26-21.5,17.1,17.1,0,0,0-31.86,8.65Z"/><path class="cls-4" d="M193.7,608.35l-21.76-15.14-21.75,15.14,5.68,33.51,3-9.6,9.73,39.87,7.57-35.94,5.13,13.24,3.79-27.57,1.89,17.29Zm-9.7,0,4,1.89-7.57,10-1.89-4.59-8.38,17.84-4.32-17.59-4.47,10.29-6.07-15.94,4.15-1.89,12.47-5.68Z"/><path class="cls-4" d="M230.31,624.62a12.56,12.56,0,0,0-.26,2.38A21.77,21.77,0,0,1,230.31,624.62Z"/><path class="cls-4" d="M255.76,627a12.56,12.56,0,0,0-.26-2.38A21.76,21.76,0,0,1,255.76,627Z"/><path class="cls-4" d="M255.76,627.21s0-.07,0-.21a21.76,21.76,0,0,0-.26-2.38.15.15,0,0,1,0,0c-.71-4.45-3.29-14.65-12.58-31.36-9.29,16.71-11.87,26.91-12.58,31.36a.14.14,0,0,0,0,0,21.77,21.77,0,0,0-.26,2.38c0,.07,0,.14,0,.21a12.86,12.86,0,1,0,25.71,0Z"/><path class="cls-4" d="M211.85,656.68a12.56,12.56,0,0,0-.26,2.38A21.77,21.77,0,0,1,211.85,656.68Z"/><path class="cls-4" d="M237.29,659.07a12.56,12.56,0,0,0-.26-2.38A21.76,21.76,0,0,1,237.29,659.07Z"/><path class="cls-4" d="M237.3,659.28s0-.07,0-.21a21.76,21.76,0,0,0-.26-2.38.15.15,0,0,1,0,0c-.71-4.45-3.29-14.65-12.58-31.36-9.29,16.71-11.87,26.91-12.58,31.36a.14.14,0,0,0,0,0,21.77,21.77,0,0,0-.26,2.38c0,.07,0,.14,0,.21a12.86,12.86,0,0,0,25.71,0Z"/><path class="cls-4" d="M332.78,642.56a5.53,5.53,0,0,0-5.53-5.53h-18.5V598.75a5.53,5.53,0,0,0-11.07,0V637h-18.5a5.53,5.53,0,0,0,0,11.07h18.5v18.5a5.53,5.53,0,0,0,11.07,0v-18.5h18.5A5.53,5.53,0,0,0,332.78,642.56Z"/><path class="cls-4" d="M354.49,593.21h35a1.72,1.72,0,0,1,1.52,2.55L374,627.26a1.72,1.72,0,0,0,1.52,2.55h14.3a1.72,1.72,0,0,1,1.58,2.41l-17.15,39.57a.57.57,0,0,1-1.1-.3l4.4-29.23c.13-1-.33-1.9-1.37-1.9l-15.83,2.49a1.72,1.72,0,0,1-2.24-1.44l-5.32-46.46A1.72,1.72,0,0,1,354.49,593.21Z"/><path class="cls-4" d="M410.59,642.89A17.06,17.06,0,0,1,416.41,630l0,0,23.67-22.44,2.35-2.22,2.35,2.22L468.47,630l0,0a17.1,17.1,0,1,1-26,21.5,17.1,17.1,0,0,1-31.86-8.65Z"/><path class="cls-4" d="M530.15,626.19l-1.89,17.29-3.79-27.57-5.13,13.24-7.57-35.94L502,633.09l-3-9.6L493.39,657l21.75,15.14L536.91,657Zm-15,36.48L502.68,657l-4.15-1.89,6.07-15.94,4.47,10.29,4.32-17.59,8.38,17.84,1.89-4.59,7.57,10-4,1.89Z"/><path class="cls-4" d="M573.52,640.73a12.56,12.56,0,0,1-.26-2.38A21.77,21.77,0,0,0,573.52,640.73Z"/><path class="cls-4" d="M599,638.34a12.56,12.56,0,0,1-.26,2.38A21.76,21.76,0,0,0,599,638.34Z"/><path class="cls-4" d="M599,638.13s0,.07,0,.21a21.76,21.76,0,0,1-.26,2.38.15.15,0,0,0,0,0c-.71,4.45-3.29,14.65-12.58,31.36-9.29-16.71-11.87-26.91-12.58-31.36a.14.14,0,0,1,0,0,21.77,21.77,0,0,1-.26-2.38c0-.07,0-.14,0-.21a12.86,12.86,0,1,1,25.71,0Z"/><path class="cls-4" d="M555.05,608.66a12.56,12.56,0,0,1-.26-2.38A21.77,21.77,0,0,0,555.05,608.66Z"/><path class="cls-4" d="M580.5,606.28a12.56,12.56,0,0,1-.26,2.38A21.76,21.76,0,0,0,580.5,606.28Z"/><path class="cls-4" d="M580.5,606.07s0,.07,0,.21a21.76,21.76,0,0,1-.26,2.38.15.15,0,0,0,0,0c-.71,4.45-3.29,14.65-12.58,31.36-9.29-16.71-11.87-26.91-12.58-31.36a.14.14,0,0,1,0,0,21.77,21.77,0,0,1-.26-2.38c0-.07,0-.14,0-.21a12.86,12.86,0,0,1,25.71,0Z"/><path class="cls-4" d="M676,622.78a5.53,5.53,0,0,1-5.53,5.53H652V666.6a5.53,5.53,0,0,1-11.07,0V628.32h-18.5a5.53,5.53,0,0,1,0-11.07h18.5v-18.5a5.53,5.53,0,0,1,11.07,0v18.5h18.5A5.53,5.53,0,0,1,676,622.78Z"/><path class="cls-4" d="M11.28,884.82h35a1.72,1.72,0,0,0,1.52-2.55l-17.06-31.5a1.72,1.72,0,0,1,1.52-2.55h14.3a1.72,1.72,0,0,0,1.58-2.41L31,806.25a.57.57,0,0,0-1.1.3l4.4,29.23c.13,1-.33,1.9-1.37,1.9l-15.83-2.49a1.72,1.72,0,0,0-2.24,1.44L9.56,883.1A1.72,1.72,0,0,0,11.28,884.82Z"/><path class="cls-4" d="M67.39,835.14A17.06,17.06,0,0,0,73.21,848l0,0L96.9,870.45l2.35,2.22,2.35-2.22L125.26,848l0,0a17.1,17.1,0,1,0-26-21.5,17.1,17.1,0,0,0-31.86,8.65Z"/><path class="cls-4" d="M193.7,821,171.94,805.9,150.19,821l5.68,33.51,3-9.6,9.73,39.87,7.57-35.94,5.13,13.24,3.79-27.57,1.89,17.29Zm-9.7,0,4,1.89-7.57,10-1.89-4.59-8.38,17.84-4.32-17.59-4.47,10.29-6.07-15.94,4.15-1.89,12.47-5.68Z"/><path class="cls-4" d="M230.31,837.31a12.56,12.56,0,0,0-.26,2.38A21.77,21.77,0,0,1,230.31,837.31Z"/><path class="cls-4" d="M255.76,839.69a12.56,12.56,0,0,0-.26-2.38A21.76,21.76,0,0,1,255.76,839.69Z"/><path class="cls-4" d="M255.76,839.9s0-.07,0-.21a21.76,21.76,0,0,0-.26-2.38.15.15,0,0,1,0,0c-.71-4.45-3.29-14.65-12.58-31.36-9.29,16.71-11.87,26.91-12.58,31.36a.14.14,0,0,0,0,0,21.77,21.77,0,0,0-.26,2.38c0,.07,0,.14,0,.21a12.86,12.86,0,0,0,25.71,0Z"/><path class="cls-4" d="M211.85,869.37a12.56,12.56,0,0,0-.26,2.38A21.77,21.77,0,0,1,211.85,869.37Z"/><path class="cls-4" d="M237.29,871.76a12.56,12.56,0,0,0-.26-2.38A21.76,21.76,0,0,1,237.29,871.76Z"/><path class="cls-4" d="M237.3,872s0-.07,0-.21a21.76,21.76,0,0,0-.26-2.38.15.15,0,0,1,0,0c-.71-4.45-3.29-14.65-12.58-31.36-9.29,16.71-11.87,26.91-12.58,31.36a.14.14,0,0,0,0,0,21.77,21.77,0,0,0-.26,2.38c0,.07,0,.14,0,.21a12.86,12.86,0,0,0,25.71,0Z"/><path class="cls-4" d="M332.78,855.25a5.53,5.53,0,0,0-5.53-5.53h-18.5V811.44a5.53,5.53,0,0,0-11.07,0v38.28h-18.5a5.53,5.53,0,0,0,0,11.07h18.5v18.5a5.53,5.53,0,0,0,11.07,0v-18.5h18.5A5.53,5.53,0,0,0,332.78,855.25Z"/><path class="cls-4" d="M354.49,805.9h35a1.72,1.72,0,0,1,1.52,2.55L374,839.95a1.72,1.72,0,0,0,1.52,2.55h14.3a1.72,1.72,0,0,1,1.58,2.41l-17.15,39.57a.57.57,0,0,1-1.1-.3l4.4-29.23c.13-1-.33-1.9-1.37-1.9l-15.83,2.49a1.72,1.72,0,0,1-2.24-1.44l-5.32-46.46A1.72,1.72,0,0,1,354.49,805.9Z"/><path class="cls-4" d="M410.59,855.58a17.06,17.06,0,0,1,5.82-12.85l0,0,23.67-22.44,2.35-2.22,2.35,2.22,23.67,22.44,0,0a17.1,17.1,0,1,1-26,21.5,17.1,17.1,0,0,1-31.86-8.65Z"/><path class="cls-4" d="M530.15,838.88l-1.89,17.29-3.79-27.57-5.13,13.24-7.57-35.94L502,845.78l-3-9.6-5.68,33.51,21.75,15.14,21.76-15.14Zm-15,36.48-12.47-5.68-4.15-1.89,6.07-15.94,4.47,10.29,4.32-17.59,8.38,17.84,1.89-4.59,7.57,10-4,1.89Z"/><path class="cls-4" d="M573.52,853.41a12.56,12.56,0,0,1-.26-2.38A21.77,21.77,0,0,0,573.52,853.41Z"/><path class="cls-4" d="M599,851a12.56,12.56,0,0,1-.26,2.38A21.76,21.76,0,0,0,599,851Z"/><path class="cls-4" d="M599,850.82s0,.07,0,.21a21.76,21.76,0,0,1-.26,2.38.15.15,0,0,0,0,0c-.71,4.45-3.29,14.65-12.58,31.36-9.29-16.71-11.87-26.91-12.58-31.36a.14.14,0,0,1,0,0,21.77,21.77,0,0,1-.26-2.38c0-.07,0-.14,0-.21a12.86,12.86,0,0,1,25.71,0Z"/><path class="cls-4" d="M555.05,821.35a12.56,12.56,0,0,1-.26-2.38A21.77,21.77,0,0,0,555.05,821.35Z"/><path class="cls-4" d="M580.5,819a12.56,12.56,0,0,1-.26,2.38A21.76,21.76,0,0,0,580.5,819Z"/><path class="cls-4" d="M580.5,818.76s0,.07,0,.21a21.76,21.76,0,0,1-.26,2.38.15.15,0,0,0,0,0c-.71,4.45-3.29,14.65-12.58,31.36-9.29-16.71-11.87-26.91-12.58-31.36a.14.14,0,0,1,0,0,21.77,21.77,0,0,1-.26-2.38c0-.07,0-.14,0-.21a12.86,12.86,0,0,1,25.71,0Z"/><path class="cls-4" d="M676,835.47a5.53,5.53,0,0,1-5.53,5.53H652v38.28a5.53,5.53,0,0,1-11.07,0V841h-18.5a5.53,5.53,0,0,1,0-11.07h18.5v-18.5a5.53,5.53,0,0,1,11.07,0v18.5h18.5A5.53,5.53,0,0,1,676,835.47Z"/><path class="cls-4" d="M16.67,731a12.56,12.56,0,0,0-.26,2.38A21.77,21.77,0,0,1,16.67,731Z"/><path class="cls-4" d="M42.11,733.35a12.56,12.56,0,0,0-.26-2.38A21.76,21.76,0,0,1,42.11,733.35Z"/><path class="cls-4" d="M42.11,733.56s0-.07,0-.21a21.76,21.76,0,0,0-.26-2.38.15.15,0,0,1,0,0c-.71-4.45-3.29-14.65-12.58-31.36C20,716.27,17.39,726.47,16.67,730.92a.14.14,0,0,0,0,0,21.77,21.77,0,0,0-.26,2.38c0,.07,0,.14,0,.21a12.86,12.86,0,0,0,25.71,0Z"/><path class="cls-4" d="M23.64,765.41a12.56,12.56,0,0,0-.26-2.38A21.76,21.76,0,0,1,23.64,765.41Z"/><path class="cls-4" d="M23.65,765.62s0-.07,0-.21a21.76,21.76,0,0,0-.26-2.38.15.15,0,0,1,0,0c-.71-4.45-3.29-14.65-12.58-31.36C1.5,748.33-1.08,758.53-1.79,763a.14.14,0,0,0,0,0,21.77,21.77,0,0,0-.26,2.38c0,.07,0,.14,0,.21a12.86,12.86,0,1,0,25.71,0Z"/><path class="cls-4" d="M119.13,748.91a5.53,5.53,0,0,0-5.53-5.53H95.1V705.09a5.53,5.53,0,0,0-11.07,0v38.28H65.53a5.53,5.53,0,0,0,0,11.07H84v18.5a5.53,5.53,0,0,0,11.07,0v-18.5h18.5A5.53,5.53,0,0,0,119.13,748.91Z"/><path class="cls-4" d="M143.12,699.56h35a1.72,1.72,0,0,1,1.52,2.55L162.6,733.6a1.72,1.72,0,0,0,1.52,2.55h14.3a1.72,1.72,0,0,1,1.58,2.41l-17.15,39.57a.57.57,0,0,1-1.1-.3l4.4-29.23c.13-1-.33-1.9-1.37-1.9L149,749.19a1.72,1.72,0,0,1-2.24-1.44l-5.32-46.46A1.72,1.72,0,0,1,143.12,699.56Z"/><path class="cls-4" d="M199.22,749.24A17.06,17.06,0,0,1,205,736.38l0,0,23.67-22.44,2.35-2.22,2.35,2.22,23.67,22.44,0,0a17.1,17.1,0,1,1-26,21.5,17.1,17.1,0,0,1-31.86-8.65Z"/><path class="cls-4" d="M318.78,732.53l-1.89,17.29-3.79-27.57L308,735.5l-7.57-35.94-9.73,39.87-3-9.6L282,763.34l21.75,15.14,21.76-15.14Zm-15,36.48-12.47-5.68-4.15-1.89,6.07-15.94,4.47,10.29L302,738.21,310.4,756l1.89-4.59,7.57,10-4,1.89Z"/><path class="cls-4" d="M362.15,747.07a12.56,12.56,0,0,1-.26-2.38A21.77,21.77,0,0,0,362.15,747.07Z"/><path class="cls-4" d="M387.6,744.69a12.56,12.56,0,0,1-.26,2.38A21.76,21.76,0,0,0,387.6,744.69Z"/><path class="cls-4" d="M387.6,744.48s0,.07,0,.21a21.76,21.76,0,0,1-.26,2.38.15.15,0,0,0,0,0c-.71,4.45-3.29,14.65-12.58,31.36-9.29-16.71-11.87-26.91-12.58-31.36a.14.14,0,0,1,0,0,21.77,21.77,0,0,1-.26-2.38c0-.07,0-.14,0-.21a12.86,12.86,0,0,1,25.71,0Z"/><path class="cls-4" d="M343.69,715a12.56,12.56,0,0,1-.26-2.38A21.77,21.77,0,0,0,343.69,715Z"/><path class="cls-4" d="M369.13,712.62a12.56,12.56,0,0,1-.26,2.38A21.76,21.76,0,0,0,369.13,712.62Z"/><path class="cls-4" d="M369.13,712.41s0,.07,0,.21a21.76,21.76,0,0,1-.26,2.38.15.15,0,0,0,0,0c-.71,4.45-3.29,14.65-12.58,31.36C347,729.7,344.41,719.5,343.7,715a.14.14,0,0,1,0,0,21.77,21.77,0,0,1-.26-2.38c0-.07,0-.14,0-.21a12.86,12.86,0,1,1,25.71,0Z"/><path class="cls-4" d="M464.62,729.13a5.53,5.53,0,0,1-5.53,5.53h-18.5v38.28a5.53,5.53,0,0,1-11.07,0V734.66H411a5.53,5.53,0,0,1,0-11.07h18.5v-18.5a5.53,5.53,0,0,1,11.07,0v18.5h18.5A5.53,5.53,0,0,1,464.62,729.13Z"/><path class="cls-4" d="M486.33,778.48h35a1.72,1.72,0,0,0,1.52-2.55l-17.06-31.5a1.72,1.72,0,0,1,1.52-2.55h14.3a1.72,1.72,0,0,0,1.58-2.41L506,699.91a.57.57,0,0,0-1.1.3l4.4,29.23c.13,1-.33,1.9-1.37,1.9l-15.83-2.49a1.72,1.72,0,0,0-2.24,1.44l-5.32,46.46A1.72,1.72,0,0,0,486.33,778.48Z"/><path class="cls-4" d="M542.43,728.8a17.06,17.06,0,0,0,5.82,12.85l0,0,23.67,22.44,2.35,2.22,2.35-2.22,23.67-22.44,0,0a17.1,17.1,0,1,0-26-21.5,17.1,17.1,0,0,0-31.86,8.65Z"/><path class="cls-4" d="M668.74,714.69,647,699.56l-21.75,15.14,5.68,33.51,3-9.6,9.73,39.87,7.57-35.94,5.13,13.24,3.79-27.57L662,745.5Zm-9.7,0,4,1.89-7.57,10L653.61,722l-8.38,17.84-4.32-17.59-4.47,10.29-6.07-15.94,4.15-1.89L647,709Z"/><path class="cls-4" d="M705.36,731a12.56,12.56,0,0,0-.26,2.38A21.77,21.77,0,0,1,705.36,731Z"/><path class="cls-4" d="M730.8,733.35a12.56,12.56,0,0,0-.26-2.38A21.76,21.76,0,0,1,730.8,733.35Z"/><path class="cls-4" d="M730.81,733.56s0-.07,0-.21a21.76,21.76,0,0,0-.26-2.38.15.15,0,0,1,0,0c-.71-4.45-3.29-14.65-12.58-31.36-9.29,16.71-11.87,26.91-12.58,31.36a.14.14,0,0,0,0,0,21.77,21.77,0,0,0-.26,2.38c0,.07,0,.14,0,.21a12.86,12.86,0,0,0,25.71,0Z"/><path class="cls-4" d="M686.89,763a12.56,12.56,0,0,0-.26,2.38A21.77,21.77,0,0,1,686.89,763Z"/><path class="cls-4" d="M712.33,765.41a12.56,12.56,0,0,0-.26-2.38A21.76,21.76,0,0,1,712.33,765.41Z"/><path class="cls-4" d="M712.34,765.62s0-.07,0-.21a21.76,21.76,0,0,0-.26-2.38.15.15,0,0,1,0,0c-.71-4.45-3.29-14.65-12.58-31.36-9.29,16.71-11.87,26.91-12.58,31.36a.14.14,0,0,0,0,0,21.77,21.77,0,0,0-.26,2.38c0,.07,0,.14,0,.21a12.86,12.86,0,1,0,25.71,0Z"/><path class="cls-4" d="M807.82,748.91a5.53,5.53,0,0,0-5.53-5.53h-18.5V705.09a5.53,5.53,0,0,0-11.07,0v38.28h-18.5a5.53,5.53,0,0,0,0,11.07h18.5v18.5a5.53,5.53,0,0,0,11.07,0v-18.5h18.5A5.53,5.53,0,0,0,807.82,748.91Z"/><path class="cls-4" d="M16.67,1156.34a12.56,12.56,0,0,0-.26,2.38A21.77,21.77,0,0,1,16.67,1156.34Z"/><path class="cls-4" d="M42.11,1158.73a12.56,12.56,0,0,0-.26-2.38A21.76,21.76,0,0,1,42.11,1158.73Z"/><path class="cls-4" d="M42.11,1158.93s0-.07,0-.21a21.76,21.76,0,0,0-.26-2.38.15.15,0,0,1,0,0c-.71-4.45-3.29-14.65-12.58-31.36-9.29,16.71-11.87,26.91-12.58,31.36a.14.14,0,0,0,0,0,21.77,21.77,0,0,0-.26,2.38c0,.07,0,.14,0,.21a12.86,12.86,0,0,0,25.71,0Z"/><path class="cls-4" d="M23.65,1191s0-.07,0-.21a21.76,21.76,0,0,0-.26-2.38.15.15,0,0,1,0,0c-.71-4.45-3.29-14.65-12.58-31.36-9.29,16.71-11.87,26.91-12.58,31.36a.14.14,0,0,0,0,0,21.77,21.77,0,0,0-.26,2.38c0,.07,0,.14,0,.21a12.86,12.86,0,1,0,25.71,0Z"/><path class="cls-4" d="M119.13,1174.28a5.53,5.53,0,0,0-5.53-5.53H95.1v-38.28a5.53,5.53,0,0,0-11.07,0v38.28H65.53a5.53,5.53,0,0,0,0,11.07H84v18.5a5.53,5.53,0,0,0,11.07,0v-18.5h18.5A5.53,5.53,0,0,0,119.13,1174.28Z"/><path class="cls-4" d="M143.12,1124.94h35a1.72,1.72,0,0,1,1.52,2.55L162.6,1159a1.72,1.72,0,0,0,1.52,2.55h14.3a1.72,1.72,0,0,1,1.58,2.41l-17.15,39.57a.57.57,0,0,1-1.1-.3l4.4-29.23c.13-1-.33-1.9-1.37-1.9L149,1174.56a1.72,1.72,0,0,1-2.24-1.44l-5.32-46.46A1.72,1.72,0,0,1,143.12,1124.94Z"/><path class="cls-4" d="M199.22,1174.61a17.06,17.06,0,0,1,5.82-12.85l0,0,23.67-22.44,2.35-2.22,2.35,2.22,23.67,22.44,0,0a17.1,17.1,0,1,1-26,21.5,17.1,17.1,0,0,1-31.86-8.65Z"/><path class="cls-4" d="M318.78,1157.91l-1.89,17.29-3.79-27.57L308,1160.88l-7.57-35.94-9.73,39.87-3-9.6L282,1188.72l21.75,15.14,21.76-15.14Zm-15,36.48-12.47-5.68-4.15-1.89,6.07-15.94,4.47,10.29,4.32-17.59,8.38,17.84,1.89-4.59,7.57,10-4,1.89Z"/><path class="cls-4" d="M387.6,1169.86s0,.07,0,.21a21.76,21.76,0,0,1-.26,2.38.15.15,0,0,0,0,0c-.71,4.45-3.29,14.65-12.58,31.36-9.29-16.71-11.87-26.91-12.58-31.36a.14.14,0,0,1,0,0,21.77,21.77,0,0,1-.26-2.38c0-.07,0-.14,0-.21a12.86,12.86,0,0,1,25.71,0Z"/><path class="cls-4" d="M343.69,1140.38a12.56,12.56,0,0,1-.26-2.38A21.77,21.77,0,0,0,343.69,1140.38Z"/><path class="cls-4" d="M369.13,1138a12.56,12.56,0,0,1-.26,2.38A21.76,21.76,0,0,0,369.13,1138Z"/><path class="cls-4" d="M369.13,1137.79s0,.07,0,.21a21.76,21.76,0,0,1-.26,2.38.15.15,0,0,0,0,0c-.71,4.45-3.29,14.65-12.58,31.36-9.29-16.71-11.87-26.91-12.58-31.36a.14.14,0,0,1,0,0,21.77,21.77,0,0,1-.26-2.38c0-.07,0-.14,0-.21a12.86,12.86,0,1,1,25.71,0Z"/><path class="cls-4" d="M464.62,1154.51a5.53,5.53,0,0,1-5.53,5.53h-18.5v38.28a5.53,5.53,0,0,1-11.07,0V1160H411a5.53,5.53,0,0,1,0-11.07h18.5v-18.5a5.53,5.53,0,0,1,11.07,0V1149h18.5A5.53,5.53,0,0,1,464.62,1154.51Z"/><path class="cls-4" d="M486.33,1203.85h35a1.72,1.72,0,0,0,1.52-2.55l-17.06-31.5a1.72,1.72,0,0,1,1.52-2.55h14.3a1.72,1.72,0,0,0,1.58-2.41L506,1125.28a.57.57,0,0,0-1.1.3l4.4,29.23c.13,1-.33,1.9-1.37,1.9l-15.83-2.49a1.72,1.72,0,0,0-2.24,1.44l-5.32,46.46A1.72,1.72,0,0,0,486.33,1203.85Z"/><path class="cls-4" d="M542.43,1154.18a17.06,17.06,0,0,0,5.82,12.85l0,0,23.67,22.44,2.35,2.22,2.35-2.22L600.3,1167l0,0a17.1,17.1,0,1,0-26-21.5,17.1,17.1,0,0,0-31.86,8.65Z"/><path class="cls-4" d="M668.74,1140.07,647,1124.94l-21.75,15.14,5.68,33.51,3-9.6,9.73,39.87,7.57-35.94,5.13,13.24,3.79-27.57,1.89,17.29Zm-9.7,0,4,1.89-7.57,10-1.89-4.59-8.38,17.84-4.32-17.59-4.47,10.29L630.37,1142l4.15-1.89L647,1134.4Z"/><path class="cls-4" d="M705.36,1156.34a12.56,12.56,0,0,0-.26,2.38A21.77,21.77,0,0,1,705.36,1156.34Z"/><path class="cls-4" d="M730.8,1158.73a12.56,12.56,0,0,0-.26-2.38A21.76,21.76,0,0,1,730.8,1158.73Z"/><path class="cls-4" d="M730.81,1158.93s0-.07,0-.21a21.76,21.76,0,0,0-.26-2.38.15.15,0,0,1,0,0c-.71-4.45-3.29-14.65-12.58-31.36-9.29,16.71-11.87,26.91-12.58,31.36a.14.14,0,0,0,0,0,21.77,21.77,0,0,0-.26,2.38c0,.07,0,.14,0,.21a12.86,12.86,0,0,0,25.71,0Z"/><path class="cls-4" d="M712.34,1191s0-.07,0-.21a21.76,21.76,0,0,0-.26-2.38.15.15,0,0,1,0,0c-.71-4.45-3.29-14.65-12.58-31.36-9.29,16.71-11.87,26.91-12.58,31.36a.14.14,0,0,0,0,0,21.77,21.77,0,0,0-.26,2.38c0,.07,0,.14,0,.21a12.86,12.86,0,1,0,25.71,0Z"/><path class="cls-4" d="M807.82,1174.28a5.53,5.53,0,0,0-5.53-5.53h-18.5v-38.28a5.53,5.53,0,0,0-11.07,0v38.28h-18.5a5.53,5.53,0,0,0,0,11.07h18.5v18.5a5.53,5.53,0,0,0,11.07,0v-18.5h18.5A5.53,5.53,0,0,0,807.82,1174.28Z"/><path class="cls-4" d="M16.67,943.65a12.56,12.56,0,0,0-.26,2.38A21.77,21.77,0,0,1,16.67,943.65Z"/><path class="cls-4" d="M42.11,946a12.56,12.56,0,0,0-.26-2.38A21.76,21.76,0,0,1,42.11,946Z"/><path class="cls-4" d="M42.11,946.24s0-.07,0-.21a21.76,21.76,0,0,0-.26-2.38.15.15,0,0,1,0,0c-.71-4.45-3.29-14.65-12.58-31.36C20,929,17.39,939.15,16.67,943.61a.14.14,0,0,0,0,0,21.77,21.77,0,0,0-.26,2.38c0,.07,0,.14,0,.21a12.86,12.86,0,0,0,25.71,0Z"/><path class="cls-4" d="M23.64,978.1a12.56,12.56,0,0,0-.26-2.38A21.76,21.76,0,0,1,23.64,978.1Z"/><path class="cls-4" d="M23.65,978.31s0-.07,0-.21a21.76,21.76,0,0,0-.26-2.38.15.15,0,0,1,0,0c-.71-4.45-3.29-14.65-12.58-31.36C1.5,961-1.08,971.22-1.79,975.67a.14.14,0,0,0,0,0,21.77,21.77,0,0,0-.26,2.38c0,.07,0,.14,0,.21a12.86,12.86,0,0,0,25.71,0Z"/><path class="cls-4" d="M119.13,961.6a5.53,5.53,0,0,0-5.53-5.53H95.1V917.78a5.53,5.53,0,0,0-11.07,0v38.28H65.53a5.53,5.53,0,0,0,0,11.07H84v18.5a5.53,5.53,0,0,0,11.07,0v-18.5h18.5A5.53,5.53,0,0,0,119.13,961.6Z"/><path class="cls-4" d="M143.12,912.25h35a1.72,1.72,0,0,1,1.52,2.55l-17.06,31.5a1.72,1.72,0,0,0,1.52,2.55h14.3a1.72,1.72,0,0,1,1.58,2.41l-17.15,39.57a.57.57,0,0,1-1.1-.3l4.4-29.23c.13-1-.33-1.9-1.37-1.9L149,961.88a1.72,1.72,0,0,1-2.24-1.44L141.4,914A1.72,1.72,0,0,1,143.12,912.25Z"/><path class="cls-4" d="M199.22,961.92A17.06,17.06,0,0,1,205,949.07l0,0,23.67-22.44,2.35-2.22,2.35,2.22,23.67,22.44,0,0a17.1,17.1,0,1,1-26,21.5,17.1,17.1,0,0,1-31.86-8.65Z"/><path class="cls-4" d="M318.78,945.22l-1.89,17.29L313.11,935,308,948.19l-7.57-35.94-9.73,39.87-3-9.6L282,976l21.75,15.14L325.54,976Zm-15,36.48L291.31,976l-4.15-1.89,6.07-15.94,4.47,10.29L302,950.89l8.38,17.84,1.89-4.59,7.57,10-4,1.89Z"/><path class="cls-4" d="M362.15,959.76a12.56,12.56,0,0,1-.26-2.38A21.77,21.77,0,0,0,362.15,959.76Z"/><path class="cls-4" d="M387.6,957.38a12.56,12.56,0,0,1-.26,2.38A21.76,21.76,0,0,0,387.6,957.38Z"/><path class="cls-4" d="M387.6,957.17s0,.07,0,.21a21.76,21.76,0,0,1-.26,2.38.15.15,0,0,0,0,0c-.71,4.45-3.29,14.65-12.58,31.36-9.29-16.71-11.87-26.91-12.58-31.36a.14.14,0,0,1,0,0,21.77,21.77,0,0,1-.26-2.38c0-.07,0-.14,0-.21a12.86,12.86,0,1,1,25.71,0Z"/><path class="cls-4" d="M343.69,927.69a12.56,12.56,0,0,1-.26-2.38A21.77,21.77,0,0,0,343.69,927.69Z"/><path class="cls-4" d="M369.13,925.31a12.56,12.56,0,0,1-.26,2.38A21.76,21.76,0,0,0,369.13,925.31Z"/><path class="cls-4" d="M369.13,925.1s0,.07,0,.21a21.76,21.76,0,0,1-.26,2.38.15.15,0,0,0,0,0c-.71,4.45-3.29,14.65-12.58,31.36-9.29-16.71-11.87-26.91-12.58-31.36a.14.14,0,0,1,0,0,21.77,21.77,0,0,1-.26-2.38c0-.07,0-.14,0-.21a12.86,12.86,0,1,1,25.71,0Z"/><path class="cls-4" d="M464.62,941.82a5.53,5.53,0,0,1-5.53,5.53h-18.5v38.28a5.53,5.53,0,0,1-11.07,0V947.35H411a5.53,5.53,0,0,1,0-11.07h18.5v-18.5a5.53,5.53,0,0,1,11.07,0v18.5h18.5A5.53,5.53,0,0,1,464.62,941.82Z"/><path class="cls-4" d="M486.33,991.16h35a1.72,1.72,0,0,0,1.52-2.55l-17.06-31.5a1.72,1.72,0,0,1,1.52-2.55h14.3a1.72,1.72,0,0,0,1.58-2.41L506,912.6a.57.57,0,0,0-1.1.3l4.4,29.23c.13,1-.33,1.9-1.37,1.9l-15.83-2.49a1.72,1.72,0,0,0-2.24,1.44l-5.32,46.46A1.72,1.72,0,0,0,486.33,991.16Z"/><path class="cls-4" d="M542.43,941.49a17.06,17.06,0,0,0,5.82,12.85l0,0,23.67,22.44,2.35,2.22,2.35-2.22,23.67-22.44,0,0a17.1,17.1,0,1,0-26-21.5,17.1,17.1,0,0,0-31.86,8.65Z"/><path class="cls-4" d="M668.74,927.38,647,912.25l-21.75,15.14,5.68,33.51,3-9.6,9.73,39.87,7.57-35.94,5.13,13.24,3.79-27.57L662,958.19Zm-9.7,0,4,1.89-7.57,10-1.89-4.59-8.38,17.84-4.32-17.59-4.47,10.29-6.07-15.94,4.15-1.89L647,921.71Z"/><path class="cls-4" d="M705.36,943.65a12.56,12.56,0,0,0-.26,2.38A21.77,21.77,0,0,1,705.36,943.65Z"/><path class="cls-4" d="M730.8,946a12.56,12.56,0,0,0-.26-2.38A21.76,21.76,0,0,1,730.8,946Z"/><path class="cls-4" d="M730.81,946.24s0-.07,0-.21a21.76,21.76,0,0,0-.26-2.38.15.15,0,0,1,0,0c-.71-4.45-3.29-14.65-12.58-31.36-9.29,16.71-11.87,26.91-12.58,31.36a.14.14,0,0,0,0,0,21.77,21.77,0,0,0-.26,2.38c0,.07,0,.14,0,.21a12.86,12.86,0,1,0,25.71,0Z"/><path class="cls-4" d="M686.89,975.72a12.56,12.56,0,0,0-.26,2.38A21.77,21.77,0,0,1,686.89,975.72Z"/><path class="cls-4" d="M712.33,978.1a12.56,12.56,0,0,0-.26-2.38A21.76,21.76,0,0,1,712.33,978.1Z"/><path class="cls-4" d="M712.34,978.31s0-.07,0-.21a21.76,21.76,0,0,0-.26-2.38.15.15,0,0,1,0,0c-.71-4.45-3.29-14.65-12.58-31.36-9.29,16.71-11.87,26.91-12.58,31.36a.14.14,0,0,0,0,0,21.77,21.77,0,0,0-.26,2.38c0,.07,0,.14,0,.21a12.86,12.86,0,0,0,25.71,0Z"/><path class="cls-4" d="M807.82,961.6a5.53,5.53,0,0,0-5.53-5.53h-18.5V917.78a5.53,5.53,0,0,0-11.07,0v38.28h-18.5a5.53,5.53,0,0,0,0,11.07h18.5v18.5a5.53,5.53,0,0,0,11.07,0v-18.5h18.5A5.53,5.53,0,0,0,807.82,961.6Z"/><path class="cls-4" d="M11.28,1097.51h35a1.72,1.72,0,0,0,1.52-2.55l-17.06-31.5a1.72,1.72,0,0,1,1.52-2.55h14.3a1.72,1.72,0,0,0,1.58-2.41L31,1018.94a.57.57,0,0,0-1.1.3l4.4,29.23c.13,1-.33,1.9-1.37,1.9l-15.83-2.49a1.72,1.72,0,0,0-2.24,1.44l-5.32,46.46A1.72,1.72,0,0,0,11.28,1097.51Z"/><path class="cls-4" d="M67.39,1047.83a17.06,17.06,0,0,0,5.82,12.85l0,0,23.67,22.44,2.35,2.22,2.35-2.22,23.67-22.44,0,0a17.1,17.1,0,1,0-26-21.5,17.1,17.1,0,0,0-31.86,8.65Z"/><path class="cls-4" d="M193.7,1033.73l-21.76-15.14-21.75,15.14,5.68,33.51,3-9.6,9.73,39.87,7.57-35.94,5.13,13.24,3.79-27.57,1.89,17.29Zm-9.7,0,4,1.89-7.57,10-1.89-4.59-8.38,17.84-4.32-17.59-4.47,10.29-6.07-15.94,4.15-1.89,12.47-5.68Z"/><path class="cls-4" d="M230.31,1050a12.56,12.56,0,0,0-.26,2.38A21.77,21.77,0,0,1,230.31,1050Z"/><path class="cls-4" d="M255.76,1052.38a12.56,12.56,0,0,0-.26-2.38A21.76,21.76,0,0,1,255.76,1052.38Z"/><path class="cls-4" d="M255.76,1052.59s0-.07,0-.21a21.76,21.76,0,0,0-.26-2.38.15.15,0,0,1,0,0c-.71-4.45-3.29-14.65-12.58-31.36-9.29,16.71-11.87,26.91-12.58,31.36a.14.14,0,0,0,0,0,21.77,21.77,0,0,0-.26,2.38c0,.07,0,.14,0,.21a12.86,12.86,0,0,0,25.71,0Z"/><path class="cls-4" d="M211.85,1082.06a12.56,12.56,0,0,0-.26,2.38A21.77,21.77,0,0,1,211.85,1082.06Z"/><path class="cls-4" d="M237.29,1084.45a12.56,12.56,0,0,0-.26-2.38A21.76,21.76,0,0,1,237.29,1084.45Z"/><path class="cls-4" d="M237.3,1084.65s0-.07,0-.21a21.76,21.76,0,0,0-.26-2.38.15.15,0,0,1,0,0c-.71-4.45-3.29-14.65-12.58-31.36-9.29,16.71-11.87,26.91-12.58,31.36a.14.14,0,0,0,0,0,21.77,21.77,0,0,0-.26,2.38c0,.07,0,.14,0,.21a12.86,12.86,0,1,0,25.71,0Z"/><path class="cls-4" d="M332.78,1067.94a5.53,5.53,0,0,0-5.53-5.53h-18.5v-38.28a5.53,5.53,0,0,0-11.07,0v38.28h-18.5a5.53,5.53,0,0,0,0,11.07h18.5V1092a5.53,5.53,0,0,0,11.07,0v-18.5h18.5A5.53,5.53,0,0,0,332.78,1067.94Z"/><path class="cls-4" d="M354.49,1018.59h35a1.72,1.72,0,0,1,1.52,2.55L374,1052.64a1.72,1.72,0,0,0,1.52,2.55h14.3a1.72,1.72,0,0,1,1.58,2.41l-17.15,39.57a.57.57,0,0,1-1.1-.3l4.4-29.23c.13-1-.33-1.9-1.37-1.9l-15.83,2.49a1.72,1.72,0,0,1-2.24-1.44l-5.32-46.46A1.72,1.72,0,0,1,354.49,1018.59Z"/><path class="cls-4" d="M410.59,1068.27a17.06,17.06,0,0,1,5.82-12.85l0,0L440.1,1033l2.35-2.22,2.35,2.22,23.67,22.44,0,0a17.1,17.1,0,1,1-26,21.5,17.1,17.1,0,0,1-31.86-8.65Z"/><path class="cls-4" d="M530.15,1051.57l-1.89,17.29-3.79-27.57-5.13,13.24-7.57-35.94L502,1058.47l-3-9.6-5.68,33.51,21.75,15.14,21.76-15.14Zm-15,36.48-12.47-5.68-4.15-1.89,6.07-15.94,4.47,10.29,4.32-17.59,8.38,17.84,1.89-4.59,7.57,10-4,1.89Z"/><path class="cls-4" d="M573.52,1066.1a12.56,12.56,0,0,1-.26-2.38A21.77,21.77,0,0,0,573.52,1066.1Z"/><path class="cls-4" d="M599,1063.72a12.56,12.56,0,0,1-.26,2.38A21.76,21.76,0,0,0,599,1063.72Z"/><path class="cls-4" d="M599,1063.51s0,.07,0,.21a21.76,21.76,0,0,1-.26,2.38.15.15,0,0,0,0,0c-.71,4.45-3.29,14.65-12.58,31.36-9.29-16.71-11.87-26.91-12.58-31.36a.14.14,0,0,1,0,0,21.77,21.77,0,0,1-.26-2.38c0-.07,0-.14,0-.21a12.86,12.86,0,1,1,25.71,0Z"/><path class="cls-4" d="M555.05,1034a12.56,12.56,0,0,1-.26-2.38A21.77,21.77,0,0,0,555.05,1034Z"/><path class="cls-4" d="M580.5,1031.66a12.56,12.56,0,0,1-.26,2.38A21.76,21.76,0,0,0,580.5,1031.66Z"/><path class="cls-4" d="M580.5,1031.45s0,.07,0,.21a21.76,21.76,0,0,1-.26,2.38.15.15,0,0,0,0,0c-.71,4.45-3.29,14.65-12.58,31.36-9.29-16.71-11.87-26.91-12.58-31.36a.14.14,0,0,1,0,0,21.77,21.77,0,0,1-.26-2.38c0-.07,0-.14,0-.21a12.86,12.86,0,0,1,25.71,0Z"/><path class="cls-4" d="M676,1048.16a5.53,5.53,0,0,1-5.53,5.53H652V1092a5.53,5.53,0,0,1-11.07,0v-38.28h-18.5a5.53,5.53,0,0,1,0-11.07h18.5v-18.5a5.53,5.53,0,0,1,11.07,0v18.5h18.5A5.53,5.53,0,0,1,676,1048.16Z"/><path class="cls-4" d="M16.67,305.59a12.56,12.56,0,0,0-.26,2.38A21.77,21.77,0,0,1,16.67,305.59Z"/><path class="cls-4" d="M42.11,308a12.56,12.56,0,0,0-.26-2.38A21.76,21.76,0,0,1,42.11,308Z"/><path class="cls-4" d="M42.11,308.18s0-.07,0-.21a21.76,21.76,0,0,0-.26-2.38.15.15,0,0,1,0,0c-.71-4.45-3.29-14.65-12.58-31.36C20,290.89,17.39,301.09,16.67,305.54a.14.14,0,0,0,0,0,21.77,21.77,0,0,0-.26,2.38c0,.07,0,.14,0,.21a12.86,12.86,0,0,0,25.71,0Z"/><path class="cls-4" d="M23.64,340a12.56,12.56,0,0,0-.26-2.38A21.76,21.76,0,0,1,23.64,340Z"/><path class="cls-4" d="M23.65,340.24s0-.07,0-.21a21.76,21.76,0,0,0-.26-2.38.15.15,0,0,1,0,0c-.71-4.45-3.29-14.65-12.58-31.36C1.5,323-1.08,333.15-1.79,337.61a.14.14,0,0,0,0,0A21.77,21.77,0,0,0-2.06,340c0,.07,0,.14,0,.21a12.86,12.86,0,1,0,25.71,0Z"/><path class="cls-4" d="M119.13,323.53A5.53,5.53,0,0,0,113.6,318H95.1V279.71a5.53,5.53,0,0,0-11.07,0V318H65.53a5.53,5.53,0,0,0,0,11.07H84v18.5a5.53,5.53,0,0,0,11.07,0v-18.5h18.5A5.53,5.53,0,0,0,119.13,323.53Z"/><path class="cls-4" d="M143.12,274.18h35a1.72,1.72,0,0,1,1.52,2.55l-17.06,31.5a1.72,1.72,0,0,0,1.52,2.55h14.3a1.72,1.72,0,0,1,1.58,2.41l-17.15,39.57a.57.57,0,0,1-1.1-.3l4.4-29.23c.13-1-.33-1.9-1.37-1.9L149,323.81a1.72,1.72,0,0,1-2.24-1.44L141.4,275.9A1.72,1.72,0,0,1,143.12,274.18Z"/><path class="cls-4" d="M199.22,323.86A17.06,17.06,0,0,1,205,311l0,0,23.67-22.44,2.35-2.22,2.35,2.22L257.1,311l0,0a17.1,17.1,0,1,1-26,21.5,17.1,17.1,0,0,1-31.86-8.65Z"/><path class="cls-4" d="M318.78,307.15l-1.89,17.29-3.79-27.57L308,310.12l-7.57-35.94-9.73,39.87-3-9.6L282,338l21.75,15.14L325.54,338Zm-15,36.48L291.31,338l-4.15-1.89,6.07-15.94,4.47,10.29L302,312.83l8.38,17.84,1.89-4.59,7.57,10-4,1.89Z"/><path class="cls-4" d="M362.15,321.69a12.56,12.56,0,0,1-.26-2.38A21.77,21.77,0,0,0,362.15,321.69Z"/><path class="cls-4" d="M387.6,319.31a12.56,12.56,0,0,1-.26,2.38A21.76,21.76,0,0,0,387.6,319.31Z"/><path class="cls-4" d="M387.6,319.1s0,.07,0,.21a21.76,21.76,0,0,1-.26,2.38.15.15,0,0,0,0,0c-.71,4.45-3.29,14.65-12.58,31.36-9.29-16.71-11.87-26.91-12.58-31.36a.14.14,0,0,1,0,0,21.77,21.77,0,0,1-.26-2.38c0-.07,0-.14,0-.21a12.86,12.86,0,0,1,25.71,0Z"/><path class="cls-4" d="M343.69,289.63a12.56,12.56,0,0,1-.26-2.38A21.77,21.77,0,0,0,343.69,289.63Z"/><path class="cls-4" d="M369.13,287.24a12.56,12.56,0,0,1-.26,2.38A21.76,21.76,0,0,0,369.13,287.24Z"/><path class="cls-4" d="M369.13,287s0,.07,0,.21a21.76,21.76,0,0,1-.26,2.38.15.15,0,0,0,0,0c-.71,4.45-3.29,14.65-12.58,31.36-9.29-16.71-11.87-26.91-12.58-31.36a.14.14,0,0,1,0,0,21.77,21.77,0,0,1-.26-2.38c0-.07,0-.14,0-.21a12.86,12.86,0,1,1,25.71,0Z"/><path class="cls-4" d="M464.62,303.75a5.53,5.53,0,0,1-5.53,5.53h-18.5v38.28a5.53,5.53,0,0,1-11.07,0V309.28H411a5.53,5.53,0,0,1,0-11.07h18.5v-18.5a5.53,5.53,0,0,1,11.07,0v18.5h18.5A5.53,5.53,0,0,1,464.62,303.75Z"/><path class="cls-4" d="M486.33,353.1h35a1.72,1.72,0,0,0,1.52-2.55l-17.06-31.5a1.72,1.72,0,0,1,1.52-2.55h14.3a1.72,1.72,0,0,0,1.58-2.41L506,274.53a.57.57,0,0,0-1.1.3l4.4,29.23c.13,1-.33,1.9-1.37,1.9l-15.83-2.49a1.72,1.72,0,0,0-2.24,1.44l-5.32,46.46A1.72,1.72,0,0,0,486.33,353.1Z"/><path class="cls-4" d="M542.43,303.42a17.06,17.06,0,0,0,5.82,12.85l0,0,23.67,22.44,2.35,2.22,2.35-2.22,23.67-22.44,0,0a17.1,17.1,0,1,0-26-21.5,17.1,17.1,0,0,0-31.86,8.65Z"/><path class="cls-4" d="M668.74,289.32,647,274.18l-21.75,15.14,5.68,33.51,3-9.6,9.73,39.87,7.57-35.94,5.13,13.24,3.79-27.57L662,320.12Zm-9.7,0,4,1.89-7.57,10-1.89-4.59-8.38,17.84-4.32-17.59-4.47,10.29-6.07-15.94,4.15-1.89L647,283.64Z"/><path class="cls-4" d="M705.36,305.59a12.56,12.56,0,0,0-.26,2.38A21.77,21.77,0,0,1,705.36,305.59Z"/><path class="cls-4" d="M730.8,308a12.56,12.56,0,0,0-.26-2.38A21.76,21.76,0,0,1,730.8,308Z"/><path class="cls-4" d="M730.81,308.18s0-.07,0-.21a21.76,21.76,0,0,0-.26-2.38.15.15,0,0,1,0,0c-.71-4.45-3.29-14.65-12.58-31.36-9.29,16.71-11.87,26.91-12.58,31.36a.14.14,0,0,0,0,0,21.77,21.77,0,0,0-.26,2.38c0,.07,0,.14,0,.21a12.86,12.86,0,0,0,25.71,0Z"/><path class="cls-4" d="M686.89,337.65a12.56,12.56,0,0,0-.26,2.38A21.77,21.77,0,0,1,686.89,337.65Z"/><path class="cls-4" d="M712.33,340a12.56,12.56,0,0,0-.26-2.38A21.76,21.76,0,0,1,712.33,340Z"/><path class="cls-4" d="M712.34,340.24s0-.07,0-.21a21.76,21.76,0,0,0-.26-2.38.15.15,0,0,1,0,0c-.71-4.45-3.29-14.65-12.58-31.36-9.29,16.71-11.87,26.91-12.58,31.36a.14.14,0,0,0,0,0,21.77,21.77,0,0,0-.26,2.38c0,.07,0,.14,0,.21a12.86,12.86,0,1,0,25.71,0Z"/><path class="cls-4" d="M807.82,323.53a5.53,5.53,0,0,0-5.53-5.53h-18.5V279.71a5.53,5.53,0,0,0-11.07,0V318h-18.5a5.53,5.53,0,0,0,0,11.07h18.5v18.5a5.53,5.53,0,0,0,11.07,0v-18.5h18.5A5.53,5.53,0,0,0,807.82,323.53Z"/><path class="cls-4" d="M16.67,518.27a12.56,12.56,0,0,0-.26,2.38A21.77,21.77,0,0,1,16.67,518.27Z"/><path class="cls-4" d="M42.11,520.66a12.56,12.56,0,0,0-.26-2.38A21.76,21.76,0,0,1,42.11,520.66Z"/><path class="cls-4" d="M42.11,520.87s0-.07,0-.21a21.76,21.76,0,0,0-.26-2.38.15.15,0,0,1,0,0c-.71-4.45-3.29-14.65-12.58-31.36C20,503.58,17.39,513.78,16.67,518.23a.14.14,0,0,0,0,0,21.77,21.77,0,0,0-.26,2.38c0,.07,0,.14,0,.21a12.86,12.86,0,0,0,25.71,0Z"/><path class="cls-4" d="M23.64,552.72a12.56,12.56,0,0,0-.26-2.38A21.76,21.76,0,0,1,23.64,552.72Z"/><path class="cls-4" d="M23.65,552.93s0-.07,0-.21a21.76,21.76,0,0,0-.26-2.38.15.15,0,0,1,0,0c-.71-4.45-3.29-14.65-12.58-31.36C1.5,535.64-1.08,545.84-1.79,550.29a.14.14,0,0,0,0,0,21.77,21.77,0,0,0-.26,2.38c0,.07,0,.14,0,.21a12.86,12.86,0,0,0,25.71,0Z"/><path class="cls-4" d="M119.13,536.22a5.53,5.53,0,0,0-5.53-5.53H95.1V492.4a5.53,5.53,0,0,0-11.07,0v38.28H65.53a5.53,5.53,0,0,0,0,11.07H84v18.5a5.53,5.53,0,0,0,11.07,0v-18.5h18.5A5.53,5.53,0,0,0,119.13,536.22Z"/><path class="cls-4" d="M143.12,486.87h35a1.72,1.72,0,0,1,1.52,2.55l-17.06,31.5a1.72,1.72,0,0,0,1.52,2.55h14.3a1.72,1.72,0,0,1,1.58,2.41l-17.15,39.57a.57.57,0,0,1-1.1-.3l4.4-29.23c.13-1-.33-1.9-1.37-1.9L149,536.5a1.72,1.72,0,0,1-2.24-1.44l-5.32-46.46A1.72,1.72,0,0,1,143.12,486.87Z"/><path class="cls-4" d="M199.22,536.55A17.06,17.06,0,0,1,205,523.69l0,0,23.67-22.44,2.35-2.22,2.35,2.22,23.67,22.44,0,0a17.1,17.1,0,1,1-26,21.5,17.1,17.1,0,0,1-31.86-8.65Z"/><path class="cls-4" d="M318.78,519.84l-1.89,17.29-3.79-27.57L308,522.81l-7.57-35.94-9.73,39.87-3-9.6L282,550.65l21.75,15.14,21.76-15.14Zm-15,36.48-12.47-5.68-4.15-1.89,6.07-15.94,4.47,10.29L302,525.52l8.38,17.84,1.89-4.59,7.57,10-4,1.89Z"/><path class="cls-4" d="M362.15,534.38a12.56,12.56,0,0,1-.26-2.38A21.77,21.77,0,0,0,362.15,534.38Z"/><path class="cls-4" d="M387.6,532a12.56,12.56,0,0,1-.26,2.38A21.76,21.76,0,0,0,387.6,532Z"/><path class="cls-4" d="M387.6,531.79s0,.07,0,.21a21.76,21.76,0,0,1-.26,2.38.15.15,0,0,0,0,0c-.71,4.45-3.29,14.65-12.58,31.36-9.29-16.71-11.87-26.91-12.58-31.36a.14.14,0,0,1,0,0,21.77,21.77,0,0,1-.26-2.38c0-.07,0-.14,0-.21a12.86,12.86,0,0,1,25.71,0Z"/><path class="cls-4" d="M343.69,502.32a12.56,12.56,0,0,1-.26-2.38A21.77,21.77,0,0,0,343.69,502.32Z"/><path class="cls-4" d="M369.13,499.93a12.56,12.56,0,0,1-.26,2.38A21.76,21.76,0,0,0,369.13,499.93Z"/><path class="cls-4" d="M369.13,499.72s0,.07,0,.21a21.76,21.76,0,0,1-.26,2.38.15.15,0,0,0,0,0c-.71,4.45-3.29,14.65-12.58,31.36C347,517,344.41,506.81,343.7,502.36a.14.14,0,0,1,0,0,21.77,21.77,0,0,1-.26-2.38c0-.07,0-.14,0-.21a12.86,12.86,0,1,1,25.71,0Z"/><path class="cls-4" d="M464.62,516.44a5.53,5.53,0,0,1-5.53,5.53h-18.5v38.28a5.53,5.53,0,0,1-11.07,0V522H411a5.53,5.53,0,0,1,0-11.07h18.5V492.4a5.53,5.53,0,0,1,11.07,0v18.5h18.5A5.53,5.53,0,0,1,464.62,516.44Z"/><path class="cls-4" d="M486.33,565.79h35a1.72,1.72,0,0,0,1.52-2.55l-17.06-31.5a1.72,1.72,0,0,1,1.52-2.55h14.3a1.72,1.72,0,0,0,1.58-2.41L506,487.22a.57.57,0,0,0-1.1.3l4.4,29.23c.13,1-.33,1.9-1.37,1.9l-15.83-2.49a1.72,1.72,0,0,0-2.24,1.44l-5.32,46.46A1.72,1.72,0,0,0,486.33,565.79Z"/><path class="cls-4" d="M542.43,516.11A17.06,17.06,0,0,0,548.25,529l0,0,23.67,22.44,2.35,2.22,2.35-2.22L600.3,529l0,0a17.1,17.1,0,1,0-26-21.5,17.1,17.1,0,0,0-31.86,8.65Z"/><path class="cls-4" d="M668.74,502,647,486.87,625.23,502l5.68,33.51,3-9.6,9.73,39.87,7.57-35.94,5.13,13.24,3.79-27.57L662,532.81Zm-9.7,0,4,1.89-7.57,10-1.89-4.59-8.38,17.84-4.32-17.59-4.47,10.29-6.07-15.94,4.15-1.89L647,496.33Z"/><path class="cls-4" d="M705.36,518.27a12.56,12.56,0,0,0-.26,2.38A21.77,21.77,0,0,1,705.36,518.27Z"/><path class="cls-4" d="M730.8,520.66a12.56,12.56,0,0,0-.26-2.38A21.76,21.76,0,0,1,730.8,520.66Z"/><path class="cls-4" d="M730.81,520.87s0-.07,0-.21a21.76,21.76,0,0,0-.26-2.38.15.15,0,0,1,0,0c-.71-4.45-3.29-14.65-12.58-31.36-9.29,16.71-11.87,26.91-12.58,31.36a.14.14,0,0,0,0,0,21.77,21.77,0,0,0-.26,2.38c0,.07,0,.14,0,.21a12.86,12.86,0,0,0,25.71,0Z"/><path class="cls-4" d="M686.89,550.34a12.56,12.56,0,0,0-.26,2.38A21.77,21.77,0,0,1,686.89,550.34Z"/><path class="cls-4" d="M712.33,552.72a12.56,12.56,0,0,0-.26-2.38A21.76,21.76,0,0,1,712.33,552.72Z"/><path class="cls-4" d="M712.34,552.93s0-.07,0-.21a21.76,21.76,0,0,0-.26-2.38.15.15,0,0,1,0,0c-.71-4.45-3.29-14.65-12.58-31.36-9.29,16.71-11.87,26.91-12.58,31.36a.14.14,0,0,0,0,0,21.77,21.77,0,0,0-.26,2.38c0,.07,0,.14,0,.21a12.86,12.86,0,0,0,25.71,0Z"/><path class="cls-4" d="M807.82,536.22a5.53,5.53,0,0,0-5.53-5.53h-18.5V492.4a5.53,5.53,0,0,0-11.07,0v38.28h-18.5a5.53,5.53,0,0,0,0,11.07h18.5v18.5a5.53,5.53,0,0,0,11.07,0v-18.5h18.5A5.53,5.53,0,0,0,807.82,536.22Z"/><path class="cls-4" d="M11.28,459.44h35a1.72,1.72,0,0,0,1.52-2.55L30.76,425.4a1.72,1.72,0,0,1,1.52-2.55h14.3a1.72,1.72,0,0,0,1.58-2.41L31,380.87a.57.57,0,0,0-1.1.3l4.4,29.23c.13,1-.33,1.9-1.37,1.9l-15.83-2.49a1.72,1.72,0,0,0-2.24,1.44L9.56,457.72A1.72,1.72,0,0,0,11.28,459.44Z"/><path class="cls-4" d="M67.39,409.76a17.06,17.06,0,0,0,5.82,12.85l0,0L96.9,445.08l2.35,2.22,2.35-2.22,23.67-22.44,0,0a17.1,17.1,0,1,0-26-21.5,17.1,17.1,0,0,0-31.86,8.65Z"/><path class="cls-4" d="M193.7,395.66l-21.76-15.14-21.75,15.14,5.68,33.51,3-9.6,9.73,39.87,7.57-35.94,5.13,13.24,3.79-27.57,1.89,17.29Zm-9.7,0,4,1.89-7.57,10L178.56,403l-8.38,17.84-4.32-17.59-4.47,10.29-6.07-15.94,4.15-1.89L171.94,390Z"/><path class="cls-4" d="M230.31,411.93a12.56,12.56,0,0,0-.26,2.38A21.77,21.77,0,0,1,230.31,411.93Z"/><path class="cls-4" d="M255.76,414.31a12.56,12.56,0,0,0-.26-2.38A21.76,21.76,0,0,1,255.76,414.31Z"/><path class="cls-4" d="M255.76,414.52s0-.07,0-.21a21.76,21.76,0,0,0-.26-2.38.15.15,0,0,1,0,0c-.71-4.45-3.29-14.65-12.58-31.36-9.29,16.71-11.87,26.91-12.58,31.36a.14.14,0,0,0,0,0,21.77,21.77,0,0,0-.26,2.38c0,.07,0,.14,0,.21a12.86,12.86,0,0,0,25.71,0Z"/><path class="cls-4" d="M211.85,444a12.56,12.56,0,0,0-.26,2.38A21.77,21.77,0,0,1,211.85,444Z"/><path class="cls-4" d="M237.29,446.38A12.56,12.56,0,0,0,237,444,21.76,21.76,0,0,1,237.29,446.38Z"/><path class="cls-4" d="M237.3,446.59s0-.07,0-.21A21.76,21.76,0,0,0,237,444a.15.15,0,0,1,0,0c-.71-4.45-3.29-14.65-12.58-31.36-9.29,16.71-11.87,26.91-12.58,31.36a.14.14,0,0,0,0,0,21.77,21.77,0,0,0-.26,2.38c0,.07,0,.14,0,.21a12.86,12.86,0,0,0,25.71,0Z"/><path class="cls-4" d="M332.78,429.87a5.53,5.53,0,0,0-5.53-5.53h-18.5V386.06a5.53,5.53,0,0,0-11.07,0v38.28h-18.5a5.53,5.53,0,0,0,0,11.07h18.5v18.5a5.53,5.53,0,0,0,11.07,0v-18.5h18.5A5.53,5.53,0,0,0,332.78,429.87Z"/><path class="cls-4" d="M354.49,380.52h35a1.72,1.72,0,0,1,1.52,2.55L374,414.57a1.72,1.72,0,0,0,1.52,2.55h14.3a1.72,1.72,0,0,1,1.58,2.41l-17.15,39.57a.57.57,0,0,1-1.1-.3l4.4-29.23c.13-1-.33-1.9-1.37-1.9l-15.83,2.49a1.72,1.72,0,0,1-2.24-1.44l-5.32-46.46A1.72,1.72,0,0,1,354.49,380.52Z"/><path class="cls-4" d="M410.59,430.2a17.06,17.06,0,0,1,5.82-12.85l0,0,23.67-22.44,2.35-2.22,2.35,2.22,23.67,22.44,0,0a17.1,17.1,0,1,1-26,21.5,17.1,17.1,0,0,1-31.86-8.65Z"/><path class="cls-4" d="M530.15,413.5l-1.89,17.29-3.79-27.57-5.13,13.24-7.57-35.94L502,420.4l-3-9.6-5.68,33.51,21.75,15.14,21.76-15.14Zm-15,36.48-12.47-5.68-4.15-1.89,6.07-15.94,4.47,10.29,4.32-17.59L521.77,437l1.89-4.59,7.57,10-4,1.89Z"/><path class="cls-4" d="M573.52,428a12.56,12.56,0,0,1-.26-2.38A21.77,21.77,0,0,0,573.52,428Z"/><path class="cls-4" d="M599,425.65a12.56,12.56,0,0,1-.26,2.38A21.76,21.76,0,0,0,599,425.65Z"/><path class="cls-4" d="M599,425.44s0,.07,0,.21a21.76,21.76,0,0,1-.26,2.38.15.15,0,0,0,0,0c-.71,4.45-3.29,14.65-12.58,31.36-9.29-16.71-11.87-26.91-12.58-31.36a.14.14,0,0,1,0,0,21.77,21.77,0,0,1-.26-2.38c0-.07,0-.14,0-.21a12.86,12.86,0,0,1,25.71,0Z"/><path class="cls-4" d="M555.05,396a12.56,12.56,0,0,1-.26-2.38A21.77,21.77,0,0,0,555.05,396Z"/><path class="cls-4" d="M580.5,393.59a12.56,12.56,0,0,1-.26,2.38A21.76,21.76,0,0,0,580.5,393.59Z"/><path class="cls-4" d="M580.5,393.38s0,.07,0,.21a21.76,21.76,0,0,1-.26,2.38.15.15,0,0,0,0,0c-.71,4.45-3.29,14.65-12.58,31.36-9.29-16.71-11.87-26.91-12.58-31.36a.14.14,0,0,1,0,0,21.77,21.77,0,0,1-.26-2.38c0-.07,0-.14,0-.21a12.86,12.86,0,0,1,25.71,0Z"/><path class="cls-4" d="M676,410.09a5.53,5.53,0,0,1-5.53,5.53H652v38.28a5.53,5.53,0,0,1-11.07,0V415.63h-18.5a5.53,5.53,0,0,1,0-11.07h18.5v-18.5a5.53,5.53,0,0,1,11.07,0v18.5h18.5A5.53,5.53,0,0,1,676,410.09Z"/><path class="cls-4" d="M693.9,34.06h35a1.72,1.72,0,0,0,1.52-2.55L713.37,0a1.72,1.72,0,0,1,1.52-2.55h14.3a1.72,1.72,0,0,0,1.58-2.41L713.62-44.51a.57.57,0,0,0-1.1.3L716.93-15c.13,1-.33,1.9-1.37,1.9l-15.83-2.49a1.72,1.72,0,0,0-2.24,1.44l-5.32,46.46A1.72,1.72,0,0,0,693.9,34.06Z"/><path class="cls-4" d="M750-15.61a17.06,17.06,0,0,0,5.82,12.85l0,0L779.51,19.7l2.35,2.22,2.35-2.22L807.88-2.74l0,0a17.06,17.06,0,0,0,5.82-12.85,17.1,17.1,0,0,0-17.1-17.1,17.08,17.08,0,0,0-14.75,8.45,17.08,17.08,0,0,0-14.75-8.45A17.1,17.1,0,0,0,750-15.61Z"/><path class="cls-4" d="M876.32-29.72,854.56-44.85,832.8-29.72l5.68,33.51,3-9.6,9.73,39.87,7.57-35.94,5.13,13.24,3.79-27.57,1.89,17.29Zm-9.7,0,4,1.89-7.57,10-1.89-4.59L852.8-4.58l-4.32-17.59L844-11.88l-6.07-15.94,4.15-1.89,12.47-5.68Z"/><path class="cls-4" d="M938.38-10.86s0-.07,0-.21a21.76,21.76,0,0,0-.26-2.38.15.15,0,0,1,0,0c-.71-4.45-3.29-14.65-12.58-31.36-9.29,16.71-11.87,26.91-12.58,31.36a.14.14,0,0,0,0,0,21.77,21.77,0,0,0-.26,2.38c0,.07,0,.14,0,.21A12.85,12.85,0,0,0,925.52,2,12.85,12.85,0,0,0,938.38-10.86Z"/><path class="cls-4" d="M894.46,18.62a12.56,12.56,0,0,0-.26,2.38A21.77,21.77,0,0,1,894.46,18.62Z"/><path class="cls-4" d="M919.91,21a12.56,12.56,0,0,0-.26-2.38A21.76,21.76,0,0,1,919.91,21Z"/><path class="cls-4" d="M919.91,21.21s0-.07,0-.21a21.76,21.76,0,0,0-.26-2.38.15.15,0,0,1,0,0c-.71-4.45-3.29-14.65-12.58-31.36-9.29,16.71-11.87,26.91-12.58,31.36a.14.14,0,0,0,0,0,21.77,21.77,0,0,0-.26,2.38c0,.07,0,.14,0,.21a12.86,12.86,0,0,0,25.71,0Z"/><path class="cls-4" d="M1015.4,4.49A5.53,5.53,0,0,0,1009.86-1h-18.5V-39.32a5.53,5.53,0,0,0-5.53-5.53,5.52,5.52,0,0,0-3.91,1.62,5.52,5.52,0,0,0-1.62,3.91V-1H961.8a5.53,5.53,0,0,0,0,11.07h18.5v18.5a5.53,5.53,0,0,0,11.07,0V10h18.5A5.53,5.53,0,0,0,1015.4,4.49Z"/><path class="cls-4" d="M1037.11-44.85h35a1.72,1.72,0,0,1,1.52,2.55l-17.06,31.5a1.72,1.72,0,0,0,1.52,2.55h14.3A1.72,1.72,0,0,1,1074-5.85l-17.15,39.57a.57.57,0,0,1-1.1-.3l4.4-29.23c.13-1-.33-1.9-1.37-1.9l-15.83,2.49a1.72,1.72,0,0,1-2.24-1.44l-5.32-46.46A1.72,1.72,0,0,1,1037.11-44.85Z"/><path class="cls-4" d="M1093.21,4.82A17.06,17.06,0,0,1,1099-8l0,0,23.67-22.44,2.35-2.22,2.35,2.22L1151.08-8l0,0a17.1,17.1,0,1,1-26,21.5,17.1,17.1,0,0,1-31.86-8.65Z"/><path class="cls-4" d="M1212.77-11.88l-1.89,17.29-3.79-27.57L1202-8.91l-7.57-35.94L1184.66-5l-3-9.6L1176,18.93l21.75,15.14,21.76-15.14Zm-15,36.48-12.47-5.68L1181.14,17l6.07-15.94,4.47,10.29L1196-6.21l8.38,17.84L1206.28,7l7.57,10-4,1.89Z"/><path class="cls-4" d="M1256.14,2.66a12.56,12.56,0,0,1-.26-2.38A21.76,21.76,0,0,0,1256.14,2.66Z"/><path class="cls-4" d="M1281.58.27a12.56,12.56,0,0,1-.26,2.38A21.76,21.76,0,0,0,1281.58.27Z"/><path class="cls-4" d="M1281.58.07s0,.07,0,.21a21.76,21.76,0,0,1-.26,2.38.15.15,0,0,0,0,0c-.72,4.45-3.29,14.65-12.58,31.36-9.29-16.71-11.87-26.91-12.58-31.36a.14.14,0,0,1,0,0,21.76,21.76,0,0,1-.26-2.38c0-.07,0-.14,0-.21a12.86,12.86,0,0,1,25.71,0Z"/><path class="cls-4" d="M1263.12-32s0,.07,0,.21a21.76,21.76,0,0,1-.26,2.38.15.15,0,0,0,0,0c-.72,4.45-3.29,14.65-12.58,31.36-9.29-16.71-11.87-26.91-12.58-31.36a.14.14,0,0,1,0,0,21.76,21.76,0,0,1-.26-2.38c0-.07,0-.14,0-.21a12.85,12.85,0,0,1,12.86-12.86A12.85,12.85,0,0,1,1263.12-32Z"/><path class="cls-4" d="M1358.6-15.28a5.52,5.52,0,0,1-1.62,3.91,5.52,5.52,0,0,1-3.91,1.62h-18.5V28.53a5.53,5.53,0,0,1-11.07,0V-9.75H1305a5.53,5.53,0,0,1-5.53-5.53,5.52,5.52,0,0,1,1.62-3.91,5.52,5.52,0,0,1,3.91-1.62h18.5v-18.5a5.53,5.53,0,0,1,5.53-5.53,5.52,5.52,0,0,1,3.91,1.62,5.52,5.52,0,0,1,1.62,3.91v18.5h18.5A5.53,5.53,0,0,1,1358.6-15.28Z"/><path class="cls-4" d="M1382.59,34.06h35a1.72,1.72,0,0,0,1.52-2.55L1402.07,0a1.72,1.72,0,0,1,1.52-2.55h14.3a1.72,1.72,0,0,0,1.58-2.41l-17.15-39.57a.57.57,0,0,0-1.1.3l4.4,29.23c.13,1-.33,1.9-1.37,1.9l-15.83-2.49a1.72,1.72,0,0,0-2.24,1.44l-5.32,46.46A1.72,1.72,0,0,0,1382.59,34.06Z"/><path class="cls-4" d="M1438.7-15.61a17.06,17.06,0,0,0,5.82,12.85l0,0,23.67,22.44,2.35,2.22,2.35-2.22,23.67-22.44,0,0a17.06,17.06,0,0,0,5.82-12.85,17.1,17.1,0,0,0-17.1-17.1,17.08,17.08,0,0,0-14.75,8.45,17.08,17.08,0,0,0-14.75-8.45A17.1,17.1,0,0,0,1438.7-15.61Z"/><path class="cls-4" d="M693.9,246.75h35a1.72,1.72,0,0,0,1.52-2.55l-17.06-31.5a1.72,1.72,0,0,1,1.52-2.55h14.3a1.72,1.72,0,0,0,1.58-2.41l-17.15-39.57a.57.57,0,0,0-1.1.3l4.4,29.23c.13,1-.33,1.9-1.37,1.9l-15.83-2.49a1.72,1.72,0,0,0-2.24,1.44L692.18,245A1.72,1.72,0,0,0,693.9,246.75Z"/><path class="cls-4" d="M750,197.08a17.06,17.06,0,0,0,5.82,12.85l0,0,23.67,22.44,2.35,2.22,2.35-2.22,23.67-22.44,0,0a17.1,17.1,0,1,0-26-21.5A17.1,17.1,0,0,0,750,197.08Z"/><path class="cls-4" d="M876.32,183l-21.76-15.14L832.8,183l5.68,33.51,3-9.6,9.73,39.87,7.57-35.94L863.88,224l3.79-27.57,1.89,17.29Zm-9.7,0,4,1.89-7.57,10-1.89-4.59-8.38,17.84-4.32-17.59L844,200.81l-6.07-15.94,4.15-1.89,12.47-5.68Z"/><path class="cls-4" d="M912.93,199.24a12.56,12.56,0,0,0-.26,2.38A21.77,21.77,0,0,1,912.93,199.24Z"/><path class="cls-4" d="M938.37,201.62a12.56,12.56,0,0,0-.26-2.38A21.76,21.76,0,0,1,938.37,201.62Z"/><path class="cls-4" d="M938.38,201.83s0-.07,0-.21a21.76,21.76,0,0,0-.26-2.38.15.15,0,0,1,0,0c-.71-4.45-3.29-14.65-12.58-31.36-9.29,16.71-11.87,26.91-12.58,31.36a.14.14,0,0,0,0,0,21.77,21.77,0,0,0-.26,2.38c0,.07,0,.14,0,.21a12.86,12.86,0,1,0,25.71,0Z"/><path class="cls-4" d="M894.46,231.31a12.56,12.56,0,0,0-.26,2.38A21.77,21.77,0,0,1,894.46,231.31Z"/><path class="cls-4" d="M919.91,233.69a12.56,12.56,0,0,0-.26-2.38A21.76,21.76,0,0,1,919.91,233.69Z"/><path class="cls-4" d="M919.91,233.9s0-.07,0-.21a21.76,21.76,0,0,0-.26-2.38.15.15,0,0,1,0,0c-.71-4.45-3.29-14.65-12.58-31.36-9.29,16.71-11.87,26.91-12.58,31.36a.14.14,0,0,0,0,0,21.77,21.77,0,0,0-.26,2.38c0,.07,0,.14,0,.21a12.86,12.86,0,0,0,25.71,0Z"/><path class="cls-4" d="M1015.4,217.18a5.53,5.53,0,0,0-5.53-5.53h-18.5V173.37a5.53,5.53,0,0,0-11.07,0v38.28H961.8a5.53,5.53,0,0,0,0,11.07h18.5v18.5a5.53,5.53,0,0,0,11.07,0v-18.5h18.5A5.53,5.53,0,0,0,1015.4,217.18Z"/><path class="cls-4" d="M1037.11,167.84h35a1.72,1.72,0,0,1,1.52,2.55l-17.06,31.5a1.72,1.72,0,0,0,1.52,2.55h14.3a1.72,1.72,0,0,1,1.58,2.41l-17.15,39.57a.57.57,0,0,1-1.1-.3l4.4-29.23c.13-1-.33-1.9-1.37-1.9l-15.83,2.49a1.72,1.72,0,0,1-2.24-1.44l-5.32-46.46A1.72,1.72,0,0,1,1037.11,167.84Z"/><path class="cls-4" d="M1093.21,217.51a17.06,17.06,0,0,1,5.82-12.85l0,0,23.67-22.44,2.35-2.22,2.35,2.22,23.67,22.44,0,0a17.1,17.1,0,1,1-26,21.5,17.1,17.1,0,0,1-31.86-8.65Z"/><path class="cls-4" d="M1212.77,200.81l-1.89,17.29-3.79-27.57L1202,203.78l-7.57-35.94-9.73,39.87-3-9.6L1176,231.62l21.75,15.14,21.76-15.14Zm-15,36.48-12.47-5.68-4.15-1.89,6.07-15.94,4.47,10.29,4.32-17.59,8.38,17.84,1.89-4.59,7.57,10-4,1.89Z"/><path class="cls-4" d="M1256.14,215.35a12.56,12.56,0,0,1-.26-2.38A21.76,21.76,0,0,0,1256.14,215.35Z"/><path class="cls-4" d="M1281.58,213a12.56,12.56,0,0,1-.26,2.38A21.76,21.76,0,0,0,1281.58,213Z"/><path class="cls-4" d="M1281.58,212.76s0,.07,0,.21a21.76,21.76,0,0,1-.26,2.38.15.15,0,0,0,0,0c-.72,4.45-3.29,14.65-12.58,31.36-9.29-16.71-11.87-26.91-12.58-31.36a.14.14,0,0,1,0,0,21.76,21.76,0,0,1-.26-2.38c0-.07,0-.14,0-.21a12.86,12.86,0,0,1,25.71,0Z"/><path class="cls-4" d="M1237.67,183.28a12.56,12.56,0,0,1-.26-2.38A21.76,21.76,0,0,0,1237.67,183.28Z"/><path class="cls-4" d="M1263.11,180.9a12.56,12.56,0,0,1-.26,2.38A21.76,21.76,0,0,0,1263.11,180.9Z"/><path class="cls-4" d="M1263.12,180.69s0,.07,0,.21a21.76,21.76,0,0,1-.26,2.38.15.15,0,0,0,0,0c-.72,4.45-3.29,14.65-12.58,31.36-9.29-16.71-11.87-26.91-12.58-31.36a.14.14,0,0,1,0,0,21.76,21.76,0,0,1-.26-2.38c0-.07,0-.14,0-.21a12.86,12.86,0,0,1,25.71,0Z"/><path class="cls-4" d="M1358.6,197.4a5.53,5.53,0,0,1-5.53,5.53h-18.5v38.28a5.53,5.53,0,0,1-11.07,0V202.94H1305a5.53,5.53,0,0,1,0-11.07h18.5v-18.5a5.53,5.53,0,0,1,11.07,0v18.5h18.5A5.53,5.53,0,0,1,1358.6,197.4Z"/><path class="cls-4" d="M1382.59,246.75h35a1.72,1.72,0,0,0,1.52-2.55l-17.06-31.5a1.72,1.72,0,0,1,1.52-2.55h14.3a1.72,1.72,0,0,0,1.58-2.41l-17.15-39.57a.57.57,0,0,0-1.1.3l4.4,29.23c.13,1-.33,1.9-1.37,1.9l-15.83-2.49a1.72,1.72,0,0,0-2.24,1.44L1380.87,245A1.72,1.72,0,0,0,1382.59,246.75Z"/><path class="cls-4" d="M1438.7,197.08a17.06,17.06,0,0,0,5.82,12.85l0,0,23.67,22.44,2.35,2.22,2.35-2.22,23.67-22.44,0,0a17.1,17.1,0,1,0-26-21.5,17.1,17.1,0,0,0-31.86,8.65Z"/><path class="cls-4" d="M825.74,61.49h35A1.72,1.72,0,0,1,862.27,64l-17.06,31.5a1.72,1.72,0,0,0,1.52,2.55H861a1.72,1.72,0,0,1,1.58,2.41l-17.15,39.57a.57.57,0,0,1-1.1-.3l4.4-29.23c.13-1-.33-1.9-1.37-1.9l-15.83,2.49a1.72,1.72,0,0,1-2.24-1.44L824,63.22A1.72,1.72,0,0,1,825.74,61.49Z"/><path class="cls-4" d="M881.84,111.17a17.06,17.06,0,0,1,5.82-12.85l0,0,23.67-22.44,2.35-2.22L916,75.86,939.71,98.3l0,0a17.1,17.1,0,1,1-26,21.5,17.1,17.1,0,0,1-31.86-8.65Z"/><path class="cls-4" d="M1001.4,94.46l-1.89,17.29-3.79-27.57-5.13,13.24L983,61.49l-9.73,39.87-3-9.6-5.68,33.51,21.75,15.14,21.76-15.14Zm-15,36.48-12.47-5.68-4.15-1.89,6.07-15.94,4.47,10.29,4.32-17.59L993,118l1.89-4.59,7.57,10-4,1.89Z"/><path class="cls-4" d="M1044.77,109a12.56,12.56,0,0,1-.26-2.38A21.76,21.76,0,0,0,1044.77,109Z"/><path class="cls-4" d="M1070.21,106.62A12.56,12.56,0,0,1,1070,109,21.76,21.76,0,0,0,1070.21,106.62Z"/><path class="cls-4" d="M1070.22,106.41s0,.07,0,.21A21.76,21.76,0,0,1,1070,109a.15.15,0,0,0,0,0c-.71,4.45-3.29,14.65-12.58,31.36-9.29-16.71-11.87-26.91-12.58-31.36a.14.14,0,0,1,0,0,21.76,21.76,0,0,1-.26-2.38c0-.07,0-.14,0-.21a12.86,12.86,0,0,1,25.71,0Z"/><path class="cls-4" d="M1026.3,76.94a12.56,12.56,0,0,1-.26-2.38A21.77,21.77,0,0,0,1026.3,76.94Z"/><path class="cls-4" d="M1051.74,74.55a12.56,12.56,0,0,1-.26,2.38A21.76,21.76,0,0,0,1051.74,74.55Z"/><path class="cls-4" d="M1051.75,74.35s0,.07,0,.21a21.76,21.76,0,0,1-.26,2.38.15.15,0,0,0,0,0c-.71,4.45-3.29,14.65-12.58,31.36C1029.6,91.64,1027,81.44,1026.31,77a.14.14,0,0,1,0,0,21.77,21.77,0,0,1-.26-2.38c0-.07,0-.14,0-.21a12.86,12.86,0,0,1,25.71,0Z"/><path class="cls-4" d="M1147.24,91.06a5.53,5.53,0,0,1-5.53,5.53h-18.5v38.28a5.53,5.53,0,0,1-11.07,0V96.59h-18.5a5.53,5.53,0,0,1,0-11.07h18.5V67a5.53,5.53,0,0,1,11.07,0v18.5h18.5A5.53,5.53,0,0,1,1147.24,91.06Z"/><path class="cls-4" d="M1168.94,140.41h35a1.72,1.72,0,0,0,1.52-2.55l-17.06-31.5a1.72,1.72,0,0,1,1.52-2.55h14.3a1.72,1.72,0,0,0,1.58-2.41l-17.15-39.57a.57.57,0,0,0-1.1.3l4.4,29.23c.13,1-.33,1.9-1.37,1.9l-15.83-2.49a1.72,1.72,0,0,0-2.24,1.44l-5.32,46.46A1.72,1.72,0,0,0,1168.94,140.41Z"/><path class="cls-4" d="M1225,90.73a17.06,17.06,0,0,0,5.82,12.85l0,0L1254.56,126l2.35,2.22,2.35-2.22,23.67-22.44,0,0a17.1,17.1,0,1,0-26-21.5A17.1,17.1,0,0,0,1225,90.73Z"/><path class="cls-4" d="M1351.36,76.63,1329.6,61.49l-21.75,15.14,5.68,33.51,3-9.6,9.73,39.87,7.57-35.94,5.13,13.24,3.79-27.57,1.89,17.29Zm-9.7,0,4,1.89-7.57,10-1.89-4.59-8.38,17.84-4.32-17.59L1319,94.46,1313,78.52l4.15-1.89,12.47-5.68Z"/><path class="cls-4" d="M1388,92.9a12.56,12.56,0,0,0-.26,2.38A21.77,21.77,0,0,1,1388,92.9Z"/><path class="cls-4" d="M1413.42,95.28a12.56,12.56,0,0,0-.26-2.38A21.76,21.76,0,0,1,1413.42,95.28Z"/><path class="cls-4" d="M1413.42,95.49s0-.07,0-.21a21.76,21.76,0,0,0-.26-2.38.15.15,0,0,1,0,0c-.71-4.45-3.29-14.65-12.58-31.36C1391.28,78.2,1388.7,88.4,1388,92.85a.14.14,0,0,0,0,0,21.77,21.77,0,0,0-.26,2.38c0,.07,0,.14,0,.21a12.86,12.86,0,1,0,25.71,0Z"/><path class="cls-4" d="M1369.51,125a12.56,12.56,0,0,0-.26,2.38A21.77,21.77,0,0,1,1369.51,125Z"/><path class="cls-4" d="M1395,127.34a12.56,12.56,0,0,0-.26-2.38A21.76,21.76,0,0,1,1395,127.34Z"/><path class="cls-4" d="M1395,127.55s0-.07,0-.21a21.76,21.76,0,0,0-.26-2.38.15.15,0,0,1,0,0c-.71-4.45-3.29-14.65-12.58-31.36-9.29,16.71-11.87,26.91-12.58,31.36a.14.14,0,0,0,0,0,21.77,21.77,0,0,0-.26,2.38c0,.07,0,.14,0,.21a12.86,12.86,0,1,0,25.71,0Z"/><path class="cls-4" d="M1490.44,110.84a5.53,5.53,0,0,0-5.53-5.53h-18.5V67a5.53,5.53,0,0,0-11.07,0v38.28h-18.5a5.53,5.53,0,0,0,0,11.07h18.5v18.5a5.53,5.53,0,0,0,11.07,0v-18.5h18.5A5.53,5.53,0,0,0,1490.44,110.84Z"/><path class="cls-4" d="M693.9,672.13h35a1.72,1.72,0,0,0,1.52-2.55l-17.06-31.5a1.72,1.72,0,0,1,1.52-2.55h14.3a1.72,1.72,0,0,0,1.58-2.41l-17.15-39.57a.57.57,0,0,0-1.1.3l4.4,29.23c.13,1-.33,1.9-1.37,1.9l-15.83-2.49a1.72,1.72,0,0,0-2.24,1.44l-5.32,46.46A1.72,1.72,0,0,0,693.9,672.13Z"/><path class="cls-4" d="M750,622.45a17.06,17.06,0,0,0,5.82,12.85l0,0,23.67,22.44,2.35,2.22,2.35-2.22,23.67-22.44,0,0a17.1,17.1,0,1,0-26-21.5A17.1,17.1,0,0,0,750,622.45Z"/><path class="cls-4" d="M876.32,608.35l-21.76-15.14L832.8,608.35l5.68,33.51,3-9.6,9.73,39.87,7.57-35.94,5.13,13.24,3.79-27.57,1.89,17.29Zm-9.7,0,4,1.89-7.57,10-1.89-4.59-8.38,17.84-4.32-17.59L844,626.18l-6.07-15.94,4.15-1.89,12.47-5.68Z"/><path class="cls-4" d="M912.93,624.62a12.56,12.56,0,0,0-.26,2.38A21.77,21.77,0,0,1,912.93,624.62Z"/><path class="cls-4" d="M938.37,627a12.56,12.56,0,0,0-.26-2.38A21.76,21.76,0,0,1,938.37,627Z"/><path class="cls-4" d="M938.38,627.21s0-.07,0-.21a21.76,21.76,0,0,0-.26-2.38.15.15,0,0,1,0,0c-.71-4.45-3.29-14.65-12.58-31.36-9.29,16.71-11.87,26.91-12.58,31.36a.14.14,0,0,0,0,0,21.77,21.77,0,0,0-.26,2.38c0,.07,0,.14,0,.21a12.86,12.86,0,1,0,25.71,0Z"/><path class="cls-4" d="M894.46,656.68a12.56,12.56,0,0,0-.26,2.38A21.77,21.77,0,0,1,894.46,656.68Z"/><path class="cls-4" d="M919.91,659.07a12.56,12.56,0,0,0-.26-2.38A21.76,21.76,0,0,1,919.91,659.07Z"/><path class="cls-4" d="M919.91,659.28s0-.07,0-.21a21.76,21.76,0,0,0-.26-2.38.15.15,0,0,1,0,0c-.71-4.45-3.29-14.65-12.58-31.36-9.29,16.71-11.87,26.91-12.58,31.36a.14.14,0,0,0,0,0,21.77,21.77,0,0,0-.26,2.38c0,.07,0,.14,0,.21a12.86,12.86,0,0,0,25.71,0Z"/><path class="cls-4" d="M1015.4,642.56a5.53,5.53,0,0,0-5.53-5.53h-18.5V598.75a5.53,5.53,0,0,0-11.07,0V637H961.8a5.53,5.53,0,0,0,0,11.07h18.5v18.5a5.53,5.53,0,0,0,11.07,0v-18.5h18.5A5.53,5.53,0,0,0,1015.4,642.56Z"/><path class="cls-4" d="M1037.11,593.21h35a1.72,1.72,0,0,1,1.52,2.55l-17.06,31.5a1.72,1.72,0,0,0,1.52,2.55h14.3a1.72,1.72,0,0,1,1.58,2.41l-17.15,39.57a.57.57,0,0,1-1.1-.3l4.4-29.23c.13-1-.33-1.9-1.37-1.9l-15.83,2.49a1.72,1.72,0,0,1-2.24-1.44l-5.32-46.46A1.72,1.72,0,0,1,1037.11,593.21Z"/><path class="cls-4" d="M1093.21,642.89A17.06,17.06,0,0,1,1099,630l0,0,23.67-22.44,2.35-2.22,2.35,2.22L1151.08,630l0,0a17.1,17.1,0,1,1-26,21.5,17.1,17.1,0,0,1-31.86-8.65Z"/><path class="cls-4" d="M1212.77,626.19l-1.89,17.29-3.79-27.57L1202,629.16l-7.57-35.94-9.73,39.87-3-9.6L1176,657l21.75,15.14L1219.52,657Zm-15,36.48L1185.3,657l-4.15-1.89,6.07-15.94,4.47,10.29,4.32-17.59,8.38,17.84,1.89-4.59,7.57,10-4,1.89Z"/><path class="cls-4" d="M1256.14,640.73a12.56,12.56,0,0,1-.26-2.38A21.76,21.76,0,0,0,1256.14,640.73Z"/><path class="cls-4" d="M1281.58,638.34a12.56,12.56,0,0,1-.26,2.38A21.76,21.76,0,0,0,1281.58,638.34Z"/><path class="cls-4" d="M1281.58,638.13s0,.07,0,.21a21.76,21.76,0,0,1-.26,2.38.15.15,0,0,0,0,0c-.72,4.45-3.29,14.65-12.58,31.36-9.29-16.71-11.87-26.91-12.58-31.36a.14.14,0,0,1,0,0,21.76,21.76,0,0,1-.26-2.38c0-.07,0-.14,0-.21a12.86,12.86,0,0,1,25.71,0Z"/><path class="cls-4" d="M1237.67,608.66a12.56,12.56,0,0,1-.26-2.38A21.76,21.76,0,0,0,1237.67,608.66Z"/><path class="cls-4" d="M1263.11,606.28a12.56,12.56,0,0,1-.26,2.38A21.76,21.76,0,0,0,1263.11,606.28Z"/><path class="cls-4" d="M1263.12,606.07s0,.07,0,.21a21.76,21.76,0,0,1-.26,2.38.15.15,0,0,0,0,0c-.72,4.45-3.29,14.65-12.58,31.36-9.29-16.71-11.87-26.91-12.58-31.36a.14.14,0,0,1,0,0,21.76,21.76,0,0,1-.26-2.38c0-.07,0-.14,0-.21a12.86,12.86,0,0,1,25.71,0Z"/><path class="cls-4" d="M1358.6,622.78a5.53,5.53,0,0,1-5.53,5.53h-18.5V666.6a5.53,5.53,0,0,1-11.07,0V628.32H1305a5.53,5.53,0,0,1,0-11.07h18.5v-18.5a5.53,5.53,0,0,1,11.07,0v18.5h18.5A5.53,5.53,0,0,1,1358.6,622.78Z"/><path class="cls-4" d="M1382.59,672.13h35a1.72,1.72,0,0,0,1.52-2.55l-17.06-31.5a1.72,1.72,0,0,1,1.52-2.55h14.3a1.72,1.72,0,0,0,1.58-2.41l-17.15-39.57a.57.57,0,0,0-1.1.3l4.4,29.23c.13,1-.33,1.9-1.37,1.9l-15.83-2.49a1.72,1.72,0,0,0-2.24,1.44l-5.32,46.46A1.72,1.72,0,0,0,1382.59,672.13Z"/><path class="cls-4" d="M1438.7,622.45a17.06,17.06,0,0,0,5.82,12.85l0,0,23.67,22.44,2.35,2.22,2.35-2.22,23.67-22.44,0,0a17.1,17.1,0,1,0-26-21.5,17.1,17.1,0,0,0-31.86,8.65Z"/><path class="cls-4" d="M693.9,884.82h35a1.72,1.72,0,0,0,1.52-2.55l-17.06-31.5a1.72,1.72,0,0,1,1.52-2.55h14.3a1.72,1.72,0,0,0,1.58-2.41l-17.15-39.57a.57.57,0,0,0-1.1.3l4.4,29.23c.13,1-.33,1.9-1.37,1.9l-15.83-2.49a1.72,1.72,0,0,0-2.24,1.44l-5.32,46.46A1.72,1.72,0,0,0,693.9,884.82Z"/><path class="cls-4" d="M750,835.14A17.06,17.06,0,0,0,755.82,848l0,0,23.67,22.44,2.35,2.22,2.35-2.22L807.88,848l0,0a17.1,17.1,0,1,0-26-21.5A17.1,17.1,0,0,0,750,835.14Z"/><path class="cls-4" d="M876.32,821,854.56,805.9,832.8,821l5.68,33.51,3-9.6,9.73,39.87,7.57-35.94,5.13,13.24,3.79-27.57,1.89,17.29Zm-9.7,0,4,1.89-7.57,10-1.89-4.59-8.38,17.84-4.32-17.59L844,838.87l-6.07-15.94,4.15-1.89,12.47-5.68Z"/><path class="cls-4" d="M912.93,837.31a12.56,12.56,0,0,0-.26,2.38A21.77,21.77,0,0,1,912.93,837.31Z"/><path class="cls-4" d="M938.37,839.69a12.56,12.56,0,0,0-.26-2.38A21.76,21.76,0,0,1,938.37,839.69Z"/><path class="cls-4" d="M938.38,839.9s0-.07,0-.21a21.76,21.76,0,0,0-.26-2.38.15.15,0,0,1,0,0c-.71-4.45-3.29-14.65-12.58-31.36-9.29,16.71-11.87,26.91-12.58,31.36a.14.14,0,0,0,0,0,21.77,21.77,0,0,0-.26,2.38c0,.07,0,.14,0,.21a12.86,12.86,0,0,0,25.71,0Z"/><path class="cls-4" d="M894.46,869.37a12.56,12.56,0,0,0-.26,2.38A21.77,21.77,0,0,1,894.46,869.37Z"/><path class="cls-4" d="M919.91,871.76a12.56,12.56,0,0,0-.26-2.38A21.76,21.76,0,0,1,919.91,871.76Z"/><path class="cls-4" d="M919.91,872s0-.07,0-.21a21.76,21.76,0,0,0-.26-2.38.15.15,0,0,1,0,0c-.71-4.45-3.29-14.65-12.58-31.36-9.29,16.71-11.87,26.91-12.58,31.36a.14.14,0,0,0,0,0,21.77,21.77,0,0,0-.26,2.38c0,.07,0,.14,0,.21a12.86,12.86,0,0,0,25.71,0Z"/><path class="cls-4" d="M1015.4,855.25a5.53,5.53,0,0,0-5.53-5.53h-18.5V811.44a5.53,5.53,0,0,0-11.07,0v38.28H961.8a5.53,5.53,0,0,0,0,11.07h18.5v18.5a5.53,5.53,0,0,0,11.07,0v-18.5h18.5A5.53,5.53,0,0,0,1015.4,855.25Z"/><path class="cls-4" d="M1037.11,805.9h35a1.72,1.72,0,0,1,1.52,2.55l-17.06,31.5a1.72,1.72,0,0,0,1.52,2.55h14.3a1.72,1.72,0,0,1,1.58,2.41l-17.15,39.57a.57.57,0,0,1-1.1-.3l4.4-29.23c.13-1-.33-1.9-1.37-1.9l-15.83,2.49a1.72,1.72,0,0,1-2.24-1.44l-5.32-46.46A1.72,1.72,0,0,1,1037.11,805.9Z"/><path class="cls-4" d="M1093.21,855.58a17.06,17.06,0,0,1,5.82-12.85l0,0,23.67-22.44,2.35-2.22,2.35,2.22,23.67,22.44,0,0a17.1,17.1,0,1,1-26,21.5,17.1,17.1,0,0,1-31.86-8.65Z"/><path class="cls-4" d="M1212.77,838.88l-1.89,17.29-3.79-27.57L1202,841.85l-7.57-35.94-9.73,39.87-3-9.6L1176,869.68l21.75,15.14,21.76-15.14Zm-15,36.48-12.47-5.68-4.15-1.89,6.07-15.94,4.47,10.29,4.32-17.59,8.38,17.84,1.89-4.59,7.57,10-4,1.89Z"/><path class="cls-4" d="M1256.14,853.41a12.56,12.56,0,0,1-.26-2.38A21.76,21.76,0,0,0,1256.14,853.41Z"/><path class="cls-4" d="M1281.58,851a12.56,12.56,0,0,1-.26,2.38A21.76,21.76,0,0,0,1281.58,851Z"/><path class="cls-4" d="M1281.58,850.82s0,.07,0,.21a21.76,21.76,0,0,1-.26,2.38.15.15,0,0,0,0,0c-.72,4.45-3.29,14.65-12.58,31.36-9.29-16.71-11.87-26.91-12.58-31.36a.14.14,0,0,1,0,0,21.76,21.76,0,0,1-.26-2.38c0-.07,0-.14,0-.21a12.86,12.86,0,0,1,25.71,0Z"/><path class="cls-4" d="M1237.67,821.35a12.56,12.56,0,0,1-.26-2.38A21.76,21.76,0,0,0,1237.67,821.35Z"/><path class="cls-4" d="M1263.11,819a12.56,12.56,0,0,1-.26,2.38A21.76,21.76,0,0,0,1263.11,819Z"/><path class="cls-4" d="M1263.12,818.76s0,.07,0,.21a21.76,21.76,0,0,1-.26,2.38.15.15,0,0,0,0,0c-.72,4.45-3.29,14.65-12.58,31.36-9.29-16.71-11.87-26.91-12.58-31.36a.14.14,0,0,1,0,0,21.76,21.76,0,0,1-.26-2.38c0-.07,0-.14,0-.21a12.86,12.86,0,0,1,25.71,0Z"/><path class="cls-4" d="M1358.6,835.47a5.53,5.53,0,0,1-5.53,5.53h-18.5v38.28a5.53,5.53,0,0,1-11.07,0V841H1305a5.53,5.53,0,0,1,0-11.07h18.5v-18.5a5.53,5.53,0,0,1,11.07,0v18.5h18.5A5.53,5.53,0,0,1,1358.6,835.47Z"/><path class="cls-4" d="M1382.59,884.82h35a1.72,1.72,0,0,0,1.52-2.55l-17.06-31.5a1.72,1.72,0,0,1,1.52-2.55h14.3a1.72,1.72,0,0,0,1.58-2.41l-17.15-39.57a.57.57,0,0,0-1.1.3l4.4,29.23c.13,1-.33,1.9-1.37,1.9l-15.83-2.49a1.72,1.72,0,0,0-2.24,1.44l-5.32,46.46A1.72,1.72,0,0,0,1382.59,884.82Z"/><path class="cls-4" d="M1438.7,835.14a17.06,17.06,0,0,0,5.82,12.85l0,0,23.67,22.44,2.35,2.22,2.35-2.22L1496.57,848l0,0a17.1,17.1,0,1,0-26-21.5,17.1,17.1,0,0,0-31.86,8.65Z"/><path class="cls-4" d="M825.74,699.56h35a1.72,1.72,0,0,1,1.52,2.55l-17.06,31.5a1.72,1.72,0,0,0,1.52,2.55H861a1.72,1.72,0,0,1,1.58,2.41l-17.15,39.57a.57.57,0,0,1-1.1-.3l4.4-29.23c.13-1-.33-1.9-1.37-1.9l-15.83,2.49a1.72,1.72,0,0,1-2.24-1.44L824,701.28A1.72,1.72,0,0,1,825.74,699.56Z"/><path class="cls-4" d="M881.84,749.24a17.06,17.06,0,0,1,5.82-12.85l0,0,23.67-22.44,2.35-2.22,2.35,2.22,23.67,22.44,0,0a17.1,17.1,0,1,1-26,21.5,17.1,17.1,0,0,1-31.86-8.65Z"/><path class="cls-4" d="M1001.4,732.53l-1.89,17.29-3.79-27.57-5.13,13.24L983,699.56l-9.73,39.87-3-9.6-5.68,33.51,21.75,15.14,21.76-15.14ZM986.4,769l-12.47-5.68-4.15-1.89,6.07-15.94,4.47,10.29,4.32-17.59L993,756l1.89-4.59,7.57,10-4,1.89Z"/><path class="cls-4" d="M1044.77,747.07a12.56,12.56,0,0,1-.26-2.38A21.76,21.76,0,0,0,1044.77,747.07Z"/><path class="cls-4" d="M1070.21,744.69a12.56,12.56,0,0,1-.26,2.38A21.76,21.76,0,0,0,1070.21,744.69Z"/><path class="cls-4" d="M1070.22,744.48s0,.07,0,.21a21.76,21.76,0,0,1-.26,2.38.15.15,0,0,0,0,0c-.71,4.45-3.29,14.65-12.58,31.36-9.29-16.71-11.87-26.91-12.58-31.36a.14.14,0,0,1,0,0,21.76,21.76,0,0,1-.26-2.38c0-.07,0-.14,0-.21a12.86,12.86,0,0,1,25.71,0Z"/><path class="cls-4" d="M1026.3,715a12.56,12.56,0,0,1-.26-2.38A21.77,21.77,0,0,0,1026.3,715Z"/><path class="cls-4" d="M1051.74,712.62a12.56,12.56,0,0,1-.26,2.38A21.76,21.76,0,0,0,1051.74,712.62Z"/><path class="cls-4" d="M1051.75,712.41s0,.07,0,.21a21.76,21.76,0,0,1-.26,2.38.15.15,0,0,0,0,0c-.71,4.45-3.29,14.65-12.58,31.36C1029.6,729.7,1027,719.5,1026.31,715a.14.14,0,0,1,0,0,21.77,21.77,0,0,1-.26-2.38c0-.07,0-.14,0-.21a12.86,12.86,0,0,1,25.71,0Z"/><path class="cls-4" d="M1147.24,729.13a5.53,5.53,0,0,1-5.53,5.53h-18.5v38.28a5.53,5.53,0,0,1-11.07,0V734.66h-18.5a5.53,5.53,0,0,1,0-11.07h18.5v-18.5a5.53,5.53,0,0,1,11.07,0v18.5h18.5A5.53,5.53,0,0,1,1147.24,729.13Z"/><path class="cls-4" d="M1168.94,778.48h35a1.72,1.72,0,0,0,1.52-2.55l-17.06-31.5a1.72,1.72,0,0,1,1.52-2.55h14.3a1.72,1.72,0,0,0,1.58-2.41l-17.15-39.57a.57.57,0,0,0-1.1.3l4.4,29.23c.13,1-.33,1.9-1.37,1.9l-15.83-2.49a1.72,1.72,0,0,0-2.24,1.44l-5.32,46.46A1.72,1.72,0,0,0,1168.94,778.48Z"/><path class="cls-4" d="M1225,728.8a17.06,17.06,0,0,0,5.82,12.85l0,0,23.67,22.44,2.35,2.22,2.35-2.22,23.67-22.44,0,0a17.1,17.1,0,1,0-26-21.5A17.1,17.1,0,0,0,1225,728.8Z"/><path class="cls-4" d="M1351.36,714.69l-21.76-15.14-21.75,15.14,5.68,33.51,3-9.6,9.73,39.87,7.57-35.94,5.13,13.24,3.79-27.57,1.89,17.29Zm-9.7,0,4,1.89-7.57,10-1.89-4.59-8.38,17.84-4.32-17.59L1319,732.53,1313,716.59l4.15-1.89L1329.6,709Z"/><path class="cls-4" d="M1388,731a12.56,12.56,0,0,0-.26,2.38A21.77,21.77,0,0,1,1388,731Z"/><path class="cls-4" d="M1413.42,733.35a12.56,12.56,0,0,0-.26-2.38A21.76,21.76,0,0,1,1413.42,733.35Z"/><path class="cls-4" d="M1413.42,733.56s0-.07,0-.21a21.76,21.76,0,0,0-.26-2.38.15.15,0,0,1,0,0c-.71-4.45-3.29-14.65-12.58-31.36-9.29,16.71-11.87,26.91-12.58,31.36a.14.14,0,0,0,0,0,21.77,21.77,0,0,0-.26,2.38c0,.07,0,.14,0,.21a12.86,12.86,0,1,0,25.71,0Z"/><path class="cls-4" d="M1369.51,763a12.56,12.56,0,0,0-.26,2.38A21.77,21.77,0,0,1,1369.51,763Z"/><path class="cls-4" d="M1395,765.41a12.56,12.56,0,0,0-.26-2.38A21.76,21.76,0,0,1,1395,765.41Z"/><path class="cls-4" d="M1395,765.62s0-.07,0-.21a21.76,21.76,0,0,0-.26-2.38.15.15,0,0,1,0,0c-.71-4.45-3.29-14.65-12.58-31.36-9.29,16.71-11.87,26.91-12.58,31.36a.14.14,0,0,0,0,0,21.77,21.77,0,0,0-.26,2.38c0,.07,0,.14,0,.21a12.86,12.86,0,1,0,25.71,0Z"/><path class="cls-4" d="M1490.44,748.91a5.53,5.53,0,0,0-5.53-5.53h-18.5V705.09a5.53,5.53,0,0,0-11.07,0v38.28h-18.5a5.53,5.53,0,0,0,0,11.07h18.5v18.5a5.53,5.53,0,0,0,11.07,0v-18.5h18.5A5.53,5.53,0,0,0,1490.44,748.91Z"/><path class="cls-4" d="M825.74,1124.94h35a1.72,1.72,0,0,1,1.52,2.55L845.21,1159a1.72,1.72,0,0,0,1.52,2.55H861a1.72,1.72,0,0,1,1.58,2.41l-17.15,39.57a.57.57,0,0,1-1.1-.3l4.4-29.23c.13-1-.33-1.9-1.37-1.9l-15.83,2.49a1.72,1.72,0,0,1-2.24-1.44L824,1126.66A1.72,1.72,0,0,1,825.74,1124.94Z"/><path class="cls-4" d="M881.84,1174.61a17.06,17.06,0,0,1,5.82-12.85l0,0,23.67-22.44,2.35-2.22,2.35,2.22,23.67,22.44,0,0a17.1,17.1,0,1,1-26,21.5,17.1,17.1,0,0,1-31.86-8.65Z"/><path class="cls-4" d="M1001.4,1157.91l-1.89,17.29-3.79-27.57-5.13,13.24L983,1124.94l-9.73,39.87-3-9.6-5.68,33.51,21.75,15.14,21.76-15.14Zm-15,36.48-12.47-5.68-4.15-1.89,6.07-15.94,4.47,10.29,4.32-17.59,8.38,17.84,1.89-4.59,7.57,10-4,1.89Z"/><path class="cls-4" d="M1070.22,1169.86s0,.07,0,.21a21.76,21.76,0,0,1-.26,2.38.15.15,0,0,0,0,0c-.71,4.45-3.29,14.65-12.58,31.36-9.29-16.71-11.87-26.91-12.58-31.36a.14.14,0,0,1,0,0,21.76,21.76,0,0,1-.26-2.38c0-.07,0-.14,0-.21a12.86,12.86,0,0,1,25.71,0Z"/><path class="cls-4" d="M1026.3,1140.38a12.56,12.56,0,0,1-.26-2.38A21.77,21.77,0,0,0,1026.3,1140.38Z"/><path class="cls-4" d="M1051.74,1138a12.56,12.56,0,0,1-.26,2.38A21.76,21.76,0,0,0,1051.74,1138Z"/><path class="cls-4" d="M1051.75,1137.79s0,.07,0,.21a21.76,21.76,0,0,1-.26,2.38.15.15,0,0,0,0,0c-.71,4.45-3.29,14.65-12.58,31.36-9.29-16.71-11.87-26.91-12.58-31.36a.14.14,0,0,1,0,0,21.77,21.77,0,0,1-.26-2.38c0-.07,0-.14,0-.21a12.86,12.86,0,1,1,25.71,0Z"/><path class="cls-4" d="M1147.24,1154.51a5.53,5.53,0,0,1-5.53,5.53h-18.5v38.28a5.53,5.53,0,0,1-11.07,0V1160h-18.5a5.53,5.53,0,0,1,0-11.07h18.5v-18.5a5.53,5.53,0,0,1,11.07,0V1149h18.5A5.53,5.53,0,0,1,1147.24,1154.51Z"/><path class="cls-4" d="M1168.94,1203.85h35a1.72,1.72,0,0,0,1.52-2.55l-17.06-31.5a1.72,1.72,0,0,1,1.52-2.55h14.3a1.72,1.72,0,0,0,1.58-2.41l-17.15-39.57a.57.57,0,0,0-1.1.3l4.4,29.23c.13,1-.33,1.9-1.37,1.9l-15.83-2.49a1.72,1.72,0,0,0-2.24,1.44l-5.32,46.46A1.72,1.72,0,0,0,1168.94,1203.85Z"/><path class="cls-4" d="M1225,1154.18a17.06,17.06,0,0,0,5.82,12.85l0,0,23.67,22.44,2.35,2.22,2.35-2.22,23.67-22.44,0,0a17.1,17.1,0,1,0-26-21.5,17.1,17.1,0,0,0-31.86,8.65Z"/><path class="cls-4" d="M1351.36,1140.07l-21.76-15.14-21.75,15.14,5.68,33.51,3-9.6,9.73,39.87,7.57-35.94,5.13,13.24,3.79-27.57,1.89,17.29Zm-9.7,0,4,1.89-7.57,10-1.89-4.59-8.38,17.84-4.32-17.59-4.47,10.29L1313,1142l4.15-1.89,12.47-5.68Z"/><path class="cls-4" d="M1388,1156.34a12.56,12.56,0,0,0-.26,2.38A21.77,21.77,0,0,1,1388,1156.34Z"/><path class="cls-4" d="M1413.42,1158.73a12.56,12.56,0,0,0-.26-2.38A21.76,21.76,0,0,1,1413.42,1158.73Z"/><path class="cls-4" d="M1413.42,1158.93s0-.07,0-.21a21.76,21.76,0,0,0-.26-2.38.15.15,0,0,1,0,0c-.71-4.45-3.29-14.65-12.58-31.36-9.29,16.71-11.87,26.91-12.58,31.36a.14.14,0,0,0,0,0,21.77,21.77,0,0,0-.26,2.38c0,.07,0,.14,0,.21a12.86,12.86,0,0,0,25.71,0Z"/><path class="cls-4" d="M1395,1191s0-.07,0-.21a21.76,21.76,0,0,0-.26-2.38.15.15,0,0,1,0,0c-.71-4.45-3.29-14.65-12.58-31.36-9.29,16.71-11.87,26.91-12.58,31.36a.14.14,0,0,0,0,0,21.77,21.77,0,0,0-.26,2.38c0,.07,0,.14,0,.21a12.86,12.86,0,1,0,25.71,0Z"/><path class="cls-4" d="M1490.44,1174.28a5.53,5.53,0,0,0-5.53-5.53h-18.5v-38.28a5.53,5.53,0,0,0-11.07,0v38.28h-18.5a5.53,5.53,0,0,0,0,11.07h18.5v18.5a5.53,5.53,0,0,0,11.07,0v-18.5h18.5A5.53,5.53,0,0,0,1490.44,1174.28Z"/><path class="cls-4" d="M825.74,912.25h35a1.72,1.72,0,0,1,1.52,2.55l-17.06,31.5a1.72,1.72,0,0,0,1.52,2.55H861a1.72,1.72,0,0,1,1.58,2.41l-17.15,39.57a.57.57,0,0,1-1.1-.3l4.4-29.23c.13-1-.33-1.9-1.37-1.9l-15.83,2.49a1.72,1.72,0,0,1-2.24-1.44L824,914A1.72,1.72,0,0,1,825.74,912.25Z"/><path class="cls-4" d="M881.84,961.92a17.06,17.06,0,0,1,5.82-12.85l0,0,23.67-22.44,2.35-2.22,2.35,2.22,23.67,22.44,0,0a17.1,17.1,0,1,1-26,21.5,17.1,17.1,0,0,1-31.86-8.65Z"/><path class="cls-4" d="M1001.4,945.22l-1.89,17.29L995.72,935l-5.13,13.24L983,912.25l-9.73,39.87-3-9.6L964.64,976l21.75,15.14L1008.15,976Zm-15,36.48L973.93,976l-4.15-1.89,6.07-15.94,4.47,10.29,4.32-17.59L993,968.73l1.89-4.59,7.57,10-4,1.89Z"/><path class="cls-4" d="M1044.77,959.76a12.56,12.56,0,0,1-.26-2.38A21.76,21.76,0,0,0,1044.77,959.76Z"/><path class="cls-4" d="M1070.21,957.38a12.56,12.56,0,0,1-.26,2.38A21.76,21.76,0,0,0,1070.21,957.38Z"/><path class="cls-4" d="M1070.22,957.17s0,.07,0,.21a21.76,21.76,0,0,1-.26,2.38.15.15,0,0,0,0,0c-.71,4.45-3.29,14.65-12.58,31.36-9.29-16.71-11.87-26.91-12.58-31.36a.14.14,0,0,1,0,0,21.76,21.76,0,0,1-.26-2.38c0-.07,0-.14,0-.21a12.86,12.86,0,0,1,25.71,0Z"/><path class="cls-4" d="M1026.3,927.69a12.56,12.56,0,0,1-.26-2.38A21.77,21.77,0,0,0,1026.3,927.69Z"/><path class="cls-4" d="M1051.74,925.31a12.56,12.56,0,0,1-.26,2.38A21.76,21.76,0,0,0,1051.74,925.31Z"/><path class="cls-4" d="M1051.75,925.1s0,.07,0,.21a21.76,21.76,0,0,1-.26,2.38.15.15,0,0,0,0,0c-.71,4.45-3.29,14.65-12.58,31.36-9.29-16.71-11.87-26.91-12.58-31.36a.14.14,0,0,1,0,0,21.77,21.77,0,0,1-.26-2.38c0-.07,0-.14,0-.21a12.86,12.86,0,0,1,25.71,0Z"/><path class="cls-4" d="M1147.24,941.82a5.53,5.53,0,0,1-5.53,5.53h-18.5v38.28a5.53,5.53,0,0,1-11.07,0V947.35h-18.5a5.53,5.53,0,0,1,0-11.07h18.5v-18.5a5.53,5.53,0,0,1,11.07,0v18.5h18.5A5.53,5.53,0,0,1,1147.24,941.82Z"/><path class="cls-4" d="M1168.94,991.16h35a1.72,1.72,0,0,0,1.52-2.55l-17.06-31.5a1.72,1.72,0,0,1,1.52-2.55h14.3a1.72,1.72,0,0,0,1.58-2.41l-17.15-39.57a.57.57,0,0,0-1.1.3l4.4,29.23c.13,1-.33,1.9-1.37,1.9l-15.83-2.49a1.72,1.72,0,0,0-2.24,1.44l-5.32,46.46A1.72,1.72,0,0,0,1168.94,991.16Z"/><path class="cls-4" d="M1225,941.49a17.06,17.06,0,0,0,5.82,12.85l0,0,23.67,22.44,2.35,2.22,2.35-2.22,23.67-22.44,0,0a17.1,17.1,0,1,0-26-21.5,17.1,17.1,0,0,0-31.86,8.65Z"/><path class="cls-4" d="M1351.36,927.38l-21.76-15.14-21.75,15.14,5.68,33.51,3-9.6,9.73,39.87,7.57-35.94,5.13,13.24,3.79-27.57,1.89,17.29Zm-9.7,0,4,1.89-7.57,10-1.89-4.59-8.38,17.84-4.32-17.59L1319,945.22,1313,929.27l4.15-1.89,12.47-5.68Z"/><path class="cls-4" d="M1388,943.65a12.56,12.56,0,0,0-.26,2.38A21.77,21.77,0,0,1,1388,943.65Z"/><path class="cls-4" d="M1413.42,946a12.56,12.56,0,0,0-.26-2.38A21.76,21.76,0,0,1,1413.42,946Z"/><path class="cls-4" d="M1413.42,946.24s0-.07,0-.21a21.76,21.76,0,0,0-.26-2.38.15.15,0,0,1,0,0c-.71-4.45-3.29-14.65-12.58-31.36-9.29,16.71-11.87,26.91-12.58,31.36a.14.14,0,0,0,0,0,21.77,21.77,0,0,0-.26,2.38c0,.07,0,.14,0,.21a12.86,12.86,0,1,0,25.71,0Z"/><path class="cls-4" d="M1369.51,975.72a12.56,12.56,0,0,0-.26,2.38A21.77,21.77,0,0,1,1369.51,975.72Z"/><path class="cls-4" d="M1395,978.1a12.56,12.56,0,0,0-.26-2.38A21.76,21.76,0,0,1,1395,978.1Z"/><path class="cls-4" d="M1395,978.31s0-.07,0-.21a21.76,21.76,0,0,0-.26-2.38.15.15,0,0,1,0,0c-.71-4.45-3.29-14.65-12.58-31.36-9.29,16.71-11.87,26.91-12.58,31.36a.14.14,0,0,0,0,0,21.77,21.77,0,0,0-.26,2.38c0,.07,0,.14,0,.21a12.86,12.86,0,1,0,25.71,0Z"/><path class="cls-4" d="M1490.44,961.6a5.53,5.53,0,0,0-5.53-5.53h-18.5V917.78a5.53,5.53,0,0,0-11.07,0v38.28h-18.5a5.53,5.53,0,0,0,0,11.07h18.5v18.5a5.53,5.53,0,0,0,11.07,0v-18.5h18.5A5.53,5.53,0,0,0,1490.44,961.6Z"/><path class="cls-4" d="M693.9,1097.51h35a1.72,1.72,0,0,0,1.52-2.55l-17.06-31.5a1.72,1.72,0,0,1,1.52-2.55h14.3a1.72,1.72,0,0,0,1.58-2.41l-17.15-39.57a.57.57,0,0,0-1.1.3l4.4,29.23c.13,1-.33,1.9-1.37,1.9l-15.83-2.49a1.72,1.72,0,0,0-2.24,1.44l-5.32,46.46A1.72,1.72,0,0,0,693.9,1097.51Z"/><path class="cls-4" d="M750,1047.83a17.06,17.06,0,0,0,5.82,12.85l0,0,23.67,22.44,2.35,2.22,2.35-2.22,23.67-22.44,0,0a17.1,17.1,0,1,0-26-21.5,17.1,17.1,0,0,0-31.86,8.65Z"/><path class="cls-4" d="M876.32,1033.73l-21.76-15.14-21.75,15.14,5.68,33.51,3-9.6,9.73,39.87,7.57-35.94,5.13,13.24,3.79-27.57,1.89,17.29Zm-9.7,0,4,1.89-7.57,10-1.89-4.59-8.38,17.84-4.32-17.59L844,1051.56l-6.07-15.94,4.15-1.89,12.47-5.68Z"/><path class="cls-4" d="M912.93,1050a12.56,12.56,0,0,0-.26,2.38A21.77,21.77,0,0,1,912.93,1050Z"/><path class="cls-4" d="M938.37,1052.38a12.56,12.56,0,0,0-.26-2.38A21.76,21.76,0,0,1,938.37,1052.38Z"/><path class="cls-4" d="M938.38,1052.59s0-.07,0-.21a21.76,21.76,0,0,0-.26-2.38.15.15,0,0,1,0,0c-.71-4.45-3.29-14.65-12.58-31.36-9.29,16.71-11.87,26.91-12.58,31.36a.14.14,0,0,0,0,0,21.77,21.77,0,0,0-.26,2.38c0,.07,0,.14,0,.21a12.86,12.86,0,0,0,25.71,0Z"/><path class="cls-4" d="M894.46,1082.06a12.56,12.56,0,0,0-.26,2.38A21.77,21.77,0,0,1,894.46,1082.06Z"/><path class="cls-4" d="M919.91,1084.45a12.56,12.56,0,0,0-.26-2.38A21.76,21.76,0,0,1,919.91,1084.45Z"/><path class="cls-4" d="M919.91,1084.65s0-.07,0-.21a21.76,21.76,0,0,0-.26-2.38.15.15,0,0,1,0,0c-.71-4.45-3.29-14.65-12.58-31.36-9.29,16.71-11.87,26.91-12.58,31.36a.14.14,0,0,0,0,0,21.77,21.77,0,0,0-.26,2.38c0,.07,0,.14,0,.21a12.86,12.86,0,1,0,25.71,0Z"/><path class="cls-4" d="M1015.4,1067.94a5.53,5.53,0,0,0-5.53-5.53h-18.5v-38.28a5.53,5.53,0,0,0-11.07,0v38.28H961.8a5.53,5.53,0,0,0,0,11.07h18.5V1092a5.53,5.53,0,0,0,11.07,0v-18.5h18.5A5.53,5.53,0,0,0,1015.4,1067.94Z"/><path class="cls-4" d="M1037.11,1018.59h35a1.72,1.72,0,0,1,1.52,2.55l-17.06,31.5a1.72,1.72,0,0,0,1.52,2.55h14.3a1.72,1.72,0,0,1,1.58,2.41l-17.15,39.57a.57.57,0,0,1-1.1-.3l4.4-29.23c.13-1-.33-1.9-1.37-1.9l-15.83,2.49a1.72,1.72,0,0,1-2.24-1.44l-5.32-46.46A1.72,1.72,0,0,1,1037.11,1018.59Z"/><path class="cls-4" d="M1093.21,1068.27a17.06,17.06,0,0,1,5.82-12.85l0,0,23.67-22.44,2.35-2.22,2.35,2.22,23.67,22.44,0,0a17.1,17.1,0,1,1-26,21.5,17.1,17.1,0,0,1-31.86-8.65Z"/><path class="cls-4" d="M1212.77,1051.57l-1.89,17.29-3.79-27.57-5.13,13.24-7.57-35.94-9.73,39.87-3-9.6-5.68,33.51,21.75,15.14,21.76-15.14Zm-15,36.48-12.47-5.68-4.15-1.89,6.07-15.94,4.47,10.29,4.32-17.59,8.38,17.84,1.89-4.59,7.57,10-4,1.89Z"/><path class="cls-4" d="M1256.14,1066.1a12.56,12.56,0,0,1-.26-2.38A21.76,21.76,0,0,0,1256.14,1066.1Z"/><path class="cls-4" d="M1281.58,1063.72a12.56,12.56,0,0,1-.26,2.38A21.76,21.76,0,0,0,1281.58,1063.72Z"/><path class="cls-4" d="M1281.58,1063.51s0,.07,0,.21a21.76,21.76,0,0,1-.26,2.38.15.15,0,0,0,0,0c-.72,4.45-3.29,14.65-12.58,31.36-9.29-16.71-11.87-26.91-12.58-31.36a.14.14,0,0,1,0,0,21.76,21.76,0,0,1-.26-2.38c0-.07,0-.14,0-.21a12.86,12.86,0,1,1,25.71,0Z"/><path class="cls-4" d="M1237.67,1034a12.56,12.56,0,0,1-.26-2.38A21.76,21.76,0,0,0,1237.67,1034Z"/><path class="cls-4" d="M1263.11,1031.66a12.56,12.56,0,0,1-.26,2.38A21.76,21.76,0,0,0,1263.11,1031.66Z"/><path class="cls-4" d="M1263.12,1031.45s0,.07,0,.21a21.76,21.76,0,0,1-.26,2.38.15.15,0,0,0,0,0c-.72,4.45-3.29,14.65-12.58,31.36-9.29-16.71-11.87-26.91-12.58-31.36a.14.14,0,0,1,0,0,21.76,21.76,0,0,1-.26-2.38c0-.07,0-.14,0-.21a12.86,12.86,0,0,1,25.71,0Z"/><path class="cls-4" d="M1358.6,1048.16a5.53,5.53,0,0,1-5.53,5.53h-18.5V1092a5.53,5.53,0,0,1-11.07,0v-38.28H1305a5.53,5.53,0,0,1,0-11.07h18.5v-18.5a5.53,5.53,0,0,1,11.07,0v18.5h18.5A5.53,5.53,0,0,1,1358.6,1048.16Z"/><path class="cls-4" d="M1382.59,1097.51h35a1.72,1.72,0,0,0,1.52-2.55l-17.06-31.5a1.72,1.72,0,0,1,1.52-2.55h14.3a1.72,1.72,0,0,0,1.58-2.41l-17.15-39.57a.57.57,0,0,0-1.1.3l4.4,29.23c.13,1-.33,1.9-1.37,1.9l-15.83-2.49a1.72,1.72,0,0,0-2.24,1.44l-5.32,46.46A1.72,1.72,0,0,0,1382.59,1097.51Z"/><path class="cls-4" d="M1438.7,1047.83a17.06,17.06,0,0,0,5.82,12.85l0,0,23.67,22.44,2.35,2.22,2.35-2.22,23.67-22.44,0,0a17.1,17.1,0,1,0-26-21.5,17.1,17.1,0,0,0-31.86,8.65Z"/><path class="cls-4" d="M825.74,274.18h35a1.72,1.72,0,0,1,1.52,2.55l-17.06,31.5a1.72,1.72,0,0,0,1.52,2.55H861a1.72,1.72,0,0,1,1.58,2.41l-17.15,39.57a.57.57,0,0,1-1.1-.3l4.4-29.23c.13-1-.33-1.9-1.37-1.9l-15.83,2.49a1.72,1.72,0,0,1-2.24-1.44L824,275.9A1.72,1.72,0,0,1,825.74,274.18Z"/><path class="cls-4" d="M881.84,323.86A17.06,17.06,0,0,1,887.66,311l0,0,23.67-22.44,2.35-2.22,2.35,2.22L939.71,311l0,0a17.1,17.1,0,1,1-26,21.5,17.1,17.1,0,0,1-31.86-8.65Z"/><path class="cls-4" d="M1001.4,307.15l-1.89,17.29-3.79-27.57-5.13,13.24L983,274.18l-9.73,39.87-3-9.6L964.64,338,986.4,353.1,1008.15,338Zm-15,36.48L973.93,338l-4.15-1.89,6.07-15.94,4.47,10.29,4.32-17.59L993,330.67l1.89-4.59,7.57,10-4,1.89Z"/><path class="cls-4" d="M1044.77,321.69a12.56,12.56,0,0,1-.26-2.38A21.76,21.76,0,0,0,1044.77,321.69Z"/><path class="cls-4" d="M1070.21,319.31a12.56,12.56,0,0,1-.26,2.38A21.76,21.76,0,0,0,1070.21,319.31Z"/><path class="cls-4" d="M1070.22,319.1s0,.07,0,.21a21.76,21.76,0,0,1-.26,2.38.15.15,0,0,0,0,0c-.71,4.45-3.29,14.65-12.58,31.36-9.29-16.71-11.87-26.91-12.58-31.36a.14.14,0,0,1,0,0,21.76,21.76,0,0,1-.26-2.38c0-.07,0-.14,0-.21a12.86,12.86,0,0,1,25.71,0Z"/><path class="cls-4" d="M1026.3,289.63a12.56,12.56,0,0,1-.26-2.38A21.77,21.77,0,0,0,1026.3,289.63Z"/><path class="cls-4" d="M1051.74,287.24a12.56,12.56,0,0,1-.26,2.38A21.76,21.76,0,0,0,1051.74,287.24Z"/><path class="cls-4" d="M1051.75,287s0,.07,0,.21a21.76,21.76,0,0,1-.26,2.38.15.15,0,0,0,0,0c-.71,4.45-3.29,14.65-12.58,31.36-9.29-16.71-11.87-26.91-12.58-31.36a.14.14,0,0,1,0,0,21.77,21.77,0,0,1-.26-2.38c0-.07,0-.14,0-.21a12.86,12.86,0,0,1,25.71,0Z"/><path class="cls-4" d="M1147.24,303.75a5.53,5.53,0,0,1-5.53,5.53h-18.5v38.28a5.53,5.53,0,0,1-11.07,0V309.28h-18.5a5.53,5.53,0,0,1,0-11.07h18.5v-18.5a5.53,5.53,0,0,1,11.07,0v18.5h18.5A5.53,5.53,0,0,1,1147.24,303.75Z"/><path class="cls-4" d="M1168.94,353.1h35a1.72,1.72,0,0,0,1.52-2.55l-17.06-31.5a1.72,1.72,0,0,1,1.52-2.55h14.3a1.72,1.72,0,0,0,1.58-2.41l-17.15-39.57a.57.57,0,0,0-1.1.3l4.4,29.23c.13,1-.33,1.9-1.37,1.9l-15.83-2.49a1.72,1.72,0,0,0-2.24,1.44l-5.32,46.46A1.72,1.72,0,0,0,1168.94,353.1Z"/><path class="cls-4" d="M1225,303.42a17.06,17.06,0,0,0,5.82,12.85l0,0,23.67,22.44,2.35,2.22,2.35-2.22,23.67-22.44,0,0a17.1,17.1,0,1,0-26-21.5,17.1,17.1,0,0,0-31.86,8.65Z"/><path class="cls-4" d="M1351.36,289.32l-21.76-15.14-21.75,15.14,5.68,33.51,3-9.6,9.73,39.87,7.57-35.94,5.13,13.24,3.79-27.57,1.89,17.29Zm-9.7,0,4,1.89-7.57,10-1.89-4.59-8.38,17.84-4.32-17.59L1319,307.15,1313,291.21l4.15-1.89,12.47-5.68Z"/><path class="cls-4" d="M1388,305.59a12.56,12.56,0,0,0-.26,2.38A21.77,21.77,0,0,1,1388,305.59Z"/><path class="cls-4" d="M1413.42,308a12.56,12.56,0,0,0-.26-2.38A21.76,21.76,0,0,1,1413.42,308Z"/><path class="cls-4" d="M1413.42,308.18s0-.07,0-.21a21.76,21.76,0,0,0-.26-2.38.15.15,0,0,1,0,0c-.71-4.45-3.29-14.65-12.58-31.36-9.29,16.71-11.87,26.91-12.58,31.36a.14.14,0,0,0,0,0,21.77,21.77,0,0,0-.26,2.38c0,.07,0,.14,0,.21a12.86,12.86,0,1,0,25.71,0Z"/><path class="cls-4" d="M1369.51,337.65a12.56,12.56,0,0,0-.26,2.38A21.77,21.77,0,0,1,1369.51,337.65Z"/><path class="cls-4" d="M1395,340a12.56,12.56,0,0,0-.26-2.38A21.76,21.76,0,0,1,1395,340Z"/><path class="cls-4" d="M1395,340.24s0-.07,0-.21a21.76,21.76,0,0,0-.26-2.38.15.15,0,0,1,0,0c-.71-4.45-3.29-14.65-12.58-31.36-9.29,16.71-11.87,26.91-12.58,31.36a.14.14,0,0,0,0,0,21.77,21.77,0,0,0-.26,2.38c0,.07,0,.14,0,.21a12.86,12.86,0,1,0,25.71,0Z"/><path class="cls-4" d="M1490.44,323.53a5.53,5.53,0,0,0-5.53-5.53h-18.5V279.71a5.53,5.53,0,0,0-11.07,0V318h-18.5a5.53,5.53,0,0,0,0,11.07h18.5v18.5a5.53,5.53,0,0,0,11.07,0v-18.5h18.5A5.53,5.53,0,0,0,1490.44,323.53Z"/><path class="cls-4" d="M825.74,486.87h35a1.72,1.72,0,0,1,1.52,2.55l-17.06,31.5a1.72,1.72,0,0,0,1.52,2.55H861a1.72,1.72,0,0,1,1.58,2.41l-17.15,39.57a.57.57,0,0,1-1.1-.3l4.4-29.23c.13-1-.33-1.9-1.37-1.9l-15.83,2.49a1.72,1.72,0,0,1-2.24-1.44L824,488.59A1.72,1.72,0,0,1,825.74,486.87Z"/><path class="cls-4" d="M881.84,536.55a17.06,17.06,0,0,1,5.82-12.85l0,0,23.67-22.44L913.7,499l2.35,2.22,23.67,22.44,0,0a17.1,17.1,0,1,1-26,21.5,17.1,17.1,0,0,1-31.86-8.65Z"/><path class="cls-4" d="M1001.4,519.84l-1.89,17.29-3.79-27.57-5.13,13.24L983,486.87l-9.73,39.87-3-9.6-5.68,33.51,21.75,15.14,21.76-15.14Zm-15,36.48-12.47-5.68-4.15-1.89,6.07-15.94,4.47,10.29,4.32-17.59L993,543.35l1.89-4.59,7.57,10-4,1.89Z"/><path class="cls-4" d="M1044.77,534.38a12.56,12.56,0,0,1-.26-2.38A21.76,21.76,0,0,0,1044.77,534.38Z"/><path class="cls-4" d="M1070.21,532a12.56,12.56,0,0,1-.26,2.38A21.76,21.76,0,0,0,1070.21,532Z"/><path class="cls-4" d="M1070.22,531.79s0,.07,0,.21a21.76,21.76,0,0,1-.26,2.38.15.15,0,0,0,0,0c-.71,4.45-3.29,14.65-12.58,31.36-9.29-16.71-11.87-26.91-12.58-31.36a.14.14,0,0,1,0,0,21.76,21.76,0,0,1-.26-2.38c0-.07,0-.14,0-.21a12.86,12.86,0,0,1,25.71,0Z"/><path class="cls-4" d="M1026.3,502.32a12.56,12.56,0,0,1-.26-2.38A21.77,21.77,0,0,0,1026.3,502.32Z"/><path class="cls-4" d="M1051.74,499.93a12.56,12.56,0,0,1-.26,2.38A21.76,21.76,0,0,0,1051.74,499.93Z"/><path class="cls-4" d="M1051.75,499.72s0,.07,0,.21a21.76,21.76,0,0,1-.26,2.38.15.15,0,0,0,0,0c-.71,4.45-3.29,14.65-12.58,31.36-9.29-16.71-11.87-26.91-12.58-31.36a.14.14,0,0,1,0,0,21.77,21.77,0,0,1-.26-2.38c0-.07,0-.14,0-.21a12.86,12.86,0,0,1,25.71,0Z"/><path class="cls-4" d="M1147.24,516.44a5.53,5.53,0,0,1-5.53,5.53h-18.5v38.28a5.53,5.53,0,0,1-11.07,0V522h-18.5a5.53,5.53,0,0,1,0-11.07h18.5V492.4a5.53,5.53,0,0,1,11.07,0v18.5h18.5A5.53,5.53,0,0,1,1147.24,516.44Z"/><path class="cls-4" d="M1168.94,565.79h35a1.72,1.72,0,0,0,1.52-2.55l-17.06-31.5a1.72,1.72,0,0,1,1.52-2.55h14.3a1.72,1.72,0,0,0,1.58-2.41l-17.15-39.57a.57.57,0,0,0-1.1.3l4.4,29.23c.13,1-.33,1.9-1.37,1.9l-15.83-2.49a1.72,1.72,0,0,0-2.24,1.44l-5.32,46.46A1.72,1.72,0,0,0,1168.94,565.79Z"/><path class="cls-4" d="M1225,516.11a17.06,17.06,0,0,0,5.82,12.85l0,0,23.67,22.44,2.35,2.22,2.35-2.22L1282.92,529l0,0a17.1,17.1,0,1,0-26-21.5,17.1,17.1,0,0,0-31.86,8.65Z"/><path class="cls-4" d="M1351.36,502l-21.76-15.14L1307.85,502l5.68,33.51,3-9.6,9.73,39.87,7.57-35.94,5.13,13.24,3.79-27.57,1.89,17.29Zm-9.7,0,4,1.89-7.57,10-1.89-4.59-8.38,17.84-4.32-17.59L1319,519.84,1313,503.9l4.15-1.89,12.47-5.68Z"/><path class="cls-4" d="M1388,518.27a12.56,12.56,0,0,0-.26,2.38A21.77,21.77,0,0,1,1388,518.27Z"/><path class="cls-4" d="M1413.42,520.66a12.56,12.56,0,0,0-.26-2.38A21.76,21.76,0,0,1,1413.42,520.66Z"/><path class="cls-4" d="M1413.42,520.87s0-.07,0-.21a21.76,21.76,0,0,0-.26-2.38.15.15,0,0,1,0,0c-.71-4.45-3.29-14.65-12.58-31.36-9.29,16.71-11.87,26.91-12.58,31.36a.14.14,0,0,0,0,0,21.77,21.77,0,0,0-.26,2.38c0,.07,0,.14,0,.21a12.86,12.86,0,1,0,25.71,0Z"/><path class="cls-4" d="M1369.51,550.34a12.56,12.56,0,0,0-.26,2.38A21.77,21.77,0,0,1,1369.51,550.34Z"/><path class="cls-4" d="M1395,552.72a12.56,12.56,0,0,0-.26-2.38A21.76,21.76,0,0,1,1395,552.72Z"/><path class="cls-4" d="M1395,552.93s0-.07,0-.21a21.76,21.76,0,0,0-.26-2.38.15.15,0,0,1,0,0c-.71-4.45-3.29-14.65-12.58-31.36-9.29,16.71-11.87,26.91-12.58,31.36a.14.14,0,0,0,0,0,21.77,21.77,0,0,0-.26,2.38c0,.07,0,.14,0,.21a12.86,12.86,0,1,0,25.71,0Z"/><path class="cls-4" d="M1490.44,536.22a5.53,5.53,0,0,0-5.53-5.53h-18.5V492.4a5.53,5.53,0,0,0-11.07,0v38.28h-18.5a5.53,5.53,0,0,0,0,11.07h18.5v18.5a5.53,5.53,0,0,0,11.07,0v-18.5h18.5A5.53,5.53,0,0,0,1490.44,536.22Z"/><path class="cls-4" d="M693.9,459.44h35a1.72,1.72,0,0,0,1.52-2.55l-17.06-31.5a1.72,1.72,0,0,1,1.52-2.55h14.3a1.72,1.72,0,0,0,1.58-2.41l-17.15-39.57a.57.57,0,0,0-1.1.3l4.4,29.23c.13,1-.33,1.9-1.37,1.9l-15.83-2.49a1.72,1.72,0,0,0-2.24,1.44l-5.32,46.46A1.72,1.72,0,0,0,693.9,459.44Z"/><path class="cls-4" d="M750,409.76a17.06,17.06,0,0,0,5.82,12.85l0,0,23.67,22.44,2.35,2.22,2.35-2.22,23.67-22.44,0,0a17.1,17.1,0,1,0-26-21.5A17.1,17.1,0,0,0,750,409.76Z"/><path class="cls-4" d="M876.32,395.66l-21.76-15.14L832.8,395.66l5.68,33.51,3-9.6,9.73,39.87,7.57-35.94,5.13,13.24,3.79-27.57,1.89,17.29Zm-9.7,0,4,1.89-7.57,10L861.18,403l-8.38,17.84-4.32-17.59L844,413.49l-6.07-15.94,4.15-1.89L854.56,390Z"/><path class="cls-4" d="M912.93,411.93a12.56,12.56,0,0,0-.26,2.38A21.77,21.77,0,0,1,912.93,411.93Z"/><path class="cls-4" d="M938.37,414.31a12.56,12.56,0,0,0-.26-2.38A21.76,21.76,0,0,1,938.37,414.31Z"/><path class="cls-4" d="M938.38,414.52s0-.07,0-.21a21.76,21.76,0,0,0-.26-2.38.15.15,0,0,1,0,0c-.71-4.45-3.29-14.65-12.58-31.36-9.29,16.71-11.87,26.91-12.58,31.36a.14.14,0,0,0,0,0,21.77,21.77,0,0,0-.26,2.38c0,.07,0,.14,0,.21a12.86,12.86,0,0,0,25.71,0Z"/><path class="cls-4" d="M894.46,444a12.56,12.56,0,0,0-.26,2.38A21.77,21.77,0,0,1,894.46,444Z"/><path class="cls-4" d="M919.91,446.38a12.56,12.56,0,0,0-.26-2.38A21.76,21.76,0,0,1,919.91,446.38Z"/><path class="cls-4" d="M919.91,446.59s0-.07,0-.21a21.76,21.76,0,0,0-.26-2.38.15.15,0,0,1,0,0c-.71-4.45-3.29-14.65-12.58-31.36-9.29,16.71-11.87,26.91-12.58,31.36a.14.14,0,0,0,0,0,21.77,21.77,0,0,0-.26,2.38c0,.07,0,.14,0,.21a12.86,12.86,0,0,0,25.71,0Z"/><path class="cls-4" d="M1015.4,429.87a5.53,5.53,0,0,0-5.53-5.53h-18.5V386.06a5.53,5.53,0,0,0-11.07,0v38.28H961.8a5.53,5.53,0,0,0,0,11.07h18.5v18.5a5.53,5.53,0,0,0,11.07,0v-18.5h18.5A5.53,5.53,0,0,0,1015.4,429.87Z"/><path class="cls-4" d="M1037.11,380.52h35a1.72,1.72,0,0,1,1.52,2.55l-17.06,31.5a1.72,1.72,0,0,0,1.52,2.55h14.3a1.72,1.72,0,0,1,1.58,2.41l-17.15,39.57a.57.57,0,0,1-1.1-.3l4.4-29.23c.13-1-.33-1.9-1.37-1.9l-15.83,2.49a1.72,1.72,0,0,1-2.24-1.44l-5.32-46.46A1.72,1.72,0,0,1,1037.11,380.52Z"/><path class="cls-4" d="M1093.21,430.2a17.06,17.06,0,0,1,5.82-12.85l0,0,23.67-22.44,2.35-2.22,2.35,2.22,23.67,22.44,0,0a17.1,17.1,0,1,1-26,21.5,17.1,17.1,0,0,1-31.86-8.65Z"/><path class="cls-4" d="M1212.77,413.5l-1.89,17.29-3.79-27.57L1202,416.47l-7.57-35.94-9.73,39.87-3-9.6L1176,444.31l21.75,15.14,21.76-15.14Zm-15,36.48-12.47-5.68-4.15-1.89,6.07-15.94,4.47,10.29,4.32-17.59,8.38,17.84,1.89-4.59,7.57,10-4,1.89Z"/><path class="cls-4" d="M1256.14,428a12.56,12.56,0,0,1-.26-2.38A21.76,21.76,0,0,0,1256.14,428Z"/><path class="cls-4" d="M1281.58,425.65a12.56,12.56,0,0,1-.26,2.38A21.76,21.76,0,0,0,1281.58,425.65Z"/><path class="cls-4" d="M1281.58,425.44s0,.07,0,.21a21.76,21.76,0,0,1-.26,2.38.15.15,0,0,0,0,0c-.72,4.45-3.29,14.65-12.58,31.36-9.29-16.71-11.87-26.91-12.58-31.36a.14.14,0,0,1,0,0,21.76,21.76,0,0,1-.26-2.38c0-.07,0-.14,0-.21a12.86,12.86,0,0,1,25.71,0Z"/><path class="cls-4" d="M1237.67,396a12.56,12.56,0,0,1-.26-2.38A21.76,21.76,0,0,0,1237.67,396Z"/><path class="cls-4" d="M1263.11,393.59a12.56,12.56,0,0,1-.26,2.38A21.76,21.76,0,0,0,1263.11,393.59Z"/><path class="cls-4" d="M1263.12,393.38s0,.07,0,.21a21.76,21.76,0,0,1-.26,2.38.15.15,0,0,0,0,0c-.72,4.45-3.29,14.65-12.58,31.36-9.29-16.71-11.87-26.91-12.58-31.36a.14.14,0,0,1,0,0,21.76,21.76,0,0,1-.26-2.38c0-.07,0-.14,0-.21a12.86,12.86,0,0,1,25.71,0Z"/><path class="cls-4" d="M1358.6,410.09a5.53,5.53,0,0,1-5.53,5.53h-18.5v38.28a5.53,5.53,0,0,1-11.07,0V415.63H1305a5.53,5.53,0,0,1,0-11.07h18.5v-18.5a5.53,5.53,0,0,1,11.07,0v18.5h18.5A5.53,5.53,0,0,1,1358.6,410.09Z"/><path class="cls-4" d="M1382.59,459.44h35a1.72,1.72,0,0,0,1.52-2.55l-17.06-31.5a1.72,1.72,0,0,1,1.52-2.55h14.3a1.72,1.72,0,0,0,1.58-2.41l-17.15-39.57a.57.57,0,0,0-1.1.3l4.4,29.23c.13,1-.33,1.9-1.37,1.9l-15.83-2.49a1.72,1.72,0,0,0-2.24,1.44l-5.32,46.46A1.72,1.72,0,0,0,1382.59,459.44Z"/><path class="cls-4" d="M1438.7,409.76a17.06,17.06,0,0,0,5.82,12.85l0,0,23.67,22.44,2.35,2.22,2.35-2.22,23.67-22.44,0,0a17.1,17.1,0,1,0-26-21.5,17.1,17.1,0,0,0-31.86,8.65Z"/></g></svg>