<svg id="Layer_1" data-name="Layer 1" xmlns="http://www.w3.org/2000/svg" viewBox="0 0 520 520"><defs><style>.cls-1{fill:#ff9283;}.cls-2{fill:#fff;}</style></defs><title>MJlogo</title><circle cx="260" cy="260" r="260"/><circle class="cls-1" cx="260" cy="260" r="240.76"/><path class="cls-2" d="M302.43,185.83a78.84,78.84,0,0,1-.32,9.07L287.86,337c-1.94,17.16-5.18,21-19.43,21-16.83,0-27.2-4.53-27.52-12a14.51,14.51,0,0,1,.32-3.56l9.71-63.46a64.77,64.77,0,0,0,1.62-8.09l1.62-8.75,1.94-9.07c-4.53,8.42-6.47,12-8.42,16.51a68.88,68.88,0,0,0-4.21,8.42l-33.35,64.76c-6.8,12.63-10,15.22-20.4,15.22-7.12,0-17.16-2.59-21.7-5.83-3.56-2.27-4.86-4.53-4.86-10l-.32-40.8.32-12.63.32-13.6c.65-10.36.65-16.19.65-17.81v-6.16c-1.29,4.86-2.27,8.1-2.59,9.39L158,275.19l-3.56,14.57-3.88,15.55-10,38.2c-2.91,11-5.83,14.25-12.95,14.25-4.86,0-14.89-1.95-20.4-3.56-7.12-2.59-9.71-5.18-9.71-9.07,0-6.47,7.45-35.94,19.1-76.41l7.77-26.55,8.1-24.61c4.21-14.25,8.09-25.25,11.66-34,5.83-13.6,8.09-15.86,18.13-15.86,8.42,0,22,2.92,28.81,6.15,7.12,3.24,9.07,7.45,9.39,20.72l1.3,46.95v3.24c0,1,0,5.18-.32,11.66-.32,9.71-.65,15.54-1.62,28.17,6.8-16.19,11.33-26.88,13.6-32.38l15.86-32.38a417.21,417.21,0,0,1,23.63-41.44c5.51-8.09,8.42-10.36,13.92-10.36,6.15,0,18.13,2.59,24.93,5.18C299.84,176.76,302.43,179.68,302.43,185.83Z" transform="translate(-10.65 -10.65)"/><path d="M300.35,185.83a186.46,186.46,0,0,1-1.29,18.69l-3,29.69-3.9,38.9-3.69,36.78-2.38,23.73c-.13,1.28-.25,2.56-.39,3.84A46.79,46.79,0,0,1,283.34,349a9.56,9.56,0,0,1-4.32,5.28c-2.37,1.28-5.78,1.6-8.72,1.68a63,63,0,0,1-15.38-1.24c-3.36-.75-7.1-1.88-9.64-4.23a7.17,7.17,0,0,1-2-2.81,9,9,0,0,1-.07-4.61c1.42-8.1,2.49-16.27,3.73-24.4L252.28,284c.45-3,1.11-5.8,1.66-8.74.91-4.87,1.67-9.77,2.71-14.61l1.49-6.95c.47-2.21-2.63-3.77-3.8-1.6-1.76,3.28-3.55,6.55-5.25,9.86-1.23,2.38-2.18,5-3.54,7.28-1.78,3-3,6.23-4.61,9.31l-9.11,17.69L218.6,321.92,209.27,340c-1.25,2.43-2.55,4.84-4,7.17-2.65,4.27-5.57,7.64-10.57,8.48-6.45,1.08-13.49-.24-19.59-2.34a21.25,21.25,0,0,1-7.63-4.12c-2-1.86-2.18-4.45-2.2-7q-.09-9.92-.16-19.83c-.05-7-.21-13.92-.16-20.88,0-6,.3-12.09.45-18.13.21-8.95.84-17.88.84-26.84v-5.29a2.09,2.09,0,0,0-4.08-.55c-2,7.38-3.9,14.74-5.71,22.16l-3.88,15.88c-2.42,9.89-5,19.74-7.56,29.58l-5.7,21.7c-.6,2.27-1.16,4.55-1.89,6.78a19.25,19.25,0,0,1-3,6.23,6.66,6.66,0,0,1-4.11,2.45,20.78,20.78,0,0,1-6.28,0c-2.92-.31-5.82-.84-8.69-1.42a53.31,53.31,0,0,1-8.54-2.19c-2.23-.86-5-2-6.41-4a5,5,0,0,1-.8-3.61c0-.45.08-.9.14-1.35a1.53,1.53,0,0,1,0-.31c.05-.35.1-.69.16-1,.54-3.39,1.28-6.75,2-10.1,5-22,11.24-43.8,17.58-65.46,3.34-11.43,6.66-22.82,10.38-34.13q3.5-10.64,6.83-21.33c2-6.56,4.24-13.07,6.65-19.5,2-5.24,4-10.61,6.83-15.43,1.95-3.27,4-5.07,7.71-5.6,5-.72,10.73.06,15.81,1a67,67,0,0,1,16.5,4.78c3.51,1.66,5.77,3.73,6.85,7.48,1.63,5.69,1.28,12,1.44,17.9l.64,23.31c.15,5.58.34,11.15.46,16.73.18,8.25-.29,16.53-.7,24.76-.31,6.22-.76,12.43-1.24,18.63a2.06,2.06,0,0,0,1.8,2,2.13,2.13,0,0,0,2.28-1.49q4.65-11.08,9.32-22.15,1.53-3.63,3-7.27c.38-.9.74-1.8,1.12-2.7.14-.32-.21.45-.06.15l.16-.32c3.56-7.09,7-14.25,10.47-21.38,3.92-8,7.78-16,12.05-23.85q6.62-12.15,14-23.86c2.26-3.6,4.49-7.34,7.47-10.41a9.55,9.55,0,0,1,6.07-3.2,35.65,35.65,0,0,1,8.94.72,106.26,106.26,0,0,1,11,2.46,40.46,40.46,0,0,1,9.62,3.81c2.06,1.2,4.08,2.75,4.84,5a11.69,11.69,0,0,1,.5,3.64c0,2.67,4.18,2.68,4.16,0a13.23,13.23,0,0,0-2.25-7.91c-2-2.65-4.89-4.36-7.81-5.76a56.23,56.23,0,0,0-10.54-3.52,102.11,102.11,0,0,0-11.47-2.23,26.4,26.4,0,0,0-9.19-.09,14.36,14.36,0,0,0-7.29,4.63,75.89,75.89,0,0,0-7.91,11.18q-3.94,6.28-7.68,12.69c-5.73,9.81-10.91,19.89-15.91,30.09l-11.93,24.34c-1.29,2.63-2.36,5.34-3.49,8q-4.2,10-8.43,20L197.78,284l4.08.55a483.5,483.5,0,0,0,1.74-50.45q-.55-19.76-1.09-39.52c-.14-5.06-.27-10.53-2.43-15.21-1.81-3.91-5.28-6.2-9.12-7.85a76.28,76.28,0,0,0-17.79-4.86c-5.41-.89-11.13-1.59-16.59-.66a13.75,13.75,0,0,0-9.33,6.49c-3.19,4.86-5.25,10.55-7.32,16-3.9,10.22-6.92,20.69-10.34,31.07l-6.86,20.86c-1.55,4.7-2.82,9.49-4.21,14.23-6.16,21.06-12.25,42.16-17.62,63.44-2,7.82-4.09,15.72-5.2,23.71-.46,3.33-.48,6.52,1.9,9.23,3.91,4.45,10.7,5.79,16.22,6.94,5.37,1.12,11.33,2.51,16.83,1.64,4.46-.7,7.46-3.78,9.26-7.78,2.57-5.73,3.81-12.24,5.4-18.3,3.18-12.11,6.41-24.22,9.44-36.37,2.86-11.44,5.64-22.9,8.44-34.36.9-3.69,2-7.34,3-11l-4.08-.55c0,3.18,0,6.37,0,9.55-.1,5.48-.54,11-.67,16.43q-.27,11.19-.55,22.38c-.14,5.71,0,11.43.07,17.14l.19,24.53c0,4.48.58,8.73,4.33,11.66,5.54,4.33,12.94,6.12,19.79,6.93,5.33.64,11.72.68,16.39-2.37s7.75-8.7,10.33-13.61c2.24-4.26,4.41-8.56,6.61-12.84l13.13-25.51,11.21-21.77c.77-1.5,1.57-3,2.31-4.49,2.48-5.07,4.85-10.18,7.44-15.19,1.71-3.31,3.49-6.58,5.25-9.86l-3.8-1.6c-.93,4.34-1.87,8.67-2.68,13-.6,3.22-1.1,6.47-1.74,9.68-.27,1.35-.68,2.66-.89,4l-4.6,30.08-4.79,31.26a36,36,0,0,0-.59,4.62,10.69,10.69,0,0,0,3.88,8.45,25,25,0,0,0,10.74,4.89,67,67,0,0,0,16,1.49c6.39-.09,13.17-1.18,16.6-7.23,2.74-4.83,3.35-10.84,3.91-16.26.59-5.76,1.16-11.52,1.73-17.28l3.47-34.61,4-40,3.41-34q.79-7.88,1.58-15.75c.3-3.07.34-6.13.34-9.2C304.51,183.15,300.35,183.15,300.35,185.83Z" transform="translate(-10.65 -10.65)"/><path d="M322.83,206.87c0,1.62,0,1.62-.65,7.77L306.64,362.93c-1,12-5.83,16.19-18.46,16.19-13.27,0-20.72-1.94-27.2-6.8L244.15,360c-3.88-3.24-6.15-5.51-7.77-8.1L226,370.7c-3.88,6.8-7.45,8.42-17.48,8.42A41.84,41.84,0,0,1,180,368.76l-16.51-13.92-4.21,12.63c-2.59,8.75-5.5,11.66-12.3,11.66-11.66,0-24.29-3.88-31.73-9.71L97.48,355.49a13.54,13.54,0,0,1-5.18-10.36c0-3.56.65-7.12,5.51-26.55,9.71-39.18,27.52-98.43,37.24-124.33,10-28.17,12.95-31.41,27.52-31.41,19.42,0,35.94,6.15,41.76,15.54L216,196.51c3.24,4.86,3.56,6.15,4.21,16.84l1,10,15.22-27.2c14.9-26.87,20.72-33,30.76-33,6.47,0,18.46,2.27,26.55,5.18,6.16,1.94,9.71,4.53,12.31,8.42l14.57,22.66A13.32,13.32,0,0,1,322.83,206.87Zm-20.72-12a78.84,78.84,0,0,0,.32-9.07c0-6.15-2.59-9.07-10.69-12.63-6.8-2.59-18.78-5.18-24.93-5.18-5.5,0-8.42,2.27-13.92,10.36a417.21,417.21,0,0,0-23.63,41.44L213.39,252.2c-2.27,5.5-6.8,16.19-13.6,32.38,1-12.63,1.3-18.46,1.62-28.17.32-6.47.32-10.68.32-11.66v-3.24l-1.3-46.95c-.32-13.27-2.27-17.48-9.39-20.72-6.8-3.24-20.4-6.15-28.81-6.15-10,0-12.31,2.27-18.13,15.86-3.56,8.74-7.45,19.75-11.66,34l-8.1,24.61-7.77,26.55c-11.66,40.47-19.1,69.93-19.1,76.41,0,3.88,2.59,6.47,9.71,9.07,5.51,1.62,15.54,3.56,20.4,3.56,7.12,0,10-3.24,12.95-14.25l10-38.2,3.88-15.55L158,275.19l3.56-14.57c.32-1.29,1.3-4.53,2.59-9.39v6.16c0,1.62,0,7.44-.65,17.81l-.32,13.6-.32,12.63.32,40.8c0,5.51,1.3,7.77,4.86,10,4.53,3.24,14.57,5.83,21.7,5.83,10.36,0,13.6-2.59,20.4-15.22L243.5,278.1a68.88,68.88,0,0,1,4.21-8.42c1.95-4.53,3.89-8.09,8.42-16.51l-1.94,9.07L252.57,271a64.77,64.77,0,0,1-1.62,8.09l-9.71,63.46a14.51,14.51,0,0,0-.32,3.56c.32,7.44,10.69,12,27.52,12,14.25,0,17.49-3.88,19.43-21Z" transform="translate(-10.65 -10.65)"/><path d="M320.75,206.87a113,113,0,0,1-1.06,11.66l-1.76,16.8-2.7,25.81-3.16,30.12-3.13,29.87-2.58,24.64-1.56,14.85c-.56,5.3-.95,11.55-5.89,14.38a17.55,17.55,0,0,1-7.53,1.92,73.74,73.74,0,0,1-12-.27A33.94,33.94,0,0,1,262,370.53l-8.31-6.07c-2.83-2.07-5.78-4-8.52-6.22a31.84,31.84,0,0,1-7-7.36,2.1,2.1,0,0,0-3.59,0l-6.81,12.35c-1.1,2-2.2,4-3.31,6a15.74,15.74,0,0,1-4.56,5.67c-3.08,2.06-7.11,2.11-10.69,2.14a43.79,43.79,0,0,1-15.14-2.36c-6.35-2.26-11.4-6.41-16.47-10.68L165,353.37a2.11,2.11,0,0,0-3.47.92l-4,12.1c-.89,2.68-1.62,5.52-3.37,7.8s-4.19,2.83-6.93,2.86a53.65,53.65,0,0,1-27.31-7,37.19,37.19,0,0,1-4.63-3.25l-5.67-4.43c-3.5-2.74-7-5.44-10.51-8.22a11.75,11.75,0,0,1-4.7-9.09c0-.54,0-1.09.06-1.63,0-.29,0-.57.08-.86s0-.29,0-.43c.07-.59-.06.36,0-.25.91-5.69,2.38-11.29,3.75-16.87q3.13-12.71,6.5-25.36,7.05-26.3,15-52.35c4.57-15.09,9.28-30.16,14.51-45,2.56-7.28,5.1-14.61,8.09-21.72a59.8,59.8,0,0,1,4.05-8.18,17.78,17.78,0,0,1,3.92-4.68l.36-.26.59-.39a14.26,14.26,0,0,1,1.31-.7c.43-.21-.11,0,.23-.1l.66-.24c.46-.16.92-.29,1.4-.4s1-.21,1.49-.3l.39-.06h-.06l.92-.1c1.2-.11,2.4-.16,3.61-.18a73.09,73.09,0,0,1,27,4.31c5.6,2.13,11.07,5.36,14.36,10.5q3.87,6,7.75,12.06l3.33,5.19a34.63,34.63,0,0,1,2.63,4.41c1,2.34,1.23,5.5,1.43,8.2s.39,5.21.64,7.81l.58,6c.19,1.92,2.79,3,3.87,1l11.72-21c5.44-9.73,10.58-19.78,17.28-28.71,2.6-3.46,5.38-6.56,9.08-8.34l.38-.17.39-.14c.4-.14.8-.27,1.2-.38s.76-.19,1.14-.26l.58-.1h.06l.23,0a39.94,39.94,0,0,1,7.94.31A99.94,99.94,0,0,1,285.1,168a65.09,65.09,0,0,1,11.69,3.77,17.53,17.53,0,0,1,7.41,6.09c.54.82,1.06,1.65,1.59,2.47,4.37,6.8,8.92,13.51,13.12,20.41a11.91,11.91,0,0,1,1.84,6.17c0,2.67,4.2,2.68,4.16,0-.08-5.06-2.75-8.81-5.35-12.86l-8.47-13.17c-2.07-3.21-4-6.77-6.9-9.3-3.17-2.74-7-4.19-10.87-5.53a96.09,96.09,0,0,0-12.53-3.28c-5.81-1.15-12.32-2.49-18.23-1.18a20.54,20.54,0,0,0-10.12,6.22c-4.59,4.78-8.13,10.6-11.51,16.26-2.74,4.6-5.33,9.29-7.95,14L219.7,221.73l-.34.6,3.87,1c-.48-5-.89-10-1.31-15a27.07,27.07,0,0,0-1.88-9.05,36.3,36.3,0,0,0-2.74-4.61l-8.37-13-2.77-4.31a25.81,25.81,0,0,0-6.31-6.67c-7-5.27-16-7.83-24.54-9.06a89,89,0,0,0-14.24-.91,33.46,33.46,0,0,0-7.22.77c-4.58,1.11-8,4.11-10.5,8-4.21,6.45-6.7,14.12-9.29,21.3q-7.75,21.44-14.5,43.2-8.37,26.88-15.86,54-3.54,12.8-6.82,25.67c-2,7.77-4,15.55-5.63,23.4-.82,4-1.62,8.25-.37,12.24,1.71,5.47,6.19,8.4,10.44,11.73l12,9.37a51.15,51.15,0,0,0,21.57,9.46c4.61.93,9.68,1.69,14.38,1.14a11.62,11.62,0,0,0,8.38-4.68c1.93-2.61,2.84-5.76,3.84-8.8.77-2.35,1.57-4.7,2.35-7.05l1.72-5.15-3.47.92L173.52,366c5.14,4.33,10.16,8.78,16.39,11.5a45.25,45.25,0,0,0,15.65,3.65c4.4.25,9.39.33,13.58-1.23,5.54-2.06,8.11-7.12,10.79-12L238.17,353h-3.59c2.77,4.34,6.83,7.61,10.94,10.61L257.09,372a46,46,0,0,0,10.57,6.31c7,2.7,15.18,3.13,22.64,2.81,5.68-.24,11.56-1.6,15-6.5,2.45-3.48,3-7.82,3.44-11.94.34-3.44.72-6.87,1.08-10.31l2.32-22.18L315.21,301l3.25-31,2.94-28,2.1-20.08q.52-5,1-9.92a48.69,48.69,0,0,0,.36-5C324.91,204.2,320.75,204.19,320.75,206.87Z" transform="translate(-10.65 -10.65)"/><path d="M304.19,194.89a52.76,52.76,0,0,0,.2-11.23,11.93,11.93,0,0,0-3.89-7.7c-5.61-5-13.76-6.82-20.91-8.33A75.46,75.46,0,0,0,268.44,166a14.93,14.93,0,0,0-8.56,1.66c-3.18,1.86-5.48,5-7.58,7.94-3,4.21-5.64,8.7-8.31,13.13-6.77,11.21-12.93,22.72-18.69,34.48l-12.43,25.37c-1.28,2.6-2.38,5.26-3.5,7.93q-4.31,10.29-8.66,20.57l-2.93,7,4.08.55a483.5,483.5,0,0,0,1.74-50.45q-.55-19.76-1.09-39.52c-.14-5.06-.27-10.53-2.43-15.21-1.81-3.91-5.28-6.2-9.12-7.85a76.28,76.28,0,0,0-17.79-4.86c-5.41-.89-11.13-1.59-16.59-.66a13.75,13.75,0,0,0-9.33,6.49c-3.19,4.86-5.25,10.55-7.32,16-3.9,10.22-6.92,20.69-10.34,31.07l-6.86,20.86c-1.55,4.7-2.82,9.49-4.21,14.23-6.16,21.06-12.25,42.16-17.62,63.44-2,7.82-4.09,15.72-5.2,23.71-.46,3.33-.48,6.52,1.9,9.23,3.91,4.45,10.7,5.79,16.22,6.94,5.37,1.12,11.33,2.51,16.83,1.64,4.46-.7,7.46-3.78,9.26-7.78,2.57-5.73,3.81-12.24,5.4-18.3,3.18-12.11,6.41-24.22,9.44-36.37,2.86-11.44,5.64-22.9,8.44-34.36.9-3.69,2-7.34,3-11l-4.08-.55c0,3.18,0,6.37,0,9.55-.1,5.48-.54,11-.67,16.43q-.27,11.19-.55,22.38c-.14,5.71,0,11.43.07,17.14l.19,24.53c0,4.48.58,8.73,4.33,11.66,5.54,4.33,12.94,6.12,19.79,6.93,5.33.64,11.72.68,16.39-2.37s7.75-8.7,10.33-13.61c2.24-4.26,4.41-8.56,6.61-12.84l13.13-25.51,11.21-21.77c.77-1.5,1.57-3,2.31-4.49,2.48-5.07,4.85-10.18,7.44-15.19,1.71-3.31,3.49-6.58,5.25-9.86l-3.8-1.6c-.91,4.25-1.84,8.5-2.63,12.77-.57,3.06-1.06,6.14-1.64,9.19-.3,1.56-.78,3.07-1,4.64l-4.46,29.12-4.86,31.75c-.1.63-.18,1.27-.29,1.9-.67,3.92-.45,7.39,2.2,10.51,2.33,2.75,5.88,4.35,9.25,5.41a55.53,55.53,0,0,0,14.79,2.2c6.47.22,14.75.35,19.24-5.21,3.94-4.88,4.61-12,5.24-18,.54-5.08,1-10.16,1.53-15.24l3.3-32.94,4-39.44,3.49-34.82,1.88-18.74.08-.85a2.09,2.09,0,0,0-2.08-2.08,2.12,2.12,0,0,0-2.08,2.08l-1.28,12.76-3.11,31-3.87,38.57-3.57,35.61L286,334.6c-.22,2.21-.45,4.41-.79,6.6-.52,3.31-1.17,6.88-2.81,9.72a8.69,8.69,0,0,1-5,4.06c-3.34,1.08-7,1.06-10.45,1a54,54,0,0,1-14.82-2c-2.86-.87-6.16-2.34-7.85-4.57-1.49-2-1.48-3.86-1-6.47,1.52-8.49,2.62-17.09,3.92-25.62l5.16-33.68c.48-3.12,1.2-6.12,1.76-9.23.82-4.59,1.58-9.2,2.55-13.77l1.49-6.95c.47-2.21-2.63-3.77-3.8-1.6-1.76,3.28-3.55,6.55-5.25,9.86-1.23,2.38-2.18,5-3.54,7.28-1.78,3-3,6.23-4.61,9.31l-9.11,17.69L218.6,321.92,209.27,340c-1.25,2.43-2.55,4.84-4,7.17-2.65,4.27-5.57,7.64-10.57,8.48-6.45,1.08-13.49-.24-19.59-2.34a21.25,21.25,0,0,1-7.63-4.12c-2-1.86-2.18-4.45-2.2-7q-.09-9.92-.16-19.83c-.05-7-.21-13.92-.16-20.88,0-6,.3-12.09.45-18.13.21-8.95.84-17.88.84-26.84v-5.29a2.09,2.09,0,0,0-4.08-.55c-2,7.38-3.9,14.74-5.71,22.16l-3.88,15.88c-2.42,9.89-5,19.74-7.56,29.58l-5.7,21.7c-.6,2.27-1.16,4.55-1.89,6.78a19.25,19.25,0,0,1-3,6.23,6.66,6.66,0,0,1-4.11,2.45,20.78,20.78,0,0,1-6.28,0c-2.92-.31-5.82-.84-8.69-1.42a53.31,53.31,0,0,1-8.54-2.19c-2.23-.86-5-2-6.41-4a5,5,0,0,1-.8-3.61c0-.45.08-.9.14-1.35a1.53,1.53,0,0,1,0-.31c.05-.35.1-.69.16-1,.54-3.39,1.28-6.75,2-10.1,5-22,11.24-43.8,17.58-65.46,3.34-11.43,6.66-22.82,10.38-34.13q3.5-10.64,6.83-21.33c2-6.56,4.24-13.07,6.65-19.5,2-5.24,4-10.61,6.83-15.43,1.95-3.27,4-5.07,7.71-5.6,5-.72,10.73.06,15.81,1a67,67,0,0,1,16.5,4.78c3.51,1.66,5.77,3.73,6.85,7.48,1.63,5.69,1.28,12,1.44,17.9l.64,23.31c.15,5.58.34,11.15.46,16.73.18,8.25-.29,16.53-.7,24.76-.31,6.22-.76,12.43-1.24,18.63a2.06,2.06,0,0,0,1.8,2,2.13,2.13,0,0,0,2.28-1.49q4.78-11.39,9.59-22.78,1.53-3.65,3.06-7.29l.58-1.4c.12-.3.47-1,.17-.43l.33-.67,11.29-23c4.51-9.21,9.05-18.37,14.1-27.31q3.57-6.33,7.35-12.53c2.62-4.32,5.21-8.71,8.2-12.79,1.7-2.33,3.74-5,6.48-6.16,2.49-1,5.43-.66,8-.37a88.74,88.74,0,0,1,11,2.07,53.34,53.34,0,0,1,10.36,3.31c2.52,1.21,5.44,2.64,6.91,5.14s1.12,5.74,1.08,8.56q0,2.73-.31,5.44a2.09,2.09,0,0,0,2.08,2.08A2.12,2.12,0,0,0,304.19,194.89Z" transform="translate(-10.65 -10.65)"/><path class="cls-2" d="M428.62,181.29c0,1.94-.32,3.56-2.27,10.68l-26.22,97.78c-7.77,28.82-11.33,37.24-17.81,46-11.33,14.25-26.55,21.7-45.65,21.7-31.41,0-52.13-17.49-52.13-43.71,0-9.71,2.27-22.34,6.8-35.29,3.24-9.07,5.83-11,14.57-11,8.09,0,17.81,1,23,2.59,4.53,1.29,6.47,3.56,6.47,6.8a20.48,20.48,0,0,1-1.3,6.8l-3.56,13.27a53,53,0,0,0-1.94,10,7.4,7.4,0,0,0,7.45,7.77c7.44,0,10.68-5.83,15.22-26.22a77.18,77.18,0,0,1,2.27-8.74l25.9-95.19c4.21-15.22,6.15-17.16,16.19-17.16C415.34,167.37,428.62,172.88,428.62,181.29Z" transform="translate(-10.65 -10.65)"/><path d="M426.54,181.29c0,.34,0,.68,0,1,0,.18,0,.37-.05.55s0-.11,0-.13c0,.15,0,.31-.07.46-.23,1.29-.55,2.56-.87,3.83-.4,1.58-.84,3.15-1.26,4.73L423,196.48,417,218.66l-8,29.92-7.25,27L398.17,289c-1.74,6.49-3.54,13-5.54,19.39a124.77,124.77,0,0,1-5.75,15.65,54.3,54.3,0,0,1-22.74,24.64c-13.35,7.4-30,8.34-44.62,4.65-12.14-3.06-23.23-10.2-28.92-21.64-6.75-13.59-3.87-30,0-44a71.6,71.6,0,0,1,4.33-12.63c1-2.05,2.34-3.9,4.23-4.69,2.78-1.15,6.09-.93,9-.87a106.18,106.18,0,0,1,13.27,1c3.23.48,7.41.91,10.13,2.89s1.69,5.87.84,8.57c-1.25,4-2.24,8.05-3.32,12.08-.55,2-1.1,4.07-1.57,6.13-.82,3.64-1.71,7.47-.13,11,2.38,5.35,9.07,6.82,14,4.28,4.18-2.14,6.22-7,7.7-11.21a107,107,0,0,0,3.09-10.9c1-4.07,1.67-8.26,3-12.24,1.22-3.77,2.15-7.64,3.19-11.46l7.05-25.92,8.18-30,6.24-22.92,1.44-5.28c1.09-4,2.09-8.24,4.11-11.87a8.27,8.27,0,0,1,1.6-2.2,6,6,0,0,1,1.86-1.24,17,17,0,0,1,6.15-.81c7.8-.07,16,.56,23.36,3.48a17.64,17.64,0,0,1,6.12,3.8,6.53,6.53,0,0,1,2.06,4.56c0,2.67,4.19,2.68,4.16,0-.07-5.44-4.4-9.23-9-11.4-7.14-3.37-15.33-4.33-23.13-4.56-5-.15-11-.48-14.74,3.44a19.94,19.94,0,0,0-3.86,6.9c-1,2.73-1.83,5.54-2.6,8.35-1.19,4.32-2.35,8.64-3.53,13l-7.52,27.65L358.08,255l-5.71,21c-.29,1.07-.55,2.17-.88,3.23-2.37,7.55-3.49,15.43-6,23a29.31,29.31,0,0,1-3.17,7,9.72,9.72,0,0,1-1.65,1.91c-.1.09-.51.42-.19.18-.18.14-.37.27-.57.39l-.44.25-.3.15c-.35.18.2-.07,0,0a8.44,8.44,0,0,1-1.12.35l-.59.12s-.33.05-.07,0-.19,0-.25,0a6.66,6.66,0,0,1-3.61-.54c-3.13-1.62-3-5.14-2.49-8.14.91-4.9,2.37-9.73,3.66-14.54.46-1.71.86-3.45,1.38-5.14,1.07-3.46,2.21-7.54.59-11-1.53-3.28-5.16-4.67-8.43-5.53a72.78,72.78,0,0,0-12-1.85,85,85,0,0,0-12.92-.39,14.42,14.42,0,0,0-7.85,2.38c-2.42,1.81-3.83,4.47-5,7.2a100.67,100.67,0,0,0-4.39,13.62c-2.21,8.53-3.81,17.49-3.58,26.33a42.89,42.89,0,0,0,16.68,33.36c11.67,8.93,27.24,11.92,41.66,11.07A60.33,60.33,0,0,0,364,353.46,58.05,58.05,0,0,0,382.31,339c6.51-7.63,10.27-16.94,13.35-26.38,2.8-8.59,5.14-17.32,7.48-26l5.72-21.33L417,234.88l7.5-28q1.9-7.08,3.8-14.15c1-3.7,2.39-7.59,2.4-11.47C430.71,178.62,426.55,178.61,426.54,181.29Z" transform="translate(-10.65 -10.65)"/><path d="M449,202a25.59,25.59,0,0,1-1.29,7.12L417.61,319.22c-6.47,24-10.36,32.37-19.1,42.09-10.36,11.33-25.9,17.48-43.71,17.48-13.6,0-24.61-3.24-34.64-10.36l-19.43-13.92C286.15,344.47,279,331.2,279,314c0-10.69,4.21-30.76,8.42-40.8,3.56-8.1,8.74-11,20.07-11,18.78,0,27.2,2.92,34.32,12L347,281l24.28-86.77c6.15-21.37,6.15-21.37,8.42-24.61,3.88-5.51,8.74-7.45,17.81-7.45,14.57,0,29.79,4.86,33.67,11l15.86,23C448.37,198.45,449,200.07,449,202Zm-22.66-10c1.94-7.12,2.27-8.74,2.27-10.68,0-8.42-13.27-13.92-33-13.92-10,0-12,1.94-16.19,17.16l-25.9,95.19a77.18,77.18,0,0,0-2.27,8.74c-4.53,20.4-7.77,26.22-15.22,26.22a7.4,7.4,0,0,1-7.45-7.77,53,53,0,0,1,1.94-10l3.56-13.27a20.48,20.48,0,0,0,1.3-6.8c0-3.24-1.94-5.51-6.47-6.8-5.18-1.62-14.9-2.59-23-2.59-8.74,0-11.33,1.94-14.57,11-4.53,13-6.8,25.58-6.8,35.29,0,26.22,20.72,43.71,52.13,43.71,19.1,0,34.32-7.45,45.65-21.7,6.48-8.74,10-17.16,17.81-46Z" transform="translate(-10.65 -10.65)"/><path d="M446.94,202c0,3.16-1.13,6.26-2,9.3l-2.89,10.56-9.67,35.36-10.57,38.64-6,22c-3.67,13.43-7.18,27.75-16.11,38.8A51.34,51.34,0,0,1,376.94,373a67.41,67.41,0,0,1-33.09,2.88,55.5,55.5,0,0,1-23.66-10l-14.77-10.58c-5.55-4-11-7.94-15.28-13.38a44.4,44.4,0,0,1-9-26.65c-.2-9.66,1.89-19.53,4.28-28.84a74.2,74.2,0,0,1,4.13-12.79c1.54-3.31,3.71-6.18,7.12-7.68,4.19-1.85,9.07-1.72,13.54-1.65a69.81,69.81,0,0,1,14.7,1.46,27.35,27.35,0,0,1,9.79,4.24,30.1,30.1,0,0,1,6,6l4.58,6c1,1.36,3.28,1.37,3.8-.5l7.33-26.21,12.58-44.95c3-10.7,5.89-21.45,9.18-32.07.39-1.26.79-2.52,1.25-3.75l.25-.65c.21-.55-.18.38,0-.12.16-.35.32-.69.5-1a17.15,17.15,0,0,1,4.36-5.33c4.4-3.44,10.67-3.37,16-3.14a63.19,63.19,0,0,1,19.93,4c3.43,1.33,7.1,3.16,9.2,6.22,1.45,2.13,2.92,4.24,4.39,6.36,3.7,5.37,7.54,10.66,11.12,16.11a9.73,9.73,0,0,1,1.82,5c.06,2.67,4.22,2.68,4.16,0-.08-3.5-1.83-6.31-3.74-9.07l-6.19-9-6.35-9.21a26,26,0,0,0-4.53-5.65c-4.6-3.78-10.61-5.79-16.34-7.12a64.1,64.1,0,0,0-21.53-1.63c-5.23.61-10,2.53-13.34,6.7a21.21,21.21,0,0,0-3,4.64,67.11,67.11,0,0,0-2.74,8.06q-2.09,7-4.07,14c-.9,3.17-1.77,6.34-2.66,9.5l-12.34,44.09-5.93,21.17c-1.06,3.78-2.28,7.56-3.19,11.39,0,.17-.1.34-.14.51l3.8-.5c-3.61-4.73-7-9.82-11.82-13.36-7.31-5.33-16.88-6.18-25.64-6.4-5-.13-10.42-.24-15.21,1.53a17.37,17.37,0,0,0-9,7.53c-2.31,3.84-3.61,8.35-4.83,12.63a158.76,158.76,0,0,0-3.58,15.67c-1.75,9.87-2.69,19.89-.25,29.74a48,48,0,0,0,16,25.09c4.5,3.78,9.52,7,14.3,10.47s9.19,6.92,14.09,9.85c9.92,5.93,21.33,8.29,32.81,8.15,11.24-.14,22.59-2.72,32.32-8.46a56.39,56.39,0,0,0,18.63-18.28c4.63-7.23,7.44-15.49,9.9-23.65,2.38-7.88,4.45-15.86,6.62-23.79l10-36.47L443.91,231c1.91-7,3.8-14,5.74-21a31,31,0,0,0,1.44-8C451.12,199.34,447,199.34,446.94,202Z" transform="translate(-10.65 -10.65)"/><path d="M428.35,192.53c1.31-4.83,3.62-10.58,1.37-15.47-2.39-5.2-8.56-7.81-13.7-9.3a63.75,63.75,0,0,0-11.8-2.09,71.77,71.77,0,0,0-11.82-.28,14.27,14.27,0,0,0-6.59,1.78,12.49,12.49,0,0,0-4.37,5.1c-2.81,5.55-4.1,11.9-5.73,17.89L369.22,214l-8.37,30.75-7,25.62c-1.28,4.7-2.76,9.41-3.88,14.15-1.73,7.38-3,15.32-6.33,22.2a19.34,19.34,0,0,1-1.71,2.91,9.1,9.1,0,0,1-.69.81c-.23.24-.84.79-.86.81a6.74,6.74,0,0,1-3.84,1.31,5.42,5.42,0,0,1-5.9-4.89,16,16,0,0,1,.54-4.86c.37-1.83.82-3.64,1.3-5.44l3.23-12c.73-2.73,1.63-5.36,1.69-8.23a8.47,8.47,0,0,0-4.82-7.91c-3.4-1.73-7.4-2.33-11.14-2.84a116.63,116.63,0,0,0-13.76-1c-3.14-.05-6.55-.13-9.55,1a11.74,11.74,0,0,0-6,5.06c-2.12,3.45-3.31,7.54-4.49,11.37a127.74,127.74,0,0,0-3.58,14.44c-1.45,7.86-2.3,16-1.11,23.93a41.54,41.54,0,0,0,6.86,17.53c7.82,11.25,20.63,17.62,33.91,19.8,15.77,2.59,32.62.56,46.13-8.43a59,59,0,0,0,21.48-26c4.74-11,7.77-22.75,10.87-34.29l4.15-15.46,7.64-28.49,8.07-30.1,5.44-20.29.78-2.9c.69-2.59-3.32-3.69-4-1.11l-3,11-7,26.06-8.08,30.13L400,282.23c-1.7,6.32-3.38,12.65-5.19,18.93-3,10.37-6,21-11.89,30.09A53.06,53.06,0,0,1,349.81,354a67.38,67.38,0,0,1-23.56.65,56,56,0,0,1-19.35-6.23A38.72,38.72,0,0,1,287,319.87c-1.08-7.68,0-15.69,1.46-23.23a130.37,130.37,0,0,1,3.74-14.3c1.05-3.27,2.07-7,4.19-9.75a7.62,7.62,0,0,1,5.44-2.89,56.26,56.26,0,0,1,11.29,0,83.68,83.68,0,0,1,12.27,1.53c2.56.55,6.64,1.22,7.66,4.06.94,2.59-.43,5.74-1.12,8.21-.56,2-1.08,4-1.62,6a129.62,129.62,0,0,0-3.59,14.92c-.51,3.53,0,7.18,2.75,9.73a10.2,10.2,0,0,0,8.72,2.38c4.09-.62,6.94-3.63,8.77-7.16,3.39-6.54,4.8-14.07,6.44-21.18.71-3.08,1.58-6.1,2.41-9.14l4.63-17,7.78-28.59,7.86-28.88L381,186.68c.74-2.73,1.49-5.47,2.4-8.15a32.38,32.38,0,0,1,1.55-3.93,15.81,15.81,0,0,1,1.52-2.51,5.2,5.2,0,0,1,1.88-1.56,2.82,2.82,0,0,1,.92-.4,13.1,13.1,0,0,1,1.51-.38,21.28,21.28,0,0,1,3.1-.27c2-.06,4,0,5.94.06A69.43,69.43,0,0,1,412,171c4.92,1.1,11.35,3,13.85,7.55a7.66,7.66,0,0,1,.66,2.07,11.46,11.46,0,0,1-.07,2.29,8.57,8.57,0,0,0-.18,1c-.12.6-.26,1.21-.41,1.8-.46,1.91-1,3.81-1.5,5.71C423.64,194,427.65,195.11,428.35,192.53Z" transform="translate(-10.65 -10.65)"/></svg>